<svg width="24" height="24" viewBox="0 0 24 24" fill="none" xmlns="http://www.w3.org/2000/svg">
<rect width="24" height="24" rx="4" fill="#D9327C"/>
<path fill-rule="evenodd" clip-rule="evenodd" d="M11.5357 6.32904C11.4389 6.40646 11.3228 6.54194 11.2454 6.79355C11.1679 7.04517 10.7421 8.28388 10.2002 9.83226H13.8196C13.2776 8.28388 12.8518 7.04517 12.7744 6.79355C12.697 6.54194 12.5808 6.40646 12.4841 6.32904C12.3873 6.25162 12.2518 6.19355 12.0002 6.19355C11.7486 6.19355 11.6325 6.25162 11.5357 6.32904ZM6.19367 9.83227H8.65173C9.25173 8.07098 9.77431 6.60001 9.85173 6.32904C10.0066 5.86452 10.2582 5.45807 10.6453 5.16775C11.0324 4.87743 11.4969 4.74194 11.9808 4.74194C12.4646 4.74194 12.9292 4.85807 13.3162 5.16775C13.7033 5.45807 13.955 5.86452 14.1098 6.32904C14.2066 6.60001 14.7098 8.05162 15.3098 9.83227H17.8066C18.213 9.83227 18.5421 10.1613 18.5421 10.5677C18.5421 10.9742 18.213 11.3032 17.8066 11.3032H15.8517H14.3227H9.69689H8.16786H6.19367C5.78722 11.3032 5.47754 10.9742 5.47754 10.5677C5.47754 10.1613 5.80657 9.83227 6.19367 9.83227ZM6.19367 12.7355C5.78722 12.7355 5.47754 13.0645 5.47754 13.471C5.47754 13.8774 5.80657 14.2065 6.19367 14.2065H7.16141L6.77431 15.329L6.38722 16.4516L6.23238 16.8774C6.09689 17.2645 6.3098 17.671 6.67754 17.8065C7.06464 17.9419 7.47109 17.729 7.60657 17.3613L7.76141 16.9355L8.14851 15.8129C8.30335 15.3484 8.49689 14.8065 8.7098 14.2065H15.3292C15.5227 14.7871 15.7162 15.3484 15.8904 15.8129L16.2775 16.9355L16.4324 17.3613C16.5679 17.7484 16.9743 17.9419 17.3614 17.8065C17.7485 17.671 17.9421 17.2645 17.8066 16.8774L17.6517 16.4516L17.2646 15.329L16.8775 14.2065H17.8453C18.2517 14.2065 18.5808 13.8774 18.5808 13.471C18.5808 13.0645 18.2517 12.7355 17.8453 12.7355H16.3743H14.8453H9.23238H7.70335H6.19367ZM17.0908 17.0904L17.7682 16.8582C17.7682 16.8582 17.7682 16.8582 17.0908 17.0904ZM17.0905 17.0903C16.4131 17.3226 16.4131 17.3226 16.4131 17.3226L17.0905 17.0903ZM6.92871 17.0903L7.60613 17.3226C7.60613 17.3226 7.60613 17.3226 6.92871 17.0903ZM6.92937 17.0904C6.25195 16.8582 6.25195 16.8582 6.25195 16.8582L6.92937 17.0904Z" fill="white"/>
</svg>
