<svg width="24" height="24" viewBox="0 0 24 24" fill="none" xmlns="http://www.w3.org/2000/svg">
<rect width="24" height="24" rx="4" fill="#1E1E1E"/>
<path opacity="0.4" d="M18.8269 14.5062C19.2427 15.2196 19.2445 16.1012 18.8316 16.8164C18.4187 17.5315 17.6544 17.9708 16.8286 17.9674C16.0028 17.964 15.242 17.5186 14.835 16.8001L10.0038 8.43272C9.37028 7.33038 9.75033 5.92319 10.8527 5.28968C11.955 4.65616 13.3622 5.03622 13.9957 6.13856L18.8269 14.5062Z" fill="#4BDB4B"/>
<path opacity="0.8" d="M9.16607 16.8C8.52839 17.8936 7.12751 18.2673 6.02987 17.6366C4.93223 17.0059 4.54957 15.6075 5.17319 14.5058L10.0039 6.1387C10.4092 5.41652 11.1711 4.96765 11.9992 4.96317C12.8273 4.95869 13.594 5.3993 14.0071 6.11704C14.4202 6.83479 14.416 7.71909 13.9961 8.43286L9.16607 16.8Z" fill="#4BDB4B"/>
<path d="M13.9825 6.11549C13.9558 6.07013 13.927 6.02669 13.8978 5.98373C13.8836 5.96309 13.8702 5.94197 13.8553 5.92181C13.8267 5.88269 13.796 5.84573 13.7653 5.80901C13.7466 5.78645 13.7286 5.76341 13.7089 5.74157C13.681 5.71085 13.6518 5.68229 13.6227 5.65325C13.5937 5.62421 13.5718 5.60189 13.545 5.57741C13.5181 5.55293 13.4926 5.53325 13.4662 5.51141C13.4331 5.48405 13.4002 5.45645 13.3652 5.43077C13.3412 5.41301 13.316 5.39693 13.2913 5.38037C13.2524 5.35397 13.2133 5.32781 13.1713 5.30357C13.1626 5.29853 13.155 5.29253 13.1473 5.28749C13.129 5.27693 13.1098 5.26901 13.0911 5.25893C13.0522 5.23805 13.0131 5.21765 12.9735 5.19917C12.9402 5.18333 12.9061 5.16917 12.8718 5.15525C12.8374 5.14133 12.8048 5.12813 12.771 5.11613C12.7311 5.10205 12.6911 5.08909 12.651 5.07725C12.6212 5.06837 12.5917 5.05997 12.5617 5.05325C12.5187 5.04245 12.4753 5.03309 12.4318 5.02469C12.4023 5.01917 12.3726 5.01389 12.343 5.00933C12.3006 5.00309 12.2581 4.99805 12.2151 4.99397C12.1822 4.99077 12.1493 4.98837 12.1165 4.98677C12.0779 4.98485 12.0393 4.98389 12.0006 4.98389C11.9624 4.98389 11.9245 4.98389 11.8863 4.98677C11.853 4.98845 11.8194 4.99085 11.7858 4.99397C11.7438 4.99805 11.7015 5.00285 11.6598 5.00933C11.6295 5.01389 11.5993 5.01917 11.5693 5.02493C11.5261 5.03309 11.4833 5.04245 11.4409 5.05301C11.4104 5.06069 11.3802 5.06933 11.3499 5.07821C11.3099 5.09005 11.2699 5.10285 11.2299 5.11661C11.1954 5.12885 11.161 5.14253 11.127 5.15645C11.0929 5.17037 11.0602 5.18405 11.0276 5.19941C10.987 5.21837 10.947 5.23925 10.9076 5.26061C10.8896 5.27045 10.8711 5.27813 10.8534 5.28845C10.845 5.29325 10.8375 5.29901 10.8294 5.30381C10.7871 5.32781 10.7466 5.35565 10.7067 5.38277C10.6827 5.39861 10.6587 5.41397 10.6364 5.43077C10.5997 5.45789 10.5644 5.48669 10.5298 5.51573C10.5058 5.53589 10.4818 5.55533 10.4578 5.57669C10.4283 5.60333 10.4007 5.63165 10.3729 5.65949C10.345 5.68733 10.3182 5.71205 10.2942 5.73941C10.2702 5.76677 10.2507 5.79077 10.2291 5.81669C10.2018 5.85005 10.1739 5.88341 10.1482 5.91845C10.13 5.94245 10.1137 5.96861 10.0966 5.99381C10.0707 6.03197 10.045 6.07061 10.0213 6.11093C9.59778 6.82465 9.59154 7.71116 10.005 8.43077L12.001 11.8882L13.9969 8.43077C14.4094 7.71274 14.4039 6.82833 13.9825 6.11549Z" fill="#4BDB4B"/>
</svg>
