<svg width="24" height="24" viewBox="0 0 24 24" fill="none" xmlns="http://www.w3.org/2000/svg">
<g clip-path="url(#clip0_548_25095)">
<rect width="24" height="24" rx="4" fill="#E84142"/>
<path d="M16.233 12.3119C16.6487 11.5938 17.3196 11.5938 17.7353 12.3119L20.3243 16.8568C20.7401 17.5749 20.3999 18.1607 19.5684 18.1607H14.3526C13.5306 18.1607 13.1904 17.5749 13.5967 16.8568L16.233 12.3119ZM11.2251 3.56226C11.6408 2.84415 12.3023 2.84415 12.718 3.56226L13.2944 4.60163L14.655 6.99219C14.9857 7.6725 14.9857 8.47565 14.655 9.15596L10.0912 17.0646C9.67549 17.7071 8.98572 18.1134 8.22037 18.1607H4.43139C3.59989 18.1607 3.25974 17.5843 3.67549 16.8568L11.2251 3.56226Z" fill="white"/>
</g>
<defs>
<clipPath id="clip0_548_25095">
<rect width="24" height="24" fill="white"/>
</clipPath>
</defs>
</svg>
