<svg width="24" height="24" viewBox="0 0 24 24" fill="none" xmlns="http://www.w3.org/2000/svg">
<g clip-path="url(#clip0_548_25087)">
<rect width="24" height="24" rx="4" fill="#0AC18E"/>
<path d="M15.7435 7.97058C15.1404 6.60307 13.7546 6.31068 12.0582 6.59393L11.513 4.48022L10.2277 4.8122L10.7638 6.91982C10.4257 7.0051 10.0785 7.07819 9.73434 7.17566L9.1983 5.08022L7.91302 5.4122L8.4582 7.52591C8.18104 7.6051 5.86328 8.19901 5.86328 8.19901L6.21658 9.57566C6.21658 9.57566 7.16074 9.31068 7.1516 9.332C7.67546 9.19494 7.92216 9.45687 8.0379 9.70357L9.53637 15.4965C9.55465 15.664 9.52419 15.9503 9.1648 16.0477C9.18612 16.0599 8.22977 16.2883 8.22977 16.2883L8.36988 17.8934C8.36988 17.8934 10.6663 17.3056 10.9678 17.2295L11.5191 19.3675L12.8044 19.0356L12.2531 16.8823C12.6064 16.8 12.9506 16.7147 13.2856 16.6264L13.8338 18.7675L15.1191 18.4356L14.5678 16.3005C16.5475 15.8193 17.9455 14.5706 17.6592 12.6609C17.4765 11.5097 16.2186 10.5655 15.1739 10.4589C15.8166 9.88936 16.1425 9.05789 15.7435 7.97058ZM15.1252 13.0112C15.381 14.9026 12.7526 15.134 11.8846 15.3625L11.1293 12.533C12.0003 12.3046 14.6927 11.3452 15.1252 13.0112ZM13.5414 9.1584C13.8125 10.8396 11.5648 11.0345 10.8399 11.2203L10.1516 8.65281C10.8795 8.47312 12.9902 7.60205 13.5414 9.1584Z" fill="white"/>
</g>
<defs>
<clipPath id="clip0_548_25087">
<rect width="24" height="24" fill="white"/>
</clipPath>
</defs>
</svg>
