<svg width="24" height="24" viewBox="0 0 24 24" fill="none" xmlns="http://www.w3.org/2000/svg">
<g clip-path="url(#clip0_548_25085)">
<rect width="24" height="24" rx="4" fill="#F7931A"/>
<path d="M17.7061 10.5123C17.9449 8.91532 16.7291 8.05691 15.0666 7.48426L15.6059 5.32107L14.2891 4.99295L13.7641 7.09919C13.4179 7.01285 13.0624 6.93149 12.7091 6.85084L13.2379 4.7307L11.9219 4.40259L11.3823 6.56508C11.0958 6.49985 10.8145 6.43539 10.5415 6.36747L10.543 6.36066L8.72713 5.9072L8.37684 7.31363C8.37684 7.31363 9.3538 7.53758 9.33321 7.55136C9.86644 7.68445 9.96287 8.03743 9.94686 8.31722L9.33251 10.7816C9.36922 10.7909 9.41685 10.8044 9.46941 10.8255C9.42547 10.8146 9.37873 10.8027 9.33022 10.7911L8.4691 14.2434C8.40394 14.4054 8.23853 14.6485 7.86572 14.5562C7.87892 14.5753 6.90865 14.3173 6.90865 14.3173L6.25488 15.8246L7.96849 16.2518C8.28727 16.3318 8.59967 16.4154 8.90732 16.4941L8.36241 18.6821L9.67769 19.0102L10.2173 16.8454C10.5766 16.9429 10.9253 17.0329 11.2667 17.1177L10.7289 19.2723L12.0458 19.6004L12.5906 17.4165C14.836 17.8415 16.5244 17.6702 17.2351 15.6392C17.8077 14.004 17.2066 13.0608 16.0253 12.4458C16.8857 12.2473 17.5337 11.6814 17.7065 10.5124L17.7061 10.5121L17.7061 10.5123ZM14.6975 14.7311C14.2905 16.3663 11.5374 15.4823 10.6448 15.2607L11.3679 12.3619C12.2604 12.5848 15.1228 13.0257 14.6976 14.7311H14.6975ZM15.1047 10.4886C14.7335 11.9759 12.442 11.2203 11.6987 11.035L12.3543 8.40602C13.0976 8.59131 15.4914 8.93714 15.1048 10.4886H15.1047Z" fill="white"/>
</g>
<defs>
<clipPath id="clip0_548_25085">
<rect width="24" height="24" fill="white"/>
</clipPath>
</defs>
</svg>
