<svg width="24" height="24" viewBox="0 0 24 24" fill="none" xmlns="http://www.w3.org/2000/svg">
<rect width="24" height="24" rx="4" fill="#EAB300"/>
<path fill-rule="evenodd" clip-rule="evenodd" d="M16.7185 9.06071C16.564 7.45361 15.1767 6.91503 13.4237 6.76142V4.53125H12.0672V6.7019C11.711 6.7019 11.3462 6.70862 10.9842 6.7163V4.53125H9.62769L9.62673 6.7595L9.61219 6.75978L9.61216 6.75979C9.32341 6.76545 9.03934 6.77102 8.7627 6.77102V6.7643L6.89159 6.76334V8.213C6.89159 8.213 7.89387 8.1938 7.87658 8.21204C8.42669 8.21204 8.60525 8.53077 8.6571 8.8063V11.3466C8.6955 11.3466 8.74446 11.3485 8.80014 11.3562H8.6571L8.65614 14.915C8.63213 15.0878 8.53037 15.3634 8.14636 15.3643C8.16364 15.3797 7.1604 15.3643 7.1604 15.3643L6.89062 16.9849H8.6571C8.85619 16.9849 9.05351 16.987 9.24864 16.9891L9.24898 16.9891L9.24922 16.9891C9.3757 16.9904 9.50126 16.9918 9.62577 16.9925L9.62673 19.2477H10.9823V17.0165C11.3538 17.0242 11.7139 17.0271 12.0662 17.0271L12.0652 19.2477H13.4218V16.9973C15.7028 16.8668 17.3013 16.2917 17.499 14.1489C17.6594 12.4237 16.8481 11.6528 15.5531 11.3418C16.3412 10.9424 16.8337 10.2368 16.7185 9.06071ZM14.8193 13.8821C14.8193 15.4297 12.3854 15.3946 11.2753 15.3786C11.1768 15.3772 11.0887 15.3759 11.0137 15.3759V12.3873C11.1074 12.3875 11.2216 12.385 11.351 12.3821C12.4921 12.3564 14.8193 12.3042 14.8193 13.8821ZM11.2406 11.0236C12.1695 11.0383 14.1876 11.0702 14.1876 9.66652C14.1884 8.22995 12.2437 8.28141 11.293 8.30657C11.1859 8.30941 11.0914 8.31191 11.0137 8.31191V11.0211C11.0784 11.0211 11.1549 11.0223 11.2406 11.0236Z" fill="white"/>
<path d="M8.65918 11.2871H8.86079V11.4359H8.65918V11.2871Z" fill="white"/>
</svg>
