<svg width="24" height="24" viewBox="0 0 24 24" fill="none" xmlns="http://www.w3.org/2000/svg">
<rect width="24" height="24" rx="4" fill="url(#paint0_linear_580_42300)"/>
<path fill-rule="evenodd" clip-rule="evenodd" d="M17.2901 10.2903C17.5289 8.6934 16.3131 7.83498 14.6506 7.26233L15.1899 5.09914L13.8731 4.77103L13.3481 6.87726C13.0019 6.79092 12.6464 6.70957 12.2931 6.62892L12.8219 4.50878L11.5059 4.18066L10.9663 6.34315C10.6798 6.27793 10.3985 6.21347 10.1255 6.14554L10.127 6.13874L8.31111 5.68528L7.96083 7.09171C7.96083 7.09171 8.93778 7.31565 8.91719 7.32944C9.45043 7.46252 9.54685 7.81551 9.53084 8.09529L8.91649 10.5597C8.95321 10.569 9.00084 10.5825 9.05339 10.6036L9.01512 10.5941L9.01509 10.594C8.98261 10.5859 8.94886 10.5775 8.9142 10.5692L8.05309 14.0214C7.98792 14.1834 7.82252 14.4266 7.44971 14.3342C7.4629 14.3534 6.49263 14.0954 6.49263 14.0954L5.83887 15.6027L7.55247 16.0299C7.74012 16.077 7.92556 16.1253 8.10911 16.1731L8.10913 16.1731C8.2374 16.2066 8.36475 16.2398 8.4913 16.2721L7.9464 18.4601L9.26167 18.7883L9.8013 16.6235C10.1606 16.721 10.5093 16.811 10.8507 16.8958L10.3129 19.0504L11.6297 19.3785L12.1746 17.1946C14.42 17.6196 16.1084 17.4482 16.8191 15.4172C17.3917 13.7821 16.7906 12.8389 15.6093 12.2238C16.4697 12.0254 17.1177 11.4595 17.2905 10.2905L17.2901 10.2902L17.2901 10.2903ZM14.2812 14.5093C13.9079 16.0095 11.5596 15.3893 10.4852 15.1055C10.3885 15.08 10.3022 15.0572 10.2285 15.0389L10.9516 12.1401C11.0414 12.1625 11.1511 12.1872 11.2753 12.215L11.2754 12.2151C12.3868 12.4645 14.6637 12.9755 14.2813 14.5093H14.2812ZM11.4981 10.8696C12.3939 11.1086 14.3479 11.6301 14.6883 10.2666H14.6884C15.0359 8.87208 13.1369 8.45164 12.2094 8.2463C12.105 8.2232 12.013 8.20282 11.9378 8.18408L11.2822 10.8131C11.3441 10.8285 11.4168 10.8479 11.4981 10.8696Z" fill="white"/>
<defs>
<linearGradient id="paint0_linear_580_42300" x1="12" y1="0" x2="12" y2="24" gradientUnits="userSpaceOnUse">
<stop stop-color="#FCC538"/>
<stop offset="1" stop-color="#F7931A"/>
</linearGradient>
</defs>
</svg>
