<svg width="24" height="24" viewBox="0 0 24 24" fill="none" xmlns="http://www.w3.org/2000/svg">
<rect width="24" height="24" rx="4" fill="#070A0E"/>
<path fill-rule="evenodd" clip-rule="evenodd" d="M6.93289 16.0237C6.57409 15.8041 6.35449 15.4141 6.35449 14.9941V12.6493C6.35449 12.3709 6.58129 12.1453 6.85969 12.1465C6.94849 12.1465 7.03609 12.1705 7.11289 12.2149L12.4037 15.3001C12.7133 15.4801 12.9041 15.8113 12.9041 16.1701V18.5989C12.9053 18.9325 12.6353 19.2037 12.3017 19.2037C12.1901 19.2037 12.0797 19.1725 11.9849 19.1149L6.93289 16.0237ZM14.8193 11.5729C15.1289 11.7529 15.3185 12.0853 15.3197 12.4429V17.3725C15.3197 17.5177 15.2417 17.6521 15.1145 17.7229L13.9565 18.3745C13.9421 18.3829 13.9265 18.3889 13.9097 18.3937V15.6565C13.9097 15.3025 13.7237 14.9737 13.4189 14.7913L8.77246 12.0121V8.92214C8.77246 8.64374 8.99926 8.41814 9.27766 8.41934C9.36646 8.41934 9.45406 8.44334 9.53086 8.48774L14.8193 11.5729ZM17.1357 7.93213C17.4465 8.11213 17.6373 8.44453 17.6373 8.80333V16.0033C17.6361 16.1509 17.5545 16.2865 17.4249 16.3573L16.3269 16.9501V11.9377C16.3269 11.5837 16.1409 11.2561 15.8385 11.0737L11.0889 8.22493V5.29453C11.0889 5.20573 11.1129 5.11813 11.1561 5.04133C11.2965 4.80133 11.6049 4.71973 11.8449 4.85893L17.1357 7.93213Z" fill="#00D395"/>
</svg>
