<svg width="24" height="24" viewBox="0 0 24 24" fill="none" xmlns="http://www.w3.org/2000/svg">
<rect width="24" height="24" rx="4" fill="#2E3148"/>
<circle cx="12.0001" cy="12.0001" r="6.96298" fill="#1B1E36"/>
<path fill-rule="evenodd" clip-rule="evenodd" d="M9.67871 12.0249C9.67871 6.22925 10.729 1.53101 12.0244 1.53101C13.3197 1.53101 14.37 6.22925 14.37 12.0249C14.37 17.8205 13.3197 22.5187 12.0244 22.5187C10.729 22.5187 9.67871 17.8205 9.67871 12.0249ZM11.8901 21.9758C11.8901 21.9758 12.0382 22.1241 12.1863 21.9265C12.1863 21.9265 12.8821 21.3334 13.3789 18.5187C13.3789 18.5187 14.0243 14.815 13.9256 11.5064C13.9256 11.5064 14.0243 7.7039 12.9335 3.65453C12.9335 3.65453 12.5641 2.34931 12.1236 2.03721C12.0503 1.98507 11.9501 1.99317 11.8861 2.05641C11.5826 2.35661 10.6905 3.70877 10.2002 9.43267C10.2002 9.43267 9.95183 16.6426 10.9953 20.0005C10.9953 20.0005 11.2935 21.2846 11.8901 21.9758Z" fill="#6F7390"/>
<path fill-rule="evenodd" clip-rule="evenodd" d="M10.8551 9.98967C15.8847 7.10564 20.4822 5.6785 21.1271 6.80247C21.7716 7.92596 18.2238 11.1753 13.1943 14.0593C8.16472 16.9433 3.56671 18.37 2.92226 17.2465C2.27781 16.123 5.82559 12.8737 10.8551 9.98967ZM3.32613 16.8583C3.32613 16.8583 3.27036 17.0612 3.51727 17.0923H3.51736C3.51736 17.0923 4.37762 17.401 7.06648 16.432C7.06648 16.432 10.6002 15.1496 13.421 13.4168C13.421 13.4168 16.7686 11.6099 19.7362 8.6474C19.7362 8.6474 20.6869 7.6778 20.7362 7.1402C20.7456 7.05038 20.6888 6.96691 20.6018 6.94263C20.1914 6.82964 18.5736 6.7274 13.3652 9.15063C13.3652 9.15063 6.98738 12.523 4.59285 15.0993C4.59285 15.0993 3.62901 15.9971 3.32613 16.8583Z" fill="#6F7390"/>
<path fill-rule="evenodd" clip-rule="evenodd" d="M13.2032 9.99292C18.215 12.8986 21.7539 16.1628 21.104 17.2838C20.4546 18.4068 15.8634 16.9619 10.8487 14.0562C5.83392 11.1505 2.29565 7.88821 2.94499 6.7653C3.59434 5.64239 8.1913 7.08719 13.2032 9.99292ZM3.48231 6.91602C3.48231 6.91602 3.27965 6.97084 3.37565 7.19845L3.37632 7.20095C3.37632 7.20095 3.54067 8.09922 5.72832 9.94117C5.72832 9.94117 8.60736 12.3575 11.5189 13.9279C11.5189 13.9279 14.7594 15.9184 18.8113 17.0049C18.8113 17.0049 20.1259 17.3397 20.6168 17.115C20.6988 17.0777 20.7422 16.9868 20.7195 16.8996C20.6113 16.4878 19.8894 15.0369 15.1822 11.7431C15.1822 11.7431 9.06845 7.91346 5.63981 7.13269C5.63981 7.13269 4.37952 6.74658 3.48231 6.91602Z" fill="#6F7390"/>
<circle cx="12.0002" cy="11.9999" r="1.23456" fill="#B7B9C8"/>
<ellipse cx="17.0618" cy="7.25929" rx="0.716063" ry="0.740736" fill="#B7B9C8"/>
<ellipse cx="5.30884" cy="9.77785" rx="0.716064" ry="0.740736" fill="#B7B9C8"/>
<ellipse cx="10.5432" cy="18.8643" rx="0.716065" ry="0.740735" fill="#B7B9C8"/>
</svg>
