<svg width="24" height="24" viewBox="0 0 24 24" fill="none" xmlns="http://www.w3.org/2000/svg">
<g clip-path="url(#clip0_548_25096)">
<rect width="24" height="24" rx="4" fill="white"/>
<path d="M4.58984 19.4903V15.9552H6.65681V7.89987H4.5995V4.50966H4.89892C7.68064 4.50966 10.443 4.51932 13.2247 4.5C13.8429 4.5 14.3838 4.6642 14.9247 4.87669C16.0161 5.29202 16.9723 5.93915 17.7354 6.84707C18.4115 7.6584 18.8751 8.5953 19.1166 9.61912C19.5222 11.3963 19.5319 13.1929 19.02 14.9507C18.3439 17.2399 16.8951 18.8142 14.49 19.3455C14.0747 19.442 13.6304 19.5 13.1958 19.5H4.9279C4.82165 19.4903 4.71541 19.4903 4.58984 19.4903ZM10.868 15.9456C11.3413 15.9456 11.7953 15.9746 12.2492 15.9359C12.8384 15.878 13.3696 15.6945 13.7656 15.1825C14.1037 14.7479 14.4031 14.3133 14.548 13.8014C14.8667 12.6809 14.7412 11.5412 14.519 10.4111C14.3935 9.73503 14.0747 9.11687 13.6497 8.60496C13.3986 8.3152 13.0509 7.9868 12.7032 7.92885C12.1236 7.8226 11.4958 7.89987 10.868 7.89987V15.9456Z" fill="#C2A633"/>
</g>
<defs>
<clipPath id="clip0_548_25096">
<rect width="24" height="24" fill="white"/>
</clipPath>
</defs>
</svg>
