<svg width="24" height="24" viewBox="0 0 24 24" fill="none" xmlns="http://www.w3.org/2000/svg">
<g clip-path="url(#clip0_548_25086)">
<rect width="24" height="24" rx="4" fill="white"/>
<path d="M12.012 3.10155V3.11042C12.0208 3.15475 12.0208 3.20796 12.0208 3.26116V9.65426C12.012 9.68973 11.9854 9.6986 11.9587 9.71633C11.7725 9.805 11.5952 9.8848 11.409 9.96461C11.1519 10.0799 10.8858 10.204 10.6287 10.3193L9.69767 10.7449C9.44052 10.8602 9.18338 10.9754 8.9351 11.0907C8.63363 11.2326 8.32328 11.3656 8.0218 11.5075C7.76466 11.6227 7.50752 11.7469 7.24151 11.8621C7.0287 11.9597 6.81589 12.0484 6.61195 12.1459C6.59422 12.1548 6.57648 12.1636 6.55875 12.1636C6.54988 12.1636 6.54988 12.1636 6.54102 12.1548L6.78042 11.7557C7.24151 10.9932 7.69372 10.2395 8.15481 9.47692C8.64249 8.66116 9.13905 7.8454 9.62673 7.02963C10.0789 6.27594 10.54 5.52224 10.9922 4.76855C11.3203 4.21879 11.6573 3.66904 11.9854 3.11929C11.9942 3.10155 12.0031 3.09269 12.0031 3.07495H12.012C12.0031 3.08382 12.012 3.09269 12.012 3.10155Z" fill="#8A92B2"/>
<path d="M17.4562 12.1547L17.4651 12.1635L16.1616 12.935L12.0651 15.3557C12.0473 15.3645 12.0296 15.3734 12.0207 15.3823C11.9941 15.3823 11.9941 15.3557 11.9941 15.3468V15.267V9.78719C11.9941 9.76059 11.9941 9.72512 12.003 9.69852C12.0119 9.66305 12.0385 9.67192 12.0651 9.68078C12.1803 9.73398 12.3045 9.78719 12.4198 9.84039C12.7656 9.99999 13.1114 10.1596 13.4572 10.3103C13.7587 10.4433 14.0513 10.5852 14.3528 10.7182C14.6542 10.8512 14.9557 10.9931 15.2572 11.1261C15.5143 11.2414 15.7803 11.3655 16.0375 11.4808C16.2946 11.5961 16.5606 11.7202 16.8178 11.8355C17.0217 11.9241 17.2257 12.0217 17.4296 12.1103C17.4296 12.1369 17.4385 12.1458 17.4562 12.1547Z" fill="#454A75"/>
<path d="M12.012 20.8887C12.012 20.8976 12.0031 20.9064 12.0031 20.9153H11.9942C11.9942 20.8976 11.9765 20.8887 11.9676 20.871C11.4179 20.0995 10.8681 19.3192 10.3184 18.5478C9.75973 17.7587 9.19225 16.9606 8.63363 16.1715C8.09274 15.4089 7.54299 14.6375 7.0021 13.8749C6.86023 13.671 6.71836 13.4759 6.57648 13.272C6.56762 13.2542 6.55875 13.2454 6.54102 13.2188C6.56762 13.2188 6.58535 13.2365 6.59422 13.2454C7.36565 13.6976 8.12821 14.1498 8.89964 14.602C9.78634 15.1252 10.6642 15.6483 11.5509 16.1715L12.0031 16.4375C12.0208 16.4552 12.0208 16.4729 12.0208 16.4907V20.7646C12.0208 20.8089 12.0208 20.8532 12.012 20.8887Z" fill="#8A92B2"/>
<path d="M6.53223 12.1724V12.1635C6.81597 12.0394 7.09085 11.9064 7.37459 11.7822C7.73814 11.6137 8.10168 11.4541 8.46523 11.2857C8.74011 11.1615 9.02385 11.0285 9.29873 10.9044C9.70661 10.7182 10.1056 10.5408 10.5135 10.3546C10.7884 10.2305 11.0633 10.1064 11.347 9.97335C11.5421 9.88468 11.746 9.79601 11.9411 9.70734C11.9588 9.69848 11.9854 9.68961 11.9943 9.67188C12.0032 9.67188 12.0032 9.68074 11.9943 9.68961V15.3202C11.9943 15.3468 11.9854 15.3734 12.0032 15.3911C11.9854 15.4177 11.9677 15.3911 11.9588 15.3822C11.879 15.3379 11.7992 15.2935 11.7194 15.2403C10.0081 14.2295 8.28789 13.2098 6.57656 12.199C6.56769 12.1901 6.54996 12.1812 6.53223 12.1724Z" fill="#62688F"/>
<path d="M17.4384 13.2188H17.4473C17.4473 13.2365 17.4295 13.2542 17.4207 13.272C15.7891 15.5685 14.1576 17.8739 12.5261 20.1705C12.3576 20.4099 12.1803 20.6493 12.0118 20.8887C12.0029 20.8798 12.0029 20.871 12.0029 20.8621V20.8089V16.5084V16.4286C12.3753 16.2069 12.7389 15.9941 13.1113 15.7724C14.5478 14.9212 15.9842 14.0788 17.4118 13.2276C17.4207 13.2365 17.4295 13.2276 17.4384 13.2188Z" fill="#62688F"/>
<path d="M12.0031 9.68966V9.67193V9.61873V3.18129C12.0031 3.15469 11.9942 3.13695 12.012 3.11035C13.812 6.09853 15.612 9.07784 17.4031 12.066C17.4208 12.0926 17.4474 12.1281 17.4563 12.1636C17.3322 12.1192 17.2169 12.0571 17.1016 12.0039C16.9597 11.9419 16.809 11.8709 16.6671 11.8089C16.5785 11.7645 16.4809 11.7291 16.3922 11.6847C16.2415 11.6138 16.0908 11.5517 15.94 11.4808C15.8514 11.4453 15.7627 11.401 15.674 11.3567L15.0888 11.0906C14.9913 11.0463 14.8937 11.002 14.7873 10.9576L14.3617 10.7714C14.273 10.736 14.1844 10.6916 14.0957 10.6473L13.5105 10.3813C13.4129 10.337 13.3154 10.2926 13.209 10.2483L12.7834 10.0621C12.6858 10.0177 12.5972 9.97341 12.4996 9.92907C12.3312 9.84927 12.1627 9.76947 11.9854 9.69853C12.012 9.68966 12.0031 9.68966 12.0031 9.68966Z" fill="#62688F"/>
</g>
<defs>
<clipPath id="clip0_548_25086">
<rect width="24" height="24" fill="white"/>
</clipPath>
</defs>
</svg>
