<svg width="24" height="24" viewBox="0 0 24 24" fill="none" xmlns="http://www.w3.org/2000/svg">
<g clip-path="url(#clip0_564_20167)">
<rect width="24" height="24" rx="4" fill="white"/>
<path fill-rule="evenodd" clip-rule="evenodd" d="M7.59961 11.2534L12.0265 8.92292L16.4172 11.2678L12.0072 4.80005L7.59961 11.2534ZM7.76848 11.9264L12.0313 9.6517L16.2386 11.9097L12.0337 14.1869L7.76848 11.9264ZM7.59961 12.5778C9.15322 13.4029 10.7744 14.2665 12.0265 14.9348L16.4172 12.5778C14.8274 14.9396 13.5027 16.9058 12.0265 19.0818L11.173 17.8289C9.94051 16.0197 8.66544 14.148 7.59961 12.5778Z" fill="#3AB83A"/>
<path fill-rule="evenodd" clip-rule="evenodd" d="M12.0068 4.80005L12.0262 8.92309L16.4168 11.2678L12.0068 4.80005ZM12.0309 9.6517L16.2383 11.9097L12.0333 14.1869L12.0309 9.6517ZM12.0261 14.9348L16.4168 12.5778C14.827 14.9396 12.0261 19.0818 12.0261 19.0818V14.9348Z" fill="#0B8311"/>
<path d="M7.76855 11.9263L12.0316 12.2762L16.2389 11.9119L12.0338 14.1892L7.76855 11.9263Z" fill="#0B8311"/>
<path d="M12.0312 12.2762L16.2386 11.9119L12.0337 14.1892L12.0312 12.2762Z" fill="#146714"/>
</g>
<defs>
<clipPath id="clip0_564_20167">
<rect width="24" height="24" fill="white"/>
</clipPath>
</defs>
</svg>
