<svg width="24" height="24" viewBox="0 0 24 24" fill="none" xmlns="http://www.w3.org/2000/svg">
<rect width="24" height="24" rx="4" fill="#13B5EC"/>
<path fill-rule="evenodd" clip-rule="evenodd" d="M12.9996 9.60091L15.6996 8.01799V11.1838L12.9996 9.60091ZM15.6996 16.3848L12.0996 18.4954L8.49961 16.3848V12.6914L12.0996 14.8019L15.6996 12.6914V16.3848ZM8.49961 8.01799L11.1996 9.60091L8.49961 11.1838V8.01799ZM12.5496 10.3547L15.2496 11.9376L12.5496 13.5205V10.3547ZM11.6496 13.5205L8.94961 11.9376L11.6496 10.3547V13.5205ZM15.2496 7.26422L12.0996 9.07327L8.94961 7.26422L12.0996 5.3798L15.2496 7.26422ZM7.59961 6.96272V16.8371L12.0996 19.3999L16.5996 16.8371V6.96272L12.0996 4.3999L7.59961 6.96272Z" fill="white"/>
</svg>
