<svg width="24" height="24" viewBox="0 0 24 24" fill="none" xmlns="http://www.w3.org/2000/svg">
<rect width="24" height="24" rx="4" fill="#00EF8B"/>
<rect x="13.8721" y="10.1279" width="3.384" height="3.384" fill="white"/>
<path d="M10.4876 14.7839C10.4876 15.4799 9.91157 16.0559 9.21557 16.0559C8.51957 16.0559 7.94357 15.4799 7.94357 14.7839C7.94357 14.0879 8.51957 13.5119 9.21557 13.5119H10.4876V10.1279H9.21557C6.64757 10.1279 4.55957 12.2159 4.55957 14.7839C4.55957 17.3519 6.64757 19.4399 9.21557 19.4399C11.7836 19.4399 13.8716 17.3519 13.8716 14.7839V13.5119H10.4876V14.7839Z" fill="white"/>
<path d="M15.1443 8.42404H18.9603V5.04004H15.1443C12.5763 5.04004 10.4883 7.12804 10.4883 9.69604V10.128H13.8723V9.69604C13.8723 9.00004 14.4483 8.42404 15.1443 8.42404Z" fill="white"/>
<path d="M13.8723 10.1279H10.4883V13.5119H13.8723V10.1279Z" fill="#16FF99"/>
</svg>
