<svg width="24" height="24" viewBox="0 0 24 24" fill="none" xmlns="http://www.w3.org/2000/svg">
<rect width="24" height="24" rx="4" fill="#EDF0F4"/>
<path d="M13.427 9.38718C12.9384 9.6902 11.9597 10.2978 11.9537 10.3038L7.45871 7.65708L11.9555 5.16592L17.5096 8.2494L18.6061 7.62521L11.963 4L5.28809 7.62143L11.9274 11.4566L14.5048 10.0264L13.427 9.38718Z" fill="black"/>
<path d="M9.07388 11.8148V10.6612L11.6193 12.0755V19.995L4.7998 15.7713V8.13257L5.87481 8.80897V15.2076L10.5448 18.0914V12.6795L9.07388 11.8148Z" fill="black"/>
<path d="M12.2752 19.9999V18.7357L17.9834 15.2198V10.0141L13.3548 12.7137V14.4313L12.2744 15.124V12.0833L19.1088 8.09424V15.7787L12.2752 19.9999Z" fill="black"/>
</svg>
