<svg width="24" height="24" viewBox="0 0 24 24" fill="none" xmlns="http://www.w3.org/2000/svg">
<rect width="24" height="24" rx="4" fill="#E7EFF3"/>
<path fill-rule="evenodd" clip-rule="evenodd" d="M15.4113 6C13.9842 5.99889 12.8257 7.15355 12.822 8.58067V11.442C12.5553 11.46 12.2827 11.4713 12 11.4713C11.7173 11.4713 11.446 11.4827 11.178 11.4987V8.58067C11.1553 7.167 10.0029 6.03288 8.589 6.03288C7.17515 6.03288 6.02269 7.167 6 8.58067V15.4193C6.02269 16.833 7.17515 17.9671 8.589 17.9671C10.0029 17.9671 11.1553 16.833 11.178 15.4193V12.558C11.4447 12.54 11.7173 12.5287 12 12.5287C12.2827 12.5287 12.554 12.5173 12.822 12.5013V15.4193C12.8447 16.833 13.9971 17.9671 15.411 17.9671C16.8249 17.9671 17.9773 16.833 18 15.4193V8.58067C17.9963 7.15381 16.8382 5.99926 15.4113 6ZM8.58881 7.05737C9.43103 7.057 10.1146 7.73848 10.1168 8.5807V11.6107C9.35933 11.7205 8.61963 11.9296 7.91681 12.2327C7.6123 12.3663 7.32564 12.5374 7.06348 12.742V8.5807C7.06568 7.73952 7.74763 7.05847 8.58881 7.05737ZM8.58855 16.9473C9.43244 16.9473 10.1165 16.2632 10.1165 15.4193V12.678C9.5071 12.7774 8.9122 12.9514 8.34521 13.196C7.54055 13.5533 7.06055 14.1273 7.06055 14.7333V15.4193C7.06055 16.2632 7.74466 16.9473 8.58855 16.9473ZM15.4118 16.9427C14.5696 16.9431 13.886 16.2616 13.8838 15.4194V12.3894C14.6413 12.2796 15.381 12.0705 16.0838 11.7674C16.3883 11.6337 16.675 11.4626 16.9371 11.2581V15.4194C16.9349 16.2606 16.253 16.9416 15.4118 16.9427ZM13.8838 11.3181C14.4932 11.2186 15.0881 11.0447 15.6551 10.8001C16.4598 10.4441 16.9398 9.87006 16.9398 9.26673V8.58073C16.9398 7.73684 16.2557 7.05273 15.4118 7.05273C14.5679 7.05273 13.8838 7.73684 13.8838 8.58073V11.3181Z" fill="url(#paint0_linear_580_156439)"/>
<defs>
<linearGradient id="paint0_linear_580_156439" x1="11.9801" y1="22.2812" x2="22.3914" y2="11.8411" gradientUnits="userSpaceOnUse">
<stop stop-color="#00AEE9"/>
<stop offset="1" stop-color="#69FABD"/>
</linearGradient>
</defs>
</svg>
