<svg width="24" height="24" viewBox="0 0 24 24" fill="none" xmlns="http://www.w3.org/2000/svg">
<rect width="24" height="24" rx="4" fill="#007F88"/>
<path d="M4.4187 6.21266C4.17642 6.23172 3.98994 6.26983 4.00042 6.29841C4.09706 6.52845 4.69461 7.88279 4.70278 7.89096C4.71094 7.89913 4.84978 7.90865 5.01312 7.91546C5.73725 7.94268 6.3103 8.08424 6.92962 8.3905C7.37472 8.60965 7.70412 8.84513 8.04713 9.18678C8.55211 9.6904 8.88151 10.2498 9.0748 10.9345C9.09658 11.0134 9.11427 11.0842 9.11427 11.0951C9.11427 11.1101 9.00402 11.1128 8.51672 11.1128C8.18733 11.1128 7.90421 11.1183 7.88651 11.1251C7.86065 11.1346 7.79259 11.2816 7.50947 11.9309C7.31891 12.3678 7.16102 12.7353 7.15829 12.7476C7.14877 12.7829 7.2631 12.8142 7.54894 12.8564C7.60747 12.866 7.95865 12.8755 8.3738 12.8809L9.09658 12.8891L9.05302 13.0388C8.56573 14.6913 7.05349 15.8469 5.20096 15.9857C5.09615 15.9925 4.95867 15.9993 4.8947 15.9993H4.779L4.42238 16.8201C4.11612 17.5211 4.06848 17.6409 4.0889 17.6477C4.18145 17.6817 4.38835 17.694 4.86748 17.694C5.47999 17.694 5.77809 17.6668 6.28307 17.5633C8.34522 17.14 10.0589 15.8278 10.8348 14.0747C10.9845 13.7371 11.1601 13.1818 11.1914 12.949L11.2009 12.8823H12.7485L12.754 12.9123C12.8656 13.4594 12.9867 13.8283 13.1964 14.2639C13.8266 15.576 15.0081 16.6473 16.4713 17.2353C17.3598 17.5911 18.3116 17.762 19.2685 17.7375C19.6686 17.7253 19.9872 17.6804 19.9708 17.6382C19.9572 17.6028 19.2794 16.047 19.2753 16.0429C19.2712 16.0388 19.131 16.0334 18.9608 16.0266C18.4831 16.0075 18.1237 15.9517 17.7181 15.836C17.0933 15.6563 16.4754 15.331 16.0017 14.9336C15.4055 14.4313 14.974 13.8065 14.7454 13.1137C14.7195 13.0348 14.6936 12.9517 14.6896 12.9272L14.68 12.8837L15.2626 12.8796C15.5825 12.8769 15.8547 12.8701 15.8656 12.8646C15.8833 12.8551 16.5802 11.2748 16.5802 11.2435C16.5802 11.2231 16.4046 11.1713 16.2453 11.1455C16.1283 11.1264 15.9799 11.121 15.3878 11.1169L14.6705 11.1101L14.6977 11.0134C15.0952 9.60601 16.3148 8.48851 17.8869 8.09241C18.234 8.0053 18.5716 7.96038 19.0098 7.94268C19.2712 7.93179 19.3039 7.92771 19.3202 7.90593C19.3311 7.89096 19.4917 7.53025 19.6768 7.10421C19.9041 6.58289 20.0089 6.32563 19.9994 6.31883C19.9695 6.3025 19.7789 6.26847 19.6292 6.25349C19.4114 6.23035 18.7757 6.23444 18.4953 6.25894C16.8919 6.40186 15.4464 7.04841 14.3629 8.10466C13.7014 8.74985 13.2372 9.47398 12.9514 10.3097C12.8779 10.5207 12.7894 10.8528 12.7622 11.0134L12.7458 11.1128H11.2245L11.219 11.0815C11.2149 11.0652 11.2 10.9876 11.1836 10.9086C10.959 9.79249 10.3247 8.70765 9.4291 7.90866C8.4096 6.99804 7.13829 6.42772 5.73902 6.25445C5.31842 6.20313 4.77628 6.18544 4.4187 6.21266Z" fill="white"/>
</svg>
