<svg width="24" height="24" viewBox="0 0 24 24" fill="none" xmlns="http://www.w3.org/2000/svg">
<g clip-path="url(#clip0_564_20164)">
<rect width="24" height="24" rx="4" fill="white"/>
<path d="M17.4007 6.73511C16.2298 6.73511 14.9477 7.37307 13.5953 8.63143C12.9572 9.22257 12.3952 9.86638 11.9854 10.3756C11.9854 10.3756 12.6411 11.1306 13.3612 11.9441C13.7534 11.4525 14.3096 10.7853 14.9594 10.1824C16.1596 9.05869 16.9441 8.83043 17.3949 8.83043C19.081 8.83043 20.4509 10.2468 20.4509 11.9968C20.4509 13.7293 19.081 15.1456 17.3949 15.1632C17.3129 15.1632 17.2193 15.1515 17.1022 15.1281C17.5939 15.3563 18.1267 15.5202 18.6243 15.5202C21.7155 15.5202 22.3244 13.3839 22.3595 13.2318C22.4473 12.8396 22.5 12.4299 22.5 12.0085C22.4941 9.09966 20.2109 6.73511 17.4007 6.73511Z" fill="url(#paint0_linear_564_20164)"/>
<path d="M6.59926 17.2585C7.77015 17.2585 9.05229 16.6206 10.4047 15.3622C11.0428 14.7711 11.6048 14.1272 12.0147 13.618C12.0147 13.618 11.359 12.863 10.6389 12.0495C10.2466 12.5411 9.69043 13.2083 9.04058 13.8112C7.84041 14.9232 7.05005 15.1632 6.60511 15.1632C4.91902 15.1632 3.54907 13.7468 3.54907 11.9968C3.54907 10.2644 4.91902 8.84798 6.60511 8.83042C6.68707 8.83042 6.78075 8.84213 6.89784 8.86554C6.40606 8.63728 5.8733 8.4734 5.37567 8.4734C2.2845 8.46755 1.67563 10.6038 1.64051 10.7619C1.55269 11.154 1.5 11.5637 1.5 11.9851C1.5 14.894 3.78325 17.2585 6.59926 17.2585Z" fill="url(#paint1_linear_564_20164)"/>
<path fill-rule="evenodd" clip-rule="evenodd" d="M8.95289 10.2293C8.61333 9.9015 6.96237 8.56119 5.38166 8.51437C2.55979 8.44414 1.73431 10.4926 1.6582 10.756C2.20267 8.4617 4.21661 6.74681 6.60524 6.73511C8.55479 6.73511 10.5277 8.64899 11.9855 10.3756L11.9914 10.3697C11.9914 10.3697 12.6471 11.1247 13.3672 11.9383C13.3672 11.9383 14.1868 12.904 15.0533 13.7527C15.3928 14.0804 17.0379 15.4032 18.6186 15.45C21.5166 15.5319 22.3187 13.3664 22.3597 13.2025C21.8269 15.5144 19.8071 17.2351 17.4068 17.2468C15.4572 17.2468 13.4843 15.3329 12.0206 13.6063C12.0206 13.6122 12.0148 13.6122 12.0148 13.6181C12.0148 13.6181 11.3591 12.863 10.639 12.0495C10.6448 12.0495 9.82521 11.0779 8.95289 10.2293ZM1.6582 10.7794C1.6582 10.7736 1.6582 10.7677 1.66406 10.7619C1.6582 10.7677 1.6582 10.7736 1.6582 10.7794Z" fill="#29ABE2"/>
</g>
<defs>
<linearGradient id="paint0_linear_564_20164" x1="14.66" y1="7.56893" x2="21.8754" y2="14.8458" gradientUnits="userSpaceOnUse">
<stop offset="0.21" stop-color="#F15A24"/>
<stop offset="0.6841" stop-color="#FBB03B"/>
</linearGradient>
<linearGradient id="paint1_linear_564_20164" x1="9.34186" y1="16.4259" x2="2.12644" y2="9.14904" gradientUnits="userSpaceOnUse">
<stop offset="0.21" stop-color="#ED1E79"/>
<stop offset="0.8929" stop-color="#522785"/>
</linearGradient>
<clipPath id="clip0_564_20164">
<rect width="24" height="24" fill="white"/>
</clipPath>
</defs>
</svg>
