<svg width="24" height="24" viewBox="0 0 24 24" fill="none" xmlns="http://www.w3.org/2000/svg">
<g clip-path="url(#clip0_548_25100)">
<rect width="24" height="24" rx="4" fill="#345D9D"/>
<path d="M12.203 12.4069L10.9536 16.62H17.6364C17.7258 16.6168 17.8127 16.6494 17.8781 16.7104C17.9435 16.7714 17.982 16.856 17.985 16.9454V17.0558L17.4039 19.0606C17.3511 19.2559 17.1702 19.3886 16.9681 19.3803H6.7405L8.45478 13.5401L6.53711 14.1212L6.97294 12.7846L8.89062 12.2035L11.3022 4.00977C11.3569 3.81577 11.5366 3.68394 11.7381 3.69015H14.324C14.4134 3.68702 14.5004 3.71955 14.5658 3.78059C14.6312 3.84163 14.6697 3.92617 14.6727 4.01558V4.12599L12.6388 11.0413L14.5565 10.4601L14.1497 11.8548L12.203 12.4069Z" fill="white"/>
</g>
<defs>
<clipPath id="clip0_548_25100">
<rect width="24" height="24" fill="white"/>
</clipPath>
</defs>
</svg>
