<svg width="24" height="24" viewBox="0 0 24 24" fill="none" xmlns="http://www.w3.org/2000/svg">
<rect width="24" height="24" rx="4" fill="white"/>
<path d="M12.0002 2.3999C6.69933 2.3999 2.39365 6.7038 2.4004 11.9986C2.40173 13.058 2.57069 14.077 2.8878 15.0302H5.76026V6.95522L12.0002 13.1937L18.2397 6.95522V15.0303H21.1128C21.4304 14.0772 21.5985 13.0582 21.6004 11.9988C21.6094 6.69843 17.3015 2.40118 12.0002 2.40118V2.3999Z" fill="#F26822"/>
<path d="M10.5656 14.628L7.84244 11.9053V16.9865H5.76048L3.7959 16.9868C5.48105 19.7509 8.52651 21.6 12.0006 21.6C15.4747 21.6 18.5203 19.7505 20.2057 16.9864H16.1581V11.9053L13.4348 14.628L12.0003 16.0622L10.5657 14.628V14.628H10.5656Z" fill="#4D4D4D"/>
</svg>
