<svg width="24" height="24" viewBox="0 0 24 24" fill="none" xmlns="http://www.w3.org/2000/svg">
<rect width="24" height="24" rx="4" fill="#EDF0F4"/>
<path d="M8.60599 6.07863L15.4192 10.0104V14.0208L5 8.00519L8.3392 6.07863C8.42245 6.03369 8.52274 6.03369 8.60599 6.07863Z" fill="#3CA9E5"/>
<path d="M15.4193 6L11.9453 8.0052L15.4193 10.0104V6Z" fill="#2853C3"/>
<path d="M15.4189 6L18.7609 7.92657C18.8426 7.97626 18.8934 8.06409 18.8958 8.15967V16.0232L15.4189 14.0208V6Z" fill="#1A4199"/>
<path d="M18.8933 16.0261L15.5541 17.9527C15.4672 18.0028 15.3602 18.0028 15.2733 17.9527L8.46289 14.0209V10.0049L18.8933 16.0261Z" fill="#2853C3"/>
<path d="M5 8.00513V15.8687C4.99943 15.9673 5.0506 16.0589 5.13481 16.1102L8.474 18.0368V10.0047L5 8.00513Z" fill="#60BEFF"/>
<path d="M8.47363 18.0312L11.9448 16.026L8.47363 14.0208V18.0312Z" fill="#3CA9E5"/>
</svg>
