<svg width="24" height="24" viewBox="0 0 24 24" fill="none" xmlns="http://www.w3.org/2000/svg">
<g clip-path="url(#clip0_548_25094)">
<rect width="24" height="24" rx="4" fill="white"/>
<path fill-rule="evenodd" clip-rule="evenodd" d="M11.762 3C15.4763 3.03281 18.29 5.51201 18.8348 8.80716C19.4509 12.5327 16.9227 16.0846 13.2016 16.7262C12.6992 16.8128 12.1859 16.8468 11.6759 16.8759C10.6423 16.9348 9.59686 17.6347 9.35427 19.0072C9.28466 19.401 9.19161 19.7907 9.10766 20.182C8.98567 20.7503 8.50414 21.0878 7.97124 20.98C7.42045 20.8687 7.10215 20.3757 7.22127 19.797C7.37351 19.0573 7.5367 18.3198 7.69512 17.5813C8.24886 15.0002 8.80397 12.4194 9.3552 9.83775C9.48209 9.24347 9.83299 8.91883 10.3601 8.92907C10.9441 8.94043 11.393 9.47938 11.2724 10.0515C10.9838 11.4221 10.6827 12.7901 10.3872 14.1593C10.33 14.4241 10.2774 14.6899 10.2195 14.9546C10.1961 15.0612 10.2147 15.1147 10.3418 15.1004C11.1257 15.0119 11.9115 14.9386 12.694 14.8394C14.7772 14.575 16.5219 12.9168 16.8986 10.857C17.4017 8.10641 15.6248 5.53251 12.8709 5.02272C10.1229 4.51396 7.41856 6.48099 7.05081 9.25193C6.94961 10.0145 7.01829 10.7585 7.2588 11.488C7.44496 12.0525 7.18856 12.6127 6.66723 12.7784C6.12246 12.9515 5.59475 12.6587 5.41242 12.0821C4.16673 8.14291 6.46231 4.11183 10.4958 3.17894C10.9845 3.06593 11.4927 3.03672 11.762 3Z" fill="black"/>
<path fill-rule="evenodd" clip-rule="evenodd" d="M11.1016 19.8402C11.1037 19.1941 11.5973 18.7023 12.2439 18.7021C12.8976 18.702 13.4043 19.2098 13.3952 19.8559C13.3861 20.5 12.8867 20.9955 12.2461 20.9958C11.5914 20.9961 11.0994 20.4995 11.1016 19.8402Z" fill="#E6027A"/>
</g>
<defs>
<clipPath id="clip0_548_25094">
<rect width="24" height="24" fill="white"/>
</clipPath>
</defs>
</svg>
