<svg width="24" height="24" viewBox="0 0 24 24" fill="none" xmlns="http://www.w3.org/2000/svg">
<rect width="24" height="24" rx="4" fill="black"/>
<path d="M18.1216 6.67222L16.0856 7.70951L6.25434 12.7171C6.2211 12.4635 6.20437 12.2081 6.20427 11.9524C6.207 9.87624 7.30865 7.95672 9.09987 6.90705C10.8911 5.85738 13.1041 5.83445 14.9167 6.84677L16.0821 6.25302L16.2559 6.16431C14.0792 4.58445 11.2004 4.35899 8.80428 5.58073C6.4082 6.80247 4.89987 9.26492 4.90015 11.9545C4.90015 12.1367 4.90706 12.3182 4.92089 12.4989C4.9605 13.0223 4.68178 13.5182 4.21411 13.7565L3.59961 14.0698V15.5313L5.40878 14.6092V14.6092L5.99466 14.3102L6.57197 14.0162V14.0162L16.9362 8.73535L18.1008 8.1423L20.5081 6.91545V5.45467L18.1216 6.67222Z" fill="white"/>
<path d="M20.5081 8.37769L7.16071 15.1737L5.99609 15.7682L3.59961 16.9893V18.4494L5.97964 17.2368L8.01558 16.1995L17.8569 11.1848C17.8902 11.44 17.9069 11.6971 17.907 11.9545C17.9057 14.0331 16.8028 15.9553 15.0089 17.0054C13.215 18.0554 10.999 18.076 9.18592 17.0594L9.11438 17.0973L7.85104 17.7411C10.0272 19.321 12.9056 19.547 15.3016 18.3261C17.6977 17.1052 19.2066 14.6437 19.2075 11.9545C19.2075 11.7707 19.2004 11.5868 19.1868 11.4051C19.1472 10.8819 19.4256 10.3862 19.8928 10.1475L20.5081 9.83418V8.37769Z" fill="white"/>
</svg>
