<svg width="24" height="24" viewBox="0 0 24 24" fill="none" xmlns="http://www.w3.org/2000/svg">
<g clip-path="url(#clip0_548_25093)">
<rect width="24" height="24" rx="4" fill="#172852"/>
<path d="M9.66561 5.36273C11.0708 4.83713 12.6524 4.83593 14.084 5.26793C15.9476 5.84633 17.5208 7.25273 18.3428 9.01793C18.5696 9.52073 18.7868 10.0451 18.8084 10.6043C17.7608 9.99713 16.6124 9.60353 15.4616 9.24473C13.6208 8.58113 11.6936 8.12033 9.95121 7.20833C9.54561 6.96593 9.02841 6.71753 8.91801 6.21233C8.87361 5.77553 9.33561 5.53193 9.66561 5.36273Z" fill="#FFD83D"/>
<path d="M5.42365 9.61082C5.83045 8.50682 6.49765 7.48201 7.40364 6.72241C7.63404 8.61722 8.44044 10.4484 9.77244 11.826C11.3696 13.4856 13.6448 14.5044 15.9596 14.466C16.8788 14.4948 17.7776 14.2824 18.674 14.1108C17.792 17.2981 14.2988 19.4137 11.0624 18.9049C9.10884 18.6553 7.30524 17.4985 6.21685 15.8652C4.98925 14.0604 4.67965 11.664 5.42365 9.61082Z" fill="#FFD83D"/>
<path d="M15.4619 9.24487C16.6127 9.60367 17.7611 9.99727 18.8087 10.6045L18.8795 10.6417C18.9767 11.3725 19.0475 12.1177 18.9179 12.8497C18.3911 12.6265 17.9639 12.2341 17.5175 11.8873C16.6583 11.1721 15.7811 10.3537 15.4619 9.24487Z" fill="#FF6F03"/>
</g>
<defs>
<clipPath id="clip0_548_25093">
<rect width="24" height="24" fill="white"/>
</clipPath>
</defs>
</svg>
