<svg width="24" height="24" viewBox="0 0 24 24" fill="none" xmlns="http://www.w3.org/2000/svg">
<rect width="24" height="24" rx="4" fill="#2C7DF7"/>
<path d="M13.714 20C12.5723 20 11.7389 19.725 11.214 19.175C10.7277 18.7094 10.4455 18.0702 10.4291 17.3972C10.4231 17.1927 10.4705 16.9902 10.5666 16.8096C10.6561 16.6536 10.7855 16.5241 10.9415 16.4344C11.3091 16.2511 11.7414 16.2511 12.109 16.4344C12.2647 16.5237 12.3935 16.6533 12.4818 16.8096C12.5806 16.9894 12.6298 17.1922 12.6243 17.3972C12.6345 17.6421 12.5642 17.8835 12.4243 18.0847C12.3076 18.2489 12.1409 18.3709 11.9491 18.4324C12.1367 18.6712 12.4021 18.8367 12.6991 18.9C13.0314 18.9965 13.3755 19.0461 13.7216 19.0474C14.1797 19.0514 14.6284 18.9172 15.0091 18.6624C15.404 18.3834 15.6986 17.9845 15.8491 17.525C16.0398 16.978 16.1329 16.4017 16.1241 15.8225C16.1394 15.2186 16.0376 14.6175 15.824 14.0525C15.6635 13.6005 15.3586 13.214 14.9566 12.9525C14.5828 12.716 14.149 12.5919 13.7068 12.595C13.3214 12.6276 12.9498 12.7538 12.6243 12.9625L11.8215 13.365V12.9625L15.429 8.12303H10.4291V13.145C10.4149 13.5074 10.5108 13.8656 10.7041 14.1725C10.8942 14.4445 11.2129 14.5972 11.544 14.575C11.8449 14.5689 12.1358 14.4663 12.374 14.2825C12.6439 14.0846 12.8789 13.8429 13.069 13.5674C13.0861 13.5191 13.1177 13.4773 13.1594 13.4475C13.1929 13.4186 13.2357 13.4026 13.2799 13.4025C13.3668 13.4105 13.449 13.4454 13.5149 13.5025C13.5985 13.5958 13.644 13.7172 13.6424 13.8424C13.6328 13.9267 13.6177 14.0102 13.5974 14.0924C13.4198 14.5224 13.1221 14.892 12.7399 15.1571C12.3849 15.3973 11.9656 15.5247 11.537 15.5225C10.4545 15.5225 9.70452 15.3092 9.28716 14.8825C8.8538 14.4061 8.63035 13.7754 8.66715 13.1324V8.12303H6.12402V7.18995H8.679V5.06245L8.09404 4.47709V4H9.79146L10.4291 4.33004V7.18995L17.0339 7.16986L17.6915 7.82985L13.6415 11.8995C13.8862 11.8011 14.1438 11.7388 14.4064 11.7145C14.9262 11.7373 15.4333 11.8821 15.8867 12.1371C16.4118 12.3867 16.8543 12.7816 17.1618 13.275C17.4373 13.6926 17.6323 14.1581 17.7368 14.6475C17.8227 15.0334 17.8688 15.4272 17.8743 15.8226C17.877 16.5772 17.7059 17.3222 17.3743 18C17.0599 18.6564 16.5306 19.1856 15.8743 19.5001C15.2024 19.8312 14.463 20.0023 13.714 20V20Z" fill="white"/>
</svg>
