<svg width="24" height="24" viewBox="0 0 24 24" fill="none" xmlns="http://www.w3.org/2000/svg">
<rect width="24" height="24" rx="4" fill="#6747ED"/>
<path fill-rule="evenodd" clip-rule="evenodd" d="M11.7896 13.5898C10.0185 13.5898 8.59668 12.1666 8.59668 10.3939C8.59668 8.62124 10.0185 7.1981 11.7896 7.1981C13.5606 7.1981 14.9824 8.62124 14.9824 10.3939C14.9824 12.1666 13.5606 13.5898 11.7896 13.5898ZM11.7893 5.6002C14.4334 5.6002 16.5786 7.7474 16.5786 10.394C16.5786 13.0405 14.4334 15.1877 11.7893 15.1877C9.14521 15.1877 7 13.0405 7 10.394C7 7.7474 9.14521 5.6002 11.7893 5.6002ZM16.3545 15.4374C16.6787 15.762 16.6787 16.2613 16.3545 16.5609L13.1616 19.7568C12.8373 20.0813 12.3384 20.0813 12.0391 19.7568C11.7148 19.4322 11.7148 18.9328 12.0391 18.6332L15.232 15.4374C15.5313 15.1128 16.0551 15.1128 16.3545 15.4374ZM18.2 6.39906C18.2 6.84847 17.8507 7.19802 17.4017 7.19802C16.9527 7.19802 16.6035 6.84847 16.6035 6.39906C16.6035 5.94964 16.9527 5.6001 17.4017 5.6001C17.8258 5.6001 18.2 5.94964 18.2 6.39906Z" fill="white"/>
</svg>
