<svg width="24" height="24" viewBox="0 0 24 24" fill="none" xmlns="http://www.w3.org/2000/svg">
<rect width="24" height="24" rx="4" fill="#FC070C"/>
<path fill-rule="evenodd" clip-rule="evenodd" d="M18.6472 7.60622L18.6471 7.6061C18.0914 7.0665 17.5041 6.49632 16.9858 6.03631L16.9333 5.99956C16.846 5.92942 16.7475 5.87441 16.642 5.83681L16.242 5.76219L16.2419 5.76218C13.4819 5.2472 4.53578 3.57794 4.35175 3.60032C4.29732 3.60794 4.24529 3.62768 4.1995 3.65807L4.14962 3.69745C4.08821 3.75982 4.04157 3.83516 4.01312 3.91794L4 3.95207V4.13844V4.16732C4.60737 5.85858 6.18516 9.63556 7.64198 13.123C8.87364 16.0714 10.0189 18.8129 10.4181 19.912L10.4183 19.9125C10.4708 20.0754 10.5705 20.3845 10.7567 20.4003H10.7987C10.8985 20.4003 11.3237 19.8385 11.3237 19.8385C11.3237 19.8385 18.9257 10.6195 19.6948 9.6378C19.7944 9.51687 19.8823 9.38679 19.9573 9.2493C19.9963 9.03048 19.9176 8.80727 19.7499 8.6613C19.4225 8.35896 19.0428 7.99034 18.6472 7.60623L18.6472 7.60622ZM13.2741 9.73492L16.5186 7.04431L18.4217 8.7978L13.2741 9.73492ZM6.42812 4.98107L12.0141 9.55905L15.466 6.64794L6.42812 4.98107ZM12.5181 10.7587L18.2353 9.8373L11.6991 17.7123L12.5181 10.7587ZM11.5468 10.4253L5.66949 5.43781L10.6964 17.7175L11.5468 10.4253Z" fill="white"/>
</svg>
