<svg width="24" height="24" viewBox="0 0 24 24" fill="none" xmlns="http://www.w3.org/2000/svg">
<rect width="24" height="24" rx="4" fill="#EDF0F4"/>
<path d="M14.2511 14.0001H13.574C13.4486 14.0001 13.342 13.8998 13.342 13.7681V11.9875L12.1571 12.7273C12.0568 12.79 11.9314 12.79 11.8311 12.7273L10.6524 11.9875V13.7681C10.6524 13.8935 10.5521 14.0001 10.4204 14.0001H9.74955C9.62416 14.0001 9.51758 13.8998 9.51758 13.7681V10.3324C9.51758 10.1631 9.65551 10.0251 9.82479 10.0251C9.88748 10.0251 9.94391 10.044 9.99407 10.0816L11.8624 11.3668C11.9376 11.4233 12.0442 11.4233 12.1195 11.3668L13.9878 10.0816C14.1257 9.98753 14.3201 10.0251 14.4141 10.1631C14.4517 10.2132 14.4643 10.2759 14.4706 10.3324V13.7681C14.4768 13.8935 14.3765 14.0001 14.2511 14.0001Z" fill="#FF4A4A"/>
<path d="M8.50784 13.9937H4.30721C4.13793 13.9937 4 13.8558 4 13.6865V10.232C4.00627 10.1003 4.10658 10 4.23824 10H4.91536C5.04075 10 5.14734 10.1003 5.14734 10.232V12.8589H7.69279V10.232C7.69279 10.1066 7.7931 10 7.92477 10H8.58307C8.70846 10 8.81505 10.1003 8.81505 10.232V13.6865C8.81505 13.8558 8.67712 13.9937 8.50784 13.9937Z" fill="#FF4A4A"/>
<path d="M15.4918 10H19.6924C19.8617 10 19.9996 10.1379 19.9996 10.3072V13.7618C19.9996 13.8871 19.8993 13.9937 19.7739 13.9937H19.0968C18.9714 13.9937 18.8648 13.8934 18.8648 13.7618V11.2853C18.8648 11.2038 18.7959 11.1348 18.7144 11.1348H16.4761C16.3946 11.1348 16.3256 11.2038 16.3256 11.2853V13.7618C16.3256 13.8871 16.2253 13.9937 16.0937 13.9937H15.4165C15.2912 13.9937 15.1846 13.8934 15.1846 13.7618V10.3072C15.1846 10.1379 15.3225 10 15.4918 10Z" fill="#FF4A4A"/>
<path d="M17.2535 11.8621H17.9243C18.0497 11.8621 18.1563 11.9624 18.1563 12.094V12.7774C18.1563 12.9028 18.056 13.0094 17.9243 13.0094H17.2535C17.1281 13.0094 17.0215 12.9091 17.0215 12.7774V12.0878C17.0215 11.9624 17.1281 11.8621 17.2535 11.8621Z" fill="#FF4A4A"/>
</svg>
