<svg width="24" height="24" viewBox="0 0 24 24" fill="none" xmlns="http://www.w3.org/2000/svg">
<rect width="24" height="24" rx="4" fill="black"/>
<path d="M8.19453 10.8552H8.20173L8.32414 10.8984L8.43936 10.9416L8.56177 10.9776L8.67698 11.028L8.79939 11.0712L8.9146 11.1144L9.03702 11.1576L9.15223 11.2008L9.26744 11.244L9.38265 11.2872L9.50506 11.3304L9.62027 11.3808L9.74269 11.4168L9.8579 11.4601L9.98031 11.5033L10.0955 11.5537L10.2179 11.5969L10.3331 11.6329L10.4484 11.6761L10.5708 11.7265L10.6932 11.7697V11.5825V11.5537V11.4024V11.2944V11.2152V11.028V10.848V10.6608V10.4808V10.2863V10.1063V10.0847H10.5492H10.4124H10.398H10.2467H10.1315H10.0883H9.93711H9.8579H9.77869H9.62027H9.57707H9.46906H9.31784H9.31064H9.30344H9.15943H9.02982H9.00821H8.8498H8.74899H8.47536H8.20173H8.19453H8.03612L7.9209 10.1423L7.64728 10.2863L7.36645 10.4376L7.08562 10.5744L6.81919 10.7184L6.53837 10.8696L6.25754 11.0064L5.98391 11.1576L5.70308 11.3016L5.42946 11.4385L5.15583 11.5897L4.9038 11.7193L4.875 15.8453L5.15583 16.0397L5.42946 16.2341L5.70308 16.4214L5.98391 16.623L6.25754 16.8174L6.53837 17.0118L6.66078 17.1054L6.81919 16.9038L7.08562 16.5438L7.11442 16.5078L7.08562 16.4862L6.81919 16.2917L6.53837 16.0973L6.25754 15.9029L5.98391 15.7085L5.70308 15.5069L5.63108 15.4637L5.65268 12.1225L5.70308 12.0937L5.98391 11.9569L6.25754 11.8201L6.53837 11.6833L6.81919 11.5465L7.08562 11.4024L7.36645 11.2656L7.64728 11.136L7.9209 10.992L8.19453 10.8552Z" fill="url(#paint0_linear_580_25006)"/>
<path d="M12.9619 18.7255L12.7315 18.8191L12.4722 18.9272L12.213 19.028L11.9538 19.136L11.8386 19.1792L11.7017 19.1144L11.4425 18.9776L11.1833 18.8551L10.9313 18.7183L10.672 18.5887L10.4128 18.4663L10.1536 18.3295L9.89437 18.1999L9.63514 18.0703L9.37591 17.9407L9.11669 17.8038L8.87186 17.6814L8.61264 17.5518L8.58384 17.5374V14.1675H8.35341H8.09419H7.83496V17.9983L8.09419 18.1207L8.35341 18.2503L8.61264 18.3871L8.87186 18.5095L9.11669 18.6463L9.37591 18.7759L9.63514 18.9056L9.89437 19.0352L10.1536 19.1648L10.4128 19.2944L10.672 19.424L10.9313 19.5608L11.1833 19.6832L11.4425 19.82L11.7017 19.9425L11.8026 20.0001L11.9538 19.9281L12.213 19.8344L12.4722 19.7264L12.7315 19.6184L12.9835 19.5176L13.2427 19.4168L12.9835 18.7687L12.9619 18.7255Z" fill="url(#paint1_linear_580_25006)"/>
<path d="M17.5625 14.045L17.577 15.6291L17.5121 15.6867L17.0729 15.9892L16.6337 16.306L16.1944 16.6228L15.7552 16.9325L15.3159 17.2421L14.8839 17.5589L14.4446 17.8686L14.1854 18.0558L14.0054 17.919L13.5734 17.5805L13.1341 17.2493L12.6949 16.9109L12.2628 16.5796L12.1836 16.522V14.8155L12.2628 14.7434L12.6949 14.2826L13.1341 13.829L13.5734 13.3681L14.0054 12.9145L14.4302 12.468H14.0054H13.5734H13.1341H12.6949H12.2628H11.8164H11.3771H10.9451H10.5058H10.0666H9.63456H9.19531L9.63456 12.9289L10.0666 13.3825L10.5058 13.8362L10.9451 14.297L11.3771 14.7506L11.4419 14.8155V16.8821L11.8164 17.1773L12.2628 17.5157L12.6949 17.847L13.1341 18.1854L13.5734 18.5166L14.0054 18.8551L14.1638 18.9775L14.4446 18.7758L14.8839 18.4734L15.3159 18.1566L15.7552 17.8398L16.1944 17.5373L16.6337 17.2205L17.0729 16.9037L17.5121 16.6012L17.9514 16.2844L18.3114 16.018L18.3834 14.0738L17.9514 14.0594L17.5625 14.045Z" fill="url(#paint2_linear_580_25006)"/>
<path d="M5.58812 10.3581H5.63852L5.64572 8.24111L5.92655 8.0611L6.27939 7.85227L6.62502 7.64345L6.97066 7.42743L7.31629 7.21861L7.66913 7.00259L8.00756 6.79377L8.3604 6.58495L8.70603 6.36893L9.05887 6.1529H9.06607L9.3973 6.34732L9.75013 6.54174L10.0958 6.74336L10.4414 6.93778L10.787 7.1322L11.1327 7.32662L11.4783 7.52824L11.8167 7.72266L11.8311 7.69386L12.1768 7.0674L11.8311 6.86578L11.4783 6.67136L11.1327 6.47694L10.787 6.28252L10.4414 6.0809L10.0958 5.88648L9.75013 5.69206L9.3973 5.49044L9.05887 5.29602L9.04446 5.28882L8.70603 5.49044L8.3604 5.70646L8.00756 5.92248L7.66913 6.1385L7.31629 6.34732L6.97066 6.55615L6.62502 6.77217L6.27939 6.98099L5.92655 7.19701L5.58812 7.40583L5.23528 7.61465L4.90405 7.82347L4.88965 10.3509H5.23528L5.58812 10.3581Z" fill="url(#paint3_linear_580_25006)"/>
<path d="M19.125 8.42135L18.945 8.27734L18.7649 8.13332L18.5849 7.98211L18.4049 7.83809L18.2249 7.69408L18.0377 7.55006L17.8576 7.40605L17.6776 7.26203L17.4904 7.11082L17.3536 7.01001L17.3032 7.06762L17.1232 7.29084L16.9432 7.52126L16.8928 7.57887L16.9432 7.62927L17.1232 7.78049L17.3032 7.9317L17.4904 8.08292L17.6776 8.23413L17.8576 8.39255L18.0377 8.54376L18.2249 8.69498L18.3113 8.76699L18.3185 12.1729L18.2249 12.2377L18.0377 12.3529L17.8576 12.4682L17.6776 12.5834L17.4904 12.6986L17.3032 12.8138L17.1232 12.929L16.9432 13.0442L16.7631 13.1594L16.5831 13.2746L16.4031 13.3898L16.2159 13.5051L16.0359 13.6203L15.8558 13.7355L15.6758 13.8507L15.4886 13.9659L15.3086 14.0811L15.4886 14.3691L15.6758 14.6572L15.7046 14.7076L15.8558 14.614L16.0359 14.506L16.2159 14.3907L16.4031 14.2827L16.5831 14.1603L16.7631 14.0523L16.9432 13.9371L17.1232 13.8291L17.3032 13.7139L17.4904 13.6059L17.6776 13.4835L17.8576 13.3754L18.0377 13.2602L18.2249 13.1522L18.4049 13.037L18.5849 12.929L18.7649 12.8066L18.945 12.6986L19.125 12.5834V8.42135Z" fill="url(#paint4_linear_580_25006)"/>
<path d="M13.1843 10.4518V10.6391V10.8263V11.0135V11.2079V11.4023V11.5896V11.7768V11.9208L13.2419 11.8992L13.4867 11.8056L13.7316 11.7048L13.9692 11.6112L14.214 11.5104L14.4588 11.4095L14.6965 11.3159L14.9413 11.2151L15.1861 11.1215L15.4237 11.0207L15.6686 10.9271L15.9062 10.8263V10.6391V10.5671V10.0702V6.36904L15.6326 6.19622L15.3517 6.0378L15.0709 5.87939L14.7973 5.70657L14.5165 5.54815L14.2356 5.38974L13.962 5.22412L13.6812 5.05851L13.4075 4.89289L13.1267 4.73447L12.8459 4.56886L12.5723 4.40324L12.2986 4.24482L12.0178 4.08641L11.8666 4L11.737 4.07201L11.4561 4.22322L11.1753 4.36724L10.9089 4.52565L10.6281 4.67687L10.3472 4.82088L10.0664 4.9793L10.3472 5.13771L10.6281 5.29613L10.8009 5.40414L10.9089 5.34653L11.1753 5.20252L11.4561 5.05131L11.737 4.90729L11.845 4.84969L12.0178 4.9505L12.2986 5.10891L12.5723 5.26733L12.8459 5.43294L13.1267 5.59856L13.4075 5.75698L13.6812 5.92259L13.962 6.08821L14.2356 6.24662L14.5165 6.40504L14.7973 6.57786L15.0709 6.73627L15.1645 6.78668V10.0702H15.0997H15.0709H14.9413H14.7973H14.7829H14.6173H14.5165H14.4588H14.3004H14.2356H14.142H13.9836H13.962H13.8252H13.6812H13.6668H13.5011H13.4075H13.3427H13.2203H13.1987" fill="url(#paint5_linear_580_25006)"/>
<path d="M13.1846 11.9209L15.9064 10.8264L13.1846 10.0703" fill="url(#paint6_linear_580_25006)"/>
<path d="M10.6936 11.9209V10.0991L8.20215 10.8408L10.6936 11.9137" fill="url(#paint7_linear_580_25006)"/>
<defs>
<linearGradient id="paint0_linear_580_25006" x1="4.87529" y1="10.0869" x2="4.87529" y2="17.1025" gradientUnits="userSpaceOnUse">
<stop stop-color="#F6E93D"/>
<stop offset="0.13" stop-color="#F8E330"/>
<stop offset="0.35" stop-color="#F7C730"/>
<stop offset="0.64" stop-color="#F59C2E"/>
<stop offset="0.98" stop-color="#EB5E2C"/>
<stop offset="1" stop-color="#EB5C2C"/>
</linearGradient>
<linearGradient id="paint1_linear_580_25006" x1="7.83771" y1="14.1704" x2="7.83771" y2="19.9993" gradientUnits="userSpaceOnUse">
<stop stop-color="#F6E93D"/>
<stop offset="0.13" stop-color="#F8E330"/>
<stop offset="0.35" stop-color="#F7C730"/>
<stop offset="0.64" stop-color="#F59C2E"/>
<stop offset="0.98" stop-color="#EB5E2C"/>
<stop offset="1" stop-color="#EB5C2C"/>
</linearGradient>
<linearGradient id="paint2_linear_580_25006" x1="9.19292" y1="12.4673" x2="9.19292" y2="18.9796" gradientUnits="userSpaceOnUse">
<stop stop-color="#F6E93D"/>
<stop offset="0.13" stop-color="#F8E330"/>
<stop offset="0.35" stop-color="#F7C730"/>
<stop offset="0.64" stop-color="#F59C2E"/>
<stop offset="0.98" stop-color="#EB5E2C"/>
<stop offset="1" stop-color="#EB5C2C"/>
</linearGradient>
<linearGradient id="paint3_linear_580_25006" x1="4.89032" y1="5.29098" x2="4.89032" y2="10.3588" gradientUnits="userSpaceOnUse">
<stop stop-color="#F6E93D"/>
<stop offset="0.13" stop-color="#F8E330"/>
<stop offset="0.35" stop-color="#F7C730"/>
<stop offset="0.64" stop-color="#F59C2E"/>
<stop offset="0.98" stop-color="#EB5E2C"/>
<stop offset="1" stop-color="#EB5C2C"/>
</linearGradient>
<linearGradient id="paint4_linear_580_25006" x1="15.3109" y1="7.00857" x2="15.3109" y2="14.7083" gradientUnits="userSpaceOnUse">
<stop stop-color="#F6E93D"/>
<stop offset="0.13" stop-color="#F8E330"/>
<stop offset="0.35" stop-color="#F7C730"/>
<stop offset="0.64" stop-color="#F59C2E"/>
<stop offset="0.98" stop-color="#EB5E2C"/>
<stop offset="1" stop-color="#EB5C2C"/>
</linearGradient>
<linearGradient id="paint5_linear_580_25006" x1="10.0649" y1="4" x2="10.0649" y2="11.923" gradientUnits="userSpaceOnUse">
<stop stop-color="#F6E93D"/>
<stop offset="0.13" stop-color="#F8E330"/>
<stop offset="0.35" stop-color="#F7C730"/>
<stop offset="0.64" stop-color="#F59C2E"/>
<stop offset="0.98" stop-color="#EB5E2C"/>
<stop offset="1" stop-color="#EB5C2C"/>
</linearGradient>
<linearGradient id="paint6_linear_580_25006" x1="13.1822" y1="10.0754" x2="13.1822" y2="11.9252" gradientUnits="userSpaceOnUse">
<stop stop-color="#F6E93D"/>
<stop offset="0.13" stop-color="#F8E330"/>
<stop offset="0.35" stop-color="#F7C730"/>
<stop offset="0.64" stop-color="#F59C2E"/>
<stop offset="0.98" stop-color="#EB5E2C"/>
<stop offset="1" stop-color="#EB5C2C"/>
</linearGradient>
<linearGradient id="paint7_linear_580_25006" x1="10.5218" y1="11.6783" x2="10.8459" y2="10.0126" gradientUnits="userSpaceOnUse">
<stop stop-color="#F6E93D"/>
<stop offset="0.13" stop-color="#F8E330"/>
<stop offset="0.35" stop-color="#F7C730"/>
<stop offset="0.64" stop-color="#F59C2E"/>
<stop offset="0.98" stop-color="#EB5E2C"/>
<stop offset="1" stop-color="#EB5C2C"/>
</linearGradient>
</defs>
</svg>
