<svg width="24" height="24" viewBox="0 0 24 24" fill="none" xmlns="http://www.w3.org/2000/svg">
<rect width="24" height="24" rx="4" fill="#51CBFF"/>
<path d="M10.9752 18.3699L4.63214 5.45011C4.52907 5.24397 4.68405 5 4.91244 5H7.11035C7.22826 5 7.33875 5.06674 7.39065 5.16981L12.023 14.5428C12.4361 15.3837 13.6307 15.3837 14.0437 14.5428L18.6612 5.17723C18.7132 5.07415 18.8236 5.00742 18.9415 5.00742H19.2144C19.3768 5.00742 19.4799 5.17723 19.4065 5.31738L12.9967 18.3699C12.5836 19.21 11.3883 19.21 10.9752 18.3699Z" fill="white"/>
<path opacity="0.1" d="M10.975 18.3698L7.39039 5.17714C7.33848 5.06665 7.22058 5.00732 7.12492 5.00732H4.9196C4.67637 5.00732 4.53622 5.25055 4.63188 5.45744L10.975 18.3698Z" fill="white"/>
<path opacity="0.1" d="M12.0231 14.5495L4.63223 5.45011C4.54399 5.23655 4.67672 5.02225 4.88287 5H7.11786C7.24318 5.00742 7.33884 5.08824 7.38333 5.16981L12.0231 14.5495Z" fill="white"/>
</svg>
