<svg width="528" height="435" fill="none" xmlns="http://www.w3.org/2000/svg"><g clip-path="url(#clip0_1694_22233)"><path fill="#F6F6F6" d="M0 0h528v435H0z"/><path d="M263.337 49v338.669M248.562 49.664l29.551 337.341m-44.165-335.46l58.769 333.579m-73.21-330.369l87.655 327.159M205.395 59.237l115.878 318.195M191.78 64.882l143.105 306.905M178.668 71.689L348.003 364.98M166.214 79.602l194.237 277.465M154.483 88.622l217.7 259.425m-228.6-249.464l239.503 239.503M133.622 109.485l259.425 217.7M124.605 121.216l277.466 194.237M116.688 133.667L409.98 303.002m-300.102-156.22l306.906 143.105M104.238 160.396l318.194 115.878M99.753 174.507l327.159 87.655M96.545 188.95l333.579 58.769m-335.462-44.16l337.342 29.551M94 218.334h338.669M94.662 233.11l337.342-29.551m-335.459 44.16l333.579-58.769M99.753 262.162l327.159-87.655M104.238 276.274l318.194-115.878M109.878 289.887l306.906-143.105m-300.096 156.22L409.98 133.667M124.605 315.453l277.466-194.237M133.622 327.185l259.425-217.7M143.583 338.086L383.086 98.583M154.483 348.047l217.7-259.425M166.214 357.067L360.451 79.602M178.668 364.98L348.003 71.688M191.78 371.787L334.885 64.882m-129.49 312.55L321.273 59.237M219.507 381.914l87.655-327.159m-73.214 330.369l58.769-333.579m-44.155 335.46l29.551-337.34" stroke="#9489FE" stroke-width=".553" stroke-miterlimit="10"/><path d="M257.413 82.314l11.843 272.042M245.569 83.365l35.528 269.939M233.894 85.412l58.88 265.845m-70.39-262.746l81.9 259.647M211.263 92.551L315.41 344.118M200.467 97.587l125.728 241.495M190.177 103.508l146.314 229.653M180.438 110.315l165.792 216.04M171.364 117.951l183.944 200.767M162.953 126.363L363.72 310.306M155.317 135.438l216.04 165.793M148.508 145.177l229.653 146.314M142.59 155.47l241.496 125.728M137.551 166.261l251.567 104.147m-255.605-93.024l259.646 81.901m-262.746-70.39l265.844 58.879m-267.892-47.203l269.94 35.527m-270.992-23.685l272.043 11.843m-272.043 0l272.043-11.843m-270.991 23.685l269.94-35.527m-267.892 47.203l265.844-58.879m-262.744 70.39l259.646-81.901m-255.608 93.024l251.567-104.147M142.59 281.198L384.086 155.47M148.508 291.491l229.653-146.314M155.317 301.231l216.04-165.793M162.953 310.306L363.72 126.363M171.364 318.718l183.944-200.767m-174.87 208.404l165.792-216.04M190.177 333.161l146.314-229.653M200.467 339.082L326.195 97.587M211.263 344.118L315.41 92.551m-93.026 255.607l81.9-259.647m-70.39 262.746l58.88-265.845m-47.205 267.892l35.528-269.939m-23.684 270.991l11.843-272.043" stroke="#F9FAFB" stroke-width=".553" stroke-miterlimit="10"/><path d="M258.576 109.872l9.518 216.925M249.17 110.702l28.333 215.265m-37.684-213.605l47.038 211.945m-56.172-209.51l65.299 207.075m-74.208-203.865l83.118 200.655m-91.697-196.616l100.272 192.577M205.011 126.75l116.653 183.169m-124.402-177.69L329.41 304.441M190.016 138.316l146.646 160.038M183.319 145.012l160.038 146.646M177.228 152.261L349.44 284.408m-177.688-124.4l183.169 116.653M167.046 168.198l192.577 100.273m-196.615-91.695l200.656 83.118m-203.868-74.209l207.075 65.299m-209.504-56.168l211.945 47.037m-213.607-37.685l215.265 28.333m-216.096-18.925l216.925 9.518m-216.925 0l216.925-9.518m-216.094 18.925l215.265-28.333m-213.603 37.685l211.945-47.037m-209.516 56.168l207.075-65.299m-203.863 74.209l200.656-83.118m-196.618 91.695l192.577-100.273M171.752 276.661l183.169-116.653m-177.693 124.4L349.44 152.261M183.319 291.658l160.038-146.646M190.016 298.354l146.646-160.038m-139.4 166.125L329.41 132.229m-124.399 177.69L321.664 126.75M213.197 314.623l100.272-192.577m-91.693 196.616l83.118-200.655m-74.209 203.865l65.299-207.075m-56.165 209.51l47.038-211.945M249.17 325.967l28.333-215.265m-18.927 216.095l9.518-216.925m-4.762-27.669v272.263M251.492 82.7l23.685 271.268M239.705 84.25l47.258 268.169M228.086 86.851l70.501 262.967M216.792 90.393l93.079 255.883M205.779 94.93l115.104 246.81M195.269 100.464l136.132 235.741m-146.15-229.377l156.165 223.013M175.841 114.078L350.82 322.592m-183.719-200.49l192.466 192.465M159.075 130.845l208.514 174.979m-215.76-165.572l223.012 156.164m-229.38-146.147L381.201 286.4M139.933 160.783l246.808 115.103M135.392 171.795l255.883 93.079m-259.424-81.79l262.967 70.501m-265.573-58.88l268.169 47.259M127.7 206.492l271.267 23.685m-271.765-11.843h272.263M127.7 230.177l271.267-23.685m-269.722 35.472l268.169-47.259m-265.563 58.88l262.967-70.501m-259.426 81.79l255.883-93.079M139.933 275.886l246.808-115.103M145.461 286.4l235.74-136.131M151.829 296.416l223.012-156.164M159.075 305.824l208.514-174.979M167.101 314.567l192.466-192.465m-183.726 200.49L350.82 114.078M185.251 329.841l156.165-223.013M195.269 336.205l136.132-235.741M205.779 341.739L320.883 94.931M216.792 346.276l93.079-255.883m-81.785 259.425l70.501-262.967m-58.882 265.568L286.963 84.25m-35.471 269.718l23.685-271.267" stroke="#121B23" stroke-width="2.214" stroke-miterlimit="10"/><path d="M263.338 109.872v216.925m-9.463-216.538l18.926 216.151M244.52 111.532l37.63 213.605M235.283 113.58l56.112 209.51m-65.134-206.688l74.153 203.866m-82.897-200.214l91.64 196.561M209.106 124.426l108.463 187.817M201.136 129.462l124.401 177.746M193.613 135.272l139.452 166.125M186.639 141.636l153.398 153.397M180.275 148.609l166.126 139.452M174.462 156.135l177.746 124.4m-182.78-116.432l187.817 108.463m-192.19-100.051l196.562 91.64m-200.211-82.897l203.866 74.153M158.58 190.278l209.51 56.113M156.532 199.52l213.605 37.629m-214.878-28.277l216.151 18.925m-216.536-9.463h216.925m-216.54 9.463l216.151-18.925m-214.878 28.277l213.605-37.629M158.58 246.391l209.51-56.113m-206.684 65.133l203.866-74.153m-200.217 82.897l196.562-91.64M169.428 272.566l187.817-108.463M174.462 280.535l177.746-124.4M180.275 288.061l166.126-139.452M186.639 295.033l153.398-153.397M193.613 301.397l139.452-166.125M201.136 307.208l124.401-177.746M209.106 312.243l108.463-187.817M217.517 316.615l91.64-196.561m-82.896 200.214l74.153-203.866M235.283 323.09l56.112-209.51M244.52 325.137l37.63-213.605M253.875 326.41l18.926-216.151" stroke="#40DCAF" stroke-width=".553" stroke-miterlimit="10"/><path d="M263.334 138.648v159.374m-6.974-159.097l13.946 158.82m-20.803-157.88l27.669 156.939M242.694 141.36l41.282 153.95m-47.922-151.848l54.563 149.745m-60.983-147.088l67.402 144.432m-73.545-141.223l79.687 138.013m-85.552-134.305l91.418 130.598m-96.951-126.337L314.58 279.373M206.998 162l112.669 112.669m-117.37-107.577l122.076 102.486m-126.335-96.953l130.598 91.419m-134.308-85.553l138.013 79.687M191.12 184.634l144.433 67.401m-147.091-60.982l149.745 54.563m-151.844-47.923l153.95 41.283M184.865 204.5l156.939 27.669m-157.879-20.807l158.821 13.945m-159.098-6.972h159.374m-159.097 6.972l158.821-13.945m-157.881 20.807L341.804 204.5m-155.441 34.476l153.95-41.283m-151.851 47.923l149.745-54.563M191.12 252.035l144.433-67.401m-141.225 73.544l138.013-79.687m-134.303 85.553l130.598-91.419m-126.339 96.953l122.076-102.486M206.998 274.669L319.667 162M212.093 279.373L314.58 157.297m-96.954 126.337l91.418-130.598m-85.553 134.305l79.687-138.013m-73.544 141.223l67.402-144.432m-60.982 147.088l54.563-149.745M242.694 295.31l41.282-153.95m-34.473 155.444l27.669-156.939m-20.812 157.88l13.946-158.82" stroke="#121B23" stroke-width="2.214" stroke-miterlimit="10"/><path d="M226.532 147.668l73.6 141.334m-79.63-137.848l85.664 134.361m-91.361-130.376l97.063 126.392M209.49 159.565l107.688 117.539M204.563 164.491l117.538 107.688M200.139 169.803l126.392 97.063m-130.375-91.363l134.362 85.664m-137.855-79.632l141.334 73.6m-144.265-67.292l147.2 60.983m-149.576-54.453l151.958 47.923m-153.785-41.227L341.14 235.6m-156.831-27.669l158.045 20.807m-158.651-13.89l159.263 6.973m-159.263 0l159.263-6.973m-158.657 13.89l158.045-20.807M185.529 235.6l155.611-34.531m-153.784 41.227l151.958-47.923m-149.582 54.453l147.2-60.983m-144.269 67.292l141.334-73.6m-137.841 79.632l134.362-85.664m-130.379 91.363l126.392-97.063M204.563 272.179l117.538-107.688M209.49 277.104l107.688-117.539M214.805 281.531l97.063-126.392m-91.366 130.376l85.664-134.361m-79.634 137.848l73.6-141.334m-67.288 144.267l60.982-147.2m-54.454 149.579l47.922-151.958M246.068 296.14l34.531-155.61m-27.665 156.827l20.807-158.045m-13.89 158.654l6.973-159.263m0 159.263l-6.973-159.263m13.89 158.654l-20.807-158.045m27.665 156.828l-34.531-155.61m41.226 153.784l-47.922-151.958m54.454 149.579l-60.982-147.2" stroke="#F9FAFB" stroke-width=".553" stroke-miterlimit="10"/><path d="M263.887 272.566c29.34 0 53.125-23.785 53.125-53.125s-23.785-53.124-53.125-53.124-53.125 23.784-53.125 53.124c0 29.34 23.785 53.125 53.125 53.125z" fill="#121B23"/><path d="M263.886 300.235c44.621 0 80.794-36.172 80.794-80.794 0-44.621-36.173-80.793-80.794-80.793-44.621 0-80.794 36.172-80.794 80.793 0 44.622 36.173 80.794 80.794 80.794z" stroke="#121B23" stroke-width="6.641" stroke-miterlimit="10"/><path d="M263.888 329.011c60.513 0 109.569-49.056 109.569-109.57 0-60.513-49.056-109.569-109.569-109.569-60.514 0-109.57 49.056-109.57 109.569 0 60.514 49.056 109.57 109.57 109.57z" stroke="#121B23" stroke-width="6.641" stroke-miterlimit="10"/><path d="M263.887 356.68c75.795 0 137.239-61.444 137.239-137.239 0-75.794-61.444-137.238-137.239-137.238S126.648 143.647 126.648 219.44c0 75.795 61.444 137.239 137.239 137.239z" stroke="#121B23" stroke-width="6.641" stroke-miterlimit="10"/><path d="M431.839 205.828a2.213 2.213 0 10.001-4.427 2.213 2.213 0 00-.001 4.427zm-66.738 135.966a2.214 2.214 0 100-4.429 2.214 2.214 0 000 4.429zM301.519 77.776a2.213 2.213 0 100-4.427 2.213 2.213 0 000 4.427zm-178.8 193.96a2.213 2.213 0 10-.001-4.427 2.213 2.213 0 00.001 4.427zM99.754 176.72a2.213 2.213 0 100-4.427 2.213 2.213 0 000 4.427zm97.006-98.944a2.214 2.214 0 100-4.427 2.214 2.214 0 000 4.427z" fill="#9489FE"/><path d="M287.904 128.853a2.214 2.214 0 100-4.427 2.214 2.214 0 000 4.427zm3.156 195.122a2.214 2.214 0 100-4.427 2.214 2.214 0 000 4.427zM176.509 159.676a2.213 2.213 0 10.001-4.427 2.213 2.213 0 00-.001 4.427z" fill="#40DCAF"/><path d="M357.855 245.671a2.213 2.213 0 100-4.427 2.213 2.213 0 000 4.427z" fill="#121B23"/><path d="M329.687 235.268a2.213 2.213 0 10-.001-4.427 2.213 2.213 0 00.001 4.427zm-96.954 44.049a2.213 2.213 0 10-.001-4.427 2.213 2.213 0 00.001 4.427z" fill="#F9FAFB"/><path d="M234.226 150.269a2.214 2.214 0 100-4.427 2.214 2.214 0 000 4.427zm126.784-19.203a2.213 2.213 0 10.001-4.427 2.213 2.213 0 00-.001 4.427zM181.436 326.797a2.213 2.213 0 100-4.427 2.213 2.213 0 000 4.427zm52.79-237.511a2.214 2.214 0 100-4.427 2.214 2.214 0 000 4.427zm106.252 215.431a2.213 2.213 0 10.001-4.427 2.213 2.213 0 00-.001 4.427z" fill="#121B23"/><path opacity=".4" d="M229.836 336.625c0 26.824 15.492 48.514 34.651 48.514 19.159 0 34.651-21.69 34.651-48.514V217.327h-69.302v119.298z" fill="#F9FAFB" stroke="url(#paint0_linear_1694_22233)" stroke-width=".591" stroke-miterlimit="10"/><path d="M264.384 252.309c19.214 0 34.791-15.576 34.791-34.79 0-19.215-15.577-34.791-34.791-34.791s-34.79 15.576-34.79 34.791c0 19.214 15.576 34.79 34.79 34.79z" fill="#121B23" stroke="#40DCAF" stroke-width="1.108" stroke-miterlimit="10"/><path d="M267.262 218.184c2.659-1.109 4.433-3.768 4.433-6.76 0-4.101-3.325-7.314-7.315-7.314-4.1 0-7.314 3.324-7.314 7.314 0 2.992 1.884 5.651 4.433 6.76l-2.659 12.744h11.081l-2.659-12.744z" fill="url(#paint1_linear_1694_22233)"/></g><defs><linearGradient id="paint0_linear_1694_22233" x1="264.478" y1="216.91" x2="264.478" y2="385.513" gradientUnits="userSpaceOnUse"><stop stop-color="#121B23" stop-opacity=".3"/><stop offset="1" stop-color="#121B23"/></linearGradient><linearGradient id="paint1_linear_1694_22233" x1="264.364" y1="203.104" x2="264.364" y2="245.848" gradientUnits="userSpaceOnUse"><stop stop-color="#40DCAF"/><stop offset="1" stop-color="#121B23"/></linearGradient><clipPath id="clip0_1694_22233"><path fill="#fff" d="M0 0h528v435H0z"/></clipPath></defs></svg>