<svg width="528" height="435" fill="none" xmlns="http://www.w3.org/2000/svg"><g clip-path="url(#clip0_1694_62055)"><path fill="#111" d="M0 0h528v435H0z"/><path d="M182.504 242h-24.768v-43.52h8.832v35.712h15.936V242zm9.26 0v-43.52h28.16v7.68h-19.328v10.176h15.488v7.552h-15.488v10.432h19.328V242h-28.16zm62.829-43.52h9.28L253.761 242h-16.32l-10.112-43.52h9.28l7.552 35.84h2.88l7.552-35.84zm18.85 43.52v-43.52h28.16v7.68h-19.328v10.176h15.488v7.552h-15.488v10.432h19.328V242h-28.16zm64.046 0h-24.768v-43.52h8.832v35.712h15.936V242zm36.186-10.24c1.28 2.219 3.648 3.328 7.104 3.328s5.803-1.109 7.04-3.328c1.28-2.261 1.92-6.016 1.92-11.264 0-5.291-.64-9.131-1.92-11.52-1.28-2.389-3.627-3.584-7.04-3.584-3.413 0-5.76 1.195-7.04 3.584-1.28 2.389-1.92 6.229-1.92 11.52 0 5.248.619 9.003 1.856 11.264zm21.056 5.632c-2.688 3.584-7.339 5.376-13.952 5.376-6.613 0-11.285-1.792-14.016-5.376-2.688-3.627-4.032-9.28-4.032-16.96 0-7.68 1.344-13.376 4.032-17.088 2.731-3.755 7.403-5.632 14.016-5.632s11.264 1.877 13.952 5.632c2.731 3.712 4.096 9.408 4.096 17.088 0 7.68-1.365 13.333-4.096 16.96zm15.51 4.608v-43.52h14.912l10.496 35.84h.64v-35.84h8.832V242h-14.528l-10.88-35.84h-.64V242h-8.832zm48.215 0v-43.52h28.16v7.68h-19.328v10.176h15.488v7.552h-15.488v10.432h19.328V242h-28.16z" fill="#fff"/><path d="M257.752 143h-12.384v-21.76h4.416v17.856h7.968V143zm4.63 0v-21.76h14.08v3.84h-9.664v5.088h7.744v3.776h-7.744v5.216h9.664V143h-14.08zm31.415-21.76h4.64L293.381 143h-8.16l-5.056-21.76h4.64l3.776 17.92h1.44l3.776-17.92zm9.425 21.76v-21.76h14.08v3.84h-9.664v5.088h7.744v3.776h-7.744v5.216h9.664V143h-14.08zm32.023 0h-12.384v-21.76h4.416v17.856h7.968V143zm18.092-5.12c.64 1.109 1.824 1.664 3.552 1.664s2.902-.555 3.52-1.664c.64-1.131.96-3.008.96-5.632 0-2.645-.32-4.565-.96-5.76-.64-1.195-1.813-1.792-3.52-1.792-1.706 0-2.88.597-3.52 1.792-.64 1.195-.96 3.115-.96 5.76 0 2.624.31 4.501.928 5.632zm10.528 2.816c-1.344 1.792-3.669 2.688-6.976 2.688-3.306 0-5.642-.896-7.008-2.688-1.344-1.813-2.016-4.64-2.016-8.48 0-3.84.672-6.688 2.016-8.544 1.366-1.877 3.702-2.816 7.008-2.816 3.307 0 5.632.939 6.976 2.816 1.366 1.856 2.048 4.704 2.048 8.544 0 3.84-.682 6.667-2.048 8.48zm7.756 2.304v-21.76h7.456l5.248 17.92h.32v-17.92h4.416V143h-7.264l-5.44-17.92h-.32V143h-4.416zm24.107 0v-21.76h14.08v3.84h-9.664v5.088h7.744v3.776h-7.744v5.216h9.664V143h-14.08z" fill="#fff" fill-opacity=".32"/><path d="M103.44 73H87.96V45.8h5.52v22.32h9.96V73zm5.787 0V45.8h17.6v4.8h-12.08v6.36h9.68v4.72h-9.68v6.52h12.08V73h-17.6zm39.269-27.2h5.8l-6.32 27.2h-10.2l-6.32-27.2h5.8l4.72 22.4h1.8l4.72-22.4zM160.277 73V45.8h17.6v4.8h-12.08v6.36h9.68v4.72h-9.68v6.52h12.08V73h-17.6zm40.029 0h-15.48V45.8h5.52v22.32h9.96V73zm22.616-6.4c.8 1.387 2.28 2.08 4.44 2.08 2.16 0 3.627-.693 4.4-2.08.8-1.413 1.2-3.76 1.2-7.04 0-3.307-.4-5.707-1.2-7.2-.8-1.493-2.267-2.24-4.4-2.24-2.133 0-3.6.747-4.4 2.24-.8 1.493-1.2 3.893-1.2 7.2 0 3.28.387 5.627 1.16 7.04zm13.16 3.52c-1.68 2.24-4.587 3.36-8.72 3.36-4.133 0-7.053-1.12-8.76-3.36-1.68-2.267-2.52-5.8-2.52-10.6s.84-8.36 2.52-10.68c1.707-2.347 4.627-3.52 8.76-3.52s7.04 1.173 8.72 3.52c1.707 2.32 2.56 5.88 2.56 10.68s-.853 8.333-2.56 10.6zm9.694 2.88V45.8h9.32l6.56 22.4h.4V45.8h5.52V73h-9.08l-6.8-22.4h-.4V73h-5.52zm30.134 0V45.8h17.6v4.8h-12.08v6.36h9.68v4.72h-9.68v6.52h12.08V73h-17.6zm120.154 233h-9.288v-16.32h3.312v13.392h5.976V306zm3.472 0v-16.32h10.56v2.88h-7.248v3.816h5.808v2.832h-5.808v3.912h7.248V306h-10.56zm23.561-16.32h3.48L422.785 306h-6.12l-3.792-16.32h3.48l2.832 13.44h1.08l2.832-13.44zm7.069 16.32v-16.32h10.56v2.88h-7.248v3.816h5.808v2.832h-5.808v3.912h7.248V306h-10.56zm24.017 0h-9.288v-16.32h3.312v13.392h5.976V306zm13.57-3.84c.48.832 1.368 1.248 2.664 1.248s2.176-.416 2.64-1.248c.48-.848.72-2.256.72-4.224 0-1.984-.24-3.424-.72-4.32-.48-.896-1.36-1.344-2.64-1.344s-2.16.448-2.64 1.344c-.48.896-.72 2.336-.72 4.32 0 1.968.232 3.376.696 4.224zm7.896 2.112c-1.008 1.344-2.752 2.016-5.232 2.016-2.48 0-4.232-.672-5.256-2.016-1.008-1.36-1.512-3.48-1.512-6.36 0-2.88.504-5.016 1.512-6.408 1.024-1.408 2.776-2.112 5.256-2.112 2.48 0 4.224.704 5.232 2.112 1.024 1.392 1.536 3.528 1.536 6.408 0 2.88-.512 5-1.536 6.36zm5.816 1.728v-16.32h5.592l3.936 13.44h.24v-13.44h3.312V306h-5.448l-4.08-13.44h-.24V306h-3.312zm18.081 0v-16.32h10.56v2.88h-7.248v3.816h5.808v2.832h-5.808v3.912h7.248V306h-10.56z" fill="#fff" fill-opacity=".8"/><path d="M5.128 20h-18.576v-32.64h6.624v26.784H5.128V20zm6.945 0v-32.64h21.12v5.76H18.697V.752h11.616v5.664H18.697v7.824h14.496V20h-21.12zm47.122-32.64h6.96L58.57 20H46.33l-7.584-32.64h6.96l5.664 26.88h2.16l5.664-26.88zM73.333 20v-32.64h21.12v5.76H79.957V.752h11.616v5.664H79.957v7.824h14.496V20h-21.12zm48.034 0h-18.576v-32.64h6.624v26.784h11.952V20zm27.139-7.68c.96 1.664 2.736 2.496 5.328 2.496s4.352-.832 5.28-2.496c.96-1.696 1.44-4.512 1.44-8.448 0-3.968-.48-6.848-1.44-8.64-.96-1.792-2.72-2.688-5.28-2.688s-4.32.896-5.28 2.688c-.96 1.792-1.44 4.672-1.44 8.64 0 3.936.464 6.752 1.392 8.448zm15.792 4.224c-2.016 2.688-5.504 4.032-10.464 4.032-4.96 0-8.464-1.344-10.512-4.032-2.016-2.72-3.024-6.96-3.024-12.72 0-5.76 1.008-10.032 3.024-12.816 2.048-2.816 5.552-4.224 10.512-4.224 4.96 0 8.448 1.408 10.464 4.224 2.048 2.784 3.072 7.056 3.072 12.816 0 5.76-1.024 10-3.072 12.72zM175.931 20v-32.64h11.184l7.872 26.88h.48v-26.88h6.624V20h-10.896l-8.16-26.88h-.48V20h-6.624zm36.161 0v-32.64h21.12v5.76h-14.496V.752h11.616v5.664h-11.616v7.824h14.496V20h-21.12z" fill="#fff" fill-opacity=".56"/><path d="M379.44 383h-15.48v-27.2h5.52v22.32h9.96V383zm5.787 0v-27.2h17.6v4.8h-12.08v6.36h9.68v4.72h-9.68v6.52h12.08v4.8h-17.6zm39.269-27.2h5.8l-6.32 27.2h-10.2l-6.32-27.2h5.8l4.72 22.4h1.8l4.72-22.4zm11.781 27.2v-27.2h17.6v4.8h-12.08v6.36h9.68v4.72h-9.68v6.52h12.08v4.8h-17.6zm40.029 0h-15.48v-27.2h5.52v22.32h9.96V383zm22.616-6.4c.8 1.387 2.28 2.08 4.44 2.08 2.16 0 3.627-.693 4.4-2.08.8-1.413 1.2-3.76 1.2-7.04 0-3.307-.4-5.707-1.2-7.2-.8-1.493-2.267-2.24-4.4-2.24-2.133 0-3.6.747-4.4 2.24-.8 1.493-1.2 3.893-1.2 7.2 0 3.28.387 5.627 1.16 7.04zm13.16 3.52c-1.68 2.24-4.587 3.36-8.72 3.36-4.133 0-7.053-1.12-8.76-3.36-1.68-2.267-2.52-5.8-2.52-10.6s.84-8.36 2.52-10.68c1.707-2.347 4.627-3.52 8.76-3.52s7.04 1.173 8.72 3.52c1.707 2.32 2.56 5.88 2.56 10.68s-.853 8.333-2.56 10.6zm9.694 2.88v-27.2h9.32l6.56 22.4h.4v-22.4h5.52V383h-9.08l-6.8-22.4h-.4V383h-5.52zm30.134 0v-27.2h17.6v4.8h-12.08v6.36h9.68v4.72h-9.68v6.52h12.08v4.8h-17.6z" fill="#fff" fill-opacity=".8"/><path d="M26.752 334H14.368v-21.76h4.416v17.856h7.968V334zm4.63 0v-21.76h14.08v3.84h-9.664v5.088h7.744v3.776h-7.744v5.216h9.664V334h-14.08zm31.415-21.76h4.64L62.38 334h-8.16l-5.056-21.76h4.64l3.776 17.92h1.44l3.776-17.92zM72.222 334v-21.76h14.08v3.84h-9.664v5.088h7.744v3.776h-7.744v5.216h9.664V334h-14.08zm32.023 0H91.86v-21.76h4.416v17.856h7.969V334zm18.092-5.12c.64 1.109 1.824 1.664 3.552 1.664s2.902-.555 3.52-1.664c.64-1.131.96-3.008.96-5.632 0-2.645-.32-4.565-.96-5.76-.64-1.195-1.813-1.792-3.52-1.792-1.706 0-2.88.597-3.52 1.792-.64 1.195-.96 3.115-.96 5.76 0 2.624.31 4.501.928 5.632zm10.528 2.816c-1.344 1.792-3.669 2.688-6.976 2.688-3.306 0-5.642-.896-7.008-2.688-1.344-1.813-2.016-4.64-2.016-8.48 0-3.84.672-6.688 2.016-8.544 1.366-1.877 3.702-2.816 7.008-2.816 3.307 0 5.632.939 6.976 2.816 1.366 1.856 2.048 4.704 2.048 8.544 0 3.84-.682 6.667-2.048 8.48zm7.756 2.304v-21.76h7.456l5.248 17.92h.32v-17.92h4.416V334h-7.264l-5.44-17.92h-.32V334h-4.416zm24.107 0v-21.76h14.08v3.84h-9.664v5.088h7.744v3.776h-7.744v5.216h9.664V334h-14.08z" fill="#fff" fill-opacity=".64"/><path d="M19.376 386h-6.192v-10.88h2.208v8.928h3.984V386zm2.315 0v-10.88h7.04v1.92h-4.832v2.544h3.872v1.888h-3.872v2.608h4.832V386h-7.04zm15.707-10.88h2.32L37.19 386h-4.08l-2.528-10.88h2.32l1.888 8.96h.72l1.888-8.96zM42.111 386v-10.88h7.04v1.92h-4.832v2.544h3.872v1.888h-3.872v2.608h4.832V386h-7.04zm16.011 0H51.93v-10.88h2.208v8.928h3.984V386zm9.047-2.56c.32.555.912.832 1.776.832s1.45-.277 1.76-.832c.32-.565.48-1.504.48-2.816 0-1.323-.16-2.283-.48-2.88-.32-.597-.907-.896-1.76-.896-.854 0-1.44.299-1.76.896-.32.597-.48 1.557-.48 2.88 0 1.312.154 2.251.464 2.816zm5.264 1.408c-.672.896-1.835 1.344-3.488 1.344-1.654 0-2.822-.448-3.504-1.344-.672-.907-1.008-2.32-1.008-4.24 0-1.92.336-3.344 1.008-4.272.682-.939 1.85-1.408 3.504-1.408 1.653 0 2.816.469 3.488 1.408.682.928 1.024 2.352 1.024 4.272 0 1.92-.342 3.333-1.024 4.24zM76.31 386v-10.88h3.728l2.624 8.96h.16v-8.96h2.208V386h-3.632l-2.72-8.96h-.16V386H76.31zm12.054 0v-10.88h7.04v1.92h-4.832v2.544h3.872v1.888h-3.872v2.608h4.832V386h-7.04z" fill="#fff" fill-opacity=".88"/><path d="M138.128 441h-18.576v-32.64h6.624v26.784h11.952V441zm6.945 0v-32.64h21.12v5.76h-14.496v7.632h11.616v5.664h-11.616v7.824h14.496V441h-21.12zm47.122-32.64h6.96L191.571 441h-12.24l-7.584-32.64h6.96l5.664 26.88h2.16l5.664-26.88zM206.333 441v-32.64h21.12v5.76h-14.496v7.632h11.616v5.664h-11.616v7.824h14.496V441h-21.12zm48.034 0h-18.576v-32.64h6.624v26.784h11.952V441zm27.139-7.68c.96 1.664 2.736 2.496 5.328 2.496s4.352-.832 5.28-2.496c.96-1.696 1.44-4.512 1.44-8.448 0-3.968-.48-6.848-1.44-8.64-.96-1.792-2.72-2.688-5.28-2.688s-4.32.896-5.28 2.688c-.96 1.792-1.44 4.672-1.44 8.64 0 3.936.464 6.752 1.392 8.448zm15.792 4.224c-2.016 2.688-5.504 4.032-10.464 4.032-4.96 0-8.464-1.344-10.512-4.032-2.016-2.72-3.024-6.96-3.024-12.72 0-5.76 1.008-10.032 3.024-12.816 2.048-2.816 5.552-4.224 10.512-4.224 4.96 0 8.448 1.408 10.464 4.224 2.048 2.784 3.072 7.056 3.072 12.816 0 5.76-1.024 10-3.072 12.72zM308.931 441v-32.64h11.184l7.872 26.88h.48v-26.88h6.624V441h-10.896l-8.16-26.88h-.48V441h-6.624zm36.161 0v-32.64h21.12v5.76h-14.496v7.632h11.616v5.664h-11.616v7.824h14.496V441h-21.12z" fill="#fff" fill-opacity=".72"/><path d="M70.22 170h-7.74v-13.6h2.76v11.16h4.98V170zm2.894 0v-13.6h8.8v2.4h-6.04v3.18h4.84v2.36h-4.84v3.26h6.04v2.4h-8.8zm19.634-13.6h2.9l-3.16 13.6h-5.1l-3.16-13.6h2.9l2.36 11.2h.9l2.36-11.2zm5.89 13.6v-13.6h8.801v2.4h-6.04v3.18h4.84v2.36h-4.84v3.26h6.04v2.4h-8.8zm20.015 0h-7.74v-13.6h2.76v11.16h4.98V170zm11.308-3.2c.4.693 1.14 1.04 2.22 1.04 1.08 0 1.813-.347 2.2-1.04.4-.707.6-1.88.6-3.52 0-1.653-.2-2.853-.6-3.6-.4-.747-1.133-1.12-2.2-1.12-1.067 0-1.8.373-2.2 1.12-.4.747-.6 1.947-.6 3.6 0 1.64.193 2.813.58 3.52zm6.58 1.76c-.84 1.12-2.293 1.68-4.36 1.68s-3.527-.56-4.38-1.68c-.84-1.133-1.26-2.9-1.26-5.3s.42-4.18 1.26-5.34c.853-1.173 2.313-1.76 4.38-1.76 2.067 0 3.52.587 4.36 1.76.853 1.16 1.28 2.94 1.28 5.34s-.427 4.167-1.28 5.3zm4.847 1.44v-13.6h4.66l3.28 11.2h.2v-11.2h2.76V170h-4.54l-3.4-11.2h-.2V170h-2.76zm15.067 0v-13.6h8.8v2.4h-6.04v3.18h4.84v2.36h-4.84v3.26h6.04v2.4h-8.8z" fill="#fff" fill-opacity=".8"/><path d="M28.376 272h-6.192v-10.88h2.208v8.928h3.984V272zm2.315 0v-10.88h7.04v1.92h-4.832v2.544h3.872v1.888h-3.872v2.608h4.832V272h-7.04zm15.707-10.88h2.32L46.19 272h-4.08l-2.528-10.88h2.32l1.888 8.96h.72l1.888-8.96zM51.111 272v-10.88h7.04v1.92h-4.832v2.544h3.872v1.888h-3.872v2.608h4.832V272h-7.04zm16.011 0H60.93v-10.88h2.208v8.928h3.984V272zm9.047-2.56c.32.555.912.832 1.776.832s1.45-.277 1.76-.832c.32-.565.48-1.504.48-2.816 0-1.323-.16-2.283-.48-2.88-.32-.597-.907-.896-1.76-.896-.854 0-1.44.299-1.76.896-.32.597-.48 1.557-.48 2.88 0 1.312.154 2.251.464 2.816zm5.264 1.408c-.672.896-1.835 1.344-3.488 1.344-1.654 0-2.822-.448-3.504-1.344-.672-.907-1.008-2.32-1.008-4.24 0-1.92.336-3.344 1.008-4.272.682-.939 1.85-1.408 3.504-1.408 1.653 0 2.816.469 3.488 1.408.682.928 1.024 2.352 1.024 4.272 0 1.92-.342 3.333-1.024 4.24zM85.31 272v-10.88h3.728l2.624 8.96h.16v-8.96h2.208V272h-3.632l-2.72-8.96h-.16V272H85.31zm12.054 0v-10.88h7.04v1.92h-4.832v2.544h3.872v1.888h-3.872v2.608h4.832V272h-7.04zm110.012 18h-6.192v-10.88h2.208v8.928h3.984V290zm2.315 0v-10.88h7.04v1.92h-4.832v2.544h3.872v1.888h-3.872v2.608h4.832V290h-7.04zm15.707-10.88h2.32L225.19 290h-4.08l-2.528-10.88h2.32l1.888 8.96h.72l1.888-8.96zm4.713 10.88v-10.88h7.04v1.92h-4.832v2.544h3.872v1.888h-3.872v2.608h4.832V290h-7.04zm16.011 0h-6.192v-10.88h2.208v8.928h3.984V290zm9.047-2.56c.32.555.912.832 1.776.832s1.45-.277 1.76-.832c.32-.565.48-1.504.48-2.816 0-1.323-.16-2.283-.48-2.88-.32-.597-.907-.896-1.76-.896-.854 0-1.44.299-1.76.896-.32.597-.48 1.557-.48 2.88 0 1.312.154 2.251.464 2.816zm5.264 1.408c-.672.896-1.835 1.344-3.488 1.344-1.654 0-2.822-.448-3.504-1.344-.672-.907-1.008-2.32-1.008-4.24 0-1.92.336-3.344 1.008-4.272.682-.939 1.85-1.408 3.504-1.408 1.653 0 2.816.469 3.488 1.408.682.928 1.024 2.352 1.024 4.272 0 1.92-.342 3.333-1.024 4.24zM264.31 290v-10.88h3.728l2.624 8.96h.16v-8.96h2.208V290h-3.632l-2.72-8.96h-.16V290h-2.208zm12.054 0v-10.88h7.04v1.92h-4.832v2.544h3.872v1.888h-3.872v2.608h4.832V290h-7.04z" fill="#fff" fill-opacity=".92"/><path d="M395.752 15h-12.384V-6.76h4.416v17.856h7.968V15zm4.63 0V-6.76h14.08v3.84h-9.664v5.088h7.744v3.776h-7.744v5.216h9.664V15h-14.08zm31.415-21.76h4.64L431.381 15h-8.16l-5.056-21.76h4.64l3.776 17.92h1.44l3.776-17.92zM441.222 15V-6.76h14.08v3.84h-9.664v5.088h7.744v3.776h-7.744v5.216h9.664V15h-14.08zm32.023 0h-12.384V-6.76h4.416v17.856h7.968V15zm18.092-5.12c.64 1.11 1.824 1.664 3.552 1.664s2.902-.555 3.52-1.664c.64-1.13.96-3.008.96-5.632 0-2.645-.32-4.565-.96-5.76-.64-1.195-1.813-1.792-3.52-1.792-1.706 0-2.88.597-3.52 1.792-.64 1.195-.96 3.115-.96 5.76 0 2.624.31 4.501.928 5.632zm10.528 2.816c-1.344 1.792-3.669 2.688-6.976 2.688-3.306 0-5.642-.896-7.008-2.688-1.344-1.813-2.016-4.64-2.016-8.48 0-3.84.672-6.688 2.016-8.544 1.366-1.877 3.702-2.816 7.008-2.816 3.307 0 5.632.939 6.976 2.816 1.366 1.856 2.048 4.704 2.048 8.544 0 3.84-.682 6.667-2.048 8.48zM509.621 15V-6.76h7.456l5.248 17.92h.32V-6.76h4.416V15h-7.264l-5.44-17.92h-.32V15h-4.416zm24.107 0V-6.76h14.08v3.84h-9.664v5.088h7.744v3.776h-7.744v5.216h9.664V15h-14.08z" fill="#fff" fill-opacity=".8"/><path d="M224.298 368h-6.966v-12.24h2.484v10.044h4.482V368zm2.604 0v-12.24h7.92v2.16h-5.436v2.862h4.356v2.124h-4.356v2.934h5.436V368h-7.92zm17.671-12.24h2.61L244.339 368h-4.59l-2.844-12.24h2.61l2.124 10.08h.81l2.124-10.08zm5.302 12.24v-12.24h7.92v2.16h-5.436v2.862h4.356v2.124h-4.356v2.934h5.436V368h-7.92zm18.013 0h-6.966v-12.24h2.484v10.044h4.482V368zm10.177-2.88c.36.624 1.026.936 1.998.936s1.632-.312 1.98-.936c.36-.636.54-1.692.54-3.168 0-1.488-.18-2.568-.54-3.24-.36-.672-1.02-1.008-1.98-1.008s-1.62.336-1.98 1.008c-.36.672-.54 1.752-.54 3.24 0 1.476.174 2.532.522 3.168zm5.922 1.584c-.756 1.008-2.064 1.512-3.924 1.512-1.86 0-3.174-.504-3.942-1.512-.756-1.02-1.134-2.61-1.134-4.77 0-2.16.378-3.762 1.134-4.806.768-1.056 2.082-1.584 3.942-1.584 1.86 0 3.168.528 3.924 1.584.768 1.044 1.152 2.646 1.152 4.806s-.384 3.75-1.152 4.77zm4.362 1.296v-12.24h4.194l2.952 10.08h.18v-10.08h2.484V368h-4.086l-3.06-10.08h-.18V368h-2.484zm13.56 0v-12.24h7.92v2.16h-5.436v2.862h4.356v2.124h-4.356v2.934h5.436V368h-7.92z" fill="#fff" fill-opacity=".56"/><path d="M382.44 85h-15.48V57.8h5.52v22.32h9.96V85zm5.787 0V57.8h17.6v4.8h-12.08v6.36h9.68v4.72h-9.68v6.52h12.08V85h-17.6zm39.269-27.2h5.8l-6.32 27.2h-10.2l-6.32-27.2h5.8l4.72 22.4h1.8l4.72-22.4zM439.277 85V57.8h17.6v4.8h-12.08v6.36h9.68v4.72h-9.68v6.52h12.08V85h-17.6zm40.029 0h-15.48V57.8h5.52v22.32h9.96V85zm22.616-6.4c.8 1.387 2.28 2.08 4.44 2.08 2.16 0 3.627-.693 4.4-2.08.8-1.413 1.2-3.76 1.2-7.04 0-3.307-.4-5.707-1.2-7.2-.8-1.493-2.267-2.24-4.4-2.24-2.133 0-3.6.747-4.4 2.24-.8 1.493-1.2 3.893-1.2 7.2 0 3.28.387 5.627 1.16 7.04zm13.16 3.52c-1.68 2.24-4.587 3.36-8.72 3.36-4.133 0-7.053-1.12-8.76-3.36-1.68-2.267-2.52-5.8-2.52-10.6s.84-8.36 2.52-10.68c1.707-2.347 4.627-3.52 8.76-3.52s7.04 1.173 8.72 3.52c1.707 2.32 2.56 5.88 2.56 10.68s-.853 8.333-2.56 10.6zm9.694 2.88V57.8h9.32l6.56 22.4h.4V57.8h5.52V85h-9.08l-6.8-22.4h-.4V85h-5.52zm30.134 0V57.8h17.6v4.8h-12.08v6.36h9.68v4.72h-9.68v6.52h12.08V85h-17.6z" fill="#fff" fill-opacity=".64"/><path d="M26.532 111h-4.644v-8.16h1.656v6.696h2.988V111zm1.736 0v-8.16h5.28v1.44h-3.624v1.908h2.904v1.416h-2.904v1.956h3.624V111h-5.28zm11.78-8.16h1.74L39.894 111h-3.06l-1.896-8.16h1.74l1.416 6.72h.54l1.416-6.72zm3.535 8.16v-8.16h5.28v1.44H45.24v1.908h2.904v1.416H45.24v1.956h3.624V111h-5.28zm12.009 0h-4.644v-8.16h1.656v6.696h2.988V111zm6.785-1.92c.24.416.684.624 1.332.624s1.088-.208 1.32-.624c.24-.424.36-1.128.36-2.112 0-.992-.12-1.712-.36-2.16-.24-.448-.68-.672-1.32-.672s-1.08.224-1.32.672c-.24.448-.36 1.168-.36 2.16 0 .984.116 1.688.348 2.112zm3.948 1.056c-.504.672-1.376 1.008-2.616 1.008-1.24 0-2.116-.336-2.628-1.008-.504-.68-.756-1.74-.756-3.18 0-1.44.252-2.508.756-3.204.512-.704 1.388-1.056 2.628-1.056 1.24 0 2.112.352 2.616 1.056.512.696.768 1.764.768 3.204 0 1.44-.256 2.5-.768 3.18zm2.908.864v-8.16h2.796l1.968 6.72h.12v-6.72h1.656V111h-2.724l-2.04-6.72h-.12V111h-1.656zm9.04 0v-8.16h5.28v1.44h-3.624v1.908h2.904v1.416h-2.904v1.956h3.624V111h-5.28z" fill="#fff" fill-opacity=".96"/></g><defs><clipPath id="clip0_1694_62055"><path fill="#fff" d="M0 0h528v435H0z"/></clipPath></defs></svg>