<svg width="528" height="435" fill="none" xmlns="http://www.w3.org/2000/svg"><g clip-path="url(#clip0_1694_68202)"><path d="M528 .508H0v433.984h528V.508z" fill="#F3F8FA" fill-opacity=".91"/><mask id="a" style="mask-type:alpha" maskUnits="userSpaceOnUse" x="0" y="0" width="528" height="435"><path d="M528 .508H0v433.984h528V.508z" fill="#F3F8FA" fill-opacity=".91"/></mask><g mask="url(#a)"><g opacity=".15"><path opacity=".15" d="M252.113 50.341l21.755 17.925-4.663 27.784-26.414 9.859-21.755-17.925 4.663-27.784 26.414-9.859z" fill="url(#paint0_linear_1694_68202)"/><path opacity=".15" d="M252.113 50.341l21.755 17.925-4.663 27.784-26.414 9.859-21.755-17.925 4.663-27.784 26.414-9.859z" fill="#fff"/><path opacity=".15" d="M252.113 50.341l21.755 17.925-4.663 27.784-26.414 9.859-21.755-17.925 4.663-27.784 26.414-9.859z" stroke="#00E599"/></g><g opacity=".15"><path opacity=".15" d="M167.041 36.096l21.755 17.924-4.658 27.784-26.418 9.86-21.756-17.926 4.663-27.783 26.414-9.86z" fill="url(#paint1_linear_1694_68202)"/><path opacity=".15" d="M167.041 36.096l21.755 17.924-4.658 27.784-26.418 9.86-21.756-17.926 4.663-27.783 26.414-9.86z" fill="#fff"/><path opacity=".15" d="M167.041 36.096l21.755 17.924-4.658 27.784-26.418 9.86-21.756-17.926 4.663-27.783 26.414-9.86z" stroke="#00E599"/></g><g opacity=".02"><path opacity=".02" d="M81.974 21.852l21.755 17.924-4.663 27.785-26.414 9.858-21.755-17.924L55.56 31.71l26.414-9.86z" fill="url(#paint2_linear_1694_68202)"/><path opacity=".02" d="M81.974 21.852l21.755 17.924-4.663 27.785-26.414 9.858-21.755-17.924L55.56 31.71l26.414-9.86z" fill="#fff"/><path opacity=".02" d="M81.974 21.852l21.755 17.924-4.663 27.785-26.414 9.858-21.755-17.924L55.56 31.71l26.414-9.86z" stroke="#00E599"/></g><g opacity=".15"><path opacity=".15" d="M335.864 72.43l15.613 12.863-3.343 19.939-18.96 7.075-15.613-12.863 3.347-19.94 18.956-7.075z" fill="url(#paint3_linear_1694_68202)"/><path opacity=".15" d="M335.864 72.43l15.613 12.863-3.343 19.939-18.96 7.075-15.613-12.863 3.347-19.94 18.956-7.075z" fill="#F1F5F6"/><path opacity=".15" d="M335.864 72.43l15.613 12.863-3.343 19.939-18.96 7.075-15.613-12.863 3.347-19.94 18.956-7.075z" stroke="#00E599"/></g><g opacity=".15"><path opacity=".15" d="M250.797 58.187l15.613 12.864-3.347 19.939-18.956 7.075-15.613-12.864 3.347-19.939 18.956-7.075z" fill="url(#paint4_linear_1694_68202)"/><path opacity=".15" d="M250.797 58.187l15.613 12.864-3.347 19.939-18.956 7.075-15.613-12.864 3.347-19.939 18.956-7.075z" fill="#F1F5F6"/><path opacity=".15" d="M250.797 58.187l15.613 12.864-3.347 19.939-18.956 7.075-15.613-12.864 3.347-19.939 18.956-7.075z" stroke="#00E599"/></g><g opacity=".15"><path opacity=".15" d="M165.729 43.941l15.609 12.864-3.343 19.939-18.96 7.075-15.608-12.864 3.342-19.938 18.96-7.076z" fill="url(#paint5_linear_1694_68202)"/><path opacity=".15" d="M165.729 43.941l15.609 12.864-3.343 19.939-18.96 7.075-15.608-12.864 3.342-19.938 18.96-7.076z" fill="#F1F5F6"/><path opacity=".15" d="M165.729 43.941l15.609 12.864-3.343 19.939-18.96 7.075-15.608-12.864 3.342-19.938 18.96-7.076z" stroke="#00E599"/></g><path d="M373.521 371.066l85.484 14.686M217.254 255.844l-84.804-14.911-15.152 89.241 85.031 14.007 14.925-88.337z" stroke="#00E599" stroke-dasharray="6 6"/><path d="M492.515 181.327l21.751 17.925-4.659 27.784-26.418 9.859-21.751-17.925 4.659-27.784 26.418-9.859z" fill="url(#paint6_linear_1694_68202)"/><path d="M492.515 181.327l21.751 17.925-4.659 27.784-26.418 9.859-21.751-17.925 4.659-27.784 26.418-9.859z" fill="#F5F9FA"/><path d="M492.515 181.327l21.751 17.925-4.659 27.784-26.418 9.859-21.751-17.925 4.659-27.784 26.418-9.859zm-14.808 88.257l21.755 17.924-4.663 27.784-26.414 9.859-21.755-17.924 4.658-27.784 26.419-9.859z" stroke="#BFF8E5"/><g opacity=".25"><path opacity=".25" d="M392.636 255.34l21.755 17.925-4.663 27.784-26.414 9.859-21.755-17.925 4.663-27.784 26.414-9.859z" fill="url(#paint7_linear_1694_68202)"/><path opacity=".25" d="M392.636 255.34l21.755 17.925-4.663 27.784-26.414 9.859-21.755-17.925 4.663-27.784 26.414-9.859z" fill="#fff"/><path opacity=".25" d="M392.636 255.34l21.755 17.925-4.663 27.784-26.414 9.859-21.755-17.925 4.663-27.784 26.414-9.859z" stroke="#00E599"/></g><g opacity=".15"><path opacity=".15" d="M337.18 64.584l21.755 17.924-4.663 27.784-26.414 9.859-21.755-17.925 4.663-27.784 26.414-9.858z" fill="url(#paint8_linear_1694_68202)"/><path opacity=".15" d="M337.18 64.584l21.755 17.924-4.663 27.784-26.414 9.859-21.755-17.925 4.663-27.784 26.414-9.858z" fill="#fff"/><path opacity=".15" d="M337.18 64.584l21.755 17.924-4.663 27.784-26.414 9.859-21.755-17.925 4.663-27.784 26.414-9.858z" stroke="#00E599"/></g><g opacity=".15"><path opacity=".15" d="M422.224 79.09l21.756 17.925-4.664 27.784-26.413 9.859-21.756-17.924 4.664-27.785 26.413-9.858z" fill="url(#paint9_linear_1694_68202)"/><path opacity=".15" d="M422.224 79.09l21.756 17.925-4.664 27.784-26.413 9.859-21.756-17.924 4.664-27.785 26.413-9.858z" fill="#fff"/><path opacity=".15" d="M422.224 79.09l21.756 17.925-4.664 27.784-26.413 9.859-21.756-17.924 4.664-27.785 26.413-9.858z" stroke="#00E599"/></g><g opacity=".25"><path opacity=".25" d="M307.569 241.096l21.755 17.925-4.663 27.784-26.414 9.859-21.755-17.925 4.663-27.784 26.414-9.859z" fill="url(#paint10_linear_1694_68202)"/><path opacity=".25" d="M307.569 241.096l21.755 17.925-4.663 27.784-26.414 9.859-21.755-17.925 4.663-27.784 26.414-9.859z" fill="#F5F9FA"/><path opacity=".25" d="M307.569 241.096l21.755 17.925-4.663 27.784-26.414 9.859-21.755-17.925 4.663-27.784 26.414-9.859z" stroke="#00E599"/></g><path d="M152.238 124.352l21.75 17.924-4.658 27.784-26.419 9.859-21.75-17.924 4.658-27.784 26.419-9.859z" stroke="#BFF8E5"/><path opacity=".25" d="M67.166 110.106l21.756 17.925-4.659 27.784-26.418 9.859-21.753-17.925 4.66-27.784 26.414-9.859z" stroke="#00E599"/><g opacity=".05"><path opacity=".05" d="M491.194 189.173l15.613 12.864-3.347 19.939-18.955 7.075-15.613-12.863 3.347-19.94 18.955-7.075z" fill="url(#paint11_linear_1694_68202)"/><path opacity=".05" d="M491.194 189.173l15.613 12.864-3.347 19.939-18.955 7.075-15.613-12.863 3.347-19.94 18.955-7.075z" fill="#010129"/><path opacity=".05" d="M491.194 189.173l15.613 12.864-3.347 19.939-18.955 7.075-15.613-12.863 3.347-19.94 18.955-7.075z" stroke="#00E599"/></g><path d="M476.391 277.429l15.613 12.864-3.347 19.939-18.956 7.076-15.613-12.864 3.347-19.939 18.956-7.076z" fill="url(#paint12_linear_1694_68202)"/><path d="M476.391 277.429l15.613 12.864-3.347 19.939-18.956 7.076-15.613-12.864 3.347-19.939 18.956-7.076z" fill="#F1F5F6"/><path d="M476.391 277.429l15.613 12.864-3.347 19.939-18.956 7.076-15.613-12.864 3.347-19.939 18.956-7.076z" stroke="#00E599"/><path d="M391.319 263.186l15.613 12.863-3.347 19.939-18.955 7.075-15.613-12.863 3.346-19.939 18.956-7.075z" fill="url(#paint13_linear_1694_68202)"/><path d="M391.319 263.186l15.613 12.863-3.347 19.939-18.955 7.075-15.613-12.863 3.346-19.939 18.956-7.075z" fill="#F1F5F6"/><path d="M391.319 263.186l15.613 12.863-3.347 19.939-18.955 7.075-15.613-12.863 3.346-19.939 18.956-7.075z" stroke="#00E599"/><g opacity=".15"><path opacity=".15" d="M420.907 86.936L436.521 99.8l-3.347 19.939-18.956 7.075-15.613-12.864 3.347-19.939 18.955-7.075z" fill="url(#paint14_linear_1694_68202)"/><path opacity=".15" d="M420.907 86.936L436.521 99.8l-3.347 19.939-18.956 7.075-15.613-12.864 3.347-19.939 18.955-7.075z" fill="#F1F5F6"/><path opacity=".15" d="M420.907 86.936L436.521 99.8l-3.347 19.939-18.956 7.075-15.613-12.864 3.347-19.939 18.955-7.075z" stroke="#00E599"/></g><path d="M65.855 117.953l15.608 12.864-3.342 19.939-18.96 7.075-15.609-12.863 3.343-19.939 18.96-7.076z" fill="url(#paint15_linear_1694_68202)"/><path d="M65.855 117.953l15.608 12.864-3.342 19.939-18.96 7.075-15.609-12.863 3.343-19.939 18.96-7.076z" fill="#F1F5F6"/><path d="M65.855 117.953l15.608 12.864-3.342 19.939-18.96 7.075-15.609-12.863 3.343-19.939 18.96-7.076z" stroke="#00E599"/><path d="M207.693 315.106l21.755 17.925-4.663 27.784-26.414 9.859-21.755-17.925 4.663-27.784 26.414-9.859zm-70.264-102.502l21.756 17.925-4.663 27.784-26.414 9.859-21.755-17.925 4.663-27.784 26.413-9.859zm-14.807 88.256l21.755 17.925-4.659 27.784-26.418 9.859-21.755-17.925 4.663-27.783 26.414-9.86z" fill="#F5F9FA" stroke="#BFF8E5"/><path d="M206.377 322.95l15.609 12.864-3.343 19.939-18.955 7.075-15.613-12.864 3.342-19.938 18.96-7.076z" fill="url(#paint16_linear_1694_68202)"/><path d="M206.377 322.95l15.609 12.864-3.343 19.939-18.955 7.075-15.613-12.864 3.342-19.938 18.96-7.076z" fill="#F1F5F6"/><path d="M206.377 322.95l15.609 12.864-3.343 19.939-18.955 7.075-15.613-12.864 3.342-19.938 18.96-7.076z" stroke="#00E599"/><path d="M136.113 220.45l15.614 12.864-3.347 19.939-18.956 7.075-15.613-12.864 3.347-19.939 18.955-7.075z" fill="url(#paint17_linear_1694_68202)"/><path d="M136.113 220.45l15.614 12.864-3.347 19.939-18.956 7.075-15.613-12.864 3.347-19.939 18.955-7.075z" fill="#F1F5F6"/><path d="M136.113 220.45l15.614 12.864-3.347 19.939-18.956 7.075-15.613-12.864 3.347-19.939 18.955-7.075z" stroke="#00E599"/><path d="M121.31 308.706l15.613 12.864-3.347 19.939-18.955 7.075-15.613-12.863 3.347-19.94 18.955-7.075z" fill="url(#paint18_linear_1694_68202)"/><path d="M121.31 308.706l15.613 12.864-3.347 19.939-18.955 7.075-15.613-12.863 3.347-19.94 18.955-7.075z" fill="#F5F9FA"/><path d="M121.31 308.706l15.613 12.864-3.347 19.939-18.955 7.075-15.613-12.863 3.347-19.94 18.955-7.075z" stroke="#00E599"/><path d="M222.502 226.852l21.755 17.925-4.663 27.784-26.414 9.859-21.755-17.925 4.658-27.784 26.419-9.859z" fill="#F5F9FA" stroke="#BFF8E5"/><path d="M221.185 234.696l15.609 12.864-3.343 19.939-18.96 7.075-15.608-12.864 3.342-19.939 18.96-7.075z" fill="url(#paint19_linear_1694_68202)"/><path d="M221.185 234.696l15.609 12.864-3.343 19.939-18.96 7.075-15.608-12.864 3.342-19.939 18.96-7.075z" fill="#F5F9FA"/><path d="M221.185 234.696l15.609 12.864-3.343 19.939-18.96 7.075-15.608-12.864 3.342-19.939 18.96-7.075z" stroke="#00E599"/><path d="M132.798 237.757l1.746-1.235-1.239-1.742-.412.292.955 1.331-1.339.943.289.411zm-1.425 8.371l1.746-1.236-1.239-1.741-.412.292.955 1.331-1.339.943.289.411z" fill="#000231"/><path d="M123.124 232.261l-.814 4.793 2.881 1.637.823-4.835 3.519-.673-2.818-1.603-3.591.681z" fill="#00E599"/><path d="M126.204 234.065l-.443 2.607 2.903 1.644.828-4.887-3.288.636z" fill="#00AF92"/><path fill-rule="evenodd" clip-rule="evenodd" d="M124.055 247.398l-3.22-1.788.805-4.72 3.646-.654 2.894 1.606-.827 4.979-2.918-1.656-.38 2.233zm-2.872-1.966l2.614 1.459.769-4.524 2.954-.55-2.302-1.282-3.307.598-.728 4.299zm5.939.889l-2.632-1.493.37-2.174 2.963-.543-.701 4.21z" fill="#000231"/><path d="M138.018 234.789l-.814 4.793 2.881 1.638.823-4.835 3.524-.674-2.823-1.603-3.591.681z" fill="#00E599"/><path d="M141.098 236.593l-.443 2.607 2.904 1.644.832-4.887-3.293.636z" fill="#00AF92"/><path fill-rule="evenodd" clip-rule="evenodd" d="M138.954 249.926l-3.221-1.788.805-4.72 3.641-.654 2.9 1.606-.828 4.979-2.917-1.656-.38 2.233zm-2.872-1.966l2.614 1.459.769-4.524 2.953-.55-2.302-1.282-3.306.598-.728 4.299zm5.938.889l-2.637-1.493.371-2.174 2.967-.543-.701 4.21z" fill="#000231"/><path d="M202.904 340.328l1.746-1.236-1.24-1.741-.411.292.954 1.331-1.339.943.29.411zm-1.425 8.37l1.746-1.235-1.24-1.741-.411.291.954 1.332-1.339.943.29.41z" fill="#000231"/><path d="M193.229 334.831l-.814 4.794 2.881 1.637.823-4.835 3.519-.673-2.818-1.603-3.591.68z" fill="#00E599"/><path d="M196.309 336.636l-.443 2.606 2.904 1.645.827-4.887-3.288.636z" fill="#00AF92"/><path fill-rule="evenodd" clip-rule="evenodd" d="M194.161 349.969l-3.221-1.789.806-4.719 3.645-.654 2.895 1.606-.828 4.979-2.917-1.657-.38 2.234zm-2.872-1.967l2.614 1.459.769-4.523 2.953-.55-2.302-1.283-3.306.599-.728 4.298zm5.938.89l-2.632-1.493.371-2.174 2.962-.544-.701 4.211z" fill="#00E599"/><path d="M208.123 337.359l-.814 4.794 2.881 1.638.823-4.836 3.524-.673-2.823-1.603-3.591.68z" fill="#00E599"/><path d="M211.203 339.164l-.443 2.607 2.904 1.644.832-4.887-3.293.636z" fill="#00AF92"/><path fill-rule="evenodd" clip-rule="evenodd" d="M209.059 352.497l-3.22-1.788.805-4.72 3.641-.654 2.899 1.606-.828 4.979-2.917-1.656-.38 2.233zm-2.872-1.966l2.614 1.459.769-4.524 2.954-.55-2.303-1.283-3.306.599-.728 4.299zm5.939.889l-2.637-1.493.371-2.174 2.967-.543-.701 4.21z" fill="#00E599"/><path d="M378.198 343.19l21.755 17.925-4.663 27.784-26.414 9.859-21.755-17.925 4.663-27.784 26.414-9.859z" fill="#F5F9FA" stroke="#BFF8E5"/><path d="M376.882 351.036l15.613 12.863-3.347 19.939-18.956 7.076-15.613-12.864 3.343-19.939 18.96-7.075z" fill="url(#paint20_linear_1694_68202)"/><path d="M376.882 351.036l15.613 12.863-3.347 19.939-18.956 7.076-15.613-12.864 3.343-19.939 18.96-7.075z" fill="#F1F5F6"/><path d="M376.882 351.036l15.613 12.863-3.347 19.939-18.956 7.076-15.613-12.864 3.343-19.939 18.96-7.075z" stroke="#00E599"/><path d="M463.27 357.437l21.751 17.925-4.659 27.784-26.418 9.859-21.751-17.925 4.658-27.784 26.419-9.859z" fill="url(#paint21_linear_1694_68202)"/><path d="M463.27 357.437l21.751 17.925-4.659 27.784-26.418 9.859-21.751-17.925 4.658-27.784 26.419-9.859z" fill="#F5F9FA"/><path d="M463.27 357.437l21.751 17.925-4.659 27.784-26.418 9.859-21.751-17.925 4.658-27.784 26.419-9.859z" stroke="#BFF8E5"/><path d="M373.566 368.343l1.746-1.236-1.239-1.741-.412.292.95 1.331-1.334.943.289.411zm-1.424 8.37l1.746-1.235-1.239-1.741-.412.291.95 1.331-1.334.943.289.411z" fill="#000231"/><path d="M363.892 362.846l-.818 4.794 2.885 1.637.819-4.835 3.523-.674-2.817-1.602-3.592.68z" fill="#00E599"/><path d="M366.972 364.651l-.443 2.606 2.899 1.644.832-4.887-3.288.637z" fill="#00AF92"/><path fill-rule="evenodd" clip-rule="evenodd" d="M364.824 377.984l-3.22-1.789.805-4.719 3.645-.654 2.895 1.606-.828 4.979-2.917-1.657-.38 2.234zm-2.872-1.967l2.614 1.459.769-4.523 2.953-.55-2.302-1.283-3.306.599-.728 4.298zm5.938.89l-2.632-1.493.366-2.174 2.967-.544-.701 4.211z" fill="#00E599"/><path d="M378.786 365.374l-.814 4.794 2.881 1.638.823-4.836 3.524-.673-2.823-1.603-3.591.68z" fill="#00E599"/><path d="M381.866 367.179l-.443 2.606 2.904 1.645.832-4.888-3.293.637z" fill="#00AF92"/><path fill-rule="evenodd" clip-rule="evenodd" d="M379.722 380.512l-3.22-1.788.801-4.72 3.645-.654 2.899 1.606-.832 4.979-2.913-1.657-.38 2.234zm-2.872-1.967l2.615 1.46.768-4.524 2.954-.55-2.302-1.283-3.307.599-.728 4.298zm5.934.89l-2.632-1.493.371-2.174 2.967-.544-.706 4.211z" fill="#00E599"/><path d="M461.908 365.371l15.613 12.864-3.347 19.939-18.955 7.075-15.614-12.863 3.347-19.939 18.956-7.076z" fill="url(#paint22_linear_1694_68202)"/><path d="M461.908 365.371l15.613 12.864-3.347 19.939-18.955 7.075-15.614-12.863 3.347-19.939 18.956-7.076z" fill="#F5F9FA"/><path d="M461.908 365.371l15.613 12.864-3.347 19.939-18.955 7.075-15.614-12.863 3.347-19.939 18.956-7.076z" stroke="#00E599"/><path d="M306.234 249.198l15.641 12.827-3.298 19.947-18.942 7.12-15.64-12.827 3.297-19.947 18.942-7.12z" fill="url(#paint23_linear_1694_68202)"/><path d="M306.234 249.198l15.641 12.827-3.298 19.947-18.942 7.12-15.64-12.827 3.297-19.947 18.942-7.12z" fill="#F1F5F6"/><path d="M306.234 249.198l15.641 12.827-3.298 19.947-18.942 7.12-15.64-12.827 3.297-19.947 18.942-7.12z" stroke="#00E599"/><path d="M463.075 389.136c-.212 1.229-2.782 1.811-5.735 1.3-2.953-.511-5.174-1.922-4.962-3.152.548-3.148 2.782-1.812 5.735-1.3 2.954.511 5.469.226 4.962 3.152z" fill="#F1F5F6"/><path fill-rule="evenodd" clip-rule="evenodd" d="M462.116 389.372c.222-.152.276-.278.29-.352.113-.65.036-1.01-.073-1.219-.108-.2-.307-.369-.683-.514-.389-.149-.895-.245-1.537-.335l-.611-.083a36.22 36.22 0 01-1.506-.217c-.602-.105-1.181-.244-1.701-.368l-.402-.095c-.638-.15-1.14-.248-1.552-.249-.393-.002-.624.085-.787.237-.181.167-.38.507-.506 1.223-.014.075 0 .212.154.429.158.219.429.472.836.729.805.511 2.008.966 3.42 1.21 1.411.244 2.695.221 3.627.01.466-.107.81-.252 1.031-.406zm-4.776 1.064c2.953.511 5.523-.071 5.735-1.3.421-2.428-1.239-2.645-3.505-2.941a33.72 33.72 0 01-1.457-.211c-.578-.101-1.13-.233-1.65-.357-2.117-.506-3.646-.872-4.085 1.657-.212 1.23 2.009 2.641 4.962 3.152z" fill="#000231"/><path d="M463.383 387.354c-.213 1.23-2.782 1.812-5.736 1.301-2.953-.511-5.174-1.922-4.961-3.151.217-1.23 2.781-1.812 5.735-1.301 2.953.511 5.174 1.922 4.962 3.151z" fill="#F1F5F6"/><path fill-rule="evenodd" clip-rule="evenodd" d="M462.428 387.591c.217-.152.276-.277.285-.352.014-.075.005-.212-.149-.429-.158-.22-.434-.472-.837-.728-.805-.512-2.013-.967-3.419-1.211-1.411-.244-2.7-.221-3.632-.009-.466.105-.81.251-1.031.404-.217.153-.276.278-.29.353-.013.075 0 .212.154.429.158.22.434.472.837.729.805.511 2.008.966 3.419 1.21s2.7.221 3.627.01c.471-.106.81-.252 1.036-.406zm-4.781 1.064c2.954.511 5.523-.071 5.736-1.301.212-1.229-2.009-2.64-4.962-3.151-2.954-.511-5.518.071-5.735 1.301-.213 1.229 2.008 2.64 4.961 3.151z" fill="#000231"/><path fill-rule="evenodd" clip-rule="evenodd" d="M452.379 387.284l.312-1.78.443.076-.308 1.782-.447-.078zm10.248 1.774l.313-1.78.443.076-.308 1.782-.448-.078z" fill="#000231"/><path d="M465.766 386.85c-.212 1.229-2.781 1.812-5.735 1.3-2.953-.511-5.174-1.922-4.961-3.151.429-2.48 3.057-3.402 6.011-2.89 2.953.511 5.115 2.261 4.685 4.741z" fill="#F1F5F6"/><path fill-rule="evenodd" clip-rule="evenodd" d="M464.812 387.087c.217-.152.271-.278.285-.353.172-.99-.158-1.827-.873-2.501-.728-.694-1.872-1.216-3.261-1.456-1.384-.241-2.637-.132-3.559.275-.896.396-1.493 1.072-1.665 2.062-.013.075 0 .213.154.429.158.22.43.472.837.729.805.512 2.008.966 3.419 1.21 1.411.245 2.696.221 3.627.01.471-.106.81-.251 1.036-.405zm-4.781 1.063c2.954.512 5.523-.071 5.735-1.3.43-2.48-1.732-4.23-4.685-4.741-2.954-.512-5.582.41-6.011 2.89-.213 1.229 2.008 2.64 4.961 3.151z" fill="#000231"/><path d="M466.078 385.069c-.217 1.229-2.781 1.812-5.735 1.3-2.953-.511-5.174-1.922-4.961-3.151.212-1.23 2.777-1.812 5.73-1.301 2.954.511 5.179 1.922 4.966 3.152z" fill="#F1F5F6"/><path fill-rule="evenodd" clip-rule="evenodd" d="M465.12 385.306c.217-.152.276-.278.289-.353.014-.074 0-.212-.154-.429-.158-.219-.434-.472-.836-.728-.806-.512-2.009-.967-3.42-1.211-1.411-.244-2.7-.22-3.627-.009-.471.106-.814.251-1.036.405-.217.152-.276.278-.285.352-.013.075-.004.213.149.43.159.219.435.471.837.728.805.512 2.013.967 3.419 1.211 1.412.244 2.701.22 3.632.009.466-.106.81-.251 1.032-.405zm-4.777 1.063c2.954.512 5.518-.071 5.735-1.3.213-1.23-2.012-2.641-4.966-3.152-2.953-.511-5.518.071-5.73 1.301-.213 1.229 2.008 2.64 4.961 3.151z" fill="#000231"/><path fill-rule="evenodd" clip-rule="evenodd" d="M455.07 384.999l.312-1.781.443.077-.307 1.781-.448-.077zm10.253 1.774l.308-1.781.443.077-.308 1.781-.443-.077z" fill="#000231"/><path d="M463.401 384.606c-.213 1.23-2.782 1.812-5.735 1.301-2.954-.511-5.175-1.923-4.962-3.152.665-3.816 3.057-3.401 6.011-2.89 2.953.511 5.305 1.179 4.686 4.741z" fill="#F1F5F6"/><path fill-rule="evenodd" clip-rule="evenodd" d="M462.442 384.843c.221-.152.276-.278.289-.352.145-.82.104-1.415-.031-1.854a2.002 2.002 0 00-.715-1.009c-.728-.558-1.882-.835-3.388-1.095-.746-.129-1.415-.245-2.026-.293-.615-.048-1.117-.024-1.529.098a1.823 1.823 0 00-.99.688c-.281.377-.525.954-.679 1.845-.013.074 0 .212.154.428.158.22.43.473.837.729.805.512 2.008.967 3.419 1.211 1.411.244 2.696.22 3.628.009.465-.106.809-.251 1.031-.405zm-4.776 1.064c2.953.511 5.522-.071 5.735-1.301.619-3.562-1.733-4.23-4.686-4.741-2.954-.511-5.346-.926-6.011 2.89-.213 1.229 2.008 2.641 4.962 3.152z" fill="#000231"/><path d="M463.709 382.825c-.213 1.23-2.777 1.812-5.731 1.301-2.953-.512-5.174-1.922-4.961-3.152.212-1.229 2.777-1.812 5.73-1.301 2.953.512 5.179 1.923 4.962 3.152z" fill="#F1F5F6"/><path fill-rule="evenodd" clip-rule="evenodd" d="M462.754 383.062c.217-.152.276-.278.29-.353.013-.074 0-.212-.154-.428-.158-.22-.434-.472-.837-.729-.805-.512-2.008-.966-3.419-1.211-1.411-.244-2.7-.22-3.627-.009-.471.106-.815.251-1.036.405-.217.152-.276.278-.29.353-.009.074 0 .212.154.429.158.219.434.471.837.728.805.512 2.008.967 3.419 1.211 1.411.244 2.7.221 3.632.009.466-.106.81-.251 1.031-.405zm-4.776 1.064c2.954.511 5.518-.071 5.731-1.301.217-1.229-2.009-2.64-4.962-3.152-2.953-.511-5.518.072-5.73 1.301-.213 1.23 2.008 2.64 4.961 3.152z" fill="#000231"/><path fill-rule="evenodd" clip-rule="evenodd" d="M452.704 382.755l.308-1.781.447.077-.307 1.781-.448-.077zm10.254 1.774l.307-1.781.443.077-.307 1.781-.443-.077z" fill="#000231"/><path fill-rule="evenodd" clip-rule="evenodd" d="M303.186 268.947a.453.453 0 01.375.52l-1.18 7.133a.454.454 0 01-.896-.148l1.181-7.133a.452.452 0 01.52-.372z" fill="#000023"/><path fill-rule="evenodd" clip-rule="evenodd" d="M310.309 267.17a.453.453 0 01-.299.565l-6.766 2.089a.454.454 0 01-.565-.298.455.455 0 01.298-.565l6.766-2.089a.454.454 0 01.566.298z" fill="#000023"/><path fill-rule="evenodd" clip-rule="evenodd" d="M303.796 261.959c.357-.13.76-.063 1.063.176l5.378 4.298c.312.249.466.645.398 1.038l-1.09 6.607c-.064.393-.34.719-.71.855l-6.482 2.341c-.362.13-.764.064-1.063-.175l-5.377-4.298a1.106 1.106 0 01-.403-1.039l1.095-6.606c.063-.393.334-.72.71-.855l6.481-2.342zm.498.881a.201.201 0 00-.19-.031l-6.482 2.341a.207.207 0 00-.126.153l-1.09 6.607a.19.19 0 00.068.185l5.382 4.298a.195.195 0 00.19.031l6.481-2.341a.207.207 0 00.127-.152l1.09-6.607a.187.187 0 00-.073-.185l-5.377-4.299z" fill="#000023"/><path fill-rule="evenodd" clip-rule="evenodd" d="M300.097 267.093a.452.452 0 01.375.517l-1.09 6.831a.454.454 0 01-.52.375.457.457 0 01-.376-.517l1.09-6.831a.455.455 0 01.521-.375zm6.518.957c.244.039.416.27.375.517l-1.09 6.831a.454.454 0 01-.52.375.457.457 0 01-.376-.518l1.091-6.83a.452.452 0 01.52-.375z" fill="#000023"/><path fill-rule="evenodd" clip-rule="evenodd" d="M297.012 264.976a.454.454 0 01.633-.1l5.731 4.151a.448.448 0 01.099.631.45.45 0 01-.629.101l-5.73-4.152a.452.452 0 01-.104-.631zm-.439 2.676a.45.45 0 01.629-.1l5.735 4.151a.456.456 0 01.099.631.455.455 0 01-.633.101l-5.731-4.152a.448.448 0 01-.099-.631z" fill="#000023"/><path fill-rule="evenodd" clip-rule="evenodd" d="M310.002 269.578a.454.454 0 01-.299.566l-6.961 2.175a.451.451 0 01-.271-.863l6.961-2.175a.458.458 0 01.57.297z" fill="#000023"/><path d="M305.045 258.262c.497.081.927.237 1.289.467.366.222.633.509.8.861.172.352.222.757.149 1.214-.081.473-.235.851-.475 1.136a1.831 1.831 0 01-.841.59c-.33.107-.683.153-1.058.14l-.258 1.087-1.33-.22.303-1.783c.457.019.828-.005 1.118-.07.289-.066.506-.176.655-.329.15-.154.245-.352.285-.596.05-.3-.004-.552-.158-.755-.158-.204-.425-.337-.801-.399-.366-.061-.683.009-.94.209-.258.192-.448.496-.566.914l-1.289-.82c.154-.395.371-.732.652-1.01.28-.285.619-.484 1.026-.595.412-.118.891-.132 1.439-.041zm-1.176 6.18c.28.045.484.164.619.357.136.192.181.426.136.702-.045.284-.163.495-.357.633-.186.131-.421.173-.697.128-.276-.046-.484-.161-.62-.346-.14-.192-.18-.43-.135-.714.045-.276.163-.482.353-.621.189-.139.425-.185.701-.139z" fill="#000023"/><path fill-rule="evenodd" clip-rule="evenodd" d="M301.928 259.908c.154-.396.371-.733.651-1.01.281-.286.62-.484 1.027-.596.412-.117.891-.131 1.438-.041.498.082.927.238 1.289.468.367.222.633.508.801.86.172.352.221.757.149 1.214-.081.473-.235.852-.475 1.136a1.831 1.831 0 01-.841.59c-.33.107-.683.154-1.058.141l-.258 1.086-1.33-.219.303-1.783c.457.018.828-.005 1.117-.071.29-.066.507-.176.656-.329.149-.153.244-.352.285-.596.05-.3-.005-.551-.158-.755-.159-.204-.425-.337-.801-.399-.366-.061-.683.009-.941.209a1.3 1.3 0 00-.28.292 1.913 1.913 0 00-.285.622l-1.289-.819zm1.891 1.173c.339.006.592-.018.773-.059.203-.047.289-.11.317-.14.04-.04.081-.105.104-.235.022-.151-.009-.205-.032-.233-.009-.012-.081-.094-.366-.141-.213-.035-.331.008-.417.076l-.004.003-.005.004c-.104.077-.23.234-.321.558l-.049.167zm-.819.312l-1.904-1.212.199-.518c.185-.475.452-.894.8-1.243a2.926 2.926 0 011.326-.77c.533-.151 1.117-.16 1.736-.058a4.1 4.1 0 011.534.561c.465.283.823.662 1.053 1.139.245.501.303 1.052.209 1.622-.095.556-.29 1.057-.62 1.457a2.534 2.534 0 01-1.144.798l-.005.003-.004.002c-.24.076-.484.127-.733.154l-.281 1.2-.049-.008c.194.337.239.717.176 1.091-.068.418-.262.805-.624 1.071l-.009.005-.005.004c-.366.252-.787.306-1.198.239-.407-.068-.792-.255-1.054-.61l-.005-.007-.004-.006c-.262-.37-.317-.798-.249-1.216.063-.374.226-.719.52-.975l-.131-.022.466-2.701zm1.488 3.405c-.136-.192-.339-.312-.62-.357-.276-.046-.511.001-.701.139-.19.139-.307.346-.353.621-.045.284-.004.522.132.715.14.184.348.299.624.345.276.046.511.003.696-.127.195-.139.312-.35.358-.634.045-.276 0-.51-.136-.702z" fill="#F1F5F6"/><path d="M150.731 132.215l15.613 12.864-3.347 19.939-18.955 7.075-15.613-12.863 3.347-19.939 18.955-7.076z" fill="url(#paint24_linear_1694_68202)"/><path d="M150.731 132.215l15.613 12.864-3.347 19.939-18.955 7.075-15.613-12.863 3.347-19.939 18.955-7.076z" fill="#F1F5F6"/><path d="M150.731 132.215l15.613 12.864-3.347 19.939-18.955 7.075-15.613-12.863 3.347-19.939 18.955-7.076z" stroke="#00E599"/><path d="M322.3 152.819l21.75 17.924-4.658 27.784-26.419 9.859-21.75-17.924 4.658-27.784 26.419-9.859z" stroke="#BFF8E5"/><path d="M320.793 160.682l15.613 12.863-3.347 19.939-18.955 7.076-15.613-12.864 3.347-19.939 18.955-7.075z" fill="url(#paint25_linear_1694_68202)"/><path d="M320.793 160.682l15.613 12.863-3.347 19.939-18.955 7.076-15.613-12.864 3.347-19.939 18.955-7.075z" fill="#F1F5F6"/><path d="M320.793 160.682l15.613 12.863-3.347 19.939-18.955 7.076-15.613-12.864 3.347-19.939 18.955-7.075zM53.24 190.823l27.653 22.787-5.925 35.32-33.578 12.533-27.656-22.787 5.926-35.32 33.58-12.533z" stroke="#00E599"/><g filter="url(#filter0_d_1694_68202)"><path d="M52.282 198.456l21.75 17.924-4.658 27.784-26.418 9.859-21.752-17.924 4.66-27.784 26.418-9.859z" fill="url(#paint26_linear_1694_68202)"/><path d="M52.282 198.456l21.75 17.924-4.658 27.784-26.418 9.859-21.752-17.924 4.66-27.784 26.418-9.859z" fill="#fff"/><path d="M52.282 198.456l21.75 17.924-4.658 27.784-26.418 9.859-21.752-17.924 4.66-27.784 26.418-9.859z" stroke="#BFF8E5"/></g><path d="M50.775 206.319l15.613 12.864-3.347 19.939-18.955 7.075-15.613-12.864 3.345-19.938 18.957-7.076z" fill="url(#paint27_linear_1694_68202)"/><path d="M50.775 206.319l15.613 12.864-3.347 19.939-18.955 7.075-15.613-12.864 3.345-19.938 18.957-7.076z" fill="#F1F5F6"/><path d="M50.775 206.319l15.613 12.864-3.347 19.939-18.955 7.075-15.613-12.864 3.345-19.938 18.957-7.076z" stroke="#00E599"/><path d="M45.225 221.545a.424.424 0 00-.71.031l-5.115 8.776a.42.42 0 00.443.625l9.982-1.919a.419.419 0 00.263-.656l-4.863-6.857zm-.312 1.019l1.416 1.992a7.607 7.607 0 00.832 4.158l-1.886.363a6.775 6.775 0 01-.936-5.53l.574-.983zm-2.347 7.033a6.6 6.6 0 01-.75-1.715l1.456-2.498a7.535 7.535 0 001.112 3.864l-1.818.349zm-1.316-.75c.127.315.271.622.439.919l-1.095.21.656-1.129zm6.78-.3a6.801 6.801 0 01-.869-2.815l1.864 2.624-.995.191zm1.976-2.404c.131.19.394.234.584.1 1.827-1.293 3.265-.552 3.279-.545a.421.421 0 00.398-.741c-.077-.041-1.918-.99-4.161.601a.417.417 0 00-.1.585zm-2.677-3.771c.131.19.398.234.583.1 2.248-1.59 1.959-3.636 1.945-3.723a.418.418 0 10-.828.128c0 .016.227 1.616-1.6 2.909a.418.418 0 00-.1.586zm1.316 1.129a.42.42 0 00.484.687c.23-.07.828.444 1.262.137.425-.303.15-1.02.285-1.231.244-.058.832.44 1.257.138.43-.303.154-1.021.29-1.232.244-.058.828.441 1.257.138.425-.303.15-1.02.285-1.232.244-.058.832.441 1.258.138.434-.306.149-1.04.289-1.235a.418.418 0 00.095-.583.417.417 0 00-.584-.1c-.384.27-.398.743-.393 1.082-.317-.117-.769-.259-1.153.011-.38.271-.394.743-.39 1.083-.32-.117-.773-.26-1.153.011-.384.271-.398.743-.393 1.083-.317-.118-.77-.26-1.154.011-.38.271-.393.743-.389 1.083-.32-.118-.768-.26-1.153.011zm2.945-3.116a.418.418 0 00.099-.586.416.416 0 00-.583-.1.424.424 0 00-.104.586.42.42 0 00.587.1zm2.12 3.5a.422.422 0 00.484-.344.418.418 0 00-.344-.485.417.417 0 00-.483.344.418.418 0 00.343.485zm-1.46 3.244a.418.418 0 00-.1.586c.136.19.398.234.588.1a.422.422 0 00-.488-.686zm-4.867-6.857a.418.418 0 00.1-.586.416.416 0 00-.584-.1.419.419 0 00-.1.586c.132.19.394.235.584.1z" fill="#000231"/><path d="M238.227 130.727l27.654 22.786-5.925 35.32-33.579 12.534-27.657-22.787 5.925-35.32 33.582-12.533z" stroke="#00E599"/><g filter="url(#filter1_d_1694_68202)"><path d="M237.269 138.359l21.751 17.925-4.659 27.784-26.418 9.859-21.751-17.925 4.658-27.784 26.419-9.859z" fill="url(#paint28_linear_1694_68202)"/><path d="M237.269 138.359l21.751 17.925-4.659 27.784-26.418 9.859-21.751-17.925 4.658-27.784 26.419-9.859z" fill="#fff"/><path d="M237.269 138.359l21.751 17.925-4.659 27.784-26.418 9.859-21.751-17.925 4.658-27.784 26.419-9.859z" stroke="#BFF8E5"/></g><path d="M235.762 146.222l15.613 12.864-3.347 19.939-18.955 7.076-15.614-12.864 3.347-19.939 18.956-7.076z" fill="url(#paint29_linear_1694_68202)"/><path d="M235.762 146.222l15.613 12.864-3.347 19.939-18.955 7.076-15.614-12.864 3.347-19.939 18.956-7.076z" fill="#F1F5F6"/><path d="M235.762 146.222l15.613 12.864-3.347 19.939-18.955 7.076-15.614-12.864 3.347-19.939 18.956-7.076z" stroke="#00E599"/><path d="M230.213 161.448a.424.424 0 00-.71.032l-5.116 8.776a.42.42 0 00.444.624l9.982-1.919a.419.419 0 00.262-.656l-4.862-6.857zm-.312 1.019l1.415 1.992a7.606 7.606 0 00.833 4.158l-1.886.363a6.776 6.776 0 01-.937-5.529l.575-.984zm-2.348 7.033a6.558 6.558 0 01-.75-1.715l1.456-2.497a7.536 7.536 0 001.113 3.863l-1.819.349zm-1.316-.75c.127.316.272.623.439.919l-1.095.211.656-1.13zm6.78-.3a6.786 6.786 0 01-.868-2.814l1.863 2.623-.995.191zm1.976-2.403a.418.418 0 00.584.1c1.827-1.293 3.265-.553 3.279-.545a.422.422 0 00.398-.742c-.077-.041-1.918-.989-4.161.601a.42.42 0 00-.1.586zm-2.677-3.771a.418.418 0 00.583.1c2.248-1.591 1.958-3.637 1.945-3.723a.419.419 0 10-.828.128c0 .016.226 1.616-1.601 2.909a.418.418 0 00-.099.586zm1.316 1.128a.42.42 0 00.484.688c.231-.07.828.443 1.262.137.425-.303.15-1.02.285-1.232.244-.058.832.441 1.258.138.429-.303.153-1.02.289-1.231.244-.059.828.441 1.257.137.426-.303.15-1.019.285-1.231.245-.058.833.44 1.258.137.434-.305.149-1.039.289-1.234a.419.419 0 00.095-.584.417.417 0 00-.583-.1c-.385.271-.398.743-.394 1.083-.316-.118-.769-.26-1.153.011-.38.271-.394.743-.389 1.083-.321-.118-.773-.26-1.153.011-.385.271-.398.743-.394 1.083-.316-.118-.769-.26-1.153.011-.38.27-.394.743-.389 1.082-.321-.117-.769-.26-1.154.011zm2.944-3.115a.42.42 0 00.1-.587.419.419 0 00-.584-.1.425.425 0 00-.104.587c.136.19.398.234.588.1zm2.122 3.5a.422.422 0 00.484-.345.418.418 0 00-.344-.485.417.417 0 00-.484.344.418.418 0 00.344.486zm-1.461 3.243a.42.42 0 10.488.686.418.418 0 00.1-.586.424.424 0 00-.588-.1zm-4.867-6.856a.42.42 0 10-.483-.686.42.42 0 00.483.686z" fill="#000231"/><path d="M408.289 159.645l27.653 22.787-5.925 35.32-33.578 12.533-27.658-22.787 5.925-35.32 33.583-12.533z" stroke="#00E599"/><g filter="url(#filter2_d_1694_68202)"><path d="M407.33 167.278l21.751 17.925-4.659 27.784-26.418 9.859-21.751-17.925 4.658-27.784 26.419-9.859z" fill="url(#paint30_linear_1694_68202)"/><path d="M407.33 167.278l21.751 17.925-4.659 27.784-26.418 9.859-21.751-17.925 4.658-27.784 26.419-9.859z" fill="#fff"/><path d="M407.33 167.278l21.751 17.925-4.659 27.784-26.418 9.859-21.751-17.925 4.658-27.784 26.419-9.859z" stroke="#BFF8E5"/></g><path d="M405.824 175.141l15.613 12.864-3.347 19.939-18.955 7.075-15.614-12.864 3.347-19.939 18.956-7.075z" fill="url(#paint31_linear_1694_68202)"/><path d="M405.824 175.141l15.613 12.864-3.347 19.939-18.955 7.075-15.614-12.864 3.347-19.939 18.956-7.075z" fill="#F1F5F6"/><path d="M405.824 175.141l15.613 12.864-3.347 19.939-18.955 7.075-15.614-12.864 3.347-19.939 18.956-7.075z" stroke="#00E599"/><path d="M400.274 190.367a.424.424 0 00-.71.031l-5.115 8.776a.42.42 0 00.443.625l9.982-1.919a.419.419 0 00.262-.656l-4.862-6.857zm-.312 1.019l1.416 1.992a7.607 7.607 0 00.832 4.158l-1.886.363a6.774 6.774 0 01-.936-5.53l.574-.983zm-2.347 7.033a6.59 6.59 0 01-.751-1.715l1.456-2.498a7.54 7.54 0 001.113 3.864l-1.818.349zm-1.316-.75c.126.315.271.622.438.919l-1.094.21.656-1.129zm6.779-.3a6.824 6.824 0 01-.868-2.815l1.864 2.624-.996.191zm1.977-2.403a.416.416 0 00.583.099c1.828-1.293 3.266-.552 3.28-.544a.42.42 0 00.398-.742c-.077-.041-1.918-.99-4.162.601a.418.418 0 00-.099.586zm-2.678-3.771a.417.417 0 00.584.099c2.248-1.59 1.958-3.636 1.944-3.722a.417.417 0 00-.479-.352.42.42 0 00-.348.479c0 .017.226 1.616-1.601 2.909a.42.42 0 00-.1.587zm1.317 1.128a.421.421 0 00.484.687c.231-.07.828.444 1.262.137.425-.303.149-1.019.285-1.231.244-.058.832.441 1.257.138.43-.303.154-1.02.29-1.232.244-.058.827.441 1.257.138.425-.303.149-1.02.285-1.232.244-.058.832.441 1.257.138.434-.306.149-1.04.29-1.234a.42.42 0 00-.489-.684c-.384.271-.398.743-.393 1.083-.317-.118-.769-.26-1.154.01-.38.271-.393.743-.389 1.083-.321-.117-.773-.26-1.153.011-.384.271-.398.743-.393 1.083-.317-.118-.769-.26-1.154.011-.38.271-.393.743-.389 1.083-.321-.118-.769-.26-1.153.011zm2.944-3.115a.42.42 0 00.099-.587.418.418 0 00-.583-.1.425.425 0 00-.104.587.424.424 0 00.588.1zm2.121 3.499a.42.42 0 00.141-.829.417.417 0 00-.484.344.417.417 0 00.343.485zm-1.461 3.244a.419.419 0 00-.099.586c.136.19.398.234.588.1a.422.422 0 00-.489-.686zm-4.866-6.856a.42.42 0 00.099-.587.42.42 0 10-.099.587z" fill="#000231"/><path d="M293.859 321.86l27.653 22.787-5.925 35.32-33.578 12.533-27.657-22.787 5.925-35.32 33.582-12.533z" stroke="#00E599"/><g filter="url(#filter3_d_1694_68202)"><path d="M292.9 329.493l21.751 17.925-4.659 27.784-26.418 9.859-21.751-17.925 4.659-27.784 26.418-9.859z" fill="url(#paint32_linear_1694_68202)"/><path d="M292.9 329.493l21.751 17.925-4.659 27.784-26.418 9.859-21.751-17.925 4.659-27.784 26.418-9.859z" fill="#fff"/><path d="M292.9 329.493l21.751 17.925-4.659 27.784-26.418 9.859-21.751-17.925 4.659-27.784 26.418-9.859z" stroke="#BFF8E5"/></g><path d="M291.394 337.356l15.613 12.864-3.347 19.939-18.955 7.076-15.613-12.864 3.347-19.939 18.955-7.076z" fill="url(#paint33_linear_1694_68202)"/><path d="M291.394 337.356l15.613 12.864-3.347 19.939-18.955 7.076-15.613-12.864 3.347-19.939 18.955-7.076z" fill="#F1F5F6"/><path d="M291.394 337.356l15.613 12.864-3.347 19.939-18.955 7.076-15.613-12.864 3.347-19.939 18.955-7.076z" stroke="#00E599"/><path d="M285.845 352.582a.424.424 0 00-.71.032l-5.116 8.775a.42.42 0 00.443.625l9.982-1.919a.419.419 0 00.263-.656l-4.862-6.857zm-.312 1.019l1.415 1.992a7.606 7.606 0 00.833 4.158l-1.887.363a6.775 6.775 0 01-.936-5.529l.575-.984zm-2.348 7.033a6.595 6.595 0 01-.751-1.715l1.457-2.497a7.525 7.525 0 001.112 3.863l-1.818.349zm-1.316-.75c.127.316.271.623.439.919l-1.095.211.656-1.13zm6.78-.3a6.79 6.79 0 01-.868-2.814l1.863 2.623-.995.191zm1.976-2.403a.418.418 0 00.584.1c1.827-1.293 3.265-.553 3.279-.545a.422.422 0 00.57-.173.423.423 0 00-.172-.569c-.077-.041-1.918-.989-4.161.601a.42.42 0 00-.1.586zm-2.678-3.771a.419.419 0 00.584.1c2.248-1.591 1.958-3.637 1.945-3.723a.419.419 0 10-.828.128c0 .016.226 1.616-1.601 2.909a.42.42 0 00-.1.586zm1.317 1.128a.42.42 0 00.484.688c.231-.07.828.443 1.262.137.425-.304.149-1.02.285-1.232.244-.058.832.441 1.257.138.43-.303.154-1.02.29-1.232.244-.058.828.441 1.257.138.425-.303.15-1.02.285-1.231.244-.058.832.44 1.258.137.434-.306.149-1.039.289-1.234a.42.42 0 00-.488-.684c-.385.271-.398.743-.394 1.083-.317-.118-.769-.26-1.153.011-.38.271-.394.743-.389 1.083-.321-.118-.774-.26-1.154.011-.384.271-.398.742-.393 1.083-.317-.118-.769-.261-1.153.011-.38.27-.394.742-.389 1.082-.321-.117-.769-.26-1.154.011zm2.944-3.115a.42.42 0 00-.484-.687.425.425 0 00-.104.587.424.424 0 00.588.1zm2.122 3.5a.422.422 0 00.484-.345.419.419 0 00-.344-.485.417.417 0 00-.484.344.418.418 0 00.344.486zm-1.461 3.243a.42.42 0 00-.1.587.422.422 0 00.688-.487.424.424 0 00-.588-.1zm-4.867-6.856a.42.42 0 10-.485-.687.42.42 0 00.485.687z" fill="#000231"/><path d="M122.499 332.202c-.212 1.229-2.781 1.811-5.735 1.3-2.953-.511-5.174-1.922-4.961-3.151.547-3.148 2.781-1.812 5.735-1.301 2.953.511 5.468.227 4.961 3.152z" fill="#F1F5F6"/><path fill-rule="evenodd" clip-rule="evenodd" d="M121.541 332.439c.221-.152.275-.278.289-.353.113-.649.036-1.009-.072-1.219-.109-.199-.308-.369-.683-.513-.389-.149-.896-.245-1.538-.336a90.242 90.242 0 00-.611-.082 36.281 36.281 0 01-1.506-.218c-.601-.104-1.18-.243-1.7-.367-.141-.033-.272-.066-.403-.096-.638-.149-1.14-.247-1.551-.249-.394-.002-.625.086-.787.238-.181.166-.38.506-.507 1.223-.014.074 0 .212.154.428.158.22.43.473.837.729.805.512 2.008.967 3.419 1.211 1.411.244 2.696.22 3.627.009.466-.106.81-.251 1.032-.405zm-4.777 1.064c2.954.511 5.523-.071 5.735-1.301.421-2.428-1.239-2.645-3.505-2.94a36.84 36.84 0 01-1.456-.211c-.579-.101-1.131-.233-1.651-.357-2.117-.507-3.646-.872-4.084 1.657-.213 1.229 2.008 2.641 4.961 3.152z" fill="#000231"/><path d="M122.807 330.421c-.213 1.229-2.782 1.812-5.735 1.301-2.954-.512-5.174-1.923-4.962-3.152.217-1.229 2.782-1.812 5.735-1.301 2.954.512 5.175 1.922 4.962 3.152z" fill="#F1F5F6"/><path fill-rule="evenodd" clip-rule="evenodd" d="M121.853 330.658c.217-.152.275-.278.285-.353.013-.074.004-.212-.15-.429-.158-.219-.434-.471-.836-.728-.806-.512-2.013-.966-3.42-1.211-1.411-.244-2.7-.22-3.632-.009-.466.106-.809.251-1.031.405-.217.152-.276.278-.289.353-.014.074 0 .212.153.429.159.219.435.471.837.728.805.512 2.008.967 3.419 1.211 1.412.244 2.701.22 3.628.009.47-.106.809-.251 1.036-.405zm-4.781 1.064c2.953.511 5.522-.072 5.735-1.301.213-1.23-2.008-2.64-4.962-3.152-2.953-.511-5.518.072-5.735 1.301-.212 1.229 2.008 2.64 4.962 3.152z" fill="#000231"/><path fill-rule="evenodd" clip-rule="evenodd" d="M111.803 330.351l.312-1.781.443.077-.307 1.781-.448-.077zm10.249 1.774l.312-1.781.444.077-.308 1.781-.448-.077z" fill="#000231"/><path d="M125.191 329.916c-.213 1.23-2.782 1.812-5.735 1.301-2.954-.511-5.174-1.923-4.962-3.152.43-2.48 3.058-3.401 6.011-2.89 2.953.511 5.115 2.261 4.686 4.741z" fill="#F1F5F6"/><path fill-rule="evenodd" clip-rule="evenodd" d="M124.236 330.153c.218-.152.272-.277.285-.353.172-.99-.158-1.826-.873-2.501-.728-.694-1.872-1.216-3.261-1.456-1.384-.24-2.636-.132-3.559.275-.896.397-1.493 1.073-1.665 2.063-.013.075 0 .212.154.429.159.219.43.472.837.728.805.512 2.008.967 3.419 1.211 1.411.244 2.696.22 3.628.009.47-.105.809-.251 1.035-.405zm-4.78 1.064c2.953.511 5.522-.071 5.735-1.301.429-2.48-1.733-4.23-4.686-4.741-2.953-.511-5.581.41-6.011 2.89-.212 1.229 2.008 2.641 4.962 3.152z" fill="#000231"/><path d="M125.503 328.135c-.217 1.23-2.782 1.812-5.735 1.301-2.954-.511-5.175-1.922-4.962-3.152.213-1.229 2.777-1.811 5.731-1.3 2.953.511 5.178 1.922 4.966 3.151z" fill="#F1F5F6"/><path fill-rule="evenodd" clip-rule="evenodd" d="M124.544 328.372c.217-.152.276-.278.289-.352.014-.075 0-.213-.154-.429-.158-.22-.434-.472-.836-.729-.805-.511-2.008-.966-3.42-1.21-1.411-.244-2.7-.221-3.627-.01-.47.106-.814.252-1.036.405-.217.152-.276.278-.285.353-.013.075-.004.212.15.429.158.219.434.472.836.728.805.512 2.013.967 3.42 1.211 1.411.244 2.7.22 3.632.009.465-.106.809-.251 1.031-.405zm-4.776 1.064c2.953.511 5.518-.071 5.735-1.301.212-1.229-2.013-2.64-4.966-3.151-2.954-.511-5.518.071-5.731 1.3-.213 1.23 2.008 2.641 4.962 3.152z" fill="#000231"/><path fill-rule="evenodd" clip-rule="evenodd" d="M114.494 328.065l.312-1.781.444.077-.308 1.781-.448-.077zm10.254 1.774l.308-1.781.443.077-.308 1.781-.443-.077z" fill="#000231"/><path d="M122.825 327.673c-.213 1.229-2.782 1.811-5.735 1.3-2.953-.511-5.174-1.922-4.962-3.152.665-3.815 3.058-3.401 6.011-2.89 2.954.511 5.306 1.18 4.686 4.742z" fill="#F1F5F6"/><path fill-rule="evenodd" clip-rule="evenodd" d="M121.866 327.91c.222-.153.276-.278.29-.353.144-.82.104-1.414-.032-1.853a1.992 1.992 0 00-.715-1.009c-.728-.558-1.881-.835-3.387-1.096-.747-.129-1.416-.244-2.027-.293-.615-.048-1.117-.023-1.528.098a1.83 1.83 0 00-.991.688c-.28.377-.524.955-.678 1.845-.014.075 0 .212.154.429.158.22.429.472.836.729.805.511 2.008.966 3.42 1.21 1.411.244 2.695.221 3.627.01.466-.106.81-.252 1.031-.405zm-4.776 1.063c2.953.511 5.522-.071 5.735-1.3.62-3.562-1.732-4.231-4.686-4.742-2.953-.511-5.346-.925-6.011 2.89-.212 1.23 2.009 2.641 4.962 3.152z" fill="#000231"/><path d="M123.133 325.891c-.213 1.23-2.777 1.812-5.731 1.301-2.953-.511-5.174-1.922-4.961-3.151.212-1.23 2.777-1.812 5.73-1.301 2.954.511 5.179 1.922 4.962 3.151z" fill="#F1F5F6"/><path fill-rule="evenodd" clip-rule="evenodd" d="M122.179 326.129c.217-.153.276-.278.289-.353.014-.075 0-.212-.154-.429-.158-.22-.434-.472-.836-.728-.805-.512-2.009-.967-3.42-1.211-1.411-.244-2.7-.221-3.627-.009-.47.105-.814.251-1.036.405-.217.152-.276.277-.289.352-.009.075 0 .212.153.429.159.22.435.472.837.729.805.511 2.008.966 3.42 1.21 1.411.244 2.7.221 3.631.01.466-.106.81-.252 1.032-.405zm-4.777 1.063c2.954.511 5.518-.071 5.731-1.301.217-1.229-2.008-2.64-4.962-3.151-2.953-.511-5.518.071-5.73 1.301-.213 1.229 2.008 2.64 4.961 3.151z" fill="#000231"/><path fill-rule="evenodd" clip-rule="evenodd" d="M112.128 325.822l.308-1.781.448.077-.308 1.781-.448-.077zm10.254 1.773l.307-1.78.444.077-.308 1.781-.443-.078z" fill="#000231"/><path d="M222.456 258.55c-.212 1.229-2.781 1.811-5.735 1.3-2.953-.511-5.174-1.922-4.961-3.151.547-3.148 2.781-1.812 5.735-1.301 2.953.511 5.468.227 4.961 3.152z" fill="#F1F5F6"/><path fill-rule="evenodd" clip-rule="evenodd" d="M221.498 258.787c.221-.152.275-.278.289-.353.113-.649.036-1.009-.072-1.219-.109-.199-.308-.369-.683-.513-.389-.15-.896-.245-1.538-.336a90.242 90.242 0 00-.611-.082 36.281 36.281 0 01-1.506-.218 27.469 27.469 0 01-1.7-.368l-.403-.095c-.638-.149-1.14-.247-1.551-.249-.394-.002-.625.086-.787.238-.181.166-.38.506-.507 1.223-.014.074 0 .211.154.428.158.22.43.473.837.729.805.512 2.008.967 3.419 1.211 1.411.244 2.696.22 3.627.009.466-.106.81-.252 1.032-.405zm-4.777 1.064c2.954.511 5.523-.071 5.735-1.301.421-2.428-1.239-2.645-3.505-2.94a35.12 35.12 0 01-1.456-.212c-.579-.1-1.131-.232-1.651-.356-2.117-.507-3.646-.873-4.084 1.657-.213 1.229 2.008 2.64 4.961 3.152z" fill="#000231"/><path d="M222.764 256.769c-.213 1.229-2.782 1.812-5.736 1.301-2.953-.512-5.174-1.923-4.961-3.152.217-1.229 2.781-1.812 5.735-1.301 2.953.512 5.174 1.922 4.962 3.152z" fill="#F1F5F6"/><path fill-rule="evenodd" clip-rule="evenodd" d="M221.809 257.006c.217-.152.276-.278.285-.353.014-.074.005-.212-.149-.429-.158-.219-.434-.471-.837-.728-.805-.512-2.013-.967-3.419-1.211-1.411-.244-2.7-.22-3.632-.009-.466.106-.81.251-1.031.405-.217.152-.276.278-.29.353-.013.074 0 .212.154.429.158.219.434.471.837.728.805.512 2.008.966 3.419 1.211 1.411.244 2.7.22 3.627.009.471-.106.81-.251 1.036-.405zm-4.781 1.064c2.954.511 5.523-.072 5.736-1.301.212-1.23-2.009-2.64-4.962-3.152-2.954-.511-5.518.072-5.735 1.301-.213 1.229 2.008 2.64 4.961 3.152z" fill="#000231"/><path fill-rule="evenodd" clip-rule="evenodd" d="M211.76 256.699l.312-1.781.443.077-.307 1.781-.448-.077zm10.248 1.774l.312-1.781.444.077-.308 1.781-.448-.077z" fill="#000231"/><path d="M225.147 256.264c-.212 1.23-2.781 1.812-5.735 1.3-2.953-.511-5.174-1.922-4.961-3.151.429-2.48 3.057-3.401 6.011-2.89 2.953.511 5.115 2.261 4.685 4.741z" fill="#F1F5F6"/><path fill-rule="evenodd" clip-rule="evenodd" d="M224.193 256.501c.217-.152.271-.278.285-.353.172-.99-.158-1.826-.873-2.501-.728-.694-1.873-1.216-3.261-1.456-1.384-.24-2.637-.132-3.56.275-.895.396-1.492 1.072-1.664 2.062-.014.075 0 .213.154.43.158.219.429.471.836.728.806.512 2.009.967 3.42 1.211 1.411.244 2.695.22 3.627.009.471-.106.81-.251 1.036-.405zm-4.781 1.063c2.954.512 5.523-.07 5.735-1.3.43-2.48-1.732-4.23-4.685-4.741-2.954-.511-5.582.41-6.011 2.89-.213 1.229 2.008 2.64 4.961 3.151z" fill="#000231"/><path d="M225.459 254.483c-.217 1.23-2.782 1.812-5.735 1.301-2.954-.511-5.174-1.923-4.962-3.152.213-1.229 2.777-1.811 5.731-1.3 2.953.511 5.178 1.922 4.966 3.151z" fill="#F1F5F6"/><path fill-rule="evenodd" clip-rule="evenodd" d="M224.5 254.72c.217-.152.276-.278.289-.352.014-.075 0-.213-.153-.429-.159-.22-.435-.472-.837-.729-.805-.512-2.008-.967-3.419-1.211-1.412-.244-2.701-.22-3.628-.009-.47.106-.814.252-1.036.405-.217.152-.275.278-.284.353-.014.075-.005.212.149.429.158.219.434.472.837.728.805.512 2.012.967 3.419 1.211 1.411.244 2.7.22 3.632.009.466-.106.809-.251 1.031-.405zm-4.776 1.064c2.953.511 5.518-.071 5.735-1.301.212-1.229-2.013-2.64-4.966-3.151-2.954-.511-5.518.071-5.731 1.3-.212 1.229 2.008 2.641 4.962 3.152z" fill="#000231"/><path fill-rule="evenodd" clip-rule="evenodd" d="M214.451 254.413l.312-1.781.443.077-.308 1.781-.447-.077zm10.253 1.774l.308-1.781.443.077-.308 1.781-.443-.077z" fill="#000231"/><path d="M222.782 254.021c-.213 1.229-2.782 1.811-5.735 1.3-2.954-.511-5.175-1.922-4.962-3.152.665-3.815 3.057-3.401 6.011-2.89 2.953.511 5.305 1.18 4.686 4.742z" fill="#F1F5F6"/><path fill-rule="evenodd" clip-rule="evenodd" d="M221.823 254.258c.221-.153.276-.278.289-.353.145-.82.104-1.414-.031-1.853a1.997 1.997 0 00-.715-1.009c-.728-.558-1.882-.835-3.388-1.096-.746-.129-1.415-.244-2.026-.293-.615-.048-1.117-.023-1.529.098a1.828 1.828 0 00-.99.688c-.281.377-.525.955-.679 1.845-.013.075 0 .212.154.429.158.22.43.472.837.729.805.511 2.008.966 3.419 1.21s2.696.221 3.627.01c.466-.106.81-.252 1.032-.405zm-4.776 1.063c2.953.511 5.522-.071 5.735-1.3.619-3.562-1.733-4.231-4.686-4.742-2.954-.511-5.346-.925-6.011 2.89-.213 1.23 2.008 2.641 4.962 3.152z" fill="#000231"/><path d="M223.089 252.239c-.212 1.23-2.777 1.812-5.73 1.301-2.954-.511-5.175-1.922-4.962-3.151.213-1.23 2.777-1.812 5.73-1.301 2.954.511 5.179 1.922 4.962 3.151z" fill="#F1F5F6"/><path fill-rule="evenodd" clip-rule="evenodd" d="M222.135 252.477c.217-.153.276-.278.289-.353.014-.075 0-.212-.154-.429-.158-.22-.434-.472-.836-.729-.805-.512-2.008-.966-3.42-1.211-1.411-.244-2.7-.22-3.627-.009-.47.106-.814.252-1.036.406-.217.152-.276.277-.289.352-.009.075 0 .212.154.429.158.22.434.472.836.728.805.512 2.008.967 3.42 1.211 1.411.244 2.7.221 3.632.009.465-.105.809-.251 1.031-.404zm-4.776 1.063c2.953.511 5.518-.071 5.73-1.301.217-1.229-2.008-2.64-4.962-3.151-2.953-.511-5.517.071-5.73 1.301-.213 1.229 2.008 2.64 4.962 3.151z" fill="#000231"/><path fill-rule="evenodd" clip-rule="evenodd" d="M212.085 252.169l.308-1.78.447.076-.307 1.782-.448-.078zm10.253 1.774l.308-1.78.443.076-.307 1.782-.444-.078z" fill="#000231"/></g></g><defs><linearGradient id="paint0_linear_1694_68202" x1="250.802" y1="56.764" x2="245.177" y2="90.341" gradientUnits="userSpaceOnUse"><stop stop-color="#192E49"/><stop offset="1" stop-color="#142436"/></linearGradient><linearGradient id="paint1_linear_1694_68202" x1="165.73" y1="42.518" x2="160.109" y2="76.096" gradientUnits="userSpaceOnUse"><stop stop-color="#192E49"/><stop offset="1" stop-color="#142436"/></linearGradient><linearGradient id="paint2_linear_1694_68202" x1="80.662" y1="28.274" x2="75.037" y2="61.852" gradientUnits="userSpaceOnUse"><stop stop-color="#192E49"/><stop offset="1" stop-color="#142436"/></linearGradient><linearGradient id="paint3_linear_1694_68202" x1="334.923" y1="77.039" x2="330.887" y2="101.135" gradientUnits="userSpaceOnUse"><stop stop-color="#192E49"/><stop offset="1" stop-color="#142436"/></linearGradient><linearGradient id="paint4_linear_1694_68202" x1="249.856" y1="62.797" x2="245.82" y2="86.893" gradientUnits="userSpaceOnUse"><stop stop-color="#192E49"/><stop offset="1" stop-color="#142436"/></linearGradient><linearGradient id="paint5_linear_1694_68202" x1="164.784" y1="48.55" x2="160.748" y2="72.647" gradientUnits="userSpaceOnUse"><stop stop-color="#192E49"/><stop offset="1" stop-color="#142436"/></linearGradient><linearGradient id="paint6_linear_1694_68202" x1="491.199" y1="187.75" x2="485.578" y2="221.328" gradientUnits="userSpaceOnUse"><stop stop-color="#192E49"/><stop offset="1" stop-color="#142436"/></linearGradient><linearGradient id="paint7_linear_1694_68202" x1="391.324" y1="261.763" x2="385.699" y2="295.34" gradientUnits="userSpaceOnUse"><stop stop-color="#192E49"/><stop offset="1" stop-color="#142436"/></linearGradient><linearGradient id="paint8_linear_1694_68202" x1="335.868" y1="71.006" x2="330.243" y2="104.584" gradientUnits="userSpaceOnUse"><stop stop-color="#192E49"/><stop offset="1" stop-color="#142436"/></linearGradient><linearGradient id="paint9_linear_1694_68202" x1="420.913" y1="85.513" x2="415.288" y2="119.091" gradientUnits="userSpaceOnUse"><stop stop-color="#192E49"/><stop offset="1" stop-color="#142436"/></linearGradient><linearGradient id="paint10_linear_1694_68202" x1="306.257" y1="247.519" x2="300.632" y2="281.096" gradientUnits="userSpaceOnUse"><stop stop-color="#192E49"/><stop offset="1" stop-color="#142436"/></linearGradient><linearGradient id="paint11_linear_1694_68202" x1="490.253" y1="193.783" x2="486.217" y2="217.879" gradientUnits="userSpaceOnUse"><stop stop-color="#192E49"/><stop offset="1" stop-color="#142436"/></linearGradient><linearGradient id="paint12_linear_1694_68202" x1="475.45" y1="282.039" x2="471.414" y2="306.135" gradientUnits="userSpaceOnUse"><stop stop-color="#192E49"/><stop offset="1" stop-color="#142436"/></linearGradient><linearGradient id="paint13_linear_1694_68202" x1="390.378" y1="267.795" x2="386.342" y2="291.891" gradientUnits="userSpaceOnUse"><stop stop-color="#192E49"/><stop offset="1" stop-color="#142436"/></linearGradient><linearGradient id="paint14_linear_1694_68202" x1="419.967" y1="91.545" x2="415.931" y2="115.642" gradientUnits="userSpaceOnUse"><stop stop-color="#192E49"/><stop offset="1" stop-color="#142436"/></linearGradient><linearGradient id="paint15_linear_1694_68202" x1="64.909" y1="122.563" x2="60.873" y2="146.659" gradientUnits="userSpaceOnUse"><stop stop-color="#192E49"/><stop offset="1" stop-color="#142436"/></linearGradient><linearGradient id="paint16_linear_1694_68202" x1="205.432" y1="327.559" x2="201.401" y2="351.656" gradientUnits="userSpaceOnUse"><stop stop-color="#192E49"/><stop offset="1" stop-color="#142436"/></linearGradient><linearGradient id="paint17_linear_1694_68202" x1="135.173" y1="225.06" x2="131.137" y2="249.156" gradientUnits="userSpaceOnUse"><stop stop-color="#192E49"/><stop offset="1" stop-color="#142436"/></linearGradient><linearGradient id="paint18_linear_1694_68202" x1="120.37" y1="313.315" x2="116.334" y2="337.412" gradientUnits="userSpaceOnUse"><stop stop-color="#192E49"/><stop offset="1" stop-color="#142436"/></linearGradient><linearGradient id="paint19_linear_1694_68202" x1="220.24" y1="239.305" x2="216.204" y2="263.402" gradientUnits="userSpaceOnUse"><stop stop-color="#192E49"/><stop offset="1" stop-color="#142436"/></linearGradient><linearGradient id="paint20_linear_1694_68202" x1="375.936" y1="355.645" x2="371.905" y2="379.741" gradientUnits="userSpaceOnUse"><stop stop-color="#192E49"/><stop offset="1" stop-color="#142436"/></linearGradient><linearGradient id="paint21_linear_1694_68202" x1="461.954" y1="363.86" x2="456.333" y2="397.438" gradientUnits="userSpaceOnUse"><stop stop-color="#192E49"/><stop offset="1" stop-color="#142436"/></linearGradient><linearGradient id="paint22_linear_1694_68202" x1="460.967" y1="369.98" x2="456.931" y2="394.077" gradientUnits="userSpaceOnUse"><stop stop-color="#192E49"/><stop offset="1" stop-color="#142436"/></linearGradient><linearGradient id="paint23_linear_1694_68202" x1="305.303" y1="253.81" x2="301.321" y2="277.916" gradientUnits="userSpaceOnUse"><stop stop-color="#192E49"/><stop offset="1" stop-color="#142436"/></linearGradient><linearGradient id="paint24_linear_1694_68202" x1="149.79" y1="136.824" x2="145.755" y2="160.921" gradientUnits="userSpaceOnUse"><stop stop-color="#192E49"/><stop offset="1" stop-color="#142436"/></linearGradient><linearGradient id="paint25_linear_1694_68202" x1="319.852" y1="165.291" x2="315.817" y2="189.388" gradientUnits="userSpaceOnUse"><stop stop-color="#192E49"/><stop offset="1" stop-color="#142436"/></linearGradient><linearGradient id="paint26_linear_1694_68202" x1="50.966" y1="204.878" x2="45.345" y2="238.456" gradientUnits="userSpaceOnUse"><stop stop-color="#192E49"/><stop offset="1" stop-color="#142436"/></linearGradient><linearGradient id="paint27_linear_1694_68202" x1="49.834" y1="210.928" x2="45.798" y2="235.025" gradientUnits="userSpaceOnUse"><stop stop-color="#192E49"/><stop offset="1" stop-color="#142436"/></linearGradient><linearGradient id="paint28_linear_1694_68202" x1="235.953" y1="144.782" x2="230.332" y2="178.36" gradientUnits="userSpaceOnUse"><stop stop-color="#192E49"/><stop offset="1" stop-color="#142436"/></linearGradient><linearGradient id="paint29_linear_1694_68202" x1="234.821" y1="150.832" x2="230.785" y2="174.929" gradientUnits="userSpaceOnUse"><stop stop-color="#192E49"/><stop offset="1" stop-color="#142436"/></linearGradient><linearGradient id="paint30_linear_1694_68202" x1="406.014" y1="173.701" x2="400.393" y2="207.278" gradientUnits="userSpaceOnUse"><stop stop-color="#192E49"/><stop offset="1" stop-color="#142436"/></linearGradient><linearGradient id="paint31_linear_1694_68202" x1="404.883" y1="179.75" x2="400.847" y2="203.847" gradientUnits="userSpaceOnUse"><stop stop-color="#192E49"/><stop offset="1" stop-color="#142436"/></linearGradient><linearGradient id="paint32_linear_1694_68202" x1="291.584" y1="335.916" x2="285.964" y2="369.493" gradientUnits="userSpaceOnUse"><stop stop-color="#192E49"/><stop offset="1" stop-color="#142436"/></linearGradient><linearGradient id="paint33_linear_1694_68202" x1="290.454" y1="341.966" x2="286.418" y2="366.063" gradientUnits="userSpaceOnUse"><stop stop-color="#192E49"/><stop offset="1" stop-color="#142436"/></linearGradient><filter id="filter0_d_1694_68202" x="-19.337" y="172.886" width="103.911" height="106.706" filterUnits="userSpaceOnUse" color-interpolation-filters="sRGB"><feFlood flood-opacity="0" result="BackgroundImageFix"/><feColorMatrix in="SourceAlpha" values="0 0 0 0 0 0 0 0 0 0 0 0 0 0 0 0 0 0 127 0" result="hardAlpha"/><feOffset dx="-15"/><feGaussianBlur stdDeviation="12.5"/><feColorMatrix values="0 0 0 0 0 0 0 0 0 0 0 0 0 0 0 0 0 0 0.2 0"/><feBlend in2="BackgroundImageFix" result="effect1_dropShadow_1694_68202"/><feBlend in="SourceGraphic" in2="effect1_dropShadow_1694_68202" result="shape"/></filter><filter id="filter1_d_1694_68202" x="165.651" y="112.79" width="103.909" height="106.706" filterUnits="userSpaceOnUse" color-interpolation-filters="sRGB"><feFlood flood-opacity="0" result="BackgroundImageFix"/><feColorMatrix in="SourceAlpha" values="0 0 0 0 0 0 0 0 0 0 0 0 0 0 0 0 0 0 127 0" result="hardAlpha"/><feOffset dx="-15"/><feGaussianBlur stdDeviation="12.5"/><feColorMatrix values="0 0 0 0 0 0 0 0 0 0 0 0 0 0 0 0 0 0 0.2 0"/><feBlend in2="BackgroundImageFix" result="effect1_dropShadow_1694_68202"/><feBlend in="SourceGraphic" in2="effect1_dropShadow_1694_68202" result="shape"/></filter><filter id="filter2_d_1694_68202" x="335.712" y="141.709" width="103.909" height="106.706" filterUnits="userSpaceOnUse" color-interpolation-filters="sRGB"><feFlood flood-opacity="0" result="BackgroundImageFix"/><feColorMatrix in="SourceAlpha" values="0 0 0 0 0 0 0 0 0 0 0 0 0 0 0 0 0 0 127 0" result="hardAlpha"/><feOffset dx="-15"/><feGaussianBlur stdDeviation="12.5"/><feColorMatrix values="0 0 0 0 0 0 0 0 0 0 0 0 0 0 0 0 0 0 0.2 0"/><feBlend in2="BackgroundImageFix" result="effect1_dropShadow_1694_68202"/><feBlend in="SourceGraphic" in2="effect1_dropShadow_1694_68202" result="shape"/></filter><filter id="filter3_d_1694_68202" x="221.282" y="303.924" width="103.909" height="106.706" filterUnits="userSpaceOnUse" color-interpolation-filters="sRGB"><feFlood flood-opacity="0" result="BackgroundImageFix"/><feColorMatrix in="SourceAlpha" values="0 0 0 0 0 0 0 0 0 0 0 0 0 0 0 0 0 0 127 0" result="hardAlpha"/><feOffset dx="-15"/><feGaussianBlur stdDeviation="12.5"/><feColorMatrix values="0 0 0 0 0 0 0 0 0 0 0 0 0 0 0 0 0 0 0.2 0"/><feBlend in2="BackgroundImageFix" result="effect1_dropShadow_1694_68202"/><feBlend in="SourceGraphic" in2="effect1_dropShadow_1694_68202" result="shape"/></filter><clipPath id="clip0_1694_68202"><path fill="#fff" d="M0 0h528v435H0z"/></clipPath></defs></svg>