<svg width="528" height="435" fill="none" xmlns="http://www.w3.org/2000/svg"><g clip-path="url(#clip0_1694_555)"><path fill="#F6F6F6" d="M0 0h528v435H0z"/><g opacity=".4" stroke="#000" stroke-width="1.56" stroke-miterlimit="10"><path opacity=".4" d="M415.761-19.206v308.368l-.021.439c0 .297-.02.593-.023.89a41.488 41.488 0 01-.831 6.819 35.523 35.523 0 01-2.001 6.494 39.943 39.943 0 01-3.122 6.079 39.051 39.051 0 01-4.152 5.509 40.435 40.435 0 01-10.855 8.43c-.255.125-.51.255-.762.389a7.349 7.349 0 01-.762.385c-.525.217-1.038.463-1.554.703-.534.198-1.062.405-1.584.623-.533.192-1.079.347-1.61.545a40.315 40.315 0 01-6.648 1.483c-.296.032-.569.071-.851.113l-.427.065c-.142 0-.296 0-.432.023-.594.027-1.151.095-1.732.134-.581.038-1.171 0-1.759.041a2.29 2.29 0 01-.438 0l-.439-.017c-.297 0-.593-.018-.89-.021a41.199 41.199 0 01-6.82-.854 36.128 36.128 0 01-6.493-2.005 40.249 40.249 0 01-11.565-7.324c-.204-.201-.415-.4-.628-.593l-.321-.296-.163-.145-.222-.229-1.779-1.812a95.407 95.407 0 00-1.563-1.687 91.636 91.636 0 00-1.337-1.556 32.488 32.488 0 01-3.511-5.041 22.097 22.097 0 01-1.841-4.448 16.563 16.563 0 00-.199-.62 1.375 1.375 0 01-.086-.335l-.074-.356a18.78 18.78 0 00-.169-.702l-.095-.347c-.027-.128-.039-.267-.062-.401a25.59 25.59 0 00-.297-1.604 33.32 33.32 0 00-.21-1.82c-.021-.152-.048-.297-.066-.457l-.026-.513-.065-1.02-.086-1.02c-.021-.356 0-.75-.021-1.121l-.027-1.133-.018-.566v-.854a384.112 384.112 0 00-.16-6.44 150.626 150.626 0 00-3.448-25.652 146.293 146.293 0 00-7.867-24.745 149.478 149.478 0 00-27.944-43.36l-2.227-2.345-1.121-1.166c-.376-.388-.747-.776-1.138-1.147a383.357 383.357 0 00-4.685-4.448 412.146 412.146 0 00-4.887-4.24c-.403-.353-.827-.688-1.248-1.023l-1.269-1.005-2.547-1.996a147.055 147.055 0 00-71.266-29.103l-3.217-.395c-1.074-.106-2.147-.183-3.22-.269l-3.224-.241c-.539-.032-1.076-.083-1.613-.098l-1.61-.05-3.22-.083-1.61-.033-.807-.014-.803.014c-2.147.04-4.295.096-6.443.169A147.976 147.976 0 0041.622 271.733l-.388 3.217-.258 3.22c-.16 2.15-.338 4.3-.371 6.447l-.08 3.22-.047 2.568-.039 2.864c-.119 3.742-.391 7.262-.813 10.452-.833 6.405-2.422 11.2-3.854 14.032a16.29 16.29 0 01-2.05 3.184 12.232 12.232 0 01-2.226 2.058 20.09 20.09 0 01-3.855 2.141 43.49 43.49 0 01-6.594 2.075c-2.592.662-5.741 1.109-9.098 1.465-.857.074-1.71.157-2.57.243l-2.722.137c-.454.024-.89.056-1.364.077l-1.43.018-2.858.056" stroke-dasharray="6.43 21.45"/><path opacity=".4" d="M433.923-19.206v307.529c0 .798-.018 1.088-.03 1.533l-.032 1.269a59.915 59.915 0 01-1.216 9.978 54.002 54.002 0 01-2.941 9.548 58.49 58.49 0 01-10.637 16.925 58.832 58.832 0 01-15.828 12.294l-1.118.569c-.373.187-.732.406-1.12.56-.765.333-1.522.685-2.281 1.029-.783.297-1.556.593-2.327.917-.771.323-1.584.525-2.373.809a58.625 58.625 0 01-9.758 2.197l-1.245.16-.623.086c-.208.021-.418.027-.629.045-.842.047-1.678.136-2.517.187-.839.05-1.693.029-2.538.062a5.174 5.174 0 01-.635 0l-.634-.021-1.27-.029a59.522 59.522 0 01-9.969-1.252 54.179 54.179 0 01-9.544-2.965 58.34 58.34 0 01-16.902-10.698l-.91-.854-.463-.427-.234-.214-.267-.273-2.153-2.182a208.068 208.068 0 00-1.969-2.126c-.593-.7-1.186-1.391-1.779-2.076a50.61 50.61 0 01-5.429-7.869 40.29 40.29 0 01-3.333-8.006 72.6 72.6 0 00-.329-1.068 3.914 3.914 0 01-.142-.554l-.128-.57-.27-1.132-.142-.567c-.039-.195-.068-.4-.101-.593-.133-.806-.296-1.604-.433-2.416-.091-.858-.19-1.714-.296-2.568-.027-.217-.06-.427-.083-.644l-.042-.682-.092-1.364-.107-1.361c-.026-.465-.017-.954-.032-1.432l-.077-3.057c-.036-1.89-.083-3.776-.143-5.66a132.203 132.203 0 00-3.027-22.515 127.983 127.983 0 00-6.909-21.676 131.325 131.325 0 00-24.504-38.07l-1.957-2.058-.985-1.023c-.326-.341-.652-.685-.996-1.008a489.553 489.553 0 00-4.113-3.917 472.096 472.096 0 00-4.29-3.721c-.356-.297-.727-.593-1.098-.89l-1.114-.889-2.236-1.753a128.919 128.919 0 00-62.509-25.545 132.826 132.826 0 00-22.634-.889A129.823 129.823 0 0059.654 273.942l-.35 2.823-.226 2.828c-.136 1.886-.296 3.775-.323 5.661l-.071 2.829-.048 2.396-.044 3.261c-.116 4.152-.44 8.296-.973 12.416-1.04 7.878-3.054 14.645-5.66 19.792a34.13 34.13 0 01-4.365 6.678 30.229 30.229 0 01-5.489 5.091 38.356 38.356 0 01-7.324 4.11 61.624 61.624 0 01-9.577 3.078c-3.5.871-7.413 1.432-11.458 1.856l-3.075.296-3.178.164c-.531.026-1.056.065-1.593.085l-1.636.024-3.262.062" stroke-dasharray="2.15 37.54"/><path opacity=".4" d="M452.088 1.28v287.743l-.015.4-.044 1.61-.036 1.607c0 .537-.077 1.071-.11 1.605l-.121 1.601-.057.8c-.02.267-.068.531-.097.795l-.404 3.182a77.571 77.571 0 01-3.036 12.424c-.347 1.008-.655 2.028-1.076 3.012l-.593 1.483c-.193.495-.38.996-.614 1.483l-1.323 2.914-1.462 2.853a77.597 77.597 0 01-7.015 10.716 76.49 76.49 0 01-8.7 9.426 74.593 74.593 0 01-33.649 17.726c-1.041.235-2.076.51-3.131.668l-1.575.281c-.528.092-1.049.208-1.58.258l-3.182.406-3.202.247a81.124 81.124 0 01-12.843-.297l-3.181-.394-3.155-.561c-.528-.074-1.047-.21-1.566-.329l-1.559-.356c-1.05-.207-2.076-.533-3.096-.812a76.792 76.792 0 01-11.959-4.522l-2.861-1.441-2.787-1.581c-1.827-1.106-3.642-2.238-5.373-3.496-.433-.314-.89-.593-1.308-.931l-1.266-.984-1.272-.979-1.222-1.04c-.812-.697-1.646-1.367-2.408-2.121l-1.186-1.097-.593-.548-.593-.614-1.221-1.236-.611-.617-.297-.297-.296-.314-2.301-2.491-2.159-2.511c-.682-.845-1.334-1.696-2.007-2.542a64.04 64.04 0 01-6.551-10.508 61.071 61.071 0 01-4.234-11.404 223.079 223.079 0 00-.714-3.037c-.202-1.032-.368-2.075-.561-3.122l-.145-.78c-.054-.258-.068-.534-.104-.8l-.196-1.611-.201-1.607a9.784 9.784 0 01-.074-.818l-.057-.824-.231-3.307-.074-3.383-.101-4.205-.065-2.372c0-.394-.033-.788-.062-1.186l-.089-1.186-.181-2.372c-.06-.789-.116-1.577-.226-2.372l-.593-4.706-.833-4.676c-.127-.78-.317-1.551-.492-2.322l-.534-2.316a113.964 113.964 0 00-6.001-18.004 109.131 109.131 0 00-8.982-16.703 111.885 111.885 0 00-25.634-27.695 113.848 113.848 0 00-15.941-10.242l-2.114-1.085-1.059-.534-.53-.27-.54-.246-4.329-1.957c-1.465-.593-2.942-1.171-4.416-1.749-.732-.297-1.482-.546-2.235-.801l-2.251-.762a114.15 114.15 0 00-18.47-4.347l-4.709-.593c-1.571-.142-3.149-.252-4.723-.371l-1.186-.086-1.186-.032-2.373-.062c-.788-.015-1.577-.045-2.372-.045l-2.372.056c-3.155.027-6.307.297-9.453.593l-4.709.593c-.391.045-.78.113-1.171.184l-1.168.211-2.337.421a114.653 114.653 0 00-18.218 5.177l-4.409 1.764-4.32 1.978c-.724.318-1.418.697-2.124 1.059l-2.108 1.091c-1.417.706-2.763 1.539-4.136 2.328a111.872 111.872 0 00-39.82 39.813 108.42 108.42 0 00-8.187 17.112 113.49 113.49 0 00-5.171 18.257 109.164 109.164 0 00-1.993 18.841l-.053 2.372-.03 1.821-.023 1.779c0 .593 0 1.186-.042 1.779l-.157 3.537c-.015.593-.08 1.169-.119 1.753l-.133 1.746a116.257 116.257 0 01-1.892 13.545 82.8 82.8 0 01-3.609 12.454 59.685 59.685 0 01-5.429 10.888 48.306 48.306 0 01-16.655 16.012 64.422 64.422 0 01-11.176 5.136l-3.048 1.002-3.143.869c-.261.071-.52.151-.786.217l-.81.181-1.607.367-1.616.368c-.548.11-1.109.199-1.66.296-4.395.869-9.014 1.326-13.67 1.685" stroke-dasharray="2.68 10.29"/><path opacity=".4" d="M3.131 365.498l-2.138.039"/><path opacity=".4" d="M470.25-19.206v307.529c0 1.367-.06 2.731-.086 4.098a96.451 96.451 0 01-1.993 16.258c-4.534 21.4-16.869 41.059-34.2 54.414a94.834 94.834 0 01-13.75 8.896l-1.824.934c-.613.296-1.209.64-1.838.907-1.245.561-2.488 1.133-3.739 1.684l-3.813 1.504c-1.284.468-2.589.889-3.879 1.331a95.206 95.206 0 01-15.976 3.621l-2.034.258-1.017.127c-.341.036-.682.056-1.023.083-1.361.098-2.725.22-4.089.297l-4.098.103h-1.026l-1.023-.023-2.052-.054a95.454 95.454 0 01-16.249-2.043 90.233 90.233 0 01-15.648-4.842 94.761 94.761 0 01-27.576-17.447l-1.483-1.403-.747-.699-.373-.353-.362-.365-2.879-2.921-2.785-3.006-2.668-3.111a86.824 86.824 0 01-9.284-13.527c-5.299-9.578-8.377-20.294-9.489-31.164-.042-.338-.089-.676-.122-1.017l-.074-1.023-.145-2.043-.145-2.046c-.036-.682-.036-1.367-.057-2.049l-.198-8.199a96.566 96.566 0 00-2.189-16.211 91.72 91.72 0 00-4.957-15.611 94.912 94.912 0 00-17.664-27.443l-1.415-1.483-.708-.741a14.181 14.181 0 00-.721-.73l-2.965-2.828-3.107-2.699a13.525 13.525 0 00-.792-.646l-.807-.635-1.613-1.266a94.748 94.748 0 00-29.002-14.965 95.712 95.712 0 00-32.383-4.065 93.483 93.483 0 00-88.481 82.18l-.255 2.034-.155 2.043c-.098 1.364-.231 2.725-.237 4.092-.006 1.367-.074 2.734-.095 4.101l-.056 4.101a159.47 159.47 0 01-1.293 16.341 109.61 109.61 0 01-3.318 16.042 86.904 86.904 0 01-5.93 15.264 70.571 70.571 0 01-8.988 13.67 66.718 66.718 0 01-11.994 11.116 74.538 74.538 0 01-14.26 8.036 97.53 97.53 0 01-15.585 5.041c-5.313 1.299-10.737 2.076-16.172 2.648l-4.083.373-4.095.217c-.682.035-1.364.08-2.046.104l-2.052.035-4.098.071" stroke-dasharray="6.43 10.73"/><path opacity=".4" d="M488.412-19.206v307.529c0 .626-.018 1.506-.036 2.307l-.062 2.44a114.416 114.416 0 01-2.372 19.395 108.262 108.262 0 01-5.756 18.711 112.812 112.812 0 01-8.931 17.4 111.766 111.766 0 01-11.789 15.582 113.256 113.256 0 01-30.744 23.887l-2.179 1.118c-.732.365-1.447.759-2.197 1.082-1.483.676-2.965 1.355-4.466 2.011l-4.557 1.797c-1.533.563-3.09 1.064-4.635 1.592a112.981 112.981 0 01-19.087 4.308l-2.428.297-1.213.151c-.406.039-.813.065-1.219.101-1.625.122-3.261.261-4.875.35l-4.88.124h-1.219l-1.222-.026-2.437-.062a111.495 111.495 0 01-71.007-29.059l-1.78-1.673-.889-.836-.445-.421-.406-.409c-1.082-1.094-2.168-2.18-3.241-3.292l-3.194-3.448-3.116-3.627a105.054 105.054 0 01-11.185-16.323 94.922 94.922 0 01-7.807-18.651l-.715-2.414c-.124-.4-.219-.806-.314-1.209l-.296-1.213-.57-2.426-.282-1.215c-.083-.404-.151-.807-.225-1.21-.296-1.616-.593-3.235-.851-4.848l-.593-4.822c-.047-.4-.101-.803-.142-1.204l-.086-1.186-.172-2.372-.166-2.372c-.042-.792-.045-1.572-.068-2.372l-.19-7.935a77.963 77.963 0 00-1.765-13.094 73.776 73.776 0 00-3.994-12.564 76.796 76.796 0 00-14.25-22.129l-1.145-1.186-.569-.593c-.19-.202-.377-.406-.593-.593l-2.396-2.286-2.503-2.168c-.204-.187-.424-.353-.64-.522l-.653-.51-1.301-1.023a76.527 76.527 0 00-23.369-12.062 77.483 77.483 0 00-26.135-3.262c-4.4.222-8.773.813-13.074 1.767-2.152.46-4.264 1.086-6.366 1.726l-3.122 1.068-3.063 1.227a75.773 75.773 0 00-37.987 35.286 73.286 73.286 0 00-7.71 25.121l-.213 1.64-.119 1.651c-.077 1.101-.196 2.201-.19 3.31l-.041 1.657-.027.83v1.047l-.065 4.513a177.363 177.363 0 01-1.453 18.304 128.178 128.178 0 01-3.855 18.61 105.198 105.198 0 01-7.185 18.458 88.927 88.927 0 01-11.3 17.166 85.013 85.013 0 01-15.253 14.138 92.715 92.715 0 01-17.726 10.001 115.873 115.873 0 01-18.58 6.034 138.721 138.721 0 01-18.53 3.04l-4.59.418-4.55.246c-.757.036-1.52.083-2.275.113l-2.257.041-4.513.074" stroke-dasharray="2.15 37.54"/><path opacity=".4" d="M506.573-19.206v307.529c0 .569-.017 1.646-.038 2.565l-.071 2.829a132.146 132.146 0 01-2.77 22.535 126.353 126.353 0 01-6.692 21.762 130.625 130.625 0 01-59.799 66.085l-2.533 1.299c-.848.424-1.684.889-2.553 1.257a331.132 331.132 0 01-5.198 2.336 354.824 354.824 0 01-5.301 2.076c-1.779.655-3.588 1.245-5.388 1.853a131.369 131.369 0 01-22.198 5.014l-2.819.356-1.412.172c-.471.048-.943.08-1.414.119-1.886.145-3.775.296-5.661.409-1.886.059-3.773.107-5.66.142-.472.018-.943 0-1.415 0l-1.417-.029-2.829-.072a129.657 129.657 0 01-82.539-33.767l-2.076-1.939-1.032-.976-.516-.489-.453-.454c-1.204-1.219-2.405-2.419-3.603-3.659l-3.6-3.893a588.832 588.832 0 01-3.558-4.151 123.345 123.345 0 01-13.091-19.117 113.375 113.375 0 01-9.302-22.203l-.839-2.865a21.486 21.486 0 01-.374-1.429l-.344-1.426-.673-2.856-.326-1.432c-.095-.471-.178-.943-.264-1.414a305.994 305.994 0 01-.99-5.661 459.881 459.881 0 01-.691-5.568l-.16-1.394-.104-1.361-.196-2.728-.187-2.728c-.047-.89-.053-1.779-.08-2.669l-.178-7.677a60.241 60.241 0 00-1.346-9.951 55.647 55.647 0 00-3.015-9.524 58.523 58.523 0 00-10.835-16.816l-.89-.91-.43-.46c-.145-.154-.296-.296-.441-.45a81.115 81.115 0 01-1.824-1.744 94.009 94.009 0 01-1.91-1.648 5.536 5.536 0 00-.48-.398l-.498-.385-.985-.78a58.352 58.352 0 00-17.734-9.163 57.665 57.665 0 00-9.786-2.075 56.893 56.893 0 00-20.047.972c-1.634.341-3.229.828-4.825 1.305-.79.279-1.581.548-2.372.807-.771.32-1.546.63-2.324.931a58.924 58.924 0 00-16.798 10.867 56.687 56.687 0 00-17.922 35.031l-.166 1.245-.083 1.26c-.056.84-.163 1.673-.148 2.524l-.033 1.269-.021.635v1.067l-.074 4.925a195.775 195.775 0 01-1.607 20.267 146.56 146.56 0 01-4.403 21.175 123.383 123.383 0 01-8.439 21.646 107.05 107.05 0 01-13.616 20.661 103.082 103.082 0 01-18.506 17.16 111.028 111.028 0 01-21.216 11.964 133.444 133.444 0 01-21.575 7.022c-7.116 1.725-14.07 2.731-20.89 3.436l-5.09.46-5.012.273c-.833.041-1.672.092-2.503.121l-2.464.048-4.925.08" stroke-dasharray="6.43 21.45"/><path opacity=".4" d="M524.735-19.206v308.739l-.029 1.613-.083 3.22a150.8 150.8 0 01-3.155 25.676 144.927 144.927 0 01-7.633 24.815 148.739 148.739 0 01-68.131 75.298l-2.888 1.483c-.967.483-1.922.993-2.912 1.432-1.969.89-3.938 1.8-5.93 2.669a381.302 381.302 0 01-6.046 2.387c-2.032.747-4.092 1.423-6.147 2.114a149.34 149.34 0 01-25.305 5.717l-3.214.406-1.608.193c-.536.053-1.073.095-1.613.139-2.146.169-4.296.347-6.443.463-2.147.115-4.297.124-6.443.163-.537.018-1.074 0-1.61 0l-1.611-.03-3.22-.086a147.81 147.81 0 01-94.062-38.494l-2.372-2.209-1.186-1.112-.593-.557-.498-.499c-1.328-1.34-2.645-2.668-3.967-4.029a565.59 565.59 0 01-4.006-4.332c-1.347-1.539-2.669-3.102-4.009-4.665a141.337 141.337 0 01-15.019-21.942 131.615 131.615 0 01-10.793-25.759l-.97-3.312c-.166-.554-.297-1.1-.433-1.645l-.397-1.643-.771-3.289-.353-1.645c-.11-.543-.205-1.08-.297-1.619a311.714 311.714 0 01-1.129-6.47 521.357 521.357 0 01-.786-6.319l-.178-1.581-.119-1.533-.225-3.069-.205-3.069c-.05-1.011-.062-1.983-.094-2.965l-.119-5.66a28.94 28.94 0 01-.048-1.756 41.467 41.467 0 00-.925-6.82 37.466 37.466 0 00-2.043-6.482 40.504 40.504 0 00-7.413-11.504 15.648 15.648 0 01-.593-.623l-.296-.32a3.468 3.468 0 00-.297-.297 55.584 55.584 0 01-1.254-1.186 26.23 26.23 0 01-1.311-1.13 3.269 3.269 0 00-.335-.273l-.347-.26a31.82 31.82 0 01-.676-.537 40.144 40.144 0 00-12.101-6.263 39.458 39.458 0 00-6.671-1.408 17.37 17.37 0 01-.851-.125c-.282-.047-.579-.029-.866-.053-.288-.024-.593-.045-.866-.071a4.486 4.486 0 00-.433-.036h-.442c-.296 0-.593 0-.889-.021l-.439-.02h-.439c-.593.032-1.186.044-1.755.041a42.589 42.589 0 00-6.82.946c-1.115.225-2.195.569-3.283.89-.53.197-1.066.379-1.61.545a30.31 30.31 0 01-1.58.638 40.678 40.678 0 00-11.496 7.439 39.988 39.988 0 00-10.865 17.255 39.506 39.506 0 00-1.391 6.677c-.035.297-.077.567-.124.851-.048.285-.027.594-.048.866-.035.593-.124 1.151-.103 1.741 0 .296 0 .593-.021.889l-.021.439v1.094l-.08 5.338a213.545 213.545 0 01-1.779 22.239 164.836 164.836 0 01-4.943 23.721 141.497 141.497 0 01-9.693 24.852 125.302 125.302 0 01-15.944 24.098 121.321 121.321 0 01-21.765 20.181 129.03 129.03 0 01-24.661 13.936 151.879 151.879 0 01-24.57 8.006c-8.035 1.936-15.736 3.051-23.25 3.828l-5.598.501-5.468.297c-.907.044-1.826.098-2.728.13l-2.668.054-5.338.083" stroke-dasharray="2.7 10.39"/></g><path d="M158.051 225.612c25.574 0 46.307-20.732 46.307-46.307 0-25.575-20.733-46.308-46.307-46.308-25.575 0-46.308 20.733-46.308 46.308s20.733 46.307 46.308 46.307z" fill="#A28FFF"/><path d="M146.863 225.612c25.575 0 46.308-20.732 46.308-46.307 0-25.575-20.733-46.308-46.308-46.308s-46.307 20.733-46.307 46.308 20.732 46.307 46.307 46.307z" fill="#fff" stroke="#282828" stroke-width="4.05" stroke-miterlimit="10"/><path d="M193.025 179.574h16.427m-18.064-13.325h15.864m-22.01-13.326h15.938m-9.875 39.977h15.956m-22.755 13.329h16.659" stroke="#282828" stroke-width="4.05" stroke-miterlimit="10"/><path d="M146.694 201.416c12.266 0 22.209-9.943 22.209-22.209s-9.943-22.209-22.209-22.209-22.209 9.943-22.209 22.209 9.943 22.209 22.209 22.209z" fill="#fff" stroke="#282828" stroke-width="4.05" stroke-miterlimit="10"/><path d="M167.946 157.721l-47.787 37.462m52.457-31.623l-47.787 37.462m45.118 18.514h16.629m-15.896-79.914h15.941" stroke="#282828" stroke-width="4.05" stroke-miterlimit="10"/><path d="M80.277 361.887c12.9 0 23.357-10.458 23.357-23.357 0-12.9-10.458-23.357-23.357-23.357-12.9 0-23.357 10.457-23.357 23.357 0 12.899 10.457 23.357 23.357 23.357z" fill="#480BE3"/><path d="M80.28 338.509l39.117 69.184m-38.951-69.214l54.737 58.841m-53.806-58.405l75.446 24.653m-76.57-25.006l78.477 1.48m-78.302-1.492l67.037 43.722" stroke="#282828" stroke-width="2.46" stroke-miterlimit="10" stroke-dasharray="8.36 5.97"/><path d="M470.612 432.428c12.899 0 23.357-10.457 23.357-23.356 0-12.9-10.458-23.357-23.357-23.357-12.9 0-23.357 10.457-23.357 23.357 0 12.899 10.457 23.356 23.357 23.356z" fill="#A28FFF"/><path d="M447.1 410.729c12.9 0 23.357-10.457 23.357-23.357 0-12.899-10.457-23.357-23.357-23.357-12.899 0-23.356 10.458-23.356 23.357 0 12.9 10.457 23.357 23.356 23.357z" stroke="#282828" stroke-width="4.05" stroke-miterlimit="10"/><path d="M447.276 387.147l-15.926-77.048m15.94 77.11l-34.087-71.861m34.126 71.716l-64.766-45.86m64.976 46.228l-73.747-24.312m73.451 23.831L397.027 326.1" stroke="#282828" stroke-width="2.46" stroke-miterlimit="10" stroke-dasharray="8.35 5.97"/><path d="M486.508 59.76c5.896 0 10.675-4.78 10.675-10.675 0-5.895-4.779-10.674-10.675-10.674-5.895 0-10.675 4.779-10.675 10.674 0 5.896 4.78 10.675 10.675 10.675z" fill="#A28FFF"/><path d="M498.754 78.037c8.298 0 15.025-6.726 15.025-15.024 0-8.298-6.727-15.025-15.025-15.025s-15.025 6.727-15.025 15.025 6.727 15.024 15.025 15.024z" fill="#fff" stroke="#282828" stroke-width="4.05" stroke-miterlimit="10"/><path d="M505.598 149.931c5.896 0 10.675-4.779 10.675-10.674 0-5.896-4.779-10.675-10.675-10.675-5.895 0-10.675 4.779-10.675 10.675 0 5.895 4.78 10.674 10.675 10.674z" fill="#480BE3"/><path d="M498.754 67.686a4.673 4.673 0 100-9.346 4.673 4.673 0 000 9.346zm-89.901-34.378c8.298 0 15.024-6.727 15.024-15.025s-6.726-15.025-15.024-15.025c-8.298 0-15.025 6.727-15.025 15.025s6.727 15.025 15.025 15.025z" fill="#fff" stroke="#282828" stroke-width="4.05" stroke-miterlimit="10"/><path d="M422.733 40.296l35.805 53.513 17.171-24.11" stroke="#282828" stroke-width="2.46" stroke-miterlimit="10" stroke-dasharray="8.35 5.97"/><path d="M456.343 131.197c8.298 0 15.025-6.727 15.025-15.024 0-8.298-6.727-15.025-15.025-15.025s-15.025 6.727-15.025 15.025c0 8.297 6.727 15.024 15.025 15.024z" fill="#fff" stroke="#282828" stroke-width="4.05" stroke-miterlimit="10"/><path d="M462.769 110.358a6.424 6.424 0 01-6.424 6.287 6.427 6.427 0 01-6.425-6.287m6.423 6.408v8.391" stroke="#282828" stroke-width="4.05" stroke-miterlimit="10"/><path d="M498.76 155.918l-11.114 33.089" stroke="#282828" stroke-width="2.46" stroke-miterlimit="10" stroke-dasharray="8.35 5.97"/><path d="M422.389 41.74c1.023 0 1.853-.856 1.853-1.912s-.83-1.913-1.853-1.913c-1.024 0-1.853.857-1.853 1.913s.829 1.913 1.853 1.913zm36.148 54.163c1.024 0 1.854-.857 1.854-1.913s-.83-1.912-1.854-1.912c-1.023 0-1.853.856-1.853 1.912s.83 1.913 1.853 1.913zm18.361-25.569c1.023 0 1.853-.856 1.853-1.913 0-1.056-.83-1.912-1.853-1.912-1.024 0-1.854.856-1.854 1.912 0 1.057.83 1.913 1.854 1.913zm23.887 85.524c.162-1.044-.527-2.017-1.539-2.173-1.011-.157-1.962.563-2.124 1.607-.161 1.043.528 2.016 1.54 2.173 1.011.156 1.962-.563 2.123-1.607zm-11.286 33.293c.161-1.044-.528-2.017-1.54-2.173-1.011-.157-1.962.563-2.123 1.607-.162 1.043.527 2.016 1.539 2.173 1.011.156 1.962-.563 2.124-1.607z" fill="#282828"/><path d="M408.838 18.22a3.38 3.38 0 113.119-4.744m-3.119 4.744a3.377 3.377 0 012.995 1.862 3.382 3.382 0 01-.291 3.514 3.376 3.376 0 01-3.261 1.343 3.377 3.377 0 01-2.681-2.291" stroke="#282828" stroke-width="4.05" stroke-miterlimit="10"/><path d="M64.635 210.392a1.53 1.53 0 100-3.06 1.53 1.53 0 000 3.06zm120.313 41.957a1.53 1.53 0 100-3.06 1.53 1.53 0 000 3.06zM75.296 278.428l1.993 2.322 2.322-1.993-1.993-2.322-2.322 1.993zm159.221-89.463a1.53 1.53 0 100-3.06 1.53 1.53 0 000 3.06zM365.22 328.258a1.53 1.53 0 100-3.06 1.53 1.53 0 000 3.06zm-32.458 83.324l1.432 2.705 2.704-1.432-1.431-2.704-2.705 1.431zm18.124 6.533a1.53 1.53 0 100-3.06 1.53 1.53 0 000 3.06zm135.343-131.152l2.099 2.227 2.227-2.098-2.098-2.227-2.228 2.098zm-72.544-139.964l2.167 2.161 2.161-2.167-2.167-2.161-2.161 2.167zm54.407-139.87l2.167 2.16 2.161-2.167-2.167-2.16-2.161 2.167zm56.797 220.348a1.53 1.53 0 100-3.06 1.53 1.53 0 000 3.06zm-36.963 72.929a1.53 1.53 0 100-3.06 1.53 1.53 0 000 3.06zm-53.854-47.06a1.53 1.53 0 100-3.06 1.53 1.53 0 000 3.06zM49.949 432.309l2.643 1.542 1.542-2.643-2.643-1.542-1.542 2.643z" fill="#282828"/><path d="M171.759 254.09s-23.384 9.388-22.512 41.809m226.117 141.52s21.669.332 41.919-5.821" stroke="#282828" stroke-width="4.05" stroke-miterlimit="10"/><path d="M480.311 225.17c8.298 0 15.024-6.726 15.024-15.024 0-8.298-6.726-15.025-15.024-15.025-8.298 0-15.025 6.727-15.025 15.025s6.727 15.024 15.025 15.024z" fill="#fff" stroke="#282828" stroke-width="4.05" stroke-miterlimit="10"/><path d="M485.334 206.487s-1.732-2.639-4.537-2.639c-2.805 0-5.93 2.102-5.93 6.39 0 4.287 3.422 6.144 5.607 6.144a6.204 6.204 0 004.987-2.669" stroke="#282828" stroke-width="4.05" stroke-miterlimit="10"/><path d="M21.31 328.697a1.53 1.53 0 100-3.06 1.53 1.53 0 000 3.06z" fill="#282828"/><path d="M45.857 249.571s-5.041 15.653-5.246 31.908" stroke="#282828" stroke-width="4.05" stroke-miterlimit="10"/><path d="M79.17 268.649a1.53 1.53 0 100-3.06 1.53 1.53 0 000 3.06z" fill="#282828"/><path d="M251.772 370.37l-7.141 25.168m6.894-25.269l47.77-30.844 31.265 8.78m-31.44-8.872l-6.806-47.556 63.553-31.929M251.798 370.082l-39.179-5.728" stroke="#282828" stroke-width="4.05" stroke-miterlimit="10"/><path d="M210.028 367.025a2.911 2.911 0 100-5.823 2.911 2.911 0 000 5.823zm34.479 31.831a2.911 2.911 0 10.001-5.823 2.911 2.911 0 00-.001 5.823zm54.716-56.507a2.912 2.912 0 100-5.825 2.912 2.912 0 000 5.825zm33.498 9.228a2.912 2.912 0 100-5.823 2.912 2.912 0 000 5.823zm-5.293-45.641a2.911 2.911 0 10.002-5.822 2.911 2.911 0 00-.002 5.822zm-34.823-11.11a2.912 2.912 0 100-5.825 2.912 2.912 0 000 5.825zm65.021-32.914a2.912 2.912 0 100-5.825 2.912 2.912 0 000 5.825z" fill="#282828"/><path d="M327.108 302.909l-34.645-10.963" stroke="#282828" stroke-width="4.05" stroke-miterlimit="10"/><path d="M302.313 259.552a2.912 2.912 0 100-5.825 2.912 2.912 0 000 5.825z" fill="#282828"/><path d="M292.567 291.567l9.447-33.72" stroke="#282828" stroke-width="4.05" stroke-miterlimit="10"/><path d="M251.599 373.196a2.912 2.912 0 100-5.825 2.912 2.912 0 000 5.825z" fill="#282828"/><path d="M250.559 154.978s31.783 14.808 51.828 39.188" stroke="#282828" stroke-width="4.05" stroke-miterlimit="10"/><path d="M255.727 200.006l.389 3.035 3.035-.389-.388-3.035-3.036.389zm-16.305 63.679a1.53 1.53 0 100-3.06 1.53 1.53 0 000 3.06z" fill="#282828"/><path d="M415.726 200.951v41.133" stroke="#282828" stroke-width="4.05" stroke-miterlimit="10"/><path d="M524.809 95.253a1.53 1.53 0 100-3.06 1.53 1.53 0 000 3.06z" fill="#282828"/></g><defs><clipPath id="clip0_1694_555"><path fill="#fff" d="M0 0h528v435H0z"/></clipPath></defs></svg>