<svg width="1440" height="642" fill="none" xmlns="http://www.w3.org/2000/svg"><g clip-path="url(#clip0_1537_70799)"><path d="M1440 0H0v642h1440V0z" fill="#111"/><path d="M1129.6 379.8c12.1 11.6 18 31.7 13.1 47.8-4.9 16.1-20.5 28.3-35.7 32.1-15.2 3.8-30-.9-47.5-6.8-17.5-5.8-37.7-12.8-42-25.2-4.3-12.5 7.2-30.4 20.5-42.2 13.2-11.9 28.1-17.6 44.7-19 16.6-1.3 34.9 1.7 46.9 13.3zm128-192.3c11 11.7 16.2 30.2 12.3 46.1-4 15.9-17.1 29.3-32.1 35-14.9 5.6-31.7 3.5-42.7-4.2-11-7.7-16.3-21.1-17.8-33.6-1.6-12.6.6-24.3 7.2-35.1 6.5-10.7 17.5-20.5 31.4-22.8 13.9-2.3 30.7 2.8 41.7 14.6zM460.8 289.4c9.3 15.1 13.7 30.7 10.5 44.4-3.3 13.7-14.3 25.3-27.2 30.7-13 5.4-27.9 4.5-44.2-.6-16.3-5.2-33.9-14.5-38.9-28.9-4.9-14.3 2.8-33.7 15.2-49.6 12.5-15.9 29.6-28.3 45.3-27.1 15.7 1.1 30 15.9 39.3 31.1zM429.6 91.8c9.1 12.2 14 26.9 10.4 38.6-3.5 11.7-15.5 20.4-28.6 26.8-13.1 6.3-27.4 10.3-40.5 6.2-13-4.2-24.8-16.5-26.9-29.8-2-13.2 5.7-27.5 15.6-39.9 10-12.4 22.2-22.9 34.9-23.4 12.8-.4 26 9.3 35.1 21.5zm695.49-22.36c9.2 10.1 18.5 21.4 18.5 34.3 0 12.8-9.2 27.3-20.8 30.3-11.6 3.1-25.5-5.3-40.2-12.3-14.7-7-30.3-12.5-33.8-22.4-3.5-9.9 5.1-24 15.3-34.4 10.3-10.4 22.2-17 32.6-15.8 10.4 1.2 19.3 10.2 28.4 20.3zm134.59 466.277c10.3 13.8 18.8 28.1 16.8 41.5-1.9 13.3-14.3 25.7-28 30.4-13.7 4.7-28.7 1.8-42.9-4.4s-27.6-15.7-32.5-29.4c-4.8-13.6-1.1-31.4 9-45.1 10.1-13.7 26.6-23.3 40.9-21.5 14.3 1.7 26.4 14.8 36.7 28.5zM656.8 179.4c9.2 10.6 9.3 29.4 3.4 43.4-5.9 14.1-17.8 23.4-30.3 28.1-12.5 4.7-25.5 4.9-36.5-.1-10.9-5-19.6-15.2-22.3-26.7-2.7-11.6.7-24.6 8.4-34.9 7.6-10.3 19.6-18 34.7-20.5 15.1-2.5 33.4 0 42.6 10.7zM213.516 414.626c10.2 9.2 12.8 28.2 7.3 42.7-5.5 14.4-19.1 24.3-34 31.5-14.8 7.3-31.1 11.9-42 6.3-10.8-5.5-16.4-21.4-17.6-35.6-1.1-14.2 2-26.9 9.4-35.4s19-12.9 33.8-15.5c14.8-2.5 32.8-3.2 43.1 6zm1158.244 3.011c-12.96 4.572-30.89-2.213-41.01-13.967-10.03-11.706-12.24-28.382-11.45-44.912.65-16.49 4.39-33.009 14.51-39.914 9.99-6.865 26.63-4.196 39.68 1.527 13.01 5.811 22.69 14.597 26.63 25.157 3.93 10.56 2.26 22.853-2.52 37.1-4.87 14.198-12.84 30.349-25.84 35.009zM942.158 118.128c7.6 11.5 5.1 29 1.3 46.2-3.9 17.3-9.1 34.4-21.3 42.3-12.3 7.9-31.4 6.7-45.7-1.4-14.2-8.1-23.5-23.2-24.4-37.2-.8-14.1 6.8-27.1 16.1-39 9.3-11.9 20.3-22.7 34.6-25.4 14.3-2.6 31.9 3 39.4 14.5zM535.2 471.8c9.8 11.4 16.6 26 14.1 39.1-2.5 13-14.3 24.5-28.2 30.7-13.8 6.1-29.6 6.9-45.6 1.7-16.1-5.2-32.4-16.4-37.2-31.8-4.8-15.4 2-35.1 14.2-47.1s29.9-16.4 45-14.4c15.2 2 27.9 10.3 37.7 21.8zM162.283 184.436c8.636 13.494 7.197 32.206 1.439 46.959-5.757 14.754-15.923 25.459-27.978 30.857-12.145 5.488-26.269 5.577-38.773.27-12.505-5.308-23.3-15.923-25.55-27.888-2.158-11.965 4.23-25.189 13.225-38.773 8.906-13.585 20.421-27.439 35.445-30.317 15.113-2.789 33.645 5.397 42.192 18.892zM976 523.8c8.2 10.9 10 26.1 7.5 41.6s-9.5 31.1-22.2 38.8c-12.8 7.7-31.3 7.3-43.3-.7-11.9-8.1-17.3-23.8-17.7-37.3-.4-13.4 4.3-24.7 11.6-35.4s17.2-20.9 29.4-22.7c12.1-1.9 26.6 4.8 34.7 15.7zm-253.9-28.2c7.7 12.2 8.8 27.1 5.9 41.4-2.9 14.4-9.9 28.2-20.8 33.2-10.9 5-25.8 1-39.5-5.5-13.8-6.5-26.5-15.5-31.8-29.1-5.3-13.5-3.3-31.5 6.3-44.2 9.6-12.6 26.7-19.9 42.4-18.7 15.6 1.1 29.8 10.7 37.5 22.9zm86.8-176.1c10.4 12.3 12.5 32 6.3 46.1-6.2 14.1-20.6 22.6-34.6 27.6s-27.5 6.6-38.8 1.9c-11.4-4.8-20.7-15.8-26.1-30.4-5.4-14.6-7-32.6 1.2-44.5 8.1-11.8 26.1-17.5 44.5-17.8 18.4-.3 37.1 4.7 47.5 17.1zm496.96-217.982c-9.02-9.2-17.31-21.133-15.39-31.244 1.91-10.111 13.93-18.492 25.59-22.044 11.75-3.644 23.23-2.46 33.34 2.095 10.11 4.646 18.95 12.661 22.59 23.41 3.65 10.749 2.19 24.23-4.92 32.975-7.19 8.745-19.94 12.753-31.15 11.568-11.29-1.184-21.04-7.651-30.06-16.76z" stroke="#5D5D5D" stroke-width="3"/></g><defs><clipPath id="clip0_1537_70799"><path fill="#fff" d="M0 0h1440v642H0z"/></clipPath></defs></svg>