<svg width="1440" height="824" fill="none" xmlns="http://www.w3.org/2000/svg"><g clip-path="url(#clip0_1543_70814)"><path d="M1440 0H0v824h1440V0z" fill="#008BD0"/><g opacity=".8" filter="url(#filter0_f_1543_70814)"><path d="M112 1212c302.1 0 547-244.9 547-547S414.1 118 112 118s-547 244.9-547 547 244.9 547 547 547z" fill="#F5F5F5"/><path d="M135 417c302.1 0 547-244.9 547-547S437.1-677 135-677s-547 244.9-547 547 244.9 547 547 547z" fill="#F5F5F5"/><path d="M1113 686c302.1 0 547-244.9 547-547s-244.9-547-547-547-547 244.9-547 547 244.9 547 547 547z" fill="#008BD0"/><path d="M1182 393c302.1 0 547-244.9 547-547s-244.9-547-547-547-547 244.9-547 547 244.9 547 547 547z" fill="#008BD0"/><path d="M1209 1263c302.1 0 547-244.9 547-547s-244.9-547-547-547-547 244.9-547 547 244.9 547 547 547z" fill="#F5F5F5"/><path d="M1209 1263c302.1 0 547-244.9 547-547s-244.9-547-547-547-547 244.9-547 547 244.9 547 547 547z" fill="#F5F5F5"/><path d="M1283 704c302.1 0 547-244.9 547-547s-244.9-547-547-547-547 244.9-547 547 244.9 547 547 547z" fill="#F5F5F5"/><path d="M1283 704c302.1 0 547-244.9 547-547s-244.9-547-547-547-547 244.9-547 547 244.9 547 547 547z" fill="#F5F5F5"/><path d="M676 1080c302.1 0 547-244.9 547-547S978.1-14 676-14 129 230.9 129 533s244.9 547 547 547z" fill="#F5F5F5"/><path d="M675 489c302.1 0 547-244.9 547-547S977.1-605 675-605 128-360.1 128-58s244.9 547 547 547z" fill="#F5F5F5"/><path d="M221 707c302.1 0 547-244.9 547-547S523.1-387 221-387s-547 244.9-547 547 244.9 547 547 547z" fill="#008BD0"/><path d="M220 116c302.1 0 547-244.9 547-547S522.1-978 220-978s-547 244.9-547 547 244.9 547 547 547z" fill="#008BD0"/><path d="M297 1219c302.1 0 547-244.9 547-547S599.1 125 297 125s-547 244.9-547 547 244.9 547 547 547z" fill="#F5F5F5"/><path d="M429 611c302.1 0 547-244.9 547-547S731.1-483 429-483-118-238.1-118 64s244.9 547 547 547z" fill="#F5F5F5"/><path d="M189 611c302.1 0 547-244.9 547-547S491.1-483 189-483-358-238.1-358 64s244.9 547 547 547z" fill="#F5F5F5"/></g><g opacity=".5"><g clip-path="url(#clip1_1543_70814)" filter="url(#filter1_f_1543_70814)"><rect x="1066.87" y="262" width="80" height="80" rx="20" transform="rotate(33.251 1066.87 262)" fill="#F7931A"/><path d="M1097.01 323.665c3.58-4.015 1.76-8.63-1.82-13.265l5.45-5.044-3.07-3.321-5.31 4.911c-.81-.873-1.65-1.75-2.49-2.62l5.35-4.944-3.07-3.32-5.45 5.042c-.68-.705-1.35-1.399-1.99-2.087l.02-.017-4.23-4.583-3.55 3.281s2.31 2.41 2.23 2.41c1.24 1.346.87 2.506.31 3.257l-6.21 5.747c.08.093.19.217.3.372-.11-.11-.21-.229-.33-.35l-8.71 8.049c-.48.333-1.38.708-2.25-.23 0 .077-2.23-2.415-2.23-2.415l-4.58 3.006 3.99 4.323c.75.806 1.47 1.61 2.18 2.391l-5.52 5.104 3.07 3.318 5.46-5.048c.82.929 1.63 1.817 2.43 2.677l-5.44 5.023 3.07 3.322 5.51-5.092c5.48 5.288 10.5 7.897 16.2 3.534 4.58-3.511 4.63-7.239 2.46-11.113 2.76 1.019 5.6.626 8.22-2.316v-.002zm-16.1 6.262c-4.12 3.814-10.18-3.682-12.26-5.931l7.31-6.759c2.08 2.253 9.25 8.713 4.95 12.69zm8.89-11.082c-3.75 3.467-8.76-2.827-10.49-4.702l6.63-6.131c1.73 1.876 7.77 7.215 3.86 10.833z" fill="#fff"/></g><g clip-path="url(#clip2_1543_70814)" filter="url(#filter2_f_1543_70814)"><rect x="620.529" y="328.967" width="80" height="80" rx="20" transform="rotate(6.864 620.529 328.967)" fill="#fff"/><path d="M659.048 344.018l-.003.029c.011.15-.01.326-.031.502l-2.547 21.158c-.043.114-.135.132-.23.181a50.89 50.89 0 01-1.918.602c-.897.279-1.827.584-2.724.863l-3.251 1.038c-.897.279-1.794.558-2.661.84-1.054.35-2.134.666-3.189 1.016-.897.279-1.797.587-2.723.863-.744.238-1.483.446-2.197.688-.062.022-.124.044-.183.037-.029-.003-.029-.003-.055-.036l.951-1.225c1.83-2.34 3.627-4.654 5.456-6.994 1.939-2.506 3.908-5.008 5.847-7.513 1.797-2.314 3.623-4.625 5.42-6.939 1.304-1.689 2.638-3.374 3.943-5.062.037-.056.07-.081.077-.14l.029.004c-.033.025-.007.058-.011.088z" fill="#8A92B2"/><path d="M673.458 376.147l.026.033-4.621 2.034-14.522 6.379a.672.672 0 00-.157.07c-.088-.01-.078-.098-.074-.128l.032-.264 2.183-18.135a1.02 1.02 0 01.064-.29c.044-.113.128-.074.213-.034.36.222.75.448 1.11.67 1.081.666 2.162 1.332 3.246 1.969.945.56 1.857 1.146 2.802 1.706.944.56 1.886 1.15 2.83 1.71.805.484 1.636 1.001 2.441 1.485.805.484 1.636 1.001 2.441 1.485.64.374 1.276.778 1.916 1.153-.011.088.015.121.07.157z" fill="#454A75"/><path d="M651.961 402.883c-.004.029-.037.055-.04.085l-.03-.004c.007-.059-.048-.095-.07-.157-1.512-2.772-3.021-5.574-4.533-8.346-1.534-2.834-3.094-5.701-4.628-8.535-1.487-2.739-2.999-5.511-4.485-8.251-.388-.731-.78-1.433-1.168-2.165-.022-.062-.048-.095-.096-.19.088.011.139.077.165.109 2.373 1.804 4.716 3.605 7.089 5.409 2.726 2.084 5.423 4.165 8.149 6.25l1.391 1.06c.051.066.044.125.037.184l-1.703 14.144a1.816 1.816 0 01-.078.407z" fill="#8A92B2"/><path d="M637.298 371.854l.004-.029c.988-.298 1.951-.629 2.939-.927 1.271-.412 2.537-.796 3.808-1.208.959-.302 1.951-.629 2.91-.93 1.424-.454 2.815-.882 4.239-1.336.959-.301 1.918-.602 2.91-.929.681-.216 1.392-.428 2.073-.644.062-.022.153-.041.19-.096.029.003.026.033-.007.058l-2.244 18.634c-.01.088-.05.173.002.239-.07.081-.118-.014-.144-.047-.246-.179-.493-.357-.735-.565-5.261-4.027-10.548-8.087-15.809-12.114a.637.637 0 00-.136-.106zm35.677 7.808l.03.003c-.007.059-.073.111-.11.166-6.314 6.95-12.632 13.93-18.946 20.88-.653.725-1.335 1.447-1.988 2.172-.026-.033-.023-.062-.019-.092l.021-.176 1.713-14.232.032-.264c1.321-.585 2.609-1.145 3.93-1.73 5.093-2.245 10.182-4.46 15.246-6.709.026.033.059.008.091-.018z" fill="#62688F"/><path d="M656.393 365.817l.007-.059.021-.176 2.565-21.304c.011-.088-.012-.15.058-.231 4.766 10.606 9.536 21.183 14.273 31.786.048.095.122.223.137.344-.393-.196-.749-.448-1.11-.67-.445-.262-.915-.556-1.36-.818-.276-.182-.584-.339-.86-.521-.471-.295-.945-.56-1.415-.855-.28-.153-.556-.335-.831-.517l-1.831-1.113c-.305-.186-.61-.371-.945-.56l-1.334-.786c-.28-.153-.555-.335-.831-.517l-1.831-1.114c-.305-.185-.61-.371-.945-.56l-1.334-.786c-.305-.185-.581-.367-.886-.553a31.033 31.033 0 00-1.61-.968c.091-.018.062-.022.062-.022z" fill="#62688F"/></g><g clip-path="url(#clip3_1543_70814)" filter="url(#filter3_f_1543_70814)"><rect x="994.666" y="108.989" width="80" height="80" rx="20" transform="rotate(170.883 994.666 108.989)" fill="#fff"/><path d="M961.097 78.714l-9.659 13.351-13.358-9.663-5.62 7.769 21.127 15.283 15.278-21.12-7.768-5.62zm17.357-7.635l-5.62 7.77-7.768-5.62 5.62-7.769 7.768 5.62zm-18.874-1.82L946.228 59.6l-9.663 13.357-7.772-5.616.003-.004 15.283-21.126 21.12 15.278.011.008-5.631 7.762.001-.001zm-26.98 9.176l-5.62 7.769-7.768-5.62 5.62-7.769 7.768 5.62z" fill="#F3BA2F"/><path d="M942.044 76.926h-.003l7.883 5.703 4.215-5.825.484-.67.999-1.38.008-.01-.011-.009-7.877-5.699-5.702 7.883-.003.005.007.002" fill="#F3BA2F"/></g><g clip-path="url(#clip4_1543_70814)" filter="url(#filter4_f_1543_70814)"><rect x="281.268" y="212" width="80" height="80" rx="20" transform="rotate(22.231 281.268 212)" fill="#0AC18E"/><path d="M319.792 256.448c-.136-4.98-4.044-7.63-9.635-8.895l.983-7.21-4.384-.596-1.004 7.179c-1.151-.164-2.314-.376-3.499-.509l.988-7.142-4.384-.596-.984 7.209c-.955-.105-8.855-1.196-8.855-1.196l-.646 4.694s3.247.373 3.192.427c1.789.238 2.22 1.357 2.266 2.264l-2.682 19.764c-.155.54-.61 1.385-1.842 1.233.051.064-3.188-.437-3.188-.437l-1.592 5.129s7.827 1.083 8.853 1.228l-.995 7.292 4.384.597 1.015-7.339c1.194.191 2.363.362 3.509.512l-1.009 7.298 4.384.597.992-7.283c6.715 1.012 12.604-1.078 14.129-7.332.888-3.782-1.803-8.282-4.892-9.928 2.701-.947 4.756-3.102 4.896-6.96zm-8.265 14.773c-1.596 6.159-9.998 3.558-12.964 3.168l1.237-9.683c2.976.394 12.494.829 11.727 6.515zm-.028-13.885c-1.284 5.529-8.465 3.296-10.936 2.955l1.114-8.79c2.473.363 10.084.338 9.822 5.835z" fill="#fff"/></g><g filter="url(#filter5_f_1543_70814)"><rect x="660" y="732.026" width="80" height="80" rx="20" transform="rotate(-10.826 660 732.026)" fill="#2A5ADA"/><path fill-rule="evenodd" clip-rule="evenodd" d="M697.305 741.332l4.277-3.683 5.335 1.845 14.543 5.065 5.334 1.844 5.009 26.192-4.277 3.682-11.529 10.051-4.277 3.682-5.335-1.844-14.663-5.042-5.335-1.844-5.008-26.192 4.277-3.683 11.649-10.073zm-5.258 17.444l2.895 15.139 14.544 5.065 11.648-10.074-2.895-15.138-14.543-5.065-11.649 10.073z" fill="#fff"/></g><g clip-path="url(#clip5_1543_70814)" filter="url(#filter6_f_1543_70814)"><rect x="1006" y="541.881" width="80" height="80" rx="20" transform="rotate(-12.182 1006 541.881)" fill="#172852"/><path d="M1041.27 552.556c4.21-2.701 9.36-3.818 14.33-3.417 6.48.574 12.59 4.05 16.51 9.223 1.09 1.479 2.17 3.035 2.63 4.842-3.84-1.242-7.86-1.717-11.86-2.076-6.46-.868-13.07-1.014-19.38-2.76-1.5-.504-3.36-.95-4.07-2.518-.45-1.392.88-2.511 1.84-3.294zm-10.84 16.825c.55-3.884 2-7.692 4.42-10.804 2.09 6.011 6 11.411 11.31 14.963 6.37 4.284 14.5 6.003 22.02 4.25 3.01-.553 5.79-1.877 8.59-3.067-.63 11.005-10.52 20.355-21.43 20.974-6.54.561-13.23-1.94-17.92-6.496-5.27-5.017-7.97-12.607-6.99-19.82z" fill="#FFD83D"/><path d="M1062.88 561.128c4 .359 8.02.834 11.86 2.075l.26.072c.83 2.313 1.59 4.691 1.68 7.167-1.88-.357-3.54-1.335-5.24-2.151-3.3-1.726-6.74-3.775-8.56-7.163z" fill="#FF6F03"/></g><g clip-path="url(#clip6_1543_70814)" filter="url(#filter7_f_1543_70814)"><rect x="23" y="186.883" width="80" height="80" rx="20" transform="rotate(-23.487 23 186.883)" fill="#fff"/><path d="M53.27 188.889a72691.22 72691.22 0 0139.469-17.151c1.852 4.251 3.7 8.502 5.542 12.755a67610.563 67610.563 0 01-39.469 17.151c-1.852-4.25-3.7-8.502-5.543-12.755z" fill="#02A6C2"/><path d="M45.357 213.196c4.235-1.866 8.48-3.711 12.735-5.534 1.867 4.235 3.711 8.48 5.534 12.735a1356.8 1356.8 0 01-12.735 5.535 1337.749 1337.749 0 01-5.534-12.736zm15.55-6.757a7142.476 7142.476 0 0128.485-12.378c1.864 4.235 3.709 8.481 5.534 12.735a7445.874 7445.874 0 01-28.485 12.378 1493.431 1493.431 0 01-5.534-12.735z" fill="#5FCADE"/><path d="M68.549 223.991a641.64 641.64 0 0112.709-5.523 678.862 678.862 0 015.525 12.709 688.657 688.657 0 01-12.71 5.52 677.901 677.901 0 01-5.524-12.706z" fill="#ABEBF4"/></g><g clip-path="url(#clip7_1543_70814)" filter="url(#filter8_f_1543_70814)"><rect x="457.359" y="307.832" width="80" height="80" rx="20" transform="rotate(54.993 457.359 307.832)" fill="#E84142"/><path d="M454.786 375.696c2.755-.238 4.038 1.594 2.873 4.102l-7.458 15.76c-1.166 2.508-3.416 2.699-5.006.429l-9.974-14.24c-1.572-2.245-.623-4.294 2.115-4.558l17.45-1.493zm14.313-30.404c2.755-.238 4.02 1.568 2.854 4.076l-1.735 3.561-3.925 8.287a8.28 8.28 0 01-5.908 4.137l-30.32 2.663a8 8 0 01-6.57-3.012l-7.246-10.345c-1.59-2.27-.666-4.301 2.115-4.557l50.735-4.81z" fill="#fff"/></g><g filter="url(#filter9_f_1543_70814)"><rect x="755.076" y="525" width="80" height="80" rx="20" transform="rotate(31.733 755.076 525)" fill="#345D9D"/><path d="M767.922 581.569l-10.928 9.753 18.946 11.717a1.122 1.122 0 01.418 1.533l-.194.313-5.162 4.666a1.443 1.443 0 01-1.796.142l-28.996-17.931 15.099-13.552-6.455-1.715 3.578-3.025 6.456 1.715 21.202-19.002a1.463 1.463 0 011.796-.142l7.331 4.534a1.121 1.121 0 01.418 1.534l-.193.313-17.89 16.039 6.455 1.715-3.598 3.24-6.487-1.847z" fill="#fff"/></g><g filter="url(#filter10_f_1543_70814)"><rect x="845" y="421.356" width="80" height="80" rx="4" transform="rotate(-31.968 845 421.356)" fill="#fff"/><path fill-rule="evenodd" clip-rule="evenodd" d="M871.543 434.925l13.391-25.133 28.46-.987 15.069 24.145-13.391 25.133-28.46.987-15.069-24.145zm11.644-9.539l16.481-10.285 7.203 7.153-20.381 12.72-3.303-9.588zm16.437 17.001l-2.725-5.58-4.733-3.57 10.651-6.647 1.169 5.794 3.774 4.925-4.11 2.565-4.026 2.513zm17.823 1.108l-2.978 1.858-5.605-1.045-1.046-1.676 1.493-5.825-3.48-5.575 2.861-6.154 8.083.722.672 17.695zm-13.435 8.443l1.498-5.536-1.047-1.677-5.888-1.218-3.479-5.575-6.801-.066-2.971 7.563 15.668 8.394 3.02-1.885z" fill="#03316C"/></g><g filter="url(#filter11_f_1543_70814)"><rect x="1326.69" y="14" width="80" height="80" rx="20" transform="rotate(13.508 1326.69 14)" fill="#2E3148"/><circle cx="1356.24" cy="62.237" r="23.21" transform="rotate(13.508 1356.24 62.237)" fill="#1B1E36"/><path fill-rule="evenodd" clip-rule="evenodd" d="M1348.69 60.51c4.52-18.784 11.58-33.194 15.78-32.186 4.2 1.009 3.94 17.054-.57 35.839-4.51 18.784-11.57 33.194-15.77 32.185-4.2-1.008-3.95-17.054.56-35.838zm-.58 33.974s.37.596 1 .07c0 0 2.72-1.38 6.52-10.116 0 0 4.98-11.501 7.23-22.302 0 0 3.28-12.247 2.9-26.221 0 0-.18-4.518-1.36-5.873a.624.624 0 00-.79-.122c-1.22.736-5.16 4.424-11.21 22.594 0 0-6.42 23.175-5.65 34.871 0 0-.03 4.394 1.36 7.099z" fill="#6F7390"/><path fill-rule="evenodd" clip-rule="evenodd" d="M1354.09 54.83c18.55-5.432 34.56-6.478 35.78-2.333 1.21 4.143-12.82 11.912-31.37 17.344-18.54 5.431-34.56 6.475-35.77 2.332-1.21-4.143 12.81-11.912 31.36-17.344zm-29.75 16.4s-.34.614.44.907c0 0 2.55 1.67 12.02.623 0 0 12.45-1.405 22.94-4.825 0 0 12.26-3.25 24.18-10.541 0 0 3.84-2.403 4.42-4.107a.614.614 0 00-.29-.745c-1.24-.685-6.4-2.276-25.17 1.522 0 0-23.3 5.965-33.06 12.45 0 0-3.83 2.16-5.48 4.715z" fill="#6F7390"/><path fill-rule="evenodd" clip-rule="evenodd" d="M1361.7 56.669c13.98 13.32 22.91 26.655 19.93 29.782-2.98 3.134-16.73-5.123-30.73-18.446-13.99-13.322-22.91-26.65-19.94-29.784 2.98-3.134 16.76 5.128 30.74 18.448zm-29.11-17.541s-.7.02-.57.832v.008s-.16 3.04 5.49 10.713c0 0 7.45 10.073 15.67 17.43 0 0 8.95 8.975 21.24 15.65 0 0 4 2.11 5.76 1.764.3-.057.51-.318.5-.618-.03-1.42-1.24-6.684-13.93-21.025 0 0-16.83-17.172-27.34-22.372 0 0-3.78-2.233-6.82-2.383z" fill="#6F7390"/><circle cx="1356.24" cy="62.237" r="4.115" transform="rotate(13.508 1356.24 62.237)" fill="#B7B9C8"/><ellipse cx="1376.33" cy="50.812" rx="2.387" ry="2.469" transform="rotate(13.508 1376.33 50.812)" fill="#B7B9C8"/><ellipse cx="1336.28" cy="49.824" rx="2.387" ry="2.469" transform="rotate(13.508 1336.28 49.824)" fill="#B7B9C8"/><ellipse cx="1346.17" cy="83.35" rx="2.387" ry="2.469" transform="rotate(13.508 1346.17 83.35)" fill="#B7B9C8"/></g><g filter="url(#filter12_f_1543_70814)"><rect x="66.403" y="653.421" width="80" height="80" rx="20" transform="rotate(12.255 66.403 653.421)" fill="#29BCE1"/><path fill-rule="evenodd" clip-rule="evenodd" d="M88.574 671.199l28.456 6.181 2.127 3.275-10.579 48.701-3.294 2.097-28.455-6.182-2.127-3.274 10.578-48.701 3.294-2.097zm15.166 54.293l9.413-43.329-23.035-5.004-9.412 43.33 23.034 5.003z" fill="#fff"/><path fill-rule="evenodd" clip-rule="evenodd" d="M101.133 694.667l5.836 1.268-1.146 5.274-16.938-3.679 1.146-5.275 5.836 1.268 1.33-6.124 5.266 1.144-1.33 6.124zM97.85 709.78l5.836 1.268 1.146-5.275-16.938-3.679-1.146 5.274 5.836 1.268-1.33 6.124 5.266 1.144 1.33-6.124z" fill="#fff"/></g><g filter="url(#filter13_f_1543_70814)"><rect x="1301" y="629.623" width="80" height="80" rx="20" transform="rotate(-14.939 1301 629.623)" fill="#FC070C"/><path fill-rule="evenodd" clip-rule="evenodd" d="M1372.05 640.547c-1.31-.693-2.85-1.554-4.46-2.451-2.25-1.26-4.63-2.592-6.7-3.628l-.2-.073a3.28 3.28 0 00-1.08-.274l-1.35.103c-9.33.713-39.58 3.024-40.15 3.255-.17.071-.32.179-.44.316l-.13.17a2.01 2.01 0 00-.25.828l-.01.121.16.6.02.093c3.41 4.925 11.74 15.734 19.43 25.714 6.5 8.437 12.54 16.283 14.77 19.48v.001c.31.479.9 1.389 1.51 1.28l.14-.036c.32-.086 1.21-2.26 1.21-2.26s16.56-36.224 18.19-40.047c.22-.475.39-.969.51-1.476a2.09 2.09 0 00-1.17-1.716zm-19.93 9.022l8.13-11.453 7.64 4.012-15.77 7.441zm-26.14-9.428l21.93 9.945 8.61-12.342-30.54 2.397zm24.58 13.375l17.62-7.88-14.28 30.979-3.34-23.099zm-3.41-.239l-23.22-11.013 26.74 35.23-3.52-24.217z" fill="#fff"/></g><g filter="url(#filter14_f_1543_70814)"><rect x="522" y="157.31" width="80" height="80" rx="20" transform="rotate(-11.764 522 157.31)" fill="#fff"/><path d="M562.79 156.987c-17.298 3.602-28.424 20.573-24.804 37.848a32.055 32.055 0 003.651 9.561l9.374-1.952-5.488-26.351 24.602 16.118 16.123-24.599 5.487 26.352 9.376-1.953a32.065 32.065 0 00-.469-10.224c-3.573-17.303-20.551-28.398-37.851-24.796l-.001-.004z" fill="#F26822"/><path d="M566.417 197.866l-10.737-7.034 3.453 16.581-6.794 1.415-6.41 1.337c7.377 7.875 18.572 11.839 29.909 9.478 11.337-2.361 20.019-10.466 23.641-20.632l-13.209 2.751-3.453-16.581-7.037 10.735-3.706 5.656-5.657-3.706z" fill="#4D4D4D"/></g><g clip-path="url(#clip8_1543_70814)" filter="url(#filter15_f_1543_70814)"><rect x="1207.66" y="460" width="80" height="80" rx="20" transform="rotate(14.225 1207.66 460)" fill="#fff"/><path d="M1263.27 489.727l8.41 2.131-21.89 12.886c-7.92 4.663-18.19 2.06-22.94-5.817l-13.11-21.757 8.41 2.133 9.95 16.526a10.675 10.675 0 0014.53 3.684l16.64-9.786zm-53.44 37.712l-8.41-2.132 22.02-12.964c7.93-4.664 18.2-2.06 22.95 5.816l13.19 21.892-8.41-2.131-10.04-16.663a10.676 10.676 0 00-14.53-3.683l-16.77 9.865z" fill="#23292F"/></g><g clip-path="url(#clip9_1543_70814)" filter="url(#filter16_f_1543_70814)"><rect x="730.205" y="50" width="80" height="80" rx="20" transform="rotate(44.633 730.205 50)" fill="#1BA27A"/><path d="M757.823 105.73l-26.819-26.478-6.393 6.475 10.173 10.042-9.396 9.517 6.475 6.392 9.395-9.516 10.173 10.043 6.392-6.475z" fill="#fff"/><path d="M727.686 109.556c-8.415-8.307-13.922-16.374-12.3-18.017 1.622-1.643 9.759 3.76 18.174 12.068s13.922 16.375 12.3 18.018c-1.622 1.643-9.759-3.761-18.174-12.069zm19.556 14.413c2.092-2.119-3.873-11.399-13.321-20.727-9.449-9.329-18.805-15.174-20.896-13.056-1.842 1.866 2.563 9.284 10.093 17.399l-13.487 13.662 6.474 6.392 13.482-13.656c8.261 7.496 15.804 11.861 17.655 9.986z" fill="#fff"/></g><g filter="url(#filter17_f_1543_70814)"><rect x="885.941" y="722.942" width="80" height="80" rx="20" transform="rotate(-30.83 885.941 722.942)" fill="#F5AC37"/><path fill-rule="evenodd" clip-rule="evenodd" d="M935.732 765.486l.077.129-.004.008.013.021 14.899-8.892c1.7-.983 3.3-2.12 4.78-3.406a27.043 27.043 0 004.106-4.633c.509-.745.948-1.541 1.392-2.345.112-.203.225-.407.339-.61.46-1.048.857-2.124 1.195-3.217a19.994 19.994 0 00.588-9.259.625.625 0 01.379-.78l4.058-2.422c.323-.193.365-.365.147-.729l-1.551-2.599a5.108 5.108 0 00-.447-.749c-.039-.065-.061-.14-.083-.215-.044-.149-.087-.297-.264-.366l-3.39 2.023c-.409.244-.435.201-.653-.164a25.491 25.491 0 00-2.344-3.927c-.252-.374-.166-.426.134-.605l2.963-1.768c.345-.206.421-.369.217-.712l-2.102-3.521c-.15-.227-.226-.342-.323-.365-.101-.023-.224.05-.474.199l-3.842 2.294a.65.65 0 01-.911-.069 20.067 20.067 0 00-3.637-2.283 24.025 24.025 0 00-4.001-1.484 22.025 22.025 0 00-5.52-.665c-2.8.033-5.578.545-8.206 1.52a28.515 28.515 0 00-3.708 1.689l-16.099 9.609c-.43.256-.378.343-.174.686l6.906 11.571c.244.408.157.46-.164.651l-4.615 2.755c-.344.205-.306.268-.165.505l2.255 3.777c.205.343.312.28.57.126l4.658-2.781c.343-.205.381-.141.535.117l2.409 4.036c.218.364.109.429-.169.595l-4.98 2.972 2.435 4.079c.205.343.311.28.569.126l4.659-2.781c.343-.205.368-.163.535.117l3.011 5.045 1.012 1.696 2.985 5.001zm14.131-43.691a.486.486 0 01.179.3l.104-.062c.033.154-.156.326-.156.326l-24.772 14.785c-.408.244-.46.157-.651-.164l-4.548-7.62c-.167-.28-.201-.434.121-.626l11.527-6.88a18.625 18.625 0 013.88-1.792 17.966 17.966 0 018.388-.581 6.154 6.154 0 011.565.376c.964.24 1.895.592 2.78 1.049a9.884 9.884 0 011.583.889zm6.691 8.874l-13.052 7.79-12.795 7.636c-.261.156-.389.233-.491.206-.099-.025-.173-.149-.318-.392l-2.28-3.82c-.18-.302-.157-.46.164-.652l25.975-15.503c.28-.167.472-.137.626.121a29.07 29.07 0 012.383 3.993c.197.376.066.455-.212.621zm1.637 5.079a5.766 5.766 0 00-1.097.655l-23.806 14.208c-.322.192-.43.257-.174.686l4.447 7.451c.205.343.256.429.686.173l10.991-6.56a6.422 6.422 0 001.502-1.041 19.058 19.058 0 004.045-3.813 9.907 9.907 0 001.13-1.664l.15-.089a16.246 16.246 0 002.391-9.605s-.044-.414-.263-.398l-.002-.003z" fill="#FEFEFD"/></g><g filter="url(#filter18_f_1543_70814)"><rect x="148.954" y="377.013" width="80" height="80" rx="20" transform="rotate(76.973 148.954 377.013)" fill="#000"/><path fill-rule="evenodd" clip-rule="evenodd" d="M104.666 439.792l1.145 4.949 34.118-7.894-1.145-4.949-10.268 2.376-5.041-21.785 10.269-2.376-1.145-4.949-34.119 7.894 1.145 4.949 10.522-2.434 5.04 21.785-10.521 2.434zm14.512-3.112l-5.041-21.784 5.437-1.258 5.04 21.785-5.436 1.257z" fill="#fff"/></g><g filter="url(#filter19_f_1543_70814)"><rect x="361" y="104.036" width="80" height="80" rx="20" transform="rotate(-55.634 361 104.036)" fill="url(#paint0_linear_1543_70814)"/><path d="M439.634 88.144l-34.628-7.294c-1.826-.325-3.147.146-3.991 1.38l-.675.987c-.843 1.234-.803 2.636.162 4.22l8.438 12.901-2.514 3.676a2.441 2.441 0 00.632 3.368l.026.017a2.446 2.446 0 003.367-.632l1.35-1.974 8.036 12.301c.189.254.409.48.673.66.629.431 1.257.573 1.878.486.622-.087 1.153-.461 1.583-1.091.277-.423.423-.91.403-1.411-.003-.526-.191-1.017-.466-1.492l-9.171-13.765 2.421-3.54a2.44 2.44 0 00-.632-3.368l-.051-.035a2.447 2.447 0 00-3.368.633l-1.291 1.889-7.045-10.538 33.677 7.444c.542.083 1.068.08 1.56-.108.473-.163.88-.484 1.168-.887.431-.63.581-1.251.443-1.87-.139-.62-.504-1.144-1.134-1.575a2.168 2.168 0 00-.851-.382z" fill="#fff"/></g><g filter="url(#filter20_f_1543_70814)"><rect x="1309.38" y="376.538" width="80" height="80" rx="20" transform="rotate(-39.755 1309.38 376.538)" fill="#2C7DF7"/><path d="M1387.15 398.556c-2.92 2.434-5.64 3.506-8.16 3.215a8.472 8.472 0 01-5.8-2.882 3.957 3.957 0 01-.9-1.799 3.304 3.304 0 01.16-1.761 4.362 4.362 0 012.99-2.489c.59-.103 1.2-.045 1.76.167.63.25 1.19.665 1.61 1.202.55.606.89 1.374.96 2.188.05.67-.12 1.338-.48 1.904.99.212 2.02.071 2.92-.4a12.324 12.324 0 002.93-1.802 7.534 7.534 0 002.48-3.731 7.51 7.51 0 00-.27-4.706 16.683 16.683 0 00-2.92-4.949 15.527 15.527 0 00-4.55-3.896 7.262 7.262 0 00-4.56-.97 7.698 7.698 0 00-3.97 1.748 7.91 7.91 0 00-1.99 3.25l-1.2 2.742-.86-1.031-1.07-20.092-12.81 10.658 10.7 12.87a6.02 6.02 0 002.9 2.047c1.07.291 2.21.003 3.01-.76a4.669 4.669 0 001.5-2.518c.27-1.083.36-2.203.26-3.314a.779.779 0 01-.02-.5.561.561 0 01.21-.372c.24-.165.52-.251.81-.245.42.061.79.275 1.05.599.16.237.3.483.42.737.46 1.48.49 3.062.07 4.556a7.055 7.055 0 01-2.3 3.501c-2.77 2.307-5.15 3.359-7.13 3.156a8.012 8.012 0 01-5.32-3.164l-10.68-12.837-6.51 5.421-1.99-2.391 6.54-5.446-4.53-5.452-2.75-.253-1.01-1.223 4.35-3.618 2.33-.514 6.1 7.329 16.88-14.131 3.09.29-1.7 19.062c.42-.773.95-1.482 1.57-2.104a11.06 11.06 0 014.69-2.073 10.12 10.12 0 015.69.198c1.6.483 3.09 1.26 4.4 2.291 1.05.806 2 1.717 2.86 2.719a16.265 16.265 0 013.36 6.645c.59 2.353.37 4.837-.65 7.042a16.05 16.05 0 01-4.47 5.886z" fill="#fff"/></g><g filter="url(#filter21_f_1543_70814)"><rect x="232.283" y="754.422" width="76" height="76" rx="18" transform="rotate(-43.318 232.283 754.422)" fill="url(#paint1_linear_1543_70814)" stroke="#FFD9EC" stroke-width="4"/><path d="M270.914 749.203c-.447.315-.484.314-.314.119.304-.393 1.2-1.096 1.905-1.513 1.652-.955 3.65-1.279 6.307-1.055l.709.075.417-.535c1.764-2.301 4.15-4.055 6.711-4.91.7-.235 1.894-.51 2.094-.486.073.002.359.193.626.401.963.758 1.526 1.468 1.722 2.24.116.423.186.498.51.653.252.117.601.036.807-.158.451-.425.248-1.58-.465-2.787l-.278-.482.346.028c1.965.167 4.113.942 5.217 1.886l.302.246-.398-.084c-.689-.167-1.217-.2-1.803-.108-1.045.17-1.844.675-3.715 2.262-1.702 1.428-2.745 2.163-3.929 2.712-2.016.944-3.423 1.031-7.525.327-1.815-.309-2.87-.413-3.836-.423-2.116-.026-3.753.455-5.41 1.592z" fill="#FF007A"/><path d="M287.138 738.406c-.635-.748-.983-1.305-1.184-1.932-.084-.239-.151-.46-.132-.478.019-.017.105.149.19.352.24.555.769 1.154 1.482 1.722.928.721 1.09.78 2.857.85.82.043 1.821.127 2.221.175l.708.112h-.602c-.748-.003-2.321.133-2.616.234-.202.049-.22.066-.226.248-.004.146.083.277.596.821.778.862 1.161 1.493 1.392 2.302.115.423.044.385-.126-.058-.136-.332-.223-.463-.984-1.269-1.539-1.633-2.098-1.85-3.862-1.427-.441.096-1.158.312-1.564.446-.424.152-.755.252-.736.234.002-.073 1.41-.797 2.018-1.017.904-.356 1.035-.444 1.092-.533.003-.11-.101-.295-.524-.782zm-10.572 15.25c-1.814-.345-3.913-1.556-4.986-2.919l-.334-.43.223-.139c.391-.262 1.185-.585 1.626-.682 1.175-.257 2.096.043 3.866 1.281.518.362 1.145.763 1.36.879.359.193 1.335.514 2.024.643.49.106.5.38-.004.785-.784.597-2.36.842-3.775.582zm19.946-3.391c-5.13 2.002-7.664 1.946-9.733-.249-.301-.319-.53-.6-.53-.6.019-.017.256-.029.549-.056 1.316-.108 2.408-.641 5.072-2.515 1.564-1.085 2.494-1.678 3.436-2.106 2.978-1.39 5.836-1.179 8.137.585.66.512 1.683 1.71 2.099 2.452.311.593.749 1.809.673 1.917-.018.017-.144-.041-.286-.191-.78-.753-1.882-1.132-3.087-1.094-1.425.068-2.916.516-6.33 1.857zm-2.043 3.096a6.055 6.055 0 00-.93-.611l-.359-.193.363.047c.509.051 1.015.212 1.627.522.467.233.573.345 1.122.927.53.563.635.712.824 1.137a4.66 4.66 0 01.397 2c-.021 1.331-.549 2.538-1.647 3.892-.207.231-.792.888-1.32 1.457-1.336 1.402-2.132 2.436-2.694 3.532-.077.144-.154.288-.19.287-.073-.002.19-.889.447-1.556.356-.938.872-1.744 2.106-3.404.626-.803 1.235-1.66 1.351-1.912 1.309-2.333.867-4.645-1.097-6.125z" fill="#FF007A"/><path d="M299.025 754.772c-1.496-.61-2.564-1.517-3.204-2.721-.051-.129-.102-.259-.064-.294.038-.035.203-.085.386-.116.367-.063 1.084-.242 2.904-.718 2.298-.607 3.762-.783 5.053-.618 1.126.143 2.135.574 3.134 1.333.572.418 1.666 1.691 2.012 2.321 1.091 1.984 1.356 4.144.676 6.167-.1.307-.198.542-.217.559-.019.018-.121-.24-.22-.572-.452-1.381-1.263-2.353-2.574-3.067-.807-.443-1.964-.805-4.048-1.286-2.447-.528-3.062-.692-3.838-.988zm-8.564 18.92c.292-2.472 1.221-4.908 2.549-6.656.569-.75 1.73-1.774 2.508-2.189 1.242-.675 2.674-.961 3.797-.709 1.087.251 1.842.638 3.269 1.738.553.436 1.142.872 1.267.967.787.534 1.582.777 2.223.704.989-.117 2.019-1.053 2.66-2.366.116-.216.213-.413.23-.395.073.002-.115.818-.293 1.305-.239.686-.544 1.115-1.05 1.593-.901.849-2.112 1.105-3.616.751-.308-.064-1.084-.36-1.787-.655-2.089-.9-2.852-1.032-4.099-.813-1.082.205-2.033.925-2.389 1.863-.474 1.227.345 2.546 1.582 2.655.509.052 1.172-.148 1.6-.445.783-.561.87-1.671.215-2.365-.424-.451-.841-.554-1.486-.336-.848.304-1.221 1.223-.654 1.787.23.244.484.288.834.17.221-.066.221-.066.091.021-.651.401-1.419-.151-1.394-.989.03-1.021 1.349-1.84 2.414-1.462.433.159 1.018.742 1.241 1.241.459 1.126-.035 2.407-1.184 3.03-.778.415-1.2.493-2.676.432-2.587-.113-3.341.102-5.482 1.59l-.41.28.04-.747z" fill="#FF007A"/><path fill-rule="evenodd" clip-rule="evenodd" d="M252.128 752.811c9.378 1.187 23.897 3.091 24.66 3.223.635.11.859.572.637 1.277-.121.398-.524 1.061-.786 1.309-.3.283-.798.469-1.272.455-.328-.01-2.068-.389-6.143-1.403a337.933 337.933 0 00-5.759-1.409c-.111.033-.111.033 6.035 1.965 3.868 1.208 5.204 1.685 5.31 1.797.23.244.279.446.297 1.067.024 1.041.4 1.891 1.488 3.382 1.21 1.659 1.694 3.187 1.93 6.332.146 1.847.192 2.158.392 2.784.233.773.441 1.144 1.04 1.855.635.748 1.135 1.128 1.978 1.609.753.423 1.331.622 2.563.914 1.069.268 1.809.527 1.986.715.141.15.179.115.713-.672 1.259-1.897 1.99-3.791 1.979-5.269-.01-.912-.145-1.281-.782-1.956-.407-.432-.514-.508-.874-.664-.577-.236-1.252-.238-2.517-.038-1.667.261-2.629.105-3.45-.539-.695-.549-.989-1.087-1.541-2.8-.568-1.768-.896-2.416-1.97-3.742-.686-.841-.893-1.249-.898-1.705-.004-.493.114-.781.625-1.405.833-1.033 1.222-1.861 1.268-2.79.06-.801-.124-1.372-.654-1.971l-.388-.449-.492-.033c-1.837-.181-26.717-2.098-26.773-2.045-.019.018.617.091 1.398.206zm30.916 21.247a1.065 1.065 0 00-1.217-.802c-.513.094-.912.648-.647.93.071.075.179.114.327.046.257-.066.364.01.428.341.063.33.24.517.533.49.457-.042.707-.49.576-1.005zm-1.707-17.033c-.326.556-.298 1.45.031 2.062.208.371.758.88 1.049.925.454.068.712-.034 1.238-.529 1.032-.973 1.489-2.255 1.07-2.888-.331-.538-1.309-.786-2.118-.554-.423.115-1.058.607-1.27.984zm2.086-.194c-.063-.367-.349-.558-.79-.461-.807.158-1.328 1.146-.868 1.634.23.244.871.135 1.246-.219.244-.23.44-.698.412-.954z" fill="#FF007A"/></g><g filter="url(#filter22_f_1543_70814)"><rect x="228" y="529.841" width="80" height="80" rx="20" transform="rotate(-30.698 228 529.841)" fill="#2775CA"/><path d="M295.507 543.645c-2.978-5.015-7.009-4.948-13.453-2.091-4.64 1.979-6.18 1.343-7.372-.663-1.191-2.007-.523-4.147 2.343-5.849 2.579-1.531 4.523-1.523 6.516.202.399.345.999.376 1.429.121l2.292-1.362c.574-.34.748-1.025.408-1.598l-.085-.144a8.327 8.327 0 00-9.937-2.047l-2.042-3.439c-.341-.573-1.026-.748-1.828-.466l-2.149 1.276c-.574.341-.748 1.026-.466 1.828l1.957 3.296c-3.959 3.126-4.98 7.608-2.853 11.191 2.808 4.729 6.78 4.891 13.224 2.034 4.439-1.666 6.239-1.572 7.6.721 1.362 2.293.291 5.061-2.432 6.677-3.726 2.213-5.952 1.402-7.658-.493-.483-.488-1.083-.519-1.513-.264l-2.437 1.447a1.138 1.138 0 00-.407 1.598l.085.144c2.7 3.242 6.525 4.46 11.679 2.369l2.042 3.44c.341.573 1.026.747 1.827.465l2.15-1.276c.574-.34.748-1.025.466-1.827l-2.042-3.44c3.874-3.269 4.953-7.98 2.656-11.85z" fill="#fff"/><path fill-rule="evenodd" clip-rule="evenodd" d="M258.583 548.705c2.395 13.503 15.53 22.567 29.091 19.943.6.032 1.37.35 1.625.78l1.192 2.006c.17.287.255.43.196.658.198.659-.206 1.286-.949 1.339-9.557 2.186-19.378-.318-26.722-6.812-12.383-11.062-13.524-29.961-2.462-42.344.058-.228.345-.398.488-.483.658-.197 1.2.062 1.54.636l1.192 2.006c.425.717.394 1.317-.009 1.944-4.6 5.638-6.606 13.032-5.182 20.327zm16.786-32.45c-.198-.658.206-1.285.949-1.339 9.414-2.1 19.378.319 26.808 6.956 12.382 11.062 13.524 29.961 2.462 42.343-.059.229-.345.399-.489.484-.658.197-1.2-.063-1.54-.636l-1.191-2.006c-.426-.717-.395-1.317.009-1.944 4.599-5.638 6.606-13.032 5.182-20.327-2.396-13.503-15.531-22.568-29.091-19.943-.601-.032-1.371-.35-1.711-.923l-1.191-2.006c-.171-.287-.256-.43-.197-.659z" fill="#fff"/></g><g filter="url(#filter23_f_1543_70814)"><rect x="504.458" y="493" width="80" height="80" rx="20" transform="rotate(14.816 504.458 493)" fill="#fff"/><path d="M539.641 516.099l4.644 8.206-20.278 11.794-4.684-8.053 20.318-11.947zm7.111 12.224l4.643 8.207-32.502 18.904-4.684-8.053 32.543-19.058zm-31.56 1.996l4.643 8.206-8.053 4.684-4.683-8.053 8.093-4.837zm38.67 10.229l4.643 8.206-32.502 18.905-4.684-8.053 32.543-19.058z" fill="#F0B90B" stroke="#F0B90B"/></g><g filter="url(#filter24_f_1543_70814)"><rect x="796.785" y="243.684" width="80" height="80" rx="20" transform="rotate(-38.59 796.785 243.684)" fill="#0055D5"/><path fill-rule="evenodd" clip-rule="evenodd" d="M830.3 250.797s-5.51-.004-.442 6.821c3.876 5.331 11.856 15.318 18.005 18.138 2.424.973 3.335-.644 4.424-4.41.893-3.343 2.978-16.879 3.771-22.722.793-5.842.267-20.366 6.624-15.285 2.637 2.163 5.092 3.828 9.182 10.031 1.259 1.912 1.574 3.871-3.828 4.232-3.974.408-7.916.585-7.916.585s-1.17-.479-1.19 1.83c-.001 1.833-.232 2.468 1.879 2.175 2.116-.297 13.391-1.085 16.803-2.529 2.835-1.167 4.138-2.228.599-6.804-2.876-3.579-11.281-13.688-16.081-17.022-3.163-1.938-5.602-2.019-6.29 3.545-.688 5.564-2.923 23.028-4.863 31.679-1.437 5.548-1.033 9.197-5.961 5.791-3.66-2.637-13.325-12.222-7.829-13.312 3.361-.778 4.569-1.752 4.202-.262-.371 1.484-1.103 6.172-1.103 6.172s-.3 1.355 1.271 2.516c1.217.718 1.627 1.231 2.155-2.456.528-3.686.888-6.441.888-6.441s-.086-.8 1.704-.622c1.79.178 2.172.324 2.172.324s.853.517.916-1.611c.068-2.133.144-3.462-2.849-3.018-2.997.426-16.243 2.655-16.243 2.655z" fill="#fff"/></g><g filter="url(#filter25_f_1543_70814)"><g clip-path="url(#clip10_1543_70814)"><rect x="1210.98" y="199.838" width="80" height="80" rx="20" transform="rotate(-15.855 1210.98 199.838)" fill="#fff"/><path fill-rule="evenodd" clip-rule="evenodd" d="M1245.6 229.001l12.07-11.504 16.22 3.521-20.03-16.723-8.26 24.706zm1.15 2.004l11.6-11.175 15.55 3.409-11.41 11.131-15.74-3.365zm.06 2.243c5.73 1.231 11.71 2.524 16.34 3.526l11.93-11.556c-2.95 9.021-5.4 16.532-8.16 24.854l-3.87-3.24-.01-.002c-5.59-4.678-11.39-9.518-16.23-13.582z" fill="#3AB83A"/><path fill-rule="evenodd" clip-rule="evenodd" d="M1253.86 204.295l3.81 13.203 16.22 3.52-20.03-16.723zm4.49 15.535l15.55 3.409-11.41 11.131-4.14-14.54zm4.8 16.944l11.93-11.556c-2.95 9.021-8.16 24.854-8.16 24.854l-3.77-13.298z" fill="#0B8311"/><path d="M1246.75 231.006l13.99-2.761 13.16-5-11.41 11.132-15.74-3.371z" fill="#0B8311"/><path d="M1260.74 228.245l13.16-4.999-11.41 11.131-1.75-6.132z" fill="#146714"/></g></g><g clip-path="url(#clip11_1543_70814)" filter="url(#filter26_f_1543_70814)"><rect x="1140.19" y="673.4" width="80" height="80" rx="20" transform="rotate(23.412 1140.19 673.4)" fill="url(#paint2_linear_1543_70814)"/><path d="M1157.06 701.278l-5.68 2.248-6.8 15.711 2.24 5.681 15.71 6.802-3.43 7.929-7.78-3.37 1.72-3.964-11.9-5.149-3.43 7.928 2.25 5.681 23.64 10.236 5.68-2.248 6.86-15.858-2.24-5.68-15.72-6.803 3.44-7.929 7.93 3.433-1.72 3.965 11.89 5.149 3.44-7.928-2.25-5.681-23.79-10.299-.06.146z" fill="#fff"/></g><g filter="url(#filter27_f_1543_70814)"><rect x="196.871" y="11.492" width="80" height="80" rx="20" transform="rotate(29.488 196.871 11.492)" fill="#0090FF"/><path fill-rule="evenodd" clip-rule="evenodd" d="M217.329 63.626l-4.19 4.992 9.05 6.958-2.169 2.225-8.877-6.861c-1.972 1.876-3.697 4.12-5.743 5.725-2.243 1.952-4.486 3.904-6.804 5.585-3.056 2.183-6.656 2.908-10.231 1.576-2.096-.725-4.068-2.07-4.932-4.169-.32-.641-.444-1.632-.148-2.154.394-.698 1.232-1.374 1.947-1.43.444.02 1.209.683 1.628 1.15.222.816.345 1.806.296 2.699.247 1.98 1.53 2.935 3.502 2.67 2.342-.516 4.289-1.945 5.891-3.57 3.402-3.598 6.705-7.022 9.934-10.717l.394-.698-8.36-6.567 1.824-2.42 8.705 6.763 4.264-4.72-8.951-7.133 1.922-2.594 9.395 7.153c.937-.85 1.602-1.624 2.44-2.3 2.638-2.65 5.275-5.3 8.924-6.918 3.648-1.618 7.05-1.994 10.576.23 1.554.878 2.812 2.28 3.157 4.085.074.272.222.816.025 1.165-.394.697-.887 1.569-1.701 1.799-.986.132-1.75-.53-2.046-1.618-.222-.815-.272-1.534-.494-2.35-.247-1.98-1.702-3.032-3.6-2.495-1.356.383-2.909 1.115-4.117 2.043-3.278 2.977-6.31 6.324-9.687 9.476l8.705 6.763-2.169 2.224-8.36-6.567z" fill="#fff"/></g><g filter="url(#filter28_f_1543_70814)"><rect x="495.61" y="664.819" width="80" height="80" rx="20" transform="rotate(51.71 495.61 664.819)" fill="#000"/><path d="M465.193 723.121l11.448-1.667 11.419-1.645 11.426-1.694 1.836-.236-.984 1.316-4.084 5.471-3.91.57-11.419 1.645-11.426 1.694 4.284 5.427 11.447-1.667 5.928-.86-3.196 4.321-6.201 8.311 3.846 4.873 6.202-8.312 6.174-8.289 1.584-2.149 8.508-1.235-3.89-4.928.45-.625 5.068-6.787.656-.877-3.738-4.734-.253.02-11.166 1.625-11.448 1.666-11.397 1.673-11.447 1.667 4.283 5.426z" fill="#fff"/></g><g filter="url(#filter29_f_1543_70814)"><rect x="1134.22" y="57" width="80" height="80" rx="20" transform="rotate(40.747 1134.22 57)" fill="#51CBFF"/><path d="M1121.97 127.27l12.09-46.427c.19-.745 1.11-1.024 1.69-.527l5.55 4.782c.29.256.43.665.33 1.038l-8.69 33.749c-.79 3.022 2.23 5.622 5.1 4.397l32.04-13.605c.36-.147.78-.075 1.08.181l.69.594a.71.71 0 01-.19 1.2l-44.59 19.016c-2.87 1.223-5.89-1.378-5.1-4.398z" fill="#fff"/><path opacity=".1" d="M1121.97 127.27l19.65-41.115c.11-.392-.06-.798-.3-1.006l-5.57-4.799a1.05 1.05 0 00-1.71.511l-12.07 46.409z" fill="#fff"/><path opacity=".1" d="M1132.92 119.902l1.14-39.06c.24-.73 1.04-.983 1.61-.59l5.64 4.862c.31.291.37.703.31 1.006l-8.7 33.782z" fill="#fff"/></g></g></g><defs><filter id="filter0_f_1543_70814" x="-927" y="-1470" width="3249" height="3225" filterUnits="userSpaceOnUse" color-interpolation-filters="sRGB"><feFlood flood-opacity="0" result="BackgroundImageFix"/><feBlend in="SourceGraphic" in2="BackgroundImageFix" result="shape"/><feGaussianBlur stdDeviation="246" result="effect1_foregroundBlur_1543_70814"/></filter><filter id="filter1_f_1543_70814" x="1017" y="256" width="122.767" height="122.767" filterUnits="userSpaceOnUse" color-interpolation-filters="sRGB"><feFlood flood-opacity="0" result="BackgroundImageFix"/><feBlend in="SourceGraphic" in2="BackgroundImageFix" result="shape"/><feGaussianBlur stdDeviation="3" result="effect1_foregroundBlur_1543_70814"/></filter><filter id="filter2_f_1543_70814" x="604.967" y="322.967" width="100.988" height="100.988" filterUnits="userSpaceOnUse" color-interpolation-filters="sRGB"><feFlood flood-opacity="0" result="BackgroundImageFix"/><feBlend in="SourceGraphic" in2="BackgroundImageFix" result="shape"/><feGaussianBlur stdDeviation="3" result="effect1_foregroundBlur_1543_70814"/></filter><filter id="filter3_f_1543_70814" x="897" y="24" width="103.666" height="103.666" filterUnits="userSpaceOnUse" color-interpolation-filters="sRGB"><feFlood flood-opacity="0" result="BackgroundImageFix"/><feBlend in="SourceGraphic" in2="BackgroundImageFix" result="shape"/><feGaussianBlur stdDeviation="3" result="effect1_foregroundBlur_1543_70814"/></filter><filter id="filter4_f_1543_70814" x="245" y="206" width="116.321" height="116.321" filterUnits="userSpaceOnUse" color-interpolation-filters="sRGB"><feFlood flood-opacity="0" result="BackgroundImageFix"/><feBlend in="SourceGraphic" in2="BackgroundImageFix" result="shape"/><feGaussianBlur stdDeviation="3" result="effect1_foregroundBlur_1543_70814"/></filter><filter id="filter5_f_1543_70814" x="654" y="711" width="105.602" height="105.602" filterUnits="userSpaceOnUse" color-interpolation-filters="sRGB"><feFlood flood-opacity="0" result="BackgroundImageFix"/><feBlend in="SourceGraphic" in2="BackgroundImageFix" result="shape"/><feGaussianBlur stdDeviation="3" result="effect1_foregroundBlur_1543_70814"/></filter><filter id="filter6_f_1543_70814" x="1000" y="519" width="107.08" height="107.08" filterUnits="userSpaceOnUse" color-interpolation-filters="sRGB"><feFlood flood-opacity="0" result="BackgroundImageFix"/><feBlend in="SourceGraphic" in2="BackgroundImageFix" result="shape"/><feGaussianBlur stdDeviation="3" result="effect1_foregroundBlur_1543_70814"/></filter><filter id="filter7_f_1543_70814" x="17" y="149" width="117.255" height="117.255" filterUnits="userSpaceOnUse" color-interpolation-filters="sRGB"><feFlood flood-opacity="0" result="BackgroundImageFix"/><feBlend in="SourceGraphic" in2="BackgroundImageFix" result="shape"/><feGaussianBlur stdDeviation="3" result="effect1_foregroundBlur_1543_70814"/></filter><filter id="filter8_f_1543_70814" x="385.832" y="301.832" width="123.421" height="123.421" filterUnits="userSpaceOnUse" color-interpolation-filters="sRGB"><feFlood flood-opacity="0" result="BackgroundImageFix"/><feBlend in="SourceGraphic" in2="BackgroundImageFix" result="shape"/><feGaussianBlur stdDeviation="3" result="effect1_foregroundBlur_1543_70814"/></filter><filter id="filter9_f_1543_70814" x="707" y="519" width="122.117" height="122.117" filterUnits="userSpaceOnUse" color-interpolation-filters="sRGB"><feFlood flood-opacity="0" result="BackgroundImageFix"/><feBlend in="SourceGraphic" in2="BackgroundImageFix" result="shape"/><feGaussianBlur stdDeviation="3" result="effect1_foregroundBlur_1543_70814"/></filter><filter id="filter10_f_1543_70814" x="839" y="373" width="122.223" height="122.223" filterUnits="userSpaceOnUse" color-interpolation-filters="sRGB"><feFlood flood-opacity="0" result="BackgroundImageFix"/><feBlend in="SourceGraphic" in2="BackgroundImageFix" result="shape"/><feGaussianBlur stdDeviation="3" result="effect1_foregroundBlur_1543_70814"/></filter><filter id="filter11_f_1543_70814" x="1302" y="8" width="108.474" height="108.473" filterUnits="userSpaceOnUse" color-interpolation-filters="sRGB"><feFlood flood-opacity="0" result="BackgroundImageFix"/><feBlend in="SourceGraphic" in2="BackgroundImageFix" result="shape"/><feGaussianBlur stdDeviation="3" result="effect1_foregroundBlur_1543_70814"/></filter><filter id="filter12_f_1543_70814" x="43.421" y="647.421" width="107.159" height="107.159" filterUnits="userSpaceOnUse" color-interpolation-filters="sRGB"><feFlood flood-opacity="0" result="BackgroundImageFix"/><feBlend in="SourceGraphic" in2="BackgroundImageFix" result="shape"/><feGaussianBlur stdDeviation="3" result="effect1_foregroundBlur_1543_70814"/></filter><filter id="filter13_f_1543_70814" x="1295" y="603" width="109.919" height="109.919" filterUnits="userSpaceOnUse" color-interpolation-filters="sRGB"><feFlood flood-opacity="0" result="BackgroundImageFix"/><feBlend in="SourceGraphic" in2="BackgroundImageFix" result="shape"/><feGaussianBlur stdDeviation="3" result="effect1_foregroundBlur_1543_70814"/></filter><filter id="filter14_f_1543_70814" x="516" y="135" width="106.63" height="106.63" filterUnits="userSpaceOnUse" color-interpolation-filters="sRGB"><feFlood flood-opacity="0" result="BackgroundImageFix"/><feBlend in="SourceGraphic" in2="BackgroundImageFix" result="shape"/><feGaussianBlur stdDeviation="3" result="effect1_foregroundBlur_1543_70814"/></filter><filter id="filter15_f_1543_70814" x="1182" y="454" width="109.206" height="109.206" filterUnits="userSpaceOnUse" color-interpolation-filters="sRGB"><feFlood flood-opacity="0" result="BackgroundImageFix"/><feBlend in="SourceGraphic" in2="BackgroundImageFix" result="shape"/><feGaussianBlur stdDeviation="3" result="effect1_foregroundBlur_1543_70814"/></filter><filter id="filter16_f_1543_70814" x="668" y="44" width="125.135" height="125.135" filterUnits="userSpaceOnUse" color-interpolation-filters="sRGB"><feFlood flood-opacity="0" result="BackgroundImageFix"/><feBlend in="SourceGraphic" in2="BackgroundImageFix" result="shape"/><feGaussianBlur stdDeviation="3" result="effect1_foregroundBlur_1543_70814"/></filter><filter id="filter17_f_1543_70814" x="879.941" y="675.941" width="121.695" height="121.695" filterUnits="userSpaceOnUse" color-interpolation-filters="sRGB"><feFlood flood-opacity="0" result="BackgroundImageFix"/><feBlend in="SourceGraphic" in2="BackgroundImageFix" result="shape"/><feGaussianBlur stdDeviation="3" result="effect1_foregroundBlur_1543_70814"/></filter><filter id="filter18_f_1543_70814" x="65.013" y="371.013" width="107.974" height="107.974" filterUnits="userSpaceOnUse" color-interpolation-filters="sRGB"><feFlood flood-opacity="0" result="BackgroundImageFix"/><feBlend in="SourceGraphic" in2="BackgroundImageFix" result="shape"/><feGaussianBlur stdDeviation="3" result="effect1_foregroundBlur_1543_70814"/></filter><filter id="filter19_f_1543_70814" x="355" y="32" width="123.194" height="123.194" filterUnits="userSpaceOnUse" color-interpolation-filters="sRGB"><feFlood flood-opacity="0" result="BackgroundImageFix"/><feBlend in="SourceGraphic" in2="BackgroundImageFix" result="shape"/><feGaussianBlur stdDeviation="3" result="effect1_foregroundBlur_1543_70814"/></filter><filter id="filter20_f_1543_70814" x="1303.38" y="319.377" width="124.663" height="124.663" filterUnits="userSpaceOnUse" color-interpolation-filters="sRGB"><feFlood flood-opacity="0" result="BackgroundImageFix"/><feBlend in="SourceGraphic" in2="BackgroundImageFix" result="shape"/><feGaussianBlur stdDeviation="3" result="effect1_foregroundBlur_1543_70814"/></filter><filter id="filter21_f_1543_70814" x="223.456" y="693.456" width="125.088" height="125.088" filterUnits="userSpaceOnUse" color-interpolation-filters="sRGB"><feFlood flood-opacity="0" result="BackgroundImageFix"/><feBlend in="SourceGraphic" in2="BackgroundImageFix" result="shape"/><feGaussianBlur stdDeviation="3" result="effect1_foregroundBlur_1543_70814"/></filter><filter id="filter22_f_1543_70814" x="222" y="483" width="121.631" height="121.631" filterUnits="userSpaceOnUse" color-interpolation-filters="sRGB"><feFlood flood-opacity="0" result="BackgroundImageFix"/><feBlend in="SourceGraphic" in2="BackgroundImageFix" result="shape"/><feGaussianBlur stdDeviation="3" result="effect1_foregroundBlur_1543_70814"/></filter><filter id="filter23_f_1543_70814" x="478" y="487" width="109.798" height="109.798" filterUnits="userSpaceOnUse" color-interpolation-filters="sRGB"><feFlood flood-opacity="0" result="BackgroundImageFix"/><feBlend in="SourceGraphic" in2="BackgroundImageFix" result="shape"/><feGaussianBlur stdDeviation="3" result="effect1_foregroundBlur_1543_70814"/></filter><filter id="filter24_f_1543_70814" x="790.785" y="187.785" width="124.43" height="124.43" filterUnits="userSpaceOnUse" color-interpolation-filters="sRGB"><feFlood flood-opacity="0" result="BackgroundImageFix"/><feBlend in="SourceGraphic" in2="BackgroundImageFix" result="shape"/><feGaussianBlur stdDeviation="3" result="effect1_foregroundBlur_1543_70814"/></filter><filter id="filter25_f_1543_70814" x="1204.98" y="171.982" width="110.813" height="110.813" filterUnits="userSpaceOnUse" color-interpolation-filters="sRGB"><feFlood flood-opacity="0" result="BackgroundImageFix"/><feBlend in="SourceGraphic" in2="BackgroundImageFix" result="shape"/><feGaussianBlur stdDeviation="3" result="effect1_foregroundBlur_1543_70814"/></filter><filter id="filter26_f_1543_70814" x="1102.4" y="667.4" width="117.201" height="117.201" filterUnits="userSpaceOnUse" color-interpolation-filters="sRGB"><feFlood flood-opacity="0" result="BackgroundImageFix"/><feBlend in="SourceGraphic" in2="BackgroundImageFix" result="shape"/><feGaussianBlur stdDeviation="3" result="effect1_foregroundBlur_1543_70814"/></filter><filter id="filter27_f_1543_70814" x="151.492" y="5.492" width="121.016" height="121.016" filterUnits="userSpaceOnUse" color-interpolation-filters="sRGB"><feFlood flood-opacity="0" result="BackgroundImageFix"/><feBlend in="SourceGraphic" in2="BackgroundImageFix" result="shape"/><feGaussianBlur stdDeviation="3" result="effect1_foregroundBlur_1543_70814"/></filter><filter id="filter28_f_1543_70814" x="426.819" y="658.819" width="124.362" height="124.362" filterUnits="userSpaceOnUse" color-interpolation-filters="sRGB"><feFlood flood-opacity="0" result="BackgroundImageFix"/><feBlend in="SourceGraphic" in2="BackgroundImageFix" result="shape"/><feGaussianBlur stdDeviation="3" result="effect1_foregroundBlur_1543_70814"/></filter><filter id="filter29_f_1543_70814" x="1076" y="51" width="124.826" height="124.826" filterUnits="userSpaceOnUse" color-interpolation-filters="sRGB"><feFlood flood-opacity="0" result="BackgroundImageFix"/><feBlend in="SourceGraphic" in2="BackgroundImageFix" result="shape"/><feGaussianBlur stdDeviation="3" result="effect1_foregroundBlur_1543_70814"/></filter><clipPath id="clip0_1543_70814"><path fill="#fff" d="M0 0h1440v824H0z"/></clipPath><clipPath id="clip1_1543_70814"><path fill="#fff" transform="rotate(33.251 94.723 1917.445)" d="M0 0h80v80H0z"/></clipPath><clipPath id="clip2_1543_70814"><path fill="#fff" transform="rotate(6.864 -2432.26 5337.696)" d="M0 0h80v80H0z"/></clipPath><clipPath id="clip3_1543_70814"><path fill="#fff" transform="rotate(170.883 492.988 94.146)" d="M0 0h80v80H0z"/></clipPath><clipPath id="clip4_1543_70814"><path fill="#fff" transform="rotate(22.231 -398.875 821.786)" d="M0 0h80v80H0z"/></clipPath><clipPath id="clip5_1543_70814"><path fill="#fff" transform="rotate(-12.182 3042.092 -4442.873)" d="M0 0h80v80H0z"/></clipPath><clipPath id="clip6_1543_70814"><path fill="#fff" transform="rotate(-23.487 460.991 38.122)" d="M0 0h80v80H0z"/></clipPath><clipPath id="clip7_1543_70814"><path fill="#fff" transform="rotate(54.993 -67.031 593.266)" d="M0 0h80v80H0z"/></clipPath><clipPath id="clip8_1543_70814"><path fill="#fff" transform="rotate(14.225 -1239.442 5069.229)" d="M0 0h80v80H0z"/></clipPath><clipPath id="clip9_1543_70814"><path fill="#fff" transform="rotate(44.633 304.196 914.478)" d="M0 0h80v80H0z"/></clipPath><clipPath id="clip10_1543_70814"><path fill="#fff" transform="rotate(-15.855 1323.038 -4248.282)" d="M0 0h80v80H0z"/></clipPath><clipPath id="clip11_1543_70814"><path fill="#fff" transform="rotate(23.412 -1054.91 3088.134)" d="M0 0h80v80H0z"/></clipPath><linearGradient id="paint0_linear_1543_70814" x1="405.667" y1="89.369" x2="346.333" y2="139.369" gradientUnits="userSpaceOnUse"><stop stop-color="#B6509E"/><stop offset="1" stop-color="#2EBAC6"/></linearGradient><linearGradient id="paint1_linear_1543_70814" x1="269.456" y1="754.339" x2="269.456" y2="834.339" gradientUnits="userSpaceOnUse"><stop stop-color="#FEF3F9"/><stop offset="1" stop-color="#FDE5F2"/></linearGradient><linearGradient id="paint2_linear_1543_70814" x1="1156.99" y1="687" x2="1207.39" y2="743.8" gradientUnits="userSpaceOnUse"><stop stop-color="#00ADEF"/><stop offset="1" stop-color="#0084FF"/></linearGradient></defs></svg>