<svg width="1440" height="910" fill="none" xmlns="http://www.w3.org/2000/svg"><g clip-path="url(#clip0_1539_70903)"><path d="M1440 0H0v910h1440V0z" fill="#2E2E2E"/><path d="M0 248l160 168 160-199 160 83 160 94 160-76 160-53 160 154 160-161 160 47v606H0V248z" fill="#7170C9"/><path d="M0 422l160 53 160-72 160 82 160-144 160 161 160-101 160-51 169.5 74.5L1440 356v555H0V422z" fill="#8F8BD4"/><path d="M0 443l160 67 160-81 160 173 160-40 160-34 160-61 160-40 160 94 160-49v439H0V443z" fill="#ACA7E0"/><path d="M0 629l160-1 160 25 160-129 160 148 160 12 160-128 160 36 160-67 160 34v352H0V629z" fill="#C8C3EA"/><path d="M0 642l160 69 160 35 160-84 160-27 160 49 160 67 160-9 160-57 160 11v215H0V642z" fill="#E4E1F5"/><path d="M0 768l160 64 160-5 160-38 160-23 160 71 160 6 160-68 160-3 160 62v77H0V768z" fill="#fff"/></g><defs><clipPath id="clip0_1539_70903"><path fill="#fff" d="M0 0h1440v910H0z"/></clipPath></defs></svg>