<svg width="1440" height="800" fill="none" xmlns="http://www.w3.org/2000/svg"><g clip-path="url(#clip0_213_135)"><path fill="#fff" d="M0 0h1440v800H0z"/><path d="M0 0h1440v800H0V0z" fill="#111"/><g opacity=".28" stroke="#fff" stroke-width="2"><path d="M1229 211l36 12v-48l-36-12-36 12v48l36 12v-48l36-12"/><rect x="1170" y="140" width="118" height="118" rx="59"/><path d="M905.778 674.333c0-6.873-5.572-12.444-12.445-12.444s-12.444 5.571-12.444 12.444v37.334c0 6.873 5.571 12.444 12.444 12.444 6.873 0 12.445-5.571 12.445-12.444v-37.334zm37.333 0c0-6.873-5.572-12.444-12.444-12.444-6.873 0-12.445 5.571-12.445 12.444v37.334c0 6.873 5.572 12.444 12.445 12.444 6.872 0 12.444-5.571 12.444-12.444v-37.334z"/><path d="M880.889 705.444C887.111 693 899.556 693 906.213 693h11.574c6.657 0 19.102 0 25.324-12.444"/><rect x="857" y="638" width="110" height="110" rx="55"/><path d="M283.011 726.011a27.998 27.998 0 00-47.799-19.799 28.004 28.004 0 00-6.069 30.514 27.994 27.994 0 0025.868 17.285h28v-28zm-67.666-32.596a7.07 7.07 0 10-.002-14.142 7.07 7.07 0 00.002 14.142z"/><path d="M226.801 677.618a56.003 56.003 0 0172.557 14.2 56.001 56.001 0 11-92.74 5.983m257.034-29.764a55.991 55.991 0 01-7.051 70.564 55.994 55.994 0 01-70.564 7.052"/><path d="M416.994 726.989c15.461 0 27.995-12.533 27.995-27.994S432.455 671 416.994 671 389 683.534 389 698.995s12.533 27.994 27.994 27.994z"/><path d="M444.989 698.995a66.939 66.939 0 00-53.656 11.338 79.718 79.718 0 00-9.728 8.678 66.862 66.862 0 00-9.799 13.204h-.233a55.132 55.132 0 01-10.568-33.22 55.98 55.98 0 017.941-28.748 55.986 55.986 0 0179.006-17.91M772.59 680a15.001 15.001 0 00-15 15 17.213 17.213 0 002.355 8.07 5.843 5.843 0 01.673 4.545 5.842 5.842 0 01-2.818 3.63 6.002 6.002 0 01-8.145-2.22 17.144 17.144 0 00-5.82-6.09 14.997 14.997 0 00-20.446 5.533 14.997 14.997 0 0012.953 22.487 14.997 14.997 0 007.493-1.98 17.225 17.225 0 005.82-6 5.853 5.853 0 018.145-2.235 5.998 5.998 0 012.145 8.175A17.255 17.255 0 00757.62 737a14.997 14.997 0 0015.018 14.97 15.001 15.001 0 007.482-27.99 17.514 17.514 0 00-8.205-1.98 5.84 5.84 0 01-4.293-1.707 5.834 5.834 0 01-1.707-4.293c0-1.591.632-3.117 1.757-4.243a6.003 6.003 0 014.243-1.757 17.51 17.51 0 008.265-1.995 14.997 14.997 0 007.565-13.028 14.997 14.997 0 00-7.565-13.027 15.217 15.217 0 00-7.5-2.01l-.09.06z"/><rect x="700" y="657" width="118" height="118" rx="59"/><path d="M1055 692.667l-3.36 6.673a16.958 16.958 0 00-1.82 7.653c0 2.659.62 5.28 1.82 7.654l6.35 12.833a25.19 25.19 0 012.29 10.287c.02 3.552-.71 7.069-2.15 10.316l-2.34 5.414m-21.79-54.53l-2.66 5.366a13.497 13.497 0 000 12.087l4.99 10.033a19.805 19.805 0 011.82 8.154c.02 2.816-.56 5.604-1.7 8.18l-1.89 4.27m41.44-48.09l-2.66 5.366a13.497 13.497 0 000 12.087l4.99 10.033a19.833 19.833 0 010 16.334l-1.89 4.27"/><path d="M1055 779c30.93 0 56-25.072 56-56s-25.07-56-56-56-56 25.072-56 56 25.07 56 56 56zm154-11c30.93 0 56-25.072 56-56s-25.07-56-56-56-56 25.072-56 56 25.07 56 56 56z"/><path d="M1227.67 712H1195c-3.71 0-7.27 1.475-9.9 4.101A13.979 13.979 0 001181 726c0 3.713 1.47 7.274 4.1 9.899A14.013 14.013 0 001195 740c3.71 0 7.27-1.475 9.9-4.101A13.979 13.979 0 001209 726v-42h28m108.33-108.212l-4.97 1.657a25.895 25.895 0 00-12.82 9.426 25.89 25.89 0 00-4.89 15.144v0c0 3.692-1.09 7.301-3.14 10.37a18.718 18.718 0 01-8.38 6.875 18.648 18.648 0 01-20.34-4.046 18.674 18.674 0 01-4.05-20.343 18.634 18.634 0 016.87-8.377 18.679 18.679 0 0110.38-3.146 25.905 25.905 0 0024.57-17.71l1.65-4.97c.6-1.893 1.64-3.617 3.03-5.029a12.578 12.578 0 014.99-3.092c1.89-.621 3.89-.783 5.85-.474 1.97.308 3.82 1.079 5.43 2.248.4.327.77.654 1.14 1.027.38.373.7.747 1.03 1.143a12.519 12.519 0 012.25 5.424c.31 1.961.14 3.967-.48 5.852a12.506 12.506 0 01-8.12 8.021v0z"/><path d="M1358 587.175a56.048 56.048 0 01-2.16 36.017 56.036 56.036 0 01-23.69 27.219 56.003 56.003 0 01-67.75-8.813 55.957 55.957 0 01-15.93-32.374 55.971 55.971 0 017.12-35.373 55.987 55.987 0 0127.22-23.686 56.01 56.01 0 0136.02-2.167M587 780c30.928 0 56-25.072 56-56s-25.072-56-56-56-56 25.072-56 56 25.072 56 56 56z"/><path d="M614.44 707.667a.534.534 0 01.49.303.492.492 0 010 .56l-10.36 16.59a.55.55 0 01-.957 0l-10.36-16.59a.49.49 0 010-.56.541.541 0 01.49-.303h20.697zm-38.5.536l19.227 30.777a1.142 1.142 0 010 1.213l-7.677 12.297a.606.606 0 01-.84.14l-.14-.14L559 708.53a.492.492 0 010-.56.534.534 0 01.49-.303h15.423a1.12 1.12 0 011.027.536v0zM1373 785c30.93 0 56-25.072 56-56s-25.07-56-56-56-56 25.072-56 56 25.07 56 56 56z"/><path d="M1379.23 697.897a8.792 8.792 0 00-12.46 0l-24.87 24.873a8.907 8.907 0 00-1.92 2.857 8.865 8.865 0 00-.67 3.373c0 1.157.23 2.304.67 3.373a8.907 8.907 0 001.92 2.857m6.2 6.207c.82.819 1.79 1.47 2.86 1.914a8.83 8.83 0 003.37.672c1.16 0 2.31-.229 3.38-.672a8.696 8.696 0 002.85-1.914l24.88-24.874a8.68 8.68 0 012.85-1.914 8.823 8.823 0 016.75 0 8.828 8.828 0 012.86 1.914l6.2 6.207a8.907 8.907 0 011.92 2.857c.44 1.069.67 2.215.67 3.373a8.87 8.87 0 01-.67 3.373 8.907 8.907 0 01-1.92 2.857l-24.87 24.873a8.828 8.828 0 01-6.23 2.587 8.828 8.828 0 01-6.23-2.587M1154 640c30.93 0 56-25.072 56-56s-25.07-56-56-56-56 25.072-56 56 25.07 56 56 56z"/><path d="M1154 598c10.31 0 18.67-8.357 18.67-18.667 0-10.309-8.36-18.666-18.67-18.666-10.31 0-18.67 8.357-18.67 18.666 0 10.31 8.36 18.667 18.67 18.667zm28-37.333c2.58 0 4.67-2.09 4.67-4.667a4.668 4.668 0 00-4.67-4.667c-2.58 0-4.67 2.09-4.67 4.667a4.668 4.668 0 004.67 4.667zm-9.33 42L1154 621.333M1025.67 607v-18.667a9.34 9.34 0 00-2.74-6.599 9.323 9.323 0 00-6.6-2.734h-18.663a9.334 9.334 0 01-9.334-9.333V551m0 56v-14m37.337-42v14"/><path d="M1007 635c30.93 0 56-25.072 56-56s-25.07-56-56-56c-30.928 0-56 25.072-56 56s25.072 56 56 56zm-195.313-48.517h62.626L843 533.517l-31.313 52.966v0z"/><path d="M843 623c30.928 0 56-25.072 56-56s-25.072-56-56-56-56 25.072-56 56 25.072 56 56 56zm0-56l47.483-29.68m-98.723 7.07L843 567"/><path d="M899 567h-56l-55.44-7.91m-137.586 23.632l-9.425 22.977-9.425-22.977-9.426 22.977L613 582.722m73.713 22.977l-14.606-22.977-18.429 28.721m17.303-13.81h10.598m10.597-20.655L725 605.699m-27.08 0l26.283-22.977m-6.776 39.623a56.264 56.264 0 01-48.697 28.076 56.268 56.268 0 01-48.696-28.076m0-56.269A56.261 56.261 0 01668.73 538a56.266 56.266 0 0148.697 28.076m-204.65-17.33a7.56 7.56 0 00-11.877 4.877l-9.893 59.29a7.009 7.009 0 01-2.832 4.549 6.993 6.993 0 01-9.138-.862m34.23-23.637l-36.82-6.136m2.286-13.79l36.82 6.136"/><path d="M496 639c30.928 0 56-25.072 56-56s-25.072-56-56-56-56 25.072-56 56 25.072 56 56 56zm-205.78-45.78c5.85 0 10.593-4.743 10.593-10.593 0-5.851-4.743-10.594-10.593-10.594-5.851 0-10.594 4.743-10.594 10.594 0 5.85 4.743 10.593 10.594 10.593z"/><path d="M311.407 593.22c5.85 0 10.593-4.743 10.593-10.593 0-5.851-4.743-10.594-10.593-10.594-5.851 0-10.594 4.743-10.594 10.594 0 5.85 4.743 10.593 10.594 10.593zm21.186 0c5.851 0 10.594-4.743 10.594-10.593 0-5.851-4.743-10.594-10.594-10.594-5.85 0-10.593 4.743-10.593 10.594 0 5.85 4.743 10.593 10.593 10.593z"/><path d="M353.78 593.22a10.596 10.596 0 01-10.364-12.674 10.592 10.592 0 018.329-8.311 10.6 10.6 0 0110.868 4.509 10.593 10.593 0 011.784 5.883m-63.584-26.507v39.76M322 556.12v26.507"/><path d="M322 632c30.928 0 56-25.072 56-56s-25.072-56-56-56-56 25.072-56 56 25.072 56 56 56zm-193.333-27.807a73.8 73.8 0 0156-28v65.614c-14-10.197-25.97-11.364-37.334-9.614l-18.666-28zm18.666 28s0-37.333 37.334-37.333"/><path d="M166 665c30.928 0 56-25.072 56-56s-25.072-56-56-56-56 25.072-56 56 25.072 56 56 56zM75 768c30.928 0 56-25.072 56-56s-25.072-56-56-56-56 25.072-56 56 25.072 56 56 56zm0-94.36l-33.227 19.18m66.454 0l-66.454 38.36M75 750.36l33.227-19.18m-16.614-47.95L41.773 712m16.614 28.77l49.84-28.77"/><rect x="1319" y="423" width="110" height="110" rx="55"/><path d="M1374 511.6l-22.4-33.6 22.4-33.6 22.4 33.6-22.4 33.6z"/><path d="M1351.6 478l22.4 11.2 22.4-11.2m-22.4-33.6v67.2m-136-4.6c30.93 0 56-25.072 56-56s-25.07-56-56-56-56 25.072-56 56 25.07 56 56 56z"/><path d="M1277.08 476.527h-37.07a20.884 20.884 0 01-19.28-12.878 20.887 20.887 0 01-1.18-12.052c.8-4.046 2.79-7.763 5.71-10.681a20.819 20.819 0 0110.68-5.709 20.857 20.857 0 0121.41 8.87 20.885 20.885 0 013.52 11.59"/><path d="M1267.75 486.957h-27.74c-8.3 0-16.26-3.297-22.13-9.165a31.277 31.277 0 01-9.16-22.125 31.278 31.278 0 0131.29-31.29 30.945 30.945 0 0115.51 4.13"/><path d="M1246.31 497.387h-6.3a41.703 41.703 0 01-29.5-12.22 41.694 41.694 0 01-12.22-29.5 41.696 41.696 0 0112.22-29.501 41.702 41.702 0 0129.5-12.219M1145 456.985a55.991 55.991 0 01-44.1 54.735 55.982 55.982 0 01-36.97-4.646 55.925 55.925 0 01-25.87-26.823 56.038 56.038 0 01-3.32-37.12 56 56 0 0190.96-28.426"/><path d="M1052.44 445.715l21.58 37.123 22.96-34.417 15.17 23.147 25.08-37.147M932 500c30.928 0 56-25.072 56-56s-25.072-56-56-56-56 25.072-56 56 25.072 56 56 56z"/><path d="M913.333 425.333h36.82a.221.221 0 01.125.035c.036.025.065.06.08.101a.21.21 0 01-.065.238l-36.586 36.586a.206.206 0 00-.071.108.203.203 0 00.006.129.207.207 0 00.205.137h36.82M932 425.333v-18.666m0 56v18.666M781.333 480l-18.946-53.037a4.67 4.67 0 00-7.065-2.229 4.67 4.67 0 00-1.709 2.229L734.667 480M737 452h18.667"/><path d="M758 508c30.928 0 56-25.072 56-56s-25.072-56-56-56-56 25.072-56 56 25.072 56 56 56zm-182.307-61.497v12.484a4.174 4.174 0 01-4.176 4.153v0a4.153 4.153 0 01-4.154-4.153v-4.154s-12.46 1.4-12.46 16.614a20.418 20.418 0 0012.717 21 36.965 36.965 0 0116.333 12.18s29.12-12.227 29.12-33.18c0-24.944-25.666-22.75-25.666-47.67a26.453 26.453 0 00-11.714 22.726v0zM584 488.06v-16.613m-13.02 0h26.017"/><path d="M584 519c30.928 0 56-25.072 56-56s-25.072-56-56-56-56 25.072-56 56 25.072 56 56 56zm-144.71-81.907l-8.167 4.574-4.526-8.144m-35.91 31.337l8.19-4.527 4.526 8.097"/><path d="M422 453.754a21.802 21.802 0 019.123 6.58 15.634 15.634 0 012.544 9.333A18.665 18.665 0 01415 488.334a18.665 18.665 0 01-18.667-18.667 18.408 18.408 0 012.544-9.333M408 448.247a21.81 21.81 0 01-9.123-6.58 15.632 15.632 0 01-2.544-9.334 18.667 18.667 0 0137.334 0 18.411 18.411 0 01-2.544 9.334M415 474.333v-46.666"/><path d="M415 507c30.928 0 56-25.072 56-56s-25.072-56-56-56-56 25.072-56 56 25.072 56 56 56zm-186.667-61.333v18.666h-18.666v-18.666m74.666 18.666v-18.666h-18.666v18.666M277.333 455h-4.666m-16.334 9.333v-18.666h-1.166L247 455l-8.167-9.333h-1.166v18.666"/><path d="M247 511c30.928 0 56-25.072 56-56s-25.072-56-56-56-56 25.072-56 56 25.072 56 56 56zM69.333 500v-28H102c3.713 0 7.274 1.475 9.899 4.101a13.996 13.996 0 010 19.798A13.996 13.996 0 01102 500H55.333"/><path d="M69.333 509.333V528H102c3.713 0 7.274-1.475 9.899-4.101a13.996 13.996 0 000-19.798A13.996 13.996 0 00102 500"/><path d="M88 556c30.928 0 56-25.072 56-56s-25.072-56-56-56-56 25.072-56 56 25.072 56 56 56z"/><rect x="1109" y="273" width="110" height="110" rx="55"/><path d="M1158.4 319.6l-9.8 44.8m-7.27-30.968a25.313 25.313 0 01-2.53-10.604c-.06-3.677.69-7.323 2.19-10.681a25.178 25.178 0 016.49-8.759 25.256 25.256 0 019.58-5.197 25.208 25.208 0 0128.54 11.24 25.322 25.322 0 013.46 10.337c1.46 13.832-5.85 22.232-15.9 24.85-10.48 2.8-20.5 1.218-23.1 13.118m39.14 6.664c3.09 0 5.6-2.507 5.6-5.6 0-3.093-2.51-5.6-5.6-5.6s-5.6 2.507-5.6 5.6c0 3.093 2.51 5.6 5.6 5.6zM1339 388c30.93 0 56-25.072 56-56s-25.07-56-56-56-56 25.072-56 56 25.07 56 56 56zm1.03-93.52l-20.3 71.867m31.54-68.694l-5.08 17.967m-15.22 53.9l5.07-17.967"/><path d="M1319.24 308.013l33.76 9.52a9.357 9.357 0 015.61 4.43 9.345 9.345 0 01.83 7.097 9.34 9.34 0 01-11.53 6.44l-17.96-5.087"/><path d="M1347.84 335.5a9.3 9.3 0 015.94 4.338 9.355 9.355 0 011.23 3.549 9.463 9.463 0 01-.27 3.744 9.367 9.367 0 01-4.63 5.719 9.327 9.327 0 01-7.33.593l-33.69-9.496M999 372c30.93 0 56-25.072 56-56s-25.07-56-56-56c-30.928 0-56 25.072-56 56s25.072 56 56 56zm-31.243-102.48C943 316 999 334.667 999 334.667"/><path d="M1022.33 297.333c-4.66-18.666-14-18.666-23.33-18.666-18.667 0-18.667 9.333-18.667 18.666 0 18.667 37.337 18.667 37.337 37.334 0 9.333 0 18.666-18.67 18.666-9.333 0-18.667 0-23.333-18.666m54.573 27.813C1055 316 999 297.333 999 297.333M834 387c30.928 0 56-25.072 56-56s-25.072-56-56-56-56 25.072-56 56 25.072 56 56 56zm6.604-62.603L862 303m-56 56l21.397-21.397m13.207 0L862 359m-56-56l21.397 21.397"/><path d="M834 330.977l.033.035-.033.032-.032-.032.032-.035zM661 393c30.928 0 56-25.072 56-56s-25.072-56-56-56-56 25.072-56 56 25.072 56 56 56z"/><path d="M660.23 333.593c7.693 0 13.93-6.236 13.93-13.93 0-7.693-6.237-13.93-13.93-13.93-7.694 0-13.93 6.237-13.93 13.93 0 7.694 6.236 13.93 13.93 13.93zm0 41.79c7.693 0 13.93-6.236 13.93-13.93 0-7.693-6.237-13.93-13.93-13.93-7.694 0-13.93 6.237-13.93 13.93 0 7.694 6.236 13.93 13.93 13.93zm0-41.79v13.93m9.847-37.706l11.036-11.06M497 392c30.928 0 56-25.072 56-56s-25.072-56-56-56-56 25.072-56 56 25.072 56 56 56z"/><path d="M547.377 360.5H528.5v-42L497 350l-31.5-31.5v42h-18.876m-126.957-45.833l18.666 18.666m9.334-46.666L329 305.333 347.667 324m-37.334 37.333L329 342.667 310.333 324"/><path d="M329 380c30.928 0 56-25.072 56-56s-25.072-56-56-56-56 25.072-56 56 25.072 56 56 56zm-188 43c27.614 0 50-22.386 50-50s-22.386-50-50-50-50 22.386-50 50 22.386 50 50 50z"/><path d="M136 408l-15-15 15-15m65-25s-20 40-80 40m25-55l15 15-15 15m-65 25s20-40 80-40m1196.22-147.553c-7 1.353-12.41 5.296-11.94 13.206.46 7.91 9.05 12.997 17.64 12.554 14-.77 24.24-12.414 25.41-26.017"/><path d="M1374.33 205.05c3.61.47 7.25.626 10.89.467 11.25-.63 18.06-6.394 17.57-15.027-.49-8.633-9.54-14.187-18.66-13.673-14.77.816-25.67 13.79-26.88 28.63 2.01-.462 4.05-.751 6.11-.864 3.64-.159 7.28-.003 10.9.467h.07z"/><path d="M1374 260c30.93 0 56-25.072 56-56s-25.07-56-56-56-56 25.072-56 56 25.07 56 56 56zm-288.33-83.333l18.66 18.666L1085.67 214h-56l18.66-18.667-18.66-18.666L1048.33 158h56l-18.66 18.667zm-56 0h56m-37.34 18.666h56"/><path d="M1067 242c30.93 0 56-25.072 56-56s-25.07-56-56-56-56 25.072-56 56 25.07 56 56 56zm-172 18c30.928 0 56-25.072 56-56s-25.072-56-56-56-56 25.072-56 56 25.072 56 56 56z"/><path d="M855.17 218.513a42.442 42.442 0 0168.069-46.278 42.447 42.447 0 019.451 51.311 42.44 42.44 0 01-47.443 21.707"/><path d="M923.583 210.533a29.288 29.288 0 01-30.138 22.619 29.286 29.286 0 01-27.467-25.798 29.282 29.282 0 0140.705-30.318 29.28 29.28 0 0114.567 13.781"/><path d="M906.993 214.29a9.33 9.33 0 01-10.352 4.062 9.332 9.332 0 01-6.891-8.729v-20.51m-8.237 8.284h25.48M737 268c30.928 0 56-25.072 56-56s-25.072-56-56-56-56 25.072-56 56 25.072 56 56 56z"/><path d="M723.653 202.667L709 238.11c30.847-.607 46.387-5.11 55.603-21.607 0 0 12.39-19.203-2.17-25.993a32.3 32.3 0 00-12.11-2.66h-36.306m5.343 49.863l-3.897 10.057m27.51-70.793l-4.223 10.873m-6.953 48.627l-4.41 11.293m27.533-70.793l-4.223 10.873M562 271c30.928 0 56-25.072 56-56s-25.072-56-56-56-56 25.072-56 56 25.072 56 56 56z"/><path d="M565.64 178.507l-18.947 66.103h34.417m-11.27-30.94l-32.293 9.613M405 257c30.928 0 56-25.072 56-56s-25.072-56-56-56-56 25.072-56 56 25.072 56 56 56zm-18.667-84v56m37.334-56v56m-37.334-35h37.334m-37.334 14h37.334M224 279c30.928 0 56-25.072 56-56s-25.072-56-56-56-56 25.072-56 56 25.072 56 56 56z"/><path d="M224 269.667c25.773 0 46.667-20.894 46.667-46.667 0-25.773-20.894-46.667-46.667-46.667-25.773 0-46.667 20.894-46.667 46.667 0 25.773 20.894 46.667 46.667 46.667zM214.667 195v56m11.666-56v9.333m0 46.667v-9.333m-21 0h28m-28-37.334h28M214.667 223h18.666m0-18.667a9.334 9.334 0 010 18.667m0 0a9.334 9.334 0 110 18.667M81 304c30.928 0 56-25.072 56-56s-25.072-56-56-56-56 25.072-56 56 25.072 56 56 56z"/><path d="M74 248a13.998 13.998 0 01-9.9-23.899A13.998 13.998 0 0174 220m14 28a13.998 13.998 0 019.9 23.899A13.998 13.998 0 0188 276m-14-28h14m11.667-28H74m-11.667 56H88m-.77-37.333l6.207-9.334m-24.873 37.334l6.206-9.334M1355 130c30.93 0 56-25.072 56-56s-25.07-56-56-56-56 25.072-56 56 25.07 56 56 56z"/><path d="M1341.75 77.733l4.66 5.88a10.972 10.972 0 003.8 3.033 10.93 10.93 0 009.48 0 10.88 10.88 0 003.8-3.033l16.73-21c1.29-1.609 2.1-3.55 2.33-5.597.23-2.048-.11-4.12-1.01-5.977a10.944 10.944 0 00-4.03-4.524 10.981 10.981 0 00-5.83-1.682h-33.41a10.92 10.92 0 00-5.82 1.682 10.899 10.899 0 00-4.04 4.524 10.997 10.997 0 00-1.01 5.977 10.981 10.981 0 002.33 5.597l6.04 7.56"/><path d="M1368.25 70.267l-4.66-5.88a11.064 11.064 0 00-3.8-3.033 10.93 10.93 0 00-9.48 0 10.88 10.88 0 00-3.8 3.033l-16.73 21a10.897 10.897 0 00-2.33 5.597c-.23 2.048.11 4.12 1.01 5.977a10.945 10.945 0 004.03 4.524 10.98 10.98 0 005.83 1.682h33.41a10.92 10.92 0 005.82-1.682 10.9 10.9 0 004.04-4.524c.89-1.857 1.24-3.93 1.01-5.977a10.982 10.982 0 00-2.33-5.597l-6.04-7.654m-190.24-25.336L1164.04 87a4.673 4.673 0 01-4.04 2.333h-14a4.66 4.66 0 01-2.33-.627c-.71-.41-1.3-.999-1.7-1.708a4.665 4.665 0 01-.63-2.333c0-.818.22-1.623.63-2.332l26.99-46.666a4.667 4.667 0 016.37-1.702c.71.407 1.3.995 1.71 1.702l7 12.04c.4.716.61 1.527.61 2.35a4.7 4.7 0 01-.66 2.34v0zm15.94 36.936H1187a4.675 4.675 0 01-4.04-2.335 4.655 4.655 0 01-.62-2.333c0-.818.21-1.623.62-2.332l6.37-11.27a4.667 4.667 0 016.37-1.702c.71.408 1.3.995 1.71 1.702l6.55 11.27c.41.71.63 1.514.63 2.332 0 .82-.22 1.624-.63 2.333-.4.71-.99 1.298-1.7 1.708a4.66 4.66 0 01-2.33.627v0z"/><path d="M1173 122c30.93 0 56-25.072 56-56s-25.07-56-56-56-56 25.072-56 56 25.07 56 56 56zm-202 13c30.93 0 56-25.072 56-56s-25.07-56-56-56c-30.928 0-56 25.072-56 56s25.072 56 56 56z"/><path d="M989.667 88.333L999 79v28h-56l56-56h-56v28l9.333-9.333m-142.08-11.154c14.28 7.327 18.06 14.28 18.06 22.284 0 8.003-5.6 14.77-16.333 14.77-10.733 0-14 2.986-15.633 7-1.097 2.566-2.334 8.89-9.777 8.89-6.557 0-16.66-10.057-16.66-27.697s1.983-26.11 8.96-29.05c13.72-5.74 31.383 3.803 31.383 3.803z"/><path d="M797 135c30.928 0 56-25.072 56-56s-25.072-56-56-56-56 25.072-56 56 25.072 56 56 56zm-174 3c30.928 0 56-25.072 56-56s-25.072-56-56-56-56 25.072-56 56 25.072 56 56 56zm-2.333-56H595"/><path d="M603.913 103h18.83a25.812 25.812 0 0012.437-2.17c6.626-3.057 10.593-9.59 12.18-18.153 2.333-12.717-.56-21.747-17.15-21.747m0 .023h-18.9M451 130c30.928 0 56-25.072 56-56s-25.072-56-56-56-56 25.072-56 56 25.072 56 56 56z"/><path d="M479 102h-28s-14.21.7-22.913-2.007c-11.55-3.546-14.42-15.913-14.42-25.993 0-10.08 2.706-21.84 14-25.83C435.833 45.277 451 46 451 46h28m0 28h-65.333M246.665 90.142l16.517 12.504-30.842 30.023 67.727-28.974-13.415-9.214 24.73-12.644-16.564-12.504 30.843-29.977-67.658 28.904 13.392 9.284-24.73 12.598z"/><path d="M234.859 120.444a55.988 55.988 0 0136.745-89.954 55.995 55.995 0 0137.515 8.305m14.022 12.761a55.988 55.988 0 01-36.745 89.954 55.995 55.995 0 01-37.515-8.305M88 138c30.928 0 56-25.072 56-56s-25.072-56-56-56-56 25.072-56 56 25.072 56 56 56zM69.333 82h37.334m14 28a28 28 0 010-56m-65.334 0a28 28 0 010 56"/></g></g><defs><clipPath id="clip0_213_135"><path fill="#fff" d="M0 0h1440v800H0z"/></clipPath></defs></svg>