<svg width="1440" height="800" fill="none" xmlns="http://www.w3.org/2000/svg"><g clip-path="url(#clip0_1542_70686)"><path fill="#fff" d="M0 0h1440v800H0z"/><path d="M0 0h1440v800H0V0z" fill="#111"/><g opacity=".24" stroke="#fff" stroke-width="2"><path d="M1013 323l36 12v-48l-36-12-36 12v48l36 12v-48l36-12"/><rect x="954" y="252" width="118" height="118" rx="59"/></g><g opacity=".36" stroke="#fff" stroke-width="2"><path d="M1294.78 681.333c0-6.873-5.57-12.444-12.45-12.444-6.87 0-12.44 5.571-12.44 12.444v37.334c0 6.873 5.57 12.444 12.44 12.444 6.88 0 12.45-5.571 12.45-12.444v-37.334zm37.33 0c0-6.873-5.57-12.444-12.44-12.444-6.88 0-12.45 5.571-12.45 12.444v37.334c0 6.873 5.57 12.444 12.45 12.444 6.87 0 12.44-5.571 12.44-12.444v-37.334z"/><path d="M1269.89 712.444C1276.11 700 1288.56 700 1295.21 700h11.58c6.65 0 19.1 0 25.32-12.444"/><rect x="1246" y="645" width="110" height="110" rx="55"/></g><g opacity=".36" stroke="#fff" stroke-width="2"><path d="M772.59 680a15.001 15.001 0 00-15 15 17.213 17.213 0 002.355 8.07 5.843 5.843 0 01.673 4.545 5.842 5.842 0 01-2.818 3.63 6.002 6.002 0 01-8.145-2.22 17.144 17.144 0 00-5.82-6.09 14.997 14.997 0 00-20.446 5.533 14.997 14.997 0 0012.953 22.487 14.997 14.997 0 007.493-1.98 17.225 17.225 0 005.82-6 5.853 5.853 0 018.145-2.235 5.998 5.998 0 012.145 8.175A17.255 17.255 0 00757.62 737a14.997 14.997 0 0015.018 14.97 15.001 15.001 0 007.482-27.99 17.514 17.514 0 00-8.205-1.98 5.84 5.84 0 01-4.293-1.707 5.834 5.834 0 01-1.707-4.293c0-1.591.632-3.117 1.757-4.243a6.003 6.003 0 014.243-1.757 17.51 17.51 0 008.265-1.995 14.997 14.997 0 007.565-13.028 14.997 14.997 0 00-7.565-13.027 15.217 15.217 0 00-7.5-2.01l-.09.06z"/><rect x="700" y="657" width="118" height="118" rx="59"/></g><g opacity=".24" stroke="#fff" stroke-width="2"><path d="M431.977 686.658h76.046L470 622.342l-38.023 64.316v0z"/><path d="M470 731c37.555 0 68-30.445 68-68s-30.445-68-68-68-68 30.445-68 68 30.445 68 68 68zm0-68l57.658-36.04m-119.878 8.585L470 663"/><path d="M538 663h-68l-67.32-9.605"/></g><g opacity=".36" stroke="#fff" stroke-width="2"><rect x="1154" y="415" width="134" height="134" rx="67"/><path d="M1221 522.8l-27.2-40.8 27.2-40.8 27.2 40.8-27.2 40.8z"/><path d="M1193.8 482l27.2 13.6 27.2-13.6m-27.2-40.8v81.6"/></g><g opacity=".32" stroke="#fff" stroke-width="2"><path d="M189 770c30.928 0 56-25.072 56-56s-25.072-56-56-56-56 25.072-56 56 25.072 56 56 56z"/><path d="M228.083 739.527h-37.077a20.864 20.864 0 01-19.272-12.878 20.865 20.865 0 014.522-22.733 20.865 20.865 0 0122.733-4.522 20.862 20.862 0 0112.877 19.273"/><path d="M218.75 749.957h-27.743a31.291 31.291 0 010-62.58 30.95 30.95 0 0115.516 4.13"/><path d="M197.307 760.387h-6.3a41.721 41.721 0 01-29.501-71.221 41.72 41.72 0 0129.501-12.219"/></g><g opacity=".28" stroke="#fff" stroke-width="2"><path d="M630 554c30.928 0 56-25.072 56-56s-25.072-56-56-56-56 25.072-56 56 25.072 56 56 56z"/><path d="M611.333 479.333h36.82a.209.209 0 01.211.265.21.21 0 01-.071.109l-36.586 36.586a.212.212 0 00-.071.108.203.203 0 00.006.129.207.207 0 00.205.137h36.82M630 479.333v-18.666m0 56v18.666"/></g><g opacity=".28" stroke="#fff" stroke-width="2"><path d="M634.693 75.503v12.484a4.174 4.174 0 01-4.176 4.153v0a4.153 4.153 0 01-4.154-4.153v-4.154s-12.46 1.4-12.46 16.614a20.418 20.418 0 0012.717 21 36.965 36.965 0 0116.333 12.18s29.12-12.227 29.12-33.18c0-24.944-25.666-22.75-25.666-47.67a26.453 26.453 0 00-11.714 22.726v0zM643 117.06v-16.613m-13.02 0h26.017"/><path d="M643 148c30.928 0 56-25.072 56-56s-25.072-56-56-56-56 25.072-56 56 25.072 56 56 56z"/></g><g opacity=".28" stroke="#fff" stroke-width="2"><rect x="982" y="589" width="110" height="110" rx="55"/><path d="M1031.4 635.6l-9.8 44.8m-7.27-30.968a25.313 25.313 0 01-2.53-10.604c-.06-3.677.69-7.323 2.19-10.681a25.178 25.178 0 016.49-8.759 25.256 25.256 0 019.58-5.197 25.208 25.208 0 0128.54 11.24 25.322 25.322 0 013.46 10.337c1.46 13.832-5.85 22.232-15.9 24.85-10.48 2.8-20.5 1.218-23.1 13.118m39.14 6.664c3.09 0 5.6-2.507 5.6-5.6 0-3.093-2.51-5.6-5.6-5.6s-5.6 2.507-5.6 5.6c0 3.093 2.51 5.6 5.6 5.6z"/></g><g opacity=".4" stroke="#fff" stroke-width="2"><path d="M856 535c37.555 0 68-30.445 68-68s-30.445-68-68-68-68 30.445-68 68 30.445 68 68 68zm1.247-113.56l-24.65 87.267m38.306-83.414l-6.176 21.817m-18.474 65.45l6.149-21.817"/><path d="M832.002 437.873L873 449.433a11.339 11.339 0 012.441 20.806 11.34 11.34 0 01-8.618 1.011l-21.816-6.177"/><path d="M866.738 471.25a11.326 11.326 0 018.7 9.577 11.334 11.334 0 01-10.323 12.765 11.331 11.331 0 01-4.525-.554l-40.914-11.531"/></g><g opacity=".32" stroke="#fff" stroke-width="2"><path d="M517 378c37.555 0 68-30.445 68-68s-30.445-68-68-68-68 30.445-68 68 30.445 68 68 68zm-37.938-124.44C449 310 517 332.667 517 332.667"/><path d="M545.333 287.333c-5.666-22.666-17-22.666-28.333-22.666-22.667 0-22.667 11.333-22.667 22.666 0 22.667 45.334 22.667 45.334 45.334 0 11.333 0 22.666-22.667 22.666-11.333 0-22.667 0-28.333-22.666m66.271 33.773C585 310 517 287.333 517 287.333"/></g><g opacity=".28" stroke="#fff" stroke-width="2"><path d="M295 526c30.928 0 56-25.072 56-56s-25.072-56-56-56-56 25.072-56 56 25.072 56 56 56z"/><path d="M345.377 494.5H326.5v-42L295 484l-31.5-31.5v42h-18.877"/></g><path d="M1265.22 262.447c-7 1.353-12.41 5.296-11.94 13.206.46 7.91 9.05 12.997 17.64 12.554 14-.77 24.24-12.414 25.41-26.017" stroke="#fff" stroke-opacity=".24" stroke-width="2"/><path d="M1282.33 262.05c3.61.47 7.25.626 10.89.467 11.25-.63 18.06-6.394 17.57-15.027-.49-8.633-9.54-14.187-18.66-13.673-14.77.816-25.67 13.79-26.88 28.63 2.01-.462 4.05-.751 6.11-.864 3.64-.159 7.28-.003 10.9.467h.07z" stroke="#fff" stroke-opacity=".24" stroke-width="2"/><path d="M1282 317c30.93 0 56-25.072 56-56s-25.07-56-56-56-56 25.072-56 56 25.07 56 56 56z" stroke="#fff" stroke-opacity=".24" stroke-width="2"/><g opacity=".32" stroke="#fff" stroke-width="2"><path d="M795.667 232.667l18.666 18.666L795.667 270h-56l18.666-18.667-18.666-18.666L758.333 214h56l-18.666 18.667zm-56 0h56m-37.334 18.666h56"/><path d="M777 298c30.928 0 56-25.072 56-56s-25.072-56-56-56-56 25.072-56 56 25.072 56 56 56z"/></g><g opacity=".4" stroke="#fff" stroke-width="2"><path d="M127 387c34.242 0 62-27.758 62-62 0-34.242-27.758-62-62-62-34.242 0-62 27.758-62 62 0 34.242 27.758 62 62 62z"/><path d="M82.902 341.068a46.99 46.99 0 0175.363-51.236 46.987 46.987 0 0110.463 56.808 46.988 46.988 0 01-52.526 24.033"/><path d="M158.646 332.233a32.42 32.42 0 01-53.777 16.302 32.418 32.418 0 01-4.903-41.43 32.419 32.419 0 0139.969-11.959 32.428 32.428 0 0116.128 15.258"/><path d="M140.278 336.393a10.331 10.331 0 01-19.09-5.167v-22.708m-9.12 9.171h28.21"/></g><g opacity=".32" stroke="#fff" stroke-width="2"><path d="M357 212c34.242 0 62-27.758 62-62 0-34.242-27.758-62-62-62-34.242 0-62 27.758-62 62 0 34.242 27.758 62 62 62z"/><path d="M361.03 109.597l-20.977 73.185h38.104m-12.477-34.255l-35.753 10.644"/></g><path d="M1355 130c30.93 0 56-25.072 56-56s-25.07-56-56-56-56 25.072-56 56 25.07 56 56 56z" stroke="#fff" stroke-opacity=".36" stroke-width="2"/><path d="M1341.75 77.733l4.66 5.88a10.972 10.972 0 003.8 3.033 10.93 10.93 0 009.48 0 10.88 10.88 0 003.8-3.033l16.73-21c1.29-1.609 2.1-3.55 2.33-5.597.23-2.048-.11-4.12-1.01-5.977a10.944 10.944 0 00-4.03-4.524 10.981 10.981 0 00-5.83-1.682h-33.41a10.92 10.92 0 00-5.82 1.682 10.899 10.899 0 00-4.04 4.524 10.997 10.997 0 00-1.01 5.977 10.981 10.981 0 002.33 5.597l6.04 7.56" stroke="#fff" stroke-opacity=".36" stroke-width="2"/><path d="M1368.25 70.267l-4.66-5.88a11.064 11.064 0 00-3.8-3.033 10.93 10.93 0 00-9.48 0 10.88 10.88 0 00-3.8 3.033l-16.73 21a10.897 10.897 0 00-2.33 5.597c-.23 2.048.11 4.12 1.01 5.977a10.945 10.945 0 004.03 4.524 10.98 10.98 0 005.83 1.682h33.41a10.92 10.92 0 005.82-1.682 10.9 10.9 0 004.04-4.524c.89-1.857 1.24-3.93 1.01-5.977a10.982 10.982 0 00-2.33-5.597l-6.04-7.654" stroke="#fff" stroke-opacity=".36" stroke-width="2"/><g opacity=".24" stroke="#fff" stroke-width="2"><path d="M969.345 86.482L945.12 128.5a5.672 5.672 0 01-2.071 2.073 5.674 5.674 0 01-2.831.76h-17a5.664 5.664 0 01-4.901-8.5l32.781-56.666A5.677 5.677 0 01956 63.343a5.664 5.664 0 014.902 2.824l8.5 14.62a5.667 5.667 0 01-.057 5.695v0zm19.352 44.851H973a5.661 5.661 0 01-4.903-2.835 5.671 5.671 0 01.001-5.665l7.735-13.685a5.671 5.671 0 014.902-2.823 5.669 5.669 0 014.902 2.823l7.961 13.685c.497.861.759 1.838.76 2.832a5.67 5.67 0 01-5.661 5.668v0z"/><path d="M956 171c37.555 0 68-30.445 68-68s-30.445-68-68-68-68 30.445-68 68 30.445 68 68 68z"/></g><path d="M88 138c30.928 0 56-25.072 56-56s-25.072-56-56-56-56 25.072-56 56 25.072 56 56 56zM69.333 82h37.334m14 28a28 28 0 010-56m-65.334 0a28 28 0 110 56" opacity=".24" stroke="#fff" stroke-width="2"/></g><defs><clipPath id="clip0_1542_70686"><path fill="#fff" d="M0 0h1440v800H0z"/></clipPath></defs></svg>