<svg width="1440" height="720" fill="none" xmlns="http://www.w3.org/2000/svg"><g clip-path="url(#clip0_623_50670)" stroke-linejoin="bevel"><path d="M720 373l8 61 62-4-70-57z" fill="#4F4F8E" stroke="#4F4F8E"/><path d="M790 430l12-83-82 26 70 57z" fill="#4A4A84" stroke="#4A4A84"/><path d="M728 434l67 60-5-64-62 4z" fill="#555598" stroke="#555598"/><path d="M790 430l78-4-66-79-12 83z" fill="#6665B6" stroke="#6665B6"/><path d="M802 347l-22-53-60 79 82-26z" fill="#4A4A84" stroke="#4A4A84"/><path d="M646 352l6 88 68-67-74-21z" fill="#4F4F8E" stroke="#4F4F8E"/><path d="M720 373l-68 67 76-6-8-61z" fill="#6060AC" stroke="#6060AC"/><path d="M728 434l-12 73 79-13-67-60z" fill="#4A4A84" stroke="#4A4A84"/><path d="M795 494l73-68-78 4 5 64z" fill="#4F4F8E" stroke="#4F4F8E"/><path d="M802 347l62-47-84-6 22 53zm-150 93l64 67 12-73-76 6z" fill="#3F3F71" stroke="#3F3F71"/><path d="M728 278l-82 74 74 21 8-95z" fill="#555598" stroke="#555598"/><path d="M780 294l-52-16-8 95 60-79z" fill="#45457B" stroke="#45457B"/><path d="M868 426l9-77-75-2 66 79z" fill="#4A4A84" stroke="#4A4A84"/><path d="M877 349l-13-49-62 47 75 2z" fill="#3F3F71" stroke="#3F3F71"/><path d="M780 294l13-84-65 68 52 16z" fill="#35355F" stroke="#35355F"/><path d="M805 577l46-62-56-21 10 83z" fill="#3A3A68" stroke="#3A3A68"/><path d="M795 494l56 21 17-89-73 68z" fill="#6665B6" stroke="#6665B6"/><path d="M728 278l-84 19 2 55 82-74z" fill="#303056" stroke="#303056"/><path d="M571 439l75 67 6-66-81-1z" fill="#6060AC" stroke="#6060AC"/><path d="M652 440l-6 66 70 1-64-67z" fill="#4F4F8E" stroke="#4F4F8E"/><path d="M716 507l89 70-10-83-79 13z" fill="#6665B6" stroke="#6665B6"/><path d="M576 372l76 68-6-88-70 20z" fill="#3F3F71" stroke="#3F3F71"/><path d="M851 515l71-71-54-18-17 89z" fill="#555598" stroke="#555598"/><path d="M868 426l66-69-57-8-9 77z" fill="#5B5AA2" stroke="#5B5AA2"/><path d="M877 349l52-53-65 4 13 49z" fill="#3A3A68" stroke="#3A3A68"/><path d="M922 444l12-87-66 69 54 18z" fill="#3F3F71" stroke="#3F3F71"/><path d="M577 290l-1 82 70-20-69-62z" fill="#4A4A84" stroke="#4A4A84"/><path d="M708 589l97-12-89-70-8 82z" fill="#303056" stroke="#303056"/><path d="M851 515l93-5-22-66-71 71z" fill="#6665B6" stroke="#6665B6"/><path d="M576 372l-5 67 81 1-76-68z" fill="#6060AC" stroke="#6060AC"/><path d="M870 209l-77 1 71 90 6-91z" fill="#5B5AA2" stroke="#5B5AA2"/><path d="M864 300l-71-90-13 84 84 6z" fill="#303056" stroke="#303056"/><path d="M728 278l-84-55v74l84-19z" fill="#6060AC" stroke="#6060AC"/><path d="M657 584l59-77-70-1 11 78z" fill="#4F4F8E" stroke="#4F4F8E"/><path d="M657 584l51 5 8-82-59 77z" fill="#555598" stroke="#555598"/><path d="M793 210l-80-6 15 74 65-68z" fill="#4F4F8E" stroke="#4F4F8E"/><path d="M644 297l-67-7 69 62-2-55z" fill="#303056" stroke="#303056"/><path d="M934 357l-5-61-52 53 57 8z" fill="#4F4F8E" stroke="#4F4F8E"/><path d="M713 204l-69 19 84 55-15-74z" fill="#6060AC" stroke="#6060AC"/><path d="M576 511l81 73-11-78-70 5z" fill="#4F4F8E" stroke="#4F4F8E"/><path d="M644 223l-67 67 67 7v-74zm-68 149l-74 59 69 8 5-67z" fill="#5B5AA2" stroke="#5B5AA2"/><path d="M786 661l64-72-45-12-19 84z" fill="#35355F" stroke="#35355F"/><path d="M805 577l45 12 1-74-46 62z" fill="#35355F" stroke="#35355F"/><path d="M571 439l5 72 70-5-75-67z" fill="#6665B6" stroke="#6665B6"/><path d="M949 570l-5-60-93 5 98 55z" fill="#3A3A68" stroke="#3A3A68"/><path d="M922 444l85-23-73-64-12 87z" fill="#6060AC" stroke="#6060AC"/><path d="M929 296l-59-87-6 91 65-4zm-136-86l-15-75-65 69 80 6zm151 300l63-89-85 23 22 66z" fill="#3F3F71" stroke="#3F3F71"/><path d="M934 357l79-66-84 5 5 61z" fill="#35355F" stroke="#35355F"/><path d="M500 360l2 71 74-59-76-12zm71 79l-64 71 69 1-5-72z" fill="#6665B6" stroke="#6665B6"/><path d="M850 589l99-19-98-55-1 74z" fill="#4F4F8E" stroke="#4F4F8E"/><path d="M944 510l60 3 3-92-63 89z" fill="#3A3A68" stroke="#3A3A68"/><path d="M1013 291l-73-73-11 78 84-5z" fill="#4A4A84" stroke="#4A4A84"/><path d="M929 296l11-78-70-9 59 87z" fill="#555598" stroke="#555598"/><path d="M1007 421l8-48-81-16 73 64z" fill="#35355F" stroke="#35355F"/><path d="M497 300l3 60 77-70-80 10z" fill="#4F4F8E" stroke="#4F4F8E"/><path d="M577 290l-77 70 76 12 1-82z" fill="#555598" stroke="#555598"/><path d="M710 661h76l-78-72 2 72z" fill="#4F4F8E" stroke="#4F4F8E"/><path d="M708 589l78 72 19-84-97 12z" fill="#6665B6" stroke="#6665B6"/><path d="M850 589l15 53 84-72-99 19z" fill="#3A3A68" stroke="#3A3A68"/><path d="M574 660l85-15-2-61-83 76z" fill="#6665B6" stroke="#6665B6"/><path d="M657 584l2 61 49-56-51-5z" fill="#6665B6" stroke="#6665B6"/><path d="M563 582l94 2-81-73-13 71z" fill="#3F3F71" stroke="#3F3F71"/><path d="M864 143l-71 67 77-1-6-66z" fill="#45457B" stroke="#45457B"/><path d="M864 143l-86-8 15 75 71-67zm-151 61l-54-73-15 92 69-19z" fill="#45457B" stroke="#45457B"/><path d="M786 661l79-19-15-53-64 72z" fill="#4A4A84" stroke="#4A4A84"/><path d="M659 645l51 16-2-72-49 56z" fill="#555598" stroke="#555598"/><path d="M507 510l56 72 13-71-69-1z" fill="#4A4A84" stroke="#4A4A84"/><path d="M778 135l-68-1 3 70 65-69z" fill="#303056" stroke="#303056"/><path d="M644 223l-79-15 12 82 67-67z" fill="#35355F" stroke="#35355F"/><path d="M659 131l-94 77 79 15 15-92z" fill="#6665B6" stroke="#6665B6"/><path d="M949 570l55-57-60-3 5 60z" fill="#303056" stroke="#303056"/><path d="M1007 421l61 12-53-60-8 48z" fill="#555598" stroke="#555598"/><path d="M502 431l5 79 64-71-69-8z" fill="#303056" stroke="#303056"/><path d="M934 130l-70 13 6 66 64-79z" fill="#35355F" stroke="#35355F"/><path d="M1015 373l-2-82-79 66 81 16z" fill="#303056" stroke="#303056"/><path d="M508 211l-11 89 80-10-69-79z" fill="#3F3F71" stroke="#3F3F71"/><path d="M500 360l-63 65 65 6-2-71z" fill="#3A3A68" stroke="#3A3A68"/><path d="M727 65l-68 66 51 3 17-69z" fill="#303056" stroke="#303056"/><path d="M710 134l-51-3 54 73-3-70z" fill="#3A3A68" stroke="#3A3A68"/><path d="M863 720l60-65-58-13-2 78z" fill="#45457B" stroke="#45457B"/><path d="M865 642l58 13 26-85-84 72z" fill="#45457B" stroke="#45457B"/><path d="M949 570l70 18-15-75-55 57z" fill="#3F3F71" stroke="#3F3F71"/><path d="M440 583l71 2-4-75-67 73z" fill="#6665B6" stroke="#6665B6"/><path d="M507 510l4 75 52-3-56-72z" fill="#6665B6" stroke="#6665B6"/><path d="M563 582l11 78 83-76-94-2zm-57-443l2 72 57-3-59-69z" fill="#3A3A68" stroke="#3A3A68"/><path d="M565 208l-57 3 69 79-12-82zm504 301l-1-76-64 80 65-4z" fill="#3A3A68" stroke="#3A3A68"/><path d="M1004 513l64-80-61-12-3 92z" fill="#4A4A84" stroke="#4A4A84"/><path d="M1015 373l78-15-80-67 2 82zm76-93l-76-64-2 75 78-11z" fill="#555598" stroke="#555598"/><path d="M1013 291l2-75-75 2 73 73z" fill="#555598" stroke="#555598"/><path d="M940 218l-6-88-64 79 70 9zM515 659l59 1-11-78-48 77z" fill="#6665B6" stroke="#6665B6"/><path d="M658 720h69l-17-59-52 59z" fill="#6060AC" stroke="#6060AC"/><path d="M444 300l-4 53 57-53h-53z" fill="#6665B6" stroke="#6665B6"/><path d="M497 300l-57 53 60 7-3-60z" fill="#5B5AA2" stroke="#5B5AA2"/><path d="M502 431l-65-6 70 85-5-79z" fill="#35355F" stroke="#35355F"/><path d="M440 353l-3 72 63-65-60-7z" fill="#303056" stroke="#303056"/><path d="M658 720l52-59-51-16-1 75z" fill="#45457B" stroke="#45457B"/><path d="M710 661l17 59 59-59h-76z" fill="#6665B6" stroke="#6665B6"/><path d="M786 661l77 59 2-78-79 19z" fill="#555598" stroke="#555598"/><path d="M1021 141l-87-11 6 88 81-77z" fill="#303056" stroke="#303056"/><path d="M864 143l-78-74-8 66 86 8z" fill="#35355F" stroke="#35355F"/><path d="M778 135l-51-70-17 69 68 1z" fill="#3F3F71" stroke="#3F3F71"/><path d="M727 720h61l-2-59-59 59z" fill="#555598" stroke="#555598"/><path d="M1012 647l7-59-70-18 63 77z" fill="#35355F" stroke="#35355F"/><path d="M436 213l8 87h53l-61-87z" fill="#4A4A84" stroke="#4A4A84"/><path d="M659 131l-93 1-1 76 94-77z" fill="#303056" stroke="#303056"/><path d="M1019 588l50-79-65 4 15 75zM868 68l-82 1 78 74 4-75z" fill="#6665B6" stroke="#6665B6"/><path d="M659 131l-72-56-21 57 93-1z" fill="#3F3F71" stroke="#3F3F71"/><path d="M786 69l-59-4 51 70 8-66zM574 660l84 60 1-75-85 15zm214 60h75l-77-59 2 59z" fill="#6665B6" stroke="#6665B6"/><path d="M923 655l89-8-63-77-26 85z" fill="#6060AC" stroke="#6060AC"/><path d="M1142 370l-49-12-25 75 74-63z" fill="#4A4A84" stroke="#4A4A84"/><path d="M1068 433l25-75-78 15 53 60z" fill="#303056" stroke="#303056"/><path d="M934 130l-66-62-4 75 70-13z" fill="#6060AC" stroke="#6060AC"/><path d="M786 69L724 0l3 65 59 4z" fill="#35355F" stroke="#35355F"/><path d="M363 436l57 72 17-83-74 11z" fill="#5B5AA2" stroke="#5B5AA2"/><path d="M437 425l-17 83 87 2-70-85z" fill="#555598" stroke="#555598"/><path d="M511 585l4 74 48-77-52 3z" fill="#6665B6" stroke="#6665B6"/><path d="M363 436l74-11-84-56 10 67z" fill="#555598" stroke="#555598"/><path d="M1093 358l-2-78-78 11 80 67z" fill="#4F4F8E" stroke="#4F4F8E"/><path d="M1015 216l6-75-81 77 75-2zM438 636l77 23-4-74-73 51z" fill="#555598" stroke="#555598"/><path d="M574 660l-5 60h89l-84-60zm445-72l70-19-20-60-50 79z" fill="#4F4F8E" stroke="#4F4F8E"/><path d="M999 720l13-73-89 8 76 65z" fill="#6665B6" stroke="#6665B6"/><path d="M653 0l-13 63 87 2-74-65z" fill="#6060AC" stroke="#6060AC"/><path d="M727 65l-87-2 19 68 68-66z" fill="#3F3F71" stroke="#3F3F71"/><path d="M503 82l3 57 60-7-63-50z" fill="#555598" stroke="#555598"/><path d="M566 132l-60 7 59 69 1-76z" fill="#3A3A68" stroke="#3A3A68"/><path d="M508 211l-72 2 61 87 11-89z" fill="#303056" stroke="#303056"/><path d="M640 63l-53 12 72 56-19-68z" fill="#3F3F71" stroke="#3F3F71"/><path d="M420 508l20 75 67-73-87-2z" fill="#6665B6" stroke="#6665B6"/><path d="M863 720h75l-15-65-60 65z" fill="#45457B" stroke="#45457B"/><path d="M1083 206l-62-65-6 75 68-10z" fill="#6060AC" stroke="#6060AC"/><path d="M934 130l9-59-75-3 66 62z" fill="#3F3F71" stroke="#3F3F71"/><path d="M434 152l2 61 72-2-74-59z" fill="#4A4A84" stroke="#4A4A84"/><path d="M353 369l84 56 3-72-87 16z" fill="#3A3A68" stroke="#3A3A68"/><path d="M516 720h53l-54-61 1 61z" fill="#6060AC" stroke="#6060AC"/><path d="M515 659l54 61 5-60-59-1z" fill="#5B5AA2" stroke="#5B5AA2"/><path d="M1074 635l15-66-70 19 55 47z" fill="#3F3F71" stroke="#3F3F71"/><path d="M1152 427l-10-57-74 63 84-6z" fill="#5B5AA2" stroke="#5B5AA2"/><path d="M995 79l-52-8-9 59 61-51z" fill="#45457B" stroke="#45457B"/><path d="M1091 280l-8-74-68 10 76 64z" fill="#303056" stroke="#303056"/><path d="M1152 427l-84 6 81 59 3-65z" fill="#35355F" stroke="#35355F"/><path d="M1093 358l60-58-62-20 2 78z" fill="#303056" stroke="#303056"/><path d="M1091 280l74-59-82-15 8 74z" fill="#4F4F8E" stroke="#4F4F8E"/><path d="M1012 647l62-12-55-47-7 59z" fill="#5B5AA2" stroke="#5B5AA2"/><path d="M1149 492l-81-59 1 76 80-17z" fill="#4A4A84" stroke="#303056"/><path d="M1084 720l-10-85-62 12 72 73z" fill="#5B5AA2" stroke="#5B5AA2"/><path d="M370 284l70 69 4-53-74-16z" fill="#35355F" stroke="#35355F"/><path d="M420 508l-68 56 88 19-20-75zm729-16l-80 17 20 60 60-77z" fill="#303056" stroke="#303056"/><path d="M361 648l77-12 2-53-79 65z" fill="#4A4A84" stroke="#4A4A84"/><path d="M440 583l-2 53 73-51-71-2z" fill="#35355F" stroke="#35355F"/><path d="M1021 141l-26-62-61 51 87 11z" fill="#4F4F8E" stroke="#4F4F8E"/><path d="M1084 65l-89 14 26 62 63-76z" fill="#3A3A68" stroke="#3A3A68"/><path d="M804 0l64 68-8-68h-56z" fill="#4A4A84" stroke="#4A4A84"/><path d="M804 0l-18 69 82-1-64-68z" fill="#45457B" stroke="#45457B"/><path d="M804 0h-80l62 69 18-69z" fill="#6060AC" stroke="#6060AC"/><path d="M640 63L588 0l-1 75 53-12z" fill="#45457B" stroke="#45457B"/><path d="M424 720h92l-1-61-91 61zm514 0h61l-76-65 15 65z" fill="#5B5AA2" stroke="#5B5AA2"/><path d="M860 0l8 68 70-68h-78z" fill="#303056" stroke="#303056"/><path d="M1141 589l8-97-60 77 52 20z" fill="#6665B6" stroke="#6665B6"/><path d="M436 213l-66 71 74 16-8-87z" fill="#6060AC" stroke="#6060AC"/><path d="M370 284l-17 85 87-16-70-69z" fill="#45457B" stroke="#45457B"/><path d="M587 75l-84 7 63 50 21-57z" fill="#5B5AA2" stroke="#5B5AA2"/><path d="M506 139l-72 13 74 59-2-72z" fill="#555598" stroke="#555598"/><path d="M436 213l-90 14 24 57 66-71z" fill="#6060AC" stroke="#6060AC"/><path d="M514 0l-11 82 84-7-73-75z" fill="#35355F" stroke="#35355F"/><path d="M432 80l2 72 72-13-74-59z" fill="#4A4A84" stroke="#4A4A84"/><path d="M352 564l12-55-74-11 62 66z" fill="#303056" stroke="#303056"/><path d="M363 436l1 73 56-1-57-72zm847-78l-57-58-11 70 68-12z" fill="#4A4A84" stroke="#4A4A84"/><path d="M1142 370l11-70-60 58 49 12z" fill="#4F4F8E" stroke="#4F4F8E"/><path d="M1083 206l7-65h-69l62 65z" fill="#303056" stroke="#303056"/><path d="M938 0l-70 68 75 3-5-71z" fill="#6665B6" stroke="#6665B6"/><path d="M724 0h-71l74 65-3-65z" fill="#6060AC" stroke="#6060AC"/><path d="M1148 131l-58 10-7 65 65-75z" fill="#45457B" stroke="#45457B"/><path d="M1160 659l-19-70-67 46 86 24z" fill="#35355F" stroke="#35355F"/><path d="M1074 635l67-46-52-20-15 66z" fill="#3A3A68" stroke="#3A3A68"/><path d="M653 0h-65l52 63 13-63z" fill="#4F4F8E" stroke="#4F4F8E"/><path d="M364 509l-12 55 68-56-56 1z" fill="#6060AC" stroke="#6060AC"/><path d="M438 636l-14 84 91-61-77-23z" fill="#45457B" stroke="#45457B"/><path d="M290 498l74 11-1-73-73 62z" fill="#3F3F71" stroke="#3F3F71"/><path d="M1013 0h-75l57 79 18-79z" fill="#6060AC" stroke="#6060AC"/><path d="M995 79L938 0l5 71 52 8z" fill="#303056" stroke="#303056"/><path d="M1153 300l12-79-74 59 62 20z" fill="#5B5AA2" stroke="#5B5AA2"/><path d="M1222 288l-57-67-12 79 69-12z" fill="#35355F" stroke="#35355F"/><path d="M1210 358l-68 12 10 57 58-69z" fill="#45457B" stroke="#45457B"/><path d="M348 157l88 56-2-61-86 5z" fill="#555598" stroke="#555598"/><path d="M348 157l-2 70 90-14-88-56z" fill="#35355F" stroke="#35355F"/><path d="M370 284l-74 1 57 84 17-85z" fill="#4A4A84" stroke="#4A4A84"/><path d="M353 369l-63 75 73-8-10-67z" fill="#3A3A68" stroke="#3A3A68"/><path d="M432 80l74 59-3-57-71-2z" fill="#4F4F8E" stroke="#4F4F8E"/><path d="M1233 441l-81-14-3 65 84-51z" fill="#4F4F8E" stroke="#303056"/><path d="M1233 441l-23-83-58 69 81 14zM426 0l6 80 71 2-77-82z" fill="#303056" stroke="#303056"/><path d="M999 720h85l-72-73-13 73z" fill="#6060AC" stroke="#6060AC"/><path d="M361 648l63 72 14-84-77 12z" fill="#4A4A84" stroke="#4A4A84"/><path d="M588 0h-74l73 75 1-75zM352 564l9 84 79-65-88-19z" fill="#3F3F71" stroke="#3F3F71"/><path d="M1090 141l-6-76-63 76h69z" fill="#6060AC" stroke="#6060AC"/><path d="M1148 131l-64-66 6 76 58-10z" fill="#3A3A68" stroke="#3A3A68"/><path d="M278 360l12 84 63-75-75-9z" fill="#4A4A84" stroke="#4A4A84"/><path d="M352 564l-52 79 61 5-9-84z" fill="#3A3A68" stroke="#3A3A68"/><path d="M1231 142l-83-11 17 90 66-79z" fill="#5B5AA2" stroke="#5B5AA2"/><path d="M1165 221l-17-90-65 75 82 15z" fill="#5B5AA2" stroke="#5B5AA2"/><path d="M1084 65l-71-65-18 79 89-14z" fill="#3F3F71" stroke="#3F3F71"/><path d="M292 217l4 68 50-58-54-10z" fill="#6060AC" stroke="#6060AC"/><path d="M346 227l-50 58 74-1-24-57z" fill="#6665B6" stroke="#6665B6"/><path d="M373 61l-25 96 84-77-59-19z" fill="#3A3A68" stroke="#3A3A68"/><path d="M432 80l-84 77 86-5-2-72z" fill="#303056" stroke="#303056"/><path d="M290 444v54l73-62-73 8z" fill="#35355F" stroke="#35355F"/><path d="M1230 513l-81-21 68 80 13-59z" fill="#6665B6" stroke="#6665B6"/><path d="M1230 513l3-72-84 51 81 21z" fill="#3F3F71" stroke="#3F3F71"/><path d="M1210 358l12-70-69 12 57 58z" fill="#5B5AA2" stroke="#5B5AA2"/><path d="M1283 365l-61-77-12 70 73 7z" fill="#3A3A68" stroke="#3A3A68"/><path d="M1084 720l76-61-86-24 10 85z" fill="#555598" stroke="#555598"/><path d="M296 285l-18 75 75 9-57-84z" fill="#3A3A68" stroke="#3A3A68"/><path d="M290 444l-71 69 71-15v-54z" fill="#35355F" stroke="#35355F"/><path d="M1217 572l-68-80-8 97 76-17z" fill="#4A4A84" stroke="#4A4A84"/><path d="M1223 642l-6-70-76 17 82 53z" fill="#3F3F71" stroke="#3F3F71"/><path d="M348 157l-56 60 54 10 2-70z" fill="#35355F" stroke="#35355F"/><path d="M296 285l-85 66 67 9 18-75z" fill="#3F3F71" stroke="#3F3F71"/><path d="M1222 288l4-63-61-4 57 67z" fill="#35355F" stroke="#35355F"/><path d="M1284 224l-58 1-4 63 62-64z" fill="#4F4F8E" stroke="#4F4F8E"/><path d="M219 513l66 54 5-69-71 15z" fill="#3F3F71" stroke="#3F3F71"/><path d="M290 498l-5 69 67-3-62-66z" fill="#4A4A84" stroke="#4A4A84"/><path d="M361 648l11 72h52l-63-72z" fill="#35355F" stroke="#35355F"/><path d="M300 720h72l-11-72-61 72z" fill="#4A4A84" stroke="#4A4A84"/><path d="M1084 720h66l10-61-76 61z" fill="#5B5AA2" stroke="#5B5AA2"/><path d="M1160 659l63-17-82-53 19 70z" fill="#3F3F71" stroke="#3F3F71"/><path d="M426 0l-53 61 59 19-6-80z" fill="#6060AC" stroke="#6060AC"/><path d="M348 157l-51-8-5 68 56-60z" fill="#5B5AA2" stroke="#5B5AA2"/><path d="M1214 85l-61-16-5 62 66-46z" fill="#4A4A84" stroke="#4A4A84"/><path d="M1148 131l5-62-69-4 64 66z" fill="#5B5AA2" stroke="#5B5AA2"/><path d="M1084 65l3-65h-74l71 65z" fill="#4F4F8E" stroke="#4F4F8E"/><path d="M285 567l15 76 52-79-67 3z" fill="#5B5AA2" stroke="#5B5AA2"/><path d="M1153 69l-66-69-3 65 69 4z" fill="#555598" stroke="#555598"/><path d="M514 0h-88l77 82 11-82z" fill="#6665B6" stroke="#6665B6"/><path d="M283 84l14 65 51 8-65-73z" fill="#4A4A84" stroke="#4A4A84"/><path d="M212 274l-1 77 85-66-84-11z" fill="#3A3A68" stroke="#3A3A68"/><path d="M1220 720l3-78-63 17 60 61z" fill="#3F3F71" stroke="#3F3F71"/><path d="M1306 506l-19-61-57 68 76-7z" fill="#3A3A68" stroke="#3A3A68"/><path d="M1287 445l-4-80-50 76 54 4z" fill="#4A4A84" stroke="#4A4A84"/><path d="M1233 441l50-76-73-7 23 83zm54 4l-54-4-3 72 57-68z" fill="#5B5AA2" stroke="#5B5AA2"/><path d="M1306 506l-76 7 68 64 8-71z" fill="#6665B6" stroke="#6665B6"/><path d="M1226 225l5-83-66 79 61 4z" fill="#555598" stroke="#555598"/><path d="M1153 69l7-69h-73l66 69z" fill="#6060AC" stroke="#6060AC"/><path d="M1284 224l-53-82-5 83 58-1zM212 274l84 11-4-68-80 57z" fill="#3A3A68" stroke="#3A3A68"/><path d="M278 360l-71 75 83 9-12-84z" fill="#303056" stroke="#303056"/><path d="M285 567l-77 93 92-17-15-76z" fill="#35355F" stroke="#35355F"/><path d="M207 435l12 78 71-69-83-9z" fill="#555598" stroke="#555598"/><path d="M211 351l-4 84 71-75-67-9z" fill="#4A4A84" stroke="#4A4A84"/><path d="M1360 280l-62-2-15 87 77-85z" fill="#6060AC" stroke="#6060AC"/><path d="M1283 365l15-87-76 10 61 77z" fill="#3A3A68" stroke="#3A3A68"/><path d="M1301 82l-87 3 17 57 70-60z" fill="#6665B6" stroke="#6665B6"/><path d="M1231 142l-17-57-66 46 83 11z" fill="#4A4A84" stroke="#4A4A84"/><path d="M1298 278l-14-54-62 64 76-10z" fill="#45457B" stroke="#45457B"/><path d="M222 720h78v-77l-78 77z" fill="#555598" stroke="#555598"/><path d="M300 643v77l61-72-61-5z" fill="#6060AC" stroke="#6060AC"/><path d="M217 205l-5 69 80-57-75-12z" fill="#303056" stroke="#303056"/><path d="M211 351l-70 2 66 82 4-84z" fill="#45457B" stroke="#45457B"/><path d="M1298 577l-68-64-13 59 81 5z" fill="#555598" stroke="#555598"/><path d="M1381 418l-1-58-97 5 98 53z" fill="#4A4A84" stroke="#4A4A84"/><path d="M426 0h-62l9 61 53-61zm-53 61l-90 23 65 73 25-96zm-76 88l-80 56 75 12 5-68zm853 571h70l-60-61-10 61z" fill="#3A3A68" stroke="#3A3A68"/><path d="M1223 642l75-65-81-5 6 70z" fill="#555598" stroke="#555598"/><path d="M1211 0h-51l-7 69 58-69z" fill="#5B5AA2" stroke="#5B5AA2"/><path d="M287 0l-4 84 90-23-86-61z" fill="#303056" stroke="#303056"/><path d="M1296 657l2-80-75 65 73 15z" fill="#5B5AA2" stroke="#5B5AA2"/><path d="M214 143l3 62 80-56-83-6z" fill="#4A4A84" stroke="#4A4A84"/><path d="M143 516l64 50 12-53-76 3z" fill="#6665B6" stroke="#6665B6"/><path d="M219 513l-12 53 78 1-66-54z" fill="#555598" stroke="#555598"/><path d="M1284 224l10-72-63-10 53 82z" fill="#303056" stroke="#303056"/><path d="M1214 85l-3-85-58 69 61 16z" fill="#5B5AA2" stroke="#5B5AA2"/><path d="M1377 205l-83-53-10 72 93-19z" fill="#6665B6" stroke="#6665B6"/><path d="M1360 280l-76-56 14 54 62 2z" fill="#35355F" stroke="#35355F"/><path d="M1220 720l76-63-73-15-3 78z" fill="#5B5AA2" stroke="#5B5AA2"/><path d="M1370 563l-8-67-56 10 64 57z" fill="#4A4A84" stroke="#4A4A84"/><path d="M213 85l1 58 69-59-70 1z" fill="#303056" stroke="#303056"/><path d="M283 84l-69 59 83 6-14-65z" fill="#3A3A68" stroke="#3A3A68"/><path d="M151 208l1 68 60-2-61-66z" fill="#35355F" stroke="#35355F"/><path d="M212 274l-60 2 59 75 1-77z" fill="#45457B" stroke="#45457B"/><path d="M1301 0h-90l3 85 87-85z" fill="#4A4A84" stroke="#4A4A84"/><path d="M207 566l1 94 77-93-78-1z" fill="#6060AC" stroke="#6060AC"/><path d="M1370 563l-64-57-8 71 72-14z" fill="#35355F" stroke="#35355F"/><path d="M1306 506l56-10-75-51 19 61z" fill="#6060AC" stroke="#6060AC"/><path d="M1380 360l-20-80-77 85 97-5z" fill="#5B5AA2" stroke="#5B5AA2"/><path d="M364 0h-77l86 61-9-61z" fill="#3A3A68" stroke="#3A3A68"/><path d="M151 208l61 66 5-69-66 3zm56 227l-64 81 76-3-12-78z" fill="#4A4A84" stroke="#4A4A84"/><path d="M207 566l-52 79 53 15-1-94z" fill="#35355F" stroke="#35355F"/><path d="M152 276l-11 77 70-2-59-75z" fill="#6665B6" stroke="#6665B6"/><path d="M141 353l-6 87 72-5-66-82z" fill="#35355F" stroke="#35355F"/><path d="M149 720h73l-14-60-59 60z" fill="#5B5AA2" stroke="#5B5AA2"/><path d="M208 660l14 60 78-77-92 17z" fill="#6665B6" stroke="#6665B6"/><path d="M1381 418l-98-53 4 80 94-27z" fill="#303056" stroke="#303056"/><path d="M1362 496l19-78-94 27 75 51z" fill="#6665B6" stroke="#6665B6"/><path d="M135 440l8 76 64-81-72 5z" fill="#45457B" stroke="#45457B"/><path d="M225 0l-12 85 70-1-58-84z" fill="#4A4A84" stroke="#4A4A84"/><path d="M214 143l-63 65 66-3-3-62z" fill="#35355F" stroke="#35355F"/><path d="M1379 148l-78-66-7 70 85-4z" fill="#45457B" stroke="#45457B"/><path d="M1294 152l7-70-70 60 63 10z" fill="#303056" stroke="#303056"/><path d="M1361 635l9-72-72 14 63 58z" fill="#4A4A84" stroke="#4A4A84"/><path d="M1440 513v-95h-59l59 95z" fill="#6665B6" stroke="#6665B6"/><path d="M82 563l64 9-3-56-61 47z" fill="#303056" stroke="#303056"/><path d="M143 516l3 56 61-6-64-50z" fill="#35355F" stroke="#35355F"/><path d="M1220 720h85l-9-63-76 63z" fill="#4A4A84" stroke="#4A4A84"/><path d="M1296 657l65-22-63-58-2 80z" fill="#303056" stroke="#303056"/><path d="M65 347l2 95 74-89-76-6zm87-205l-1 66 63-65-62-1zm1209 578v-85l-65 22 65 63z" fill="#6665B6" stroke="#6665B6"/><path d="M1440 228l-63-23-17 75 80-52z" fill="#4F4F8E" stroke="#4F4F8E"/><path d="M1360 280l17-75-93 19 76 56z" fill="#5B5AA2" stroke="#5B5AA2"/><path d="M146 572l9 73 52-79-61 6z" fill="#3A3A68" stroke="#3A3A68"/><path d="M142 78l10 64 61-57-71-7z" fill="#4A4A84" stroke="#4A4A84"/><path d="M213 85l-61 57 62 1-1-58z" fill="#303056" stroke="#303056"/><path d="M65 347l76 6-80-58 4 52z" fill="#4A4A84" stroke="#4A4A84"/><path d="M141 353l-74 89 68-2 6-87z" fill="#3F3F71" stroke="#3F3F71"/><path d="M287 0h-62l58 84 4-84z" fill="#555598" stroke="#555598"/><path d="M1377 205l2-57-85 4 83 53zm-76-123V0l-87 85 87-3z" fill="#6665B6" stroke="#6665B6"/><path d="M1440 130l-61 18-2 57 63-75zm0 167l-80-17 20 80 60-63z" fill="#5B5AA2" stroke="#5B5AA2"/><path d="M1368 63l-67-63v82l67-19z" fill="#35355F" stroke="#35355F"/><path d="M1440 513l-59-95-19 78 78 17z" fill="#45457B" stroke="#6665B6"/><path d="M1381 418l59-57-60-1 1 58z" fill="#3F3F71" stroke="#3F3F71"/><path d="M1440 513l-78-17 8 67 70-50z" fill="#4A4A84" stroke="#4A4A84"/><path d="M1305 720h56l-65-63 9 63z" fill="#3A3A68" stroke="#3A3A68"/><path d="M1440 573v-60l-70 50 70 10z" fill="#5B5AA2" stroke="#5B5AA2"/><path d="M1440 418v-57l-59 57h59z" fill="#45457B" stroke="#45457B"/><path d="M73 720h76l6-75-82 75z" fill="#303056" stroke="#303056"/><path d="M155 645l-6 75 59-60-53-15z" fill="#4F4F8E" stroke="#4F4F8E"/><path d="M64 647l91-2-9-73-82 75z" fill="#5B5AA2" stroke="#5B5AA2"/><path d="M1440 361v-64l-60 63 60 1z" fill="#35355F" stroke="#35355F"/><path d="M141 353l11-77-91 19 80 58z" fill="#303056" stroke="#303056"/><path d="M135 440l-68 77 76-1-8-76z" fill="#5B5AA2" stroke="#5B5AA2"/><path d="M1440 573l-70-10-9 72 79-62z" fill="#6060AC" stroke="#6060AC"/><path d="M225 0l-83 78 71 7 12-85z" fill="#6665B6" stroke="#6665B6"/><path d="M61 295l91-19-90-47-1 66z" fill="#45457B" stroke="#45457B"/><path d="M152 276l-1-68-89 21 90 47z" fill="#4F4F8E" stroke="#4F4F8E"/><path d="M67 517l15 46 61-47-76 1z" fill="#4A4A84" stroke="#4A4A84"/><path d="M1440 130l-72-67 11 85 61-18z" fill="#6665B6" stroke="#6665B6"/><path d="M1379 148l-11-85-67 19 78 66z" fill="#3A3A68" stroke="#3A3A68"/><path d="M0 506l67 11v-75L0 506z" fill="#555598" stroke="#555598"/><path d="M67 442v75l68-77-68 2z" fill="#35355F" stroke="#35355F"/><path d="M62 229l89-21-93-75 4 96z" fill="#45457B" stroke="#45457B"/><path d="M65 347L0 419l67 23-2-95z" fill="#3A3A68" stroke="#3A3A68"/><path d="M1440 297v-69l-80 52 80 17z" fill="#35355F" stroke="#35355F"/><path d="M1440 656v-83l-79 62 79 21z" fill="#303056" stroke="#303056"/><path d="M58 133l93 75 1-66-94-9z" fill="#3A3A68" stroke="#3A3A68"/><path d="M1361 720l79-64-79-21v85z" fill="#45457B" stroke="#45457B"/><path d="M1440 0h-72v63l72-63z" fill="#555598" stroke="#555598"/><path d="M1368 63V0h-67l67 63z" fill="#6665B6" stroke="#6665B6"/><path d="M1440 228v-98l-63 75 63 23z" fill="#45457B" stroke="#45457B"/><path d="M82 563l-18 84 82-75-64-9z" fill="#5B5AA2" stroke="#5B5AA2"/><path d="M0 589l64 58 18-84-82 26z" fill="#4F4F8E" stroke="#4F4F8E"/><path d="M0 589l82-26-15-46-67 72z" fill="#303056" stroke="#303056"/><path d="M225 0h-90l7 78 83-78zm-83 78l-84 55 94 9-10-64z" fill="#4F4F8E" stroke="#4F4F8E"/><path d="M63 60l-5 73 84-55-79-18z" fill="#303056" stroke="#303056"/><path d="M0 364l65-17-65-46v63z" fill="#6060AC" stroke="#6060AC"/><path d="M0 364v55l65-72-65 17zm1361 356h79v-64l-79 64z" fill="#6060AC" stroke="#6060AC"/><path d="M64 647l9 73 82-75-91 2z" fill="#35355F" stroke="#35355F"/><path d="M65 347l-4-52-61 6 65 46z" fill="#303056" stroke="#303056"/><path d="M64 647L0 720h73l-9-73zm1376-517V72l-72-9 72 67z" fill="#4A4A84" stroke="#4A4A84"/><path d="M0 301l61-6-61-69v75z" fill="#35355F" stroke="#35355F"/><path d="M0 226l61 69 1-66-62-3z" fill="#303056" stroke="#303056"/><path d="M0 419v87l67-64-67-23z" fill="#555598" stroke="#555598"/><path d="M135 0L63 60l79 18-7-78z" fill="#3A3A68" stroke="#3A3A68"/><path d="M58 133L0 226l62 3-4-96z" fill="#3F3F71" stroke="#3F3F71"/><path d="M0 130v96l58-93-58-3z" fill="#3A3A68" stroke="#3A3A68"/><path d="M0 506v83l67-72-67-11zM1440 72V0l-72 63 72 9z" fill="#555598" stroke="#555598"/><path d="M0 589v46l64 12-64-58zM135 0H62l1 60 72-60z" fill="#3A3A68" stroke="#3A3A68"/><path d="M0 60v70l58 3L0 60z" fill="#4F4F8E" stroke="#4F4F8E"/><path d="M0 60l58 73 5-73H0z" fill="#6665B6" stroke="#6665B6"/><path d="M0 635v85l64-73-64-12z" fill="#555598" stroke="#555598"/><path d="M62 0L0 60h63L62 0z" fill="#35355F" stroke="#35355F"/><path d="M62 0H0v60L62 0z" fill="#6665B6" stroke="#6665B6"/></g><defs><clipPath id="clip0_623_50670"><path fill="#fff" d="M0 0h1440v720H0z"/></clipPath></defs></svg>