<svg style="display: none;" xmlns="http://www.w3.org/2000/svg">
    <symbol id="facebook" viewBox="0 0 48 48">
        <g>
            <path id="Vector" d="M25.6025 39.9998V25.4031H30.502L31.2355 19.7145H25.6025V16.0825C25.6025 14.4356 26.0599 13.3131 28.4218 13.3131L31.4341 13.3117V8.22391C30.9129 8.15484 29.1249 8 27.0446 8C22.7015 8 19.7281 10.6509 19.7281 15.5194V19.7147H14.8159V25.4033H19.728V40L25.6025 39.9998Z" />
        </g>
    </symbol>

    <symbol id="instagram" viewBox="0 0 48 48"> 
    <g>
        <path id="Vector" d="M19.0014 24C19.0014 21.2387 21.2393 18.9996 24.0006 18.9996C26.7619 18.9996 29.001 21.2387 29.001 24C29.001 26.7613 26.7619 29.0004 24.0006 29.0004C21.2393 29.0004 19.0014 26.7613 19.0014 24ZM16.2983 24C16.2983 28.254 19.7466 31.7023 24.0006 31.7023C28.2546 31.7023 31.7029 28.254 31.7029 24C31.7029 19.746 28.2546 16.2977 24.0006 16.2977C19.7466 16.2977 16.2983 19.746 16.2983 24ZM30.2078 15.9923C30.2077 16.3483 30.3131 16.6963 30.5108 16.9924C30.7085 17.2885 30.9895 17.5193 31.3184 17.6557C31.6472 17.7921 32.0091 17.8279 32.3583 17.7586C32.7075 17.6892 33.0283 17.5179 33.2801 17.2663C33.532 17.0147 33.7035 16.694 33.7731 16.3449C33.8427 15.9957 33.8072 15.6338 33.6711 15.3048C33.535 14.9759 33.3044 14.6947 33.0085 14.4968C32.7125 14.2989 32.3646 14.1931 32.0086 14.193H32.0078C31.5307 14.1932 31.0731 14.3828 30.7356 14.7202C30.3981 15.0576 30.2083 15.5151 30.2078 15.9923ZM17.9406 36.2096C16.4782 36.143 15.6833 35.8994 15.155 35.6936C14.4547 35.421 13.955 35.0963 13.4297 34.5716C12.9043 34.047 12.5791 33.5478 12.3077 32.8475C12.1018 32.3195 11.8582 31.5244 11.7917 30.0619C11.719 28.4808 11.7045 28.0058 11.7045 24.0001C11.7045 19.9944 11.7202 19.5208 11.7917 17.9383C11.8583 16.4759 12.1037 15.6823 12.3077 15.1528C12.5803 14.4524 12.9051 13.9528 13.4297 13.4274C13.9543 12.902 14.4535 12.5768 15.155 12.3054C15.683 12.0995 16.4782 11.8559 17.9406 11.7894C19.5217 11.7167 19.9967 11.7022 24.0006 11.7022C28.0045 11.7022 28.48 11.7179 30.0624 11.7894C31.5248 11.856 32.3184 12.1014 32.848 12.3054C33.5483 12.5768 34.048 12.9028 34.5733 13.4274C35.0987 13.952 35.4227 14.4524 35.6953 15.1528C35.9012 15.6808 36.1448 16.4759 36.2113 17.9383C36.284 19.5208 36.2986 19.9944 36.2986 24.0001C36.2986 28.0058 36.284 28.4795 36.2113 30.0619C36.1447 31.5244 35.8999 32.3192 35.6953 32.8475C35.4227 33.5478 35.098 34.0475 34.5733 34.5716C34.0487 35.0958 33.5483 35.421 32.848 35.6936C32.32 35.8996 31.5248 36.1432 30.0624 36.2096C28.4813 36.2824 28.0063 36.2969 24.0006 36.2969C19.9949 36.2969 19.5212 36.2824 17.9406 36.2096ZM17.8164 9.09084C16.2196 9.16356 15.1284 9.41676 14.1755 9.78756C13.1886 10.1705 12.3532 10.6842 11.5183 11.5177C10.6835 12.3512 10.1711 13.188 9.78817 14.1749C9.41737 15.1284 9.16417 16.219 9.09145 17.8158C9.01753 19.4152 9.00061 19.9265 9.00061 24C9.00061 28.0735 9.01753 28.5848 9.09145 30.1842C9.16417 31.7812 9.41737 32.8716 9.78817 33.8251C10.1711 34.8114 10.6836 35.6491 11.5183 36.4823C12.353 37.3154 13.1886 37.8284 14.1755 38.2124C15.1302 38.5832 16.2196 38.8364 17.8164 38.9092C19.4166 38.9819 19.9271 39 24.0006 39C28.0741 39 28.5854 38.9831 30.1848 38.9092C31.7818 38.8364 32.8722 38.5832 33.8257 38.2124C34.812 37.8284 35.648 37.3158 36.4829 36.4823C37.3177 35.6488 37.8291 34.8114 38.213 33.8251C38.5838 32.8716 38.8382 31.781 38.9098 30.1842C38.9825 28.5836 38.9994 28.0735 38.9994 24C38.9994 19.9265 38.9825 19.4152 38.9098 17.8158C38.837 16.2188 38.5838 15.1278 38.213 14.1749C37.8291 13.1886 37.3164 12.3526 36.4829 11.5177C35.6494 10.6829 34.812 10.1705 33.8269 9.78756C32.8722 9.41676 31.7816 9.16236 30.186 9.09084C28.5866 9.01812 28.0753 9 24.0018 9C19.9283 9 19.4166 9.01692 17.8164 9.09084Z" />
    </g>
    </symbol>

    <symbol id="twitter" viewBox="0 0 48 48">
        <g>
            <path id="Path" d="M35.7625 18.8125C35.7625 19.075 35.7625 19.3375 35.7625 19.5625C35.7625 27.325 29.8375 36.2875 19.0375 36.2875C15.7 36.2875 12.625 35.3125 10 33.6625C10.45 33.7 10.9375 33.7375 11.3875 33.7375C14.125 33.7375 16.675 32.8 18.7 31.225C16.1125 31.1875 13.9375 29.4625 13.225 27.1375C13.6 27.2125 13.9375 27.25 14.35 27.25C14.875 27.25 15.4 27.175 15.8875 27.025C13.1875 26.5 11.1625 24.1375 11.1625 21.2875C11.1625 21.25 11.1625 21.25 11.1625 21.2125C11.95 21.6625 12.85 21.925 13.825 21.9625C12.25 20.9125 11.2 19.1125 11.2 17.05C11.2 15.9625 11.5 14.95 11.9875 14.0875C14.875 17.65 19.225 19.975 24.1 20.2375C23.9875 19.825 23.95 19.3375 23.95 18.8875C23.95 15.625 26.575 13 29.8375 13C31.525 13 33.0625 13.7125 34.1125 14.8375C35.4625 14.575 36.7 14.0875 37.8625 13.4125C37.4125 14.8 36.475 15.925 35.275 16.675C36.475 16.525 37.6 16.225 38.65 15.7375C37.9 16.9375 36.925 17.9875 35.7625 18.8125Z" />
     </g>
    </symbol>

    <symbol id="youtube" viewBox="0 0 48 48">
    <g>
        <path id="Exclude" fill-rule="evenodd" clip-rule="evenodd" d="M35.7379 14.1401C37.0229 14.486 38.0361 15.4992 38.3821 16.7842C39.0246 19.1318 38.9999 24.0247 38.9999 24.0247C38.9999 24.0247 38.9999 28.8929 38.3821 31.2405C38.0361 32.5255 37.0229 33.5387 35.7379 33.8846C33.3903 34.5024 23.9999 34.5024 23.9999 34.5024C23.9999 34.5024 14.6342 34.5024 12.2619 33.8599C10.9769 33.5139 9.96375 32.5008 9.61779 31.2158C9 28.8929 9 24 9 24C9 24 9 19.1318 9.61779 16.7842C9.96375 15.4992 11.0016 14.4613 12.2619 14.1153C14.6095 13.4976 23.9999 13.4976 23.9999 13.4976C23.9999 13.4976 33.3903 13.4976 35.7379 14.1401ZM28.8187 24L21.0098 28.4975V19.5025L28.8187 24Z" />
    </g>
    </symbol>
</svg>