<svg width="24" height="24" viewBox="0 0 24 24" fill="none" xmlns="http://www.w3.org/2000/svg">
<rect width="24" height="24" rx="4" fill="url(#paint0_linear_580_143639)"/>
<path d="M17.2518 16.7815L13.1941 6.97119C12.9652 6.46398 12.625 6.21655 12.1765 6.21655H11.8178C11.3693 6.21655 11.0291 6.46398 10.8003 6.97119L9.03427 11.2454H7.69819C7.29922 11.2485 6.97448 11.5702 6.97139 11.9722V11.9815C6.97448 12.3805 7.29922 12.7052 7.69819 12.7083H8.41572L6.73015 16.7815C6.69922 16.8712 6.68066 16.964 6.68066 17.0599C6.68066 17.2887 6.7518 17.4681 6.8786 17.6073C7.00541 17.7465 7.18788 17.8145 7.41675 17.8145C7.56829 17.8114 7.71365 17.765 7.83427 17.6753C7.96417 17.5856 8.05386 17.4557 8.12499 17.3073L9.98066 12.7052H11.2673C11.6662 12.7021 11.991 12.3805 11.9941 11.9784V11.9599C11.991 11.5609 11.6662 11.2361 11.2673 11.233H10.5807L11.9972 7.70418L15.857 17.3042C15.9281 17.4526 16.0178 17.5825 16.1477 17.6722C16.2683 17.7619 16.4167 17.8083 16.5652 17.8114C16.7941 17.8114 16.9734 17.7434 17.1033 17.6042C17.2332 17.465 17.3013 17.2856 17.3013 17.0568C17.3044 16.964 17.2889 16.8681 17.2518 16.7815Z" fill="white"/>
<defs>
<linearGradient id="paint0_linear_580_143639" x1="12" y1="0" x2="0" y2="12" gradientUnits="userSpaceOnUse">
<stop stop-color="#B6509E"/>
<stop offset="1" stop-color="#2EBAC6"/>
</linearGradient>
</defs>
</svg>
