<svg width="64" height="64" fill="none" xmlns="http://www.w3.org/2000/svg"><rect width="64" height="64" rx="4" fill="url(#paint0_linear_574_470749)"/><path d="M46.005 44.75l-10.82-26.16c-.611-1.353-1.518-2.013-2.714-2.013h-.957c-1.196 0-2.103.66-2.713 2.013l-4.71 11.398H20.53a1.952 1.952 0 00-1.939 1.938v.025a1.957 1.957 0 001.939 1.938h1.913L17.947 44.75a2.27 2.27 0 00-.132.742c0 .61.19 1.088.528 1.46.338.37.825.552 1.435.552a1.918 1.918 0 001.114-.37c.346-.24.585-.587.775-.982l4.948-12.273h3.431a1.952 1.952 0 001.938-1.938v-.05a1.957 1.957 0 00-1.938-1.937h-1.83l3.776-9.41 10.293 25.6c.19.395.43.742.776.98.321.24.717.364 1.113.372.61 0 1.089-.181 1.435-.553.346-.37.528-.85.528-1.46a1.73 1.73 0 00-.132-.733z" fill="#fff"/><defs><linearGradient id="paint0_linear_574_470749" x1="32" y1="0" x2="0" y2="32" gradientUnits="userSpaceOnUse"><stop stop-color="#B6509E"/><stop offset="1" stop-color="#2EBAC6"/></linearGradient></defs></svg>