<svg width="64" height="64" fill="none" xmlns="http://www.w3.org/2000/svg"><rect width="64" height="64" rx="4" fill="#D9327C"/><path fill-rule="evenodd" clip-rule="evenodd" d="M30.762 16.878c-.258.206-.568.567-.774 1.238-.207.671-1.342 3.974-2.788 8.104h9.652c-1.445-4.13-2.58-7.433-2.787-8.104-.206-.67-.516-1.032-.774-1.238-.258-.207-.62-.362-1.29-.362-.671 0-.981.155-1.24.362zm-14.246 9.341h6.555c1.6-4.696 2.994-8.619 3.2-9.341.413-1.24 1.084-2.323 2.116-3.097 1.033-.774 2.271-1.136 3.562-1.136 1.29 0 2.529.31 3.56 1.136 1.033.774 1.704 1.858 2.117 3.097.258.722 1.6 4.593 3.2 9.341h6.658a1.96 1.96 0 110 3.923H16.516c-1.083 0-1.91-.877-1.91-1.961s.878-1.962 1.91-1.962zm0 7.742c-1.083 0-1.91.878-1.91 1.962s.878 1.961 1.91 1.961h2.581l-1.032 2.993-1.033 2.994-.412 1.136c-.362 1.032.206 2.116 1.187 2.477 1.032.361 2.116-.206 2.477-1.187l.413-1.136 1.032-2.993c.413-1.239.93-2.684 1.497-4.284h17.652a128.129 128.129 0 001.496 4.284l1.033 2.993.413 1.136a1.916 1.916 0 002.477 1.187 1.916 1.916 0 001.187-2.477l-.413-1.136-1.032-2.994-1.032-2.993h2.58a1.96 1.96 0 100-3.923H16.516zm29.06 11.614l1.806-.62-1.807.62zm-.001 0l-1.807.619 1.807-.62zm-27.099 0l1.807.619-1.806-.62zm.002 0l-1.806-.62 1.806.62z" fill="#fff"/></svg>