<svg width="64" height="64" fill="none" xmlns="http://www.w3.org/2000/svg"><rect width="64" height="64" rx="4" fill="#1E1E1E"/><path opacity=".4" d="M50.205 38.683A6.139 6.139 0 1139.56 44.8L26.677 22.487a6.139 6.139 0 0110.645-6.118l12.883 22.314z" fill="#4BDB4B"/><path opacity=".8" d="M24.443 44.8a6.14 6.14 0 01-10.648-6.118L26.677 16.37a6.14 6.14 0 1110.646 6.118L24.443 44.8z" fill="#4BDB4B"/><path d="M37.286 16.308a6.168 6.168 0 00-.225-.351c-.038-.056-.074-.112-.114-.166a5.739 5.739 0 00-.24-.3c-.05-.06-.098-.122-.15-.18-.074-.082-.152-.158-.23-.236-.077-.077-.136-.137-.207-.202-.072-.065-.14-.118-.21-.176-.088-.073-.176-.147-.27-.215-.063-.047-.13-.09-.197-.134a5.113 5.113 0 00-.32-.205c-.023-.014-.043-.03-.064-.043-.048-.028-.1-.05-.15-.076a5.136 5.136 0 00-.585-.277 6.405 6.405 0 00-.827-.272 6.415 6.415 0 00-.923-.158A5.322 5.322 0 0032 13.29c-.101 0-.202 0-.304.008a6.107 6.107 0 00-2.025.452 5.515 5.515 0 00-.585.278c-.048.026-.097.047-.145.074-.022.013-.042.029-.064.041-.112.064-.22.139-.327.211-.064.042-.128.083-.187.128-.098.072-.192.15-.285.227-.064.053-.128.105-.192.162-.078.071-.152.147-.226.22-.074.075-.146.141-.21.214-.064.073-.116.137-.173.206-.073.089-.148.178-.216.271-.049.064-.092.134-.138.201a6.135 6.135 0 00-.244 6.499l5.323 9.22 5.322-9.22a6.13 6.13 0 00-.039-6.174z" fill="#4BDB4B"/></svg>