<svg width="64" height="64" fill="none" xmlns="http://www.w3.org/2000/svg"><g clip-path="url(#clip0_235_3312)"><rect width="64" height="64" rx="4" fill="#E84142"/><path d="M43.288 32.831c1.109-1.915 2.898-1.915 4.006 0l6.904 12.12c1.109 1.915.202 3.477-2.015 3.477H38.274c-2.192 0-3.1-1.562-2.016-3.477l7.03-12.12zM29.934 9.5c1.108-1.915 2.872-1.915 3.98 0l1.538 2.772 3.628 6.375a6.623 6.623 0 010 5.77l-12.17 21.09a6.399 6.399 0 01-4.989 2.922H11.817c-2.217 0-3.124-1.537-2.015-3.477L29.934 9.5z" fill="#fff"/></g><defs><clipPath id="clip0_235_3312"><path fill="#fff" d="M0 0h64v64H0z"/></clipPath></defs></svg>