<svg width="24" height="24" viewBox="0 0 24 24" fill="none" xmlns="http://www.w3.org/2000/svg">
<rect width="24" height="24" rx="4" fill="#0055D5"/>
<path fill-rule="evenodd" clip-rule="evenodd" d="M6.52817 7.93917C6.52817 7.93917 5.23697 6.90717 5.14817 9.45597C5.05937 11.4312 5.06177 15.2664 5.97617 17.0784C6.36257 17.76 6.87857 17.5512 7.83857 16.872C8.67377 16.2552 11.6954 13.4712 12.9746 12.2496C14.2538 11.028 16.8482 7.52397 17.3882 9.90477C17.6018 10.9056 17.8658 11.7552 17.6642 13.9752C17.6018 14.6592 17.309 15.1776 15.9746 14.2512C14.9666 13.6032 14.009 12.9072 14.009 12.9072C14.009 12.9072 13.8242 12.576 13.3874 13.1136C13.0442 13.5432 12.8714 13.6488 13.421 13.9752C13.973 14.3016 16.7642 16.2264 17.8346 16.5264C18.7178 16.7832 19.2218 16.7784 19.2482 15.0432C19.2434 13.6656 19.1642 9.72237 18.6626 8.04237C18.2834 6.99597 17.7266 6.52077 16.5242 7.69677C15.3218 8.87277 11.5298 12.5496 9.45617 14.2152C8.08097 15.2472 7.49297 16.1784 6.97457 14.4576C6.60977 13.1544 6.13697 9.09837 7.62977 9.87117C8.56337 10.3176 9.02897 10.3152 8.66417 10.596C8.29937 10.8744 7.25057 11.8368 7.25057 11.8368C7.25057 11.8368 6.92657 12.0984 7.07777 12.6648C7.22897 13.0608 7.22897 13.2576 8.04257 12.492C8.85617 11.7264 9.45617 11.148 9.45617 11.148C9.45617 11.148 9.58577 10.944 9.97217 11.3208C10.3586 11.6976 10.421 11.8032 10.421 11.8032C10.421 11.8032 10.5242 12.084 10.937 11.5968C11.3522 11.1096 11.6186 10.812 10.8338 10.356C10.0514 9.89517 6.52817 7.93917 6.52817 7.93917V7.93917Z" fill="white"/>
</svg>
