<svg width="64" height="64" fill="none" xmlns="http://www.w3.org/2000/svg"><rect width="64" height="64" rx="4" fill="#0055D5"/><path fill-rule="evenodd" clip-rule="evenodd" d="M17.408 21.171s-3.443-2.752-3.68 4.045c-.237 5.267-.23 15.494 2.208 20.326 1.03 1.818 2.406 1.261 4.966-.55 2.227-1.645 10.285-9.069 13.696-12.326 3.412-3.258 10.33-12.602 11.77-6.253.57 2.668 1.273 4.934.736 10.854-.166 1.824-.947 3.206-4.506.736-2.688-1.728-5.241-3.584-5.241-3.584s-.493-.883-1.658.55c-.915 1.146-1.376 1.428.09 2.298 1.472.87 8.915 6.003 11.77 6.803 2.355.685 3.699.672 3.769-3.955-.013-3.674-.224-14.189-1.562-18.669-1.01-2.79-2.496-4.057-5.702-.921s-13.319 12.94-18.848 17.382c-3.667 2.752-5.235 5.235-6.618.647-.973-3.476-2.233-14.292 1.748-12.23 2.49 1.19 3.73 1.183 2.758 1.932-.973.742-3.77 3.309-3.77 3.309s-.864.697-.46 2.208c.403 1.056.403 1.58 2.572-.461 2.17-2.042 3.77-3.584 3.77-3.584s.345-.544 1.376.46c1.03 1.006 1.197 1.287 1.197 1.287s.275.749 1.376-.55c1.107-1.3 1.817-2.093-.275-3.31-2.087-1.228-11.482-6.444-11.482-6.444z" fill="#fff"/></svg>