<svg width="64" height="64" fill="none" xmlns="http://www.w3.org/2000/svg"><g clip-path="url(#clip0_233_434)"><rect width="64" height="64" rx="4" fill="#fff"/><path d="M22.678 28.17L32 18.848l9.326 9.326 5.424-5.424L32 8 17.254 22.745l5.424 5.424zM8 32l5.424-5.425 5.424 5.424-5.424 5.424L8 32zm14.678 3.83L32 45.153l9.326-9.326 5.427 5.421-.003.003L32 56 17.254 41.254l-.007-.007 5.431-5.417zm22.474-3.828l5.424-5.424L56 32.002l-5.424 5.424-5.424-5.424z" fill="#F3BA2F"/><path d="M37.501 31.997h.002L32 26.493l-4.068 4.067-.467.468-.964.964-.008.007.008.008 5.499 5.5 5.504-5.504.002-.003-.005-.003" fill="#F3BA2F"/></g><defs><clipPath id="clip0_233_434"><path fill="#fff" d="M0 0h64v64H0z"/></clipPath></defs></svg>