<svg width="24" height="24" viewBox="0 0 24 24" fill="none" xmlns="http://www.w3.org/2000/svg">
<g clip-path="url(#clip0_548_25088)">
<rect width="24" height="24" rx="4" fill="white"/>
<path d="M8.50423 10.5637L12 7.06798L15.4973 10.5652L17.5313 8.53123L12 3L6.47039 8.52958L8.50431 10.5636L8.50423 10.5637ZM3 12L5.03406 9.96561L7.06798 11.9995L5.03392 14.0336L3 12ZM8.50423 13.4364L12 16.9319L15.4973 13.4348L17.5323 15.4677L17.5313 15.4688L12 20.9999L6.47039 15.4703L6.46751 15.4675L8.50445 13.4362L8.50423 13.4364ZM16.9319 12.0008L18.966 9.96676L20.9999 12.0007L18.9659 14.0347L16.9319 12.0008Z" fill="#F3BA2F"/>
<path d="M14.0625 11.999H14.0634L11.9996 9.93506L10.4741 11.4601L10.2989 11.6354L9.93745 11.997L9.93457 11.9998L9.93745 12.0027L11.9996 14.0652L14.0635 12.0012L14.0645 12.0001L14.0627 11.999" fill="#F3BA2F"/>
</g>
<defs>
<clipPath id="clip0_548_25088">
<rect width="24" height="24" fill="white"/>
</clipPath>
</defs>
</svg>
