<svg width="24" height="24" viewBox="0 0 24 24" fill="none" xmlns="http://www.w3.org/2000/svg">
<rect width="24" height="24" rx="4" fill="black"/>
<path fill-rule="evenodd" clip-rule="evenodd" d="M20.2891 8.50162C20.5198 9.04596 20.6961 9.61181 20.8153 10.1909C21.1828 11.9724 20.9992 13.8236 20.2891 15.4984C20.0584 16.0336 19.781 16.5507 19.4584 17.0301C19.136 17.5077 18.7682 17.953 18.3601 18.3598C17.9533 18.7679 17.508 19.1357 17.0304 19.4581C16.5411 19.7807 16.0338 20.0672 15.4986 20.2888C13.2627 21.2371 10.7376 21.2371 8.50172 20.2888C7.96651 20.0581 7.4494 19.7807 6.96997 19.4581C6.49238 19.1357 6.04707 18.7679 5.64024 18.3598C5.23221 17.9529 4.8644 17.5076 4.54193 17.0301C4.2193 16.5409 3.93285 16.0336 3.71123 15.4984C2.76292 13.2625 2.76292 10.7375 3.71123 8.50162C3.94025 7.96625 4.21834 7.45324 4.54193 6.96914C4.86442 6.49208 5.23223 6.04729 5.64024 5.64094C6.45972 4.81801 7.43164 4.16256 8.50172 3.71122C10.7376 2.76293 13.2627 2.76293 15.4986 3.71122C16.0337 3.94028 16.5465 4.21836 17.0304 4.5419C17.508 4.86431 17.9533 5.23211 18.3601 5.64019C18.7682 6.04677 19.136 6.49182 19.4584 6.96914C19.7836 7.45228 20.0618 7.96545 20.2891 8.50162ZM4.14453 12.0089C4.14453 16.347 7.66108 19.8733 12.0083 19.8733C16.3473 19.8733 19.8729 16.347 19.8729 12.0089C19.8729 7.67081 16.3465 4.14453 12.0083 4.14453C7.67087 4.14453 4.14453 7.67081 4.14453 12.0089Z" fill="white"/>
<path d="M12.1478 19.1906H12.3603C12.3973 19.1906 12.4335 19.1906 12.4704 19.1808H12.4802C12.5171 19.1808 12.5443 19.1808 12.5812 19.1717H12.6091C12.637 19.1717 12.6649 19.1717 12.692 19.1627H12.7199C12.7478 19.1627 12.7757 19.1536 12.8126 19.1536H12.8307C12.8676 19.1536 12.9046 19.1438 12.9415 19.1438C12.9785 19.1438 13.0064 19.1348 13.0433 19.1258H13.0614C13.0893 19.1258 13.1172 19.1167 13.1443 19.1167H13.1631C13.2001 19.1069 13.228 19.1069 13.2649 19.0979C13.338 19.0888 13.4119 19.07 13.4767 19.0519H13.4956C13.5227 19.0428 13.5597 19.0428 13.5875 19.033H13.5966C13.6705 19.0149 13.7353 18.9961 13.8092 18.978C13.1178 18.9999 12.4264 18.9348 11.7512 18.7843C10.7351 18.5627 9.76646 18.1662 8.9448 17.4825C7.63307 16.3909 6.88093 14.7679 6.89593 13.0614C6.90258 11.8043 7.34992 10.5892 8.16008 9.62787C9.2124 8.38184 10.708 7.72604 12.2397 7.6891H12.4523V6.46191H12.2126C11.7466 6.47045 11.2827 6.52601 10.8278 6.62775C10.3701 6.73124 9.92466 6.88285 9.49885 7.08003C9.06466 7.28356 8.65835 7.53231 8.27994 7.81875C7.8889 8.116 7.53283 8.45663 7.21856 8.83412C6.92266 9.18349 6.66585 9.56416 6.45269 9.96934C6.24181 10.36 6.07156 10.7712 5.94462 11.1965C5.8201 11.6153 5.73678 12.0453 5.69586 12.4803L5.66797 12.8858V13.1255C5.67701 13.5966 5.7328 14.058 5.83381 14.5102C5.93557 14.9723 6.09237 15.4148 6.2861 15.8399C6.51752 16.3472 6.93287 17.095 7.551 17.6581C8.81311 18.653 10.374 19.193 11.9812 19.1906H12.1478Z" fill="white"/>
<path d="M14.1601 18.0085C13.7048 17.9923 13.2513 17.9429 12.8032 17.8608C10.9021 17.5193 9.26782 16.3562 8.66854 14.6029C7.93885 12.4704 9.056 10.163 11.1787 9.46194C11.5833 9.32638 12.0072 9.25763 12.4338 9.25841C12.9788 9.25841 13.5231 9.36922 14.0221 9.572L14.5385 8.47371C14.3832 8.41145 14.2264 8.35314 14.0681 8.29883C13.5393 8.13284 12.9881 8.0487 12.4338 8.04932C11.8785 8.05036 11.327 8.14071 10.8003 8.31692C10.1282 8.5386 9.50917 8.89687 8.98212 9.36922C8.72794 9.59564 8.4962 9.84606 8.29012 10.117C8.0864 10.3848 7.91013 10.6725 7.76396 10.9756C7.46632 11.5849 7.29065 12.2466 7.24684 12.9234C7.20086 13.6244 7.29283 14.3255 7.52349 14.9903C7.75852 15.6742 8.13624 16.3004 8.6316 16.8273C9.08389 17.3165 9.61005 17.6859 10.2463 18.0274C10.9111 18.3779 11.7328 18.5626 12.5906 18.6832C13.1447 18.7563 13.8834 18.7751 14.3169 18.7751C14.6953 18.6364 14.8521 18.5716 15.0556 18.4887C15.2312 18.4058 15.4061 18.3229 15.5818 18.2211C15.7574 18.1193 15.7853 18.1005 16.08 17.9075C16.1063 17.8912 16.131 17.8725 16.1539 17.8517C15.1385 18.0274 14.88 18.0176 14.1601 18.0085Z" fill="white"/>
<path d="M16.4308 16.6335C16.1443 16.6516 15.738 16.6787 15.2767 16.6787C14.455 16.6787 13.4487 16.6056 12.5909 16.3192C11.2611 15.8767 10.006 14.7414 10.006 13.3379C10.0054 12.667 10.2717 12.0233 10.7461 11.5489C11.2205 11.0745 11.8641 10.8083 12.5351 10.8089C13.4856 10.8089 14.3073 11.335 14.7415 12.1009L15.8398 11.5566C15.6676 11.2324 15.4464 10.9367 15.184 10.68C14.4818 9.97657 13.5286 9.5813 12.5347 9.5813C11.5408 9.5813 10.5876 9.97657 9.88542 10.68C9.18223 11.3821 8.78711 12.3351 8.78711 13.3288C8.78957 13.8445 8.89999 14.3539 9.11125 14.8244C9.30423 15.2488 9.57258 15.646 9.91406 16.0154C10.5141 16.6606 11.335 17.1777 12.2124 17.4732C13.0522 17.7499 14.2892 17.8516 15.4893 17.7687C15.821 17.7408 16.0705 17.7129 16.4949 17.621C16.9044 17.2978 17.2761 16.9293 17.603 16.5227C17.3165 16.5506 16.7904 16.6056 16.4308 16.6335Z" fill="white"/>
</svg>
