<svg width="64" height="64" fill="none" xmlns="http://www.w3.org/2000/svg"><rect width="64" height="64" rx="4" fill="#000"/><path fill-rule="evenodd" clip-rule="evenodd" d="M54.104 22.671a23.892 23.892 0 010 18.658 25.176 25.176 0 01-2.215 4.085 23.853 23.853 0 01-2.929 3.545 23.854 23.854 0 01-3.546 2.93c-1.304.86-2.657 1.623-4.084 2.214a23.893 23.893 0 01-18.659 0 25.176 25.176 0 01-4.084-2.215 23.854 23.854 0 01-3.546-2.928 23.887 23.887 0 01-2.93-3.546c-.86-1.305-1.623-2.658-2.214-4.085a23.892 23.892 0 010-18.658 25.156 25.156 0 012.215-4.087 23.851 23.851 0 012.929-3.541 23.849 23.849 0 017.63-5.146 23.893 23.893 0 0118.659 0 25.17 25.17 0 014.084 2.215c1.274.86 2.461 1.84 3.546 2.928a23.85 23.85 0 015.144 7.631zm-43.052 9.353c0 11.568 9.378 20.971 20.97 20.971 11.57 0 20.972-9.403 20.972-20.971 0-11.569-9.403-20.972-20.972-20.972-11.566 0-20.97 9.404-20.97 20.972z" fill="#fff"/><path d="M32.394 51.175h.567c.098 0 .195 0 .293-.026h.026c.099 0 .171 0 .27-.025h.074c.075 0 .149 0 .221-.024h.075c.074 0 .148-.024.247-.024h.048c.099 0 .197-.026.296-.026.098 0 .172-.024.271-.048h.048c.075 0 .149-.024.221-.024h.05c.1-.026.174-.026.272-.05.195-.025.392-.075.565-.123h.05c.072-.024.171-.024.245-.05h.025c.197-.049.37-.099.566-.147a22.006 22.006 0 01-5.487-.517c-2.71-.59-5.293-1.648-7.484-3.471a15.164 15.164 0 01-5.464-11.79 14.326 14.326 0 013.371-9.156c2.806-3.322 6.794-5.071 10.88-5.17h.566v-3.272h-.64a18.47 18.47 0 00-3.692.442c-1.22.276-2.408.68-3.544 1.206a18.142 18.142 0 00-3.25 1.97 17.329 17.329 0 00-2.83 2.708 16.751 16.751 0 00-2.043 3.027 17.31 17.31 0 00-1.355 3.272 17.893 17.893 0 00-.663 3.424l-.075 1.081v.64a18.53 18.53 0 00.443 3.692c.271 1.232.69 2.412 1.206 3.546.617 1.353 1.725 3.347 3.373 4.848a19.037 19.037 0 0011.814 4.087h.444z" fill="#fff"/><path d="M37.76 48.023a25.02 25.02 0 01-3.618-.394c-5.07-.91-9.428-4.012-11.026-8.688-1.946-5.687 1.033-11.84 6.694-13.71a10.472 10.472 0 013.347-.542c1.453 0 2.905.296 4.235.836l1.377-2.928a26.28 26.28 0 00-1.254-.467 14.499 14.499 0 00-4.358-.665 13.81 13.81 0 00-4.356.713 13.689 13.689 0 00-4.849 2.807 14.115 14.115 0 00-1.845 1.994 13.394 13.394 0 00-1.403 2.29 13.88 13.88 0 00-1.38 5.193c-.122 1.87.123 3.74.739 5.512a13.61 13.61 0 002.954 4.899c1.207 1.304 2.61 2.29 4.306 3.2 1.773.935 3.964 1.427 6.252 1.749 1.477.195 3.447.245 4.603.245 1.01-.37 1.428-.543 1.97-.764.469-.22.935-.442 1.403-.713.469-.272.543-.322 1.329-.837.07-.043.136-.093.197-.148-2.708.468-3.397.442-5.317.418z" fill="#fff"/><path d="M43.816 44.356c-.764.048-1.848.12-3.078.12-2.191 0-4.875-.194-7.162-.958-3.546-1.18-6.893-4.208-6.893-7.95a6.738 6.738 0 016.744-6.744c2.535 0 4.726 1.403 5.884 3.445l2.928-1.451a9.516 9.516 0 00-1.748-2.338 9.983 9.983 0 00-14.13 0 9.982 9.982 0 00-2.929 7.064 9.85 9.85 0 00.865 3.988c.514 1.131 1.23 2.19 2.14 3.176 1.6 1.72 3.79 3.1 6.13 3.887 2.239.738 5.538 1.01 8.738.788a18.29 18.29 0 002.681-.394 18.474 18.474 0 002.955-2.929c-.764.075-2.167.221-3.126.296z" fill="#fff"/></svg>