<svg width="64" height="64" fill="none" xmlns="http://www.w3.org/2000/svg"><rect width="64" height="64" rx="4" fill="#EAB300"/><path fill-rule="evenodd" clip-rule="evenodd" d="M44.583 24.162c-.412-4.286-4.112-5.722-8.786-6.132v-5.947h-3.618v5.789c-.95 0-1.923.018-2.888.038v-5.827h-3.617l-.003 5.942-.038.001c-.77.015-1.528.03-2.266.03v-.018l-4.99-.003v3.866s2.673-.051 2.627-.002c1.467 0 1.943.85 2.082 1.584v6.774c.102 0 .233.005.381.026h-.381l-.003 9.49c-.064.461-.335 1.196-1.36 1.198.047.041-2.629 0-2.629 0l-.719 4.322h4.71c.532 0 1.058.005 1.579.011l1.005.01.002 6.013h3.615v-5.95c.99.02 1.951.029 2.89.029l-.002 5.921h3.617v-6c6.083-.349 10.346-1.883 10.873-7.597.428-4.6-1.736-6.656-5.19-7.485 2.103-1.065 3.416-2.947 3.109-6.083zm-5.065 12.857c0 4.127-6.49 4.033-9.45 3.99a51.063 51.063 0 00-.698-.007v-7.97c.25.001.554-.005.9-.013 3.042-.069 9.248-.208 9.248 4zm-9.543-7.623c2.477.04 7.858.124 7.858-3.619.003-3.83-5.183-3.693-7.718-3.626-.286.007-.538.014-.745.014v7.225c.172 0 .376.003.605.006z" fill="#fff"/><path d="M23.091 30.099h.538v.397h-.538v-.397z" fill="#fff"/></svg>