<svg width="64" height="64" fill="none" xmlns="http://www.w3.org/2000/svg"><g clip-path="url(#clip0_231_455)"><rect width="64" height="64" rx="4" fill="#F7931A"/><path d="M47.217 28.032c.636-4.258-2.606-6.547-7.04-8.074l1.44-5.769-3.512-.875-1.4 5.617c-.924-.23-1.872-.447-2.814-.662l1.41-5.654-3.509-.875-1.439 5.767c-.764-.174-1.514-.346-2.242-.527l.004-.018-4.842-1.21-.934 3.75s2.605.598 2.55.635c1.422.355 1.679 1.296 1.636 2.042l-1.638 6.572c.098.025.225.06.365.117l-.371-.092-2.297 9.206c-.173.432-.614 1.08-1.608.834.035.051-2.553-.637-2.553-.637L16.68 42.2l4.57 1.139c.85.213 1.683.436 2.503.646L22.3 49.819l3.507.875 1.44-5.773c.958.26 1.887.5 2.798.726l-1.434 5.746 3.511.875 1.453-5.824c5.988 1.133 10.49.676 12.386-4.74 1.526-4.36-.077-6.875-3.227-8.516 2.295-.529 4.023-2.038 4.484-5.155h-.001zm-8.023 11.25c-1.086 4.361-8.427 2.004-10.808 1.413l1.929-7.73c2.38.594 10.013 1.77 8.879 6.318zm1.085-11.313c-.99 3.967-7.1 1.951-9.082 1.457l1.748-7.01c1.982.494 8.366 1.416 7.335 5.553z" fill="#fff"/></g><defs><clipPath id="clip0_231_455"><path fill="#fff" d="M0 0h64v64H0z"/></clipPath></defs></svg>