<svg width="64" height="64" fill="none" xmlns="http://www.w3.org/2000/svg"><g clip-path="url(#clip0_233_476)"><rect width="64" height="64" rx="4" fill="#0AC18E"/><path d="M41.982 21.255c-1.608-3.647-5.304-4.427-9.828-3.671L30.7 11.947l-3.427.886 1.43 5.62c-.902.227-1.828.422-2.746.682l-1.43-5.588-3.427.885 1.454 5.637c-.739.211-6.92 1.795-6.92 1.795l.943 3.671s2.517-.707 2.493-.65c1.397-.365 2.055.333 2.363.991l3.996 15.448c.05.447-.032 1.21-.99 1.47.056.033-2.494.642-2.494.642l.374 4.28s6.124-1.568 6.928-1.77l1.47 5.7 3.427-.885-1.47-5.742a97.4 97.4 0 002.753-.682l1.462 5.71 3.428-.886-1.47-5.693c5.279-1.283 9.007-4.613 8.243-9.706-.487-3.07-3.841-5.587-6.627-5.872 1.714-1.518 2.583-3.736 1.519-6.635zm-1.649 13.442c.682 5.043-6.327 5.66-8.642 6.27l-2.014-7.546c2.323-.609 9.503-3.167 10.656 1.276zM36.11 24.422c.723 4.484-5.271 5.003-7.204 5.499l-1.836-6.847c1.941-.479 7.57-2.802 9.04 1.348z" fill="#fff"/></g><defs><clipPath id="clip0_233_476"><path fill="#fff" d="M0 0h64v64H0z"/></clipPath></defs></svg>