<svg width="64" height="64" fill="none" xmlns="http://www.w3.org/2000/svg"><rect width="64" height="64" rx="4" fill="url(#paint0_linear_573_470546)"/><path fill-rule="evenodd" clip-rule="evenodd" d="M46.107 27.44c.637-4.258-2.605-6.547-7.039-8.074l1.439-5.768-3.512-.875-1.4 5.616a145.07 145.07 0 00-2.813-.662l1.41-5.654-3.51-.875-1.438 5.767c-.764-.174-1.515-.346-2.243-.527l.004-.018-4.842-1.21-.934 3.751s2.605.597 2.55.634c1.422.355 1.68 1.296 1.637 2.042l-1.639 6.572c.098.025.225.061.365.117l-.102-.025-.269-.067-2.296 9.207c-.174.431-.615 1.08-1.61.834.036.05-2.551-.637-2.551-.637l-1.744 4.02 4.57 1.138c.5.126.995.255 1.484.382.342.09.682.178 1.02.264l-1.454 5.835 3.508.875 1.439-5.773c.958.26 1.888.5 2.798.727L27.501 50.8l3.512.875 1.453-5.824c5.987 1.134 10.49.677 12.385-4.74 1.527-4.36-.076-6.875-3.226-8.515 2.294-.53 4.022-2.038 4.483-5.156h-.001zm-8.024 11.251c-.995 4.001-7.257 2.347-10.122 1.59-.258-.068-.489-.129-.685-.177l1.928-7.73c.24.06.532.125.864.2 2.963.665 9.035 2.027 8.015 6.117zm-7.421-9.706c2.388.638 7.6 2.029 8.507-1.607.927-3.72-4.137-4.84-6.61-5.388a27.406 27.406 0 01-.725-.166l-1.748 7.01c.165.042.359.094.576.151z" fill="#fff"/><defs><linearGradient id="paint0_linear_573_470546" x1="32" y1="0" x2="32" y2="64" gradientUnits="userSpaceOnUse"><stop stop-color="#FCC538"/><stop offset="1" stop-color="#F7931A"/></linearGradient></defs></svg>