<svg width="64" height="64" fill="none" xmlns="http://www.w3.org/2000/svg"><rect width="64" height="64" rx="4" fill="#fff"/><g clip-path="url(#clip0_233_1535)" fill="#0033AD"><path d="M21.158 31.836a3.233 3.233 0 003.047 3.405h.192a3.215 3.215 0 003.225-3.239 3.215 3.215 0 00-3.238-3.225 3.23 3.23 0 00-3.226 3.059zM9.1 31.004a1.037 1.037 0 00-1.1.986c-.026.576.41 1.075.986 1.1a1.045 1.045 0 001.1-.985 1.045 1.045 0 00-.985-1.101zm11.853-17.933c.512-.256.717-.896.461-1.408a1.056 1.056 0 00-1.408-.46 1.04 1.04 0 00-.46 1.395c.256.524.883.742 1.407.473 0 0-.012 0 0 0zm3.277 5.722a1.615 1.615 0 00.717-2.163 1.615 1.615 0 00-2.163-.717 1.615 1.615 0 00-.717 2.163 1.615 1.615 0 002.163.717zm-11.033 3.93a1.34 1.34 0 001.843-.384 1.339 1.339 0 00-.384-1.844 1.339 1.339 0 00-1.843.384c-.41.615-.23 1.447.384 1.843zm1.958 7.705a1.608 1.608 0 00-1.702 1.523 1.608 1.608 0 001.523 1.703 1.616 1.616 0 00.18-3.226zM13.376 41.27a1.335 1.335 0 00-.589 1.791 1.335 1.335 0 001.792.59 1.335 1.335 0 00.589-1.793 1.339 1.339 0 00-1.792-.588zm6.272-14.183c.883.576 2.06.333 2.624-.55a1.884 1.884 0 00-.55-2.624 1.884 1.884 0 00-2.625.55 1.889 1.889 0 00.55 2.624zm19.904-8.422a1.624 1.624 0 002.24-.461 1.624 1.624 0 00-.46-2.24 1.624 1.624 0 00-2.24.46 1.6 1.6 0 00.46 2.24zm3.302-5.696a1.04 1.04 0 001.447-.307 1.04 1.04 0 00-.308-1.447 1.048 1.048 0 00-1.446.295 1.078 1.078 0 00.307 1.459zm-3.059 15.782a3.225 3.225 0 00-3.405 3.047 3.226 3.226 0 003.047 3.405h.179a3.231 3.231 0 003.226-3.239c.012-1.702-1.332-3.123-3.047-3.213zm-14.502-1.894a3.231 3.231 0 006.118-1.46c0-.499-.115-.998-.345-1.459a3.226 3.226 0 00-4.34-1.433c-1.6.819-2.24 2.765-1.433 4.352zm25.331-4.134c.653-.333.909-1.14.576-1.793a1.334 1.334 0 00-2.38 1.204 1.353 1.353 0 001.804.588zm-8.192 1.023a1.898 1.898 0 102.547.845 1.91 1.91 0 00-2.547-.845zm-10.56-11.264a1.349 1.349 0 001.408-1.254c.051-.73-.525-1.357-1.254-1.408a1.338 1.338 0 00-1.408 1.242 1.353 1.353 0 001.254 1.42zm-.012 8.358a1.885 1.885 0 001.996-1.791 1.885 1.885 0 00-1.792-1.997 1.885 1.885 0 00-1.997 1.792 1.893 1.893 0 001.792 1.997zM21.568 40.245a1.898 1.898 0 10-1.704-3.392 1.898 1.898 0 001.704 3.392zm11.52-16.627a3.223 3.223 0 00.934 4.468 3.223 3.223 0 004.468-.935 3.223 3.223 0 00-2.701-4.992c-1.088 0-2.1.55-2.701 1.46zm5.619 13.517a3.226 3.226 0 00-4.339-1.433 3.226 3.226 0 00-1.434 4.339 3.226 3.226 0 004.34 1.433 3.216 3.216 0 001.446-4.313c0-.013 0-.013-.013-.026zm5.645-.23a1.884 1.884 0 00-2.624.55 1.884 1.884 0 00.55 2.624 1.884 1.884 0 002.624-.55 1.889 1.889 0 00-.55-2.624zm6.195-4.852a1.608 1.608 0 00-1.523-1.702 1.608 1.608 0 00-1.702 1.523 1.608 1.608 0 001.523 1.703 1.625 1.625 0 001.702-1.523zm4.467-1.151a1.037 1.037 0 00-1.1.985 1.044 1.044 0 102.086.115 1.053 1.053 0 00-.986-1.1zM50.803 41.27a1.339 1.339 0 00-1.843.384 1.339 1.339 0 00.384 1.843c.614.397 1.434.23 1.843-.384.41-.614.23-1.447-.384-1.843zm-29.67 9.753a1.048 1.048 0 00-1.447.295 1.047 1.047 0 00.295 1.446c.486.32 1.126.18 1.446-.294.333-.474.192-1.127-.294-1.447zm21.913-.103a1.055 1.055 0 00-.46 1.409c.256.512.895.716 1.407.46a1.04 1.04 0 00.461-1.395 1.035 1.035 0 00-1.408-.473c.013 0 0 0 0 0zM30.912 40.374a3.24 3.24 0 00-.934-4.48 3.24 3.24 0 00-4.48.934 3.229 3.229 0 002.7 5.005 3.186 3.186 0 002.714-1.46zm-6.464 4.953a1.624 1.624 0 00-2.24.461 1.624 1.624 0 00.46 2.24 1.624 1.624 0 002.24-.46 1.6 1.6 0 00-.46-2.24zm7.539 6.183a1.349 1.349 0 00-1.408 1.254c-.051.73.525 1.357 1.255 1.408a1.338 1.338 0 001.408-1.241 1.353 1.353 0 00-1.255-1.421zM32 43.151a1.885 1.885 0 00-1.997 1.792 1.885 1.885 0 001.792 1.997 1.893 1.893 0 001.997-1.792A1.892 1.892 0 0032 43.151zm7.77 2.049a1.617 1.617 0 001.472 2.88 1.615 1.615 0 00.716-2.164 1.633 1.633 0 00-2.188-.717z"/></g><defs><clipPath id="clip0_233_1535"><path fill="#fff" transform="translate(8 9.82)" d="M0 0h48v44.352H0z"/></clipPath></defs></svg>