<svg width="24" height="24" viewBox="0 0 24 24" fill="none" xmlns="http://www.w3.org/2000/svg">
<g clip-path="url(#clip0_548_25091)">
<rect width="24" height="24" rx="4" fill="white"/>
<g clip-path="url(#clip1_548_25091)">
<path d="M7.93366 11.9385C7.89526 12.6057 8.40886 13.1769 9.07606 13.2153C9.10006 13.2153 9.12406 13.2153 9.14806 13.2153C9.82006 13.2153 10.3625 12.6729 10.3577 12.0009C10.3577 11.3289 9.81526 10.7865 9.14326 10.7913C8.50006 10.7913 7.96726 11.2953 7.93366 11.9385Z" fill="#0033AD"/>
<path d="M3.41223 11.6266C3.19623 11.6122 3.00903 11.7802 2.99943 11.9962C2.98983 12.2122 3.15303 12.3994 3.36903 12.409C3.58503 12.4234 3.76743 12.2554 3.78183 12.0394C3.79623 11.8234 3.62823 11.641 3.41223 11.6266Z" fill="#0033AD"/>
<path d="M7.85742 4.9018C8.04942 4.8058 8.12622 4.5658 8.03022 4.3738C7.93422 4.1818 7.69422 4.105 7.50222 4.201C7.31022 4.297 7.23341 4.5322 7.32942 4.7242C7.42542 4.921 7.66062 5.0026 7.85742 4.9018C7.85742 4.9018 7.85262 4.9018 7.85742 4.9018Z" fill="#0033AD"/>
<path d="M9.086 7.04743C9.3836 6.89863 9.5036 6.53383 9.3548 6.23623C9.206 5.93863 8.8412 5.81863 8.5436 5.96743C8.246 6.11623 8.126 6.48103 8.2748 6.77863C8.4236 7.07623 8.7884 7.19623 9.086 7.04743Z" fill="#0033AD"/>
<path d="M4.94842 8.52105C5.17882 8.66985 5.48602 8.60745 5.63962 8.37705C5.78842 8.14665 5.72602 7.83945 5.49562 7.68585C5.26522 7.53705 4.95802 7.59945 4.80442 7.82985C4.65082 8.06025 4.71802 8.37225 4.94842 8.52105Z" fill="#0033AD"/>
<path d="M5.68239 11.4107C5.34639 11.3915 5.06319 11.6459 5.04399 11.9819C5.02479 12.3179 5.27919 12.6011 5.61519 12.6203C5.95119 12.6395 6.23439 12.3851 6.25359 12.0491C6.27279 11.7179 6.01839 11.4299 5.68239 11.4107Z" fill="#0033AD"/>
<path d="M5.01566 15.4763C4.77086 15.6011 4.67006 15.8987 4.79486 16.1483C4.91966 16.3931 5.21726 16.4939 5.46686 16.3691C5.71166 16.2443 5.81246 15.9467 5.68766 15.6971C5.56286 15.4523 5.26046 15.3515 5.01566 15.4763Z" fill="#0033AD"/>
<path d="M7.36735 10.1577C7.69855 10.3737 8.14015 10.2825 8.35135 9.95135C8.56735 9.62015 8.47615 9.17855 8.14495 8.96735C7.81375 8.75135 7.37215 8.84255 7.16095 9.17375C6.94495 9.50015 7.03615 9.94175 7.36735 10.1577Z" fill="#0033AD"/>
<path d="M14.8317 6.99943C15.1101 7.18183 15.4893 7.10503 15.6717 6.82663C15.8541 6.54823 15.7773 6.16903 15.4989 5.98663C15.2205 5.80423 14.8413 5.88103 14.6589 6.15943C14.4717 6.44263 14.5485 6.81703 14.8317 6.99943Z" fill="#0033AD"/>
<path d="M16.0699 4.86338C16.2523 4.98338 16.4923 4.93058 16.6123 4.74818C16.7323 4.56578 16.6795 4.32578 16.4971 4.20578C16.3147 4.08578 16.0747 4.13858 15.9547 4.31618C15.8395 4.49858 15.8923 4.74338 16.0699 4.86338Z" fill="#0033AD"/>
<path d="M14.9224 10.7818C14.2552 10.7434 13.6792 11.257 13.6456 11.9242C13.6072 12.5914 14.1208 13.1674 14.788 13.201C14.812 13.201 14.836 13.201 14.8552 13.201C15.5224 13.201 16.0648 12.6586 16.0648 11.9866C16.0696 11.3482 15.5656 10.8154 14.9224 10.7818Z" fill="#0033AD"/>
<path d="M9.48422 10.0713C9.69062 10.4793 10.1082 10.7385 10.569 10.7385C11.2362 10.7385 11.7786 10.1961 11.7786 9.5241C11.7786 9.3369 11.7354 9.1497 11.649 8.9769C11.3466 8.3769 10.617 8.1369 10.0218 8.4393C9.42182 8.7465 9.18182 9.4761 9.48422 10.0713Z" fill="#0033AD"/>
<path d="M18.9832 8.52102C19.228 8.39622 19.324 8.09382 19.1992 7.84902C19.0744 7.60422 18.772 7.50822 18.5272 7.63302C18.2824 7.75782 18.1864 8.05542 18.3064 8.30022C18.436 8.54502 18.7336 8.64582 18.9832 8.52102Z" fill="#0033AD"/>
<path d="M15.9115 8.90489C15.5611 9.08249 15.4171 9.50969 15.5947 9.86009C15.7723 10.2105 16.1995 10.3545 16.5499 10.1769C16.9003 9.99929 17.0443 9.57209 16.8667 9.22169C16.6891 8.87129 16.2619 8.73209 15.9115 8.90489Z" fill="#0033AD"/>
<path d="M11.9516 4.68099C12.2252 4.69539 12.4604 4.48419 12.4796 4.21059C12.4988 3.93699 12.2828 3.70179 12.0092 3.68259C11.7356 3.66819 11.5004 3.87459 11.4812 4.14819C11.4668 4.42659 11.678 4.66179 11.9516 4.68099Z" fill="#0033AD"/>
<path d="M11.9463 7.81545C12.3399 7.83945 12.6759 7.53705 12.6951 7.14345C12.7191 6.74985 12.4167 6.41385 12.0231 6.39465C11.6295 6.37065 11.2935 6.67305 11.2743 7.06665C11.2551 7.46025 11.5527 7.79625 11.9463 7.81545Z" fill="#0033AD"/>
<path d="M8.08802 15.0921C8.43842 14.9145 8.58242 14.4873 8.40482 14.1369C8.22722 13.7865 7.80002 13.6425 7.44962 13.8201C7.09922 13.9977 6.95522 14.4249 7.13282 14.7753C7.31042 15.1257 7.73762 15.2697 8.08802 15.0921Z" fill="#0033AD"/>
<path d="M12.4076 8.85701C12.0428 9.41861 12.1964 10.1674 12.758 10.5322C13.3196 10.897 14.0684 10.7434 14.4332 10.1818C14.798 9.62021 14.6444 8.87141 14.0828 8.50661C13.886 8.37701 13.6556 8.30981 13.4204 8.30981C13.0124 8.30981 12.6332 8.51621 12.4076 8.85701Z" fill="#0033AD"/>
<path d="M14.5152 13.9259C14.2128 13.3259 13.4832 13.0859 12.888 13.3883C12.288 13.6907 12.048 14.4203 12.3504 15.0155C12.6528 15.6155 13.3824 15.8555 13.9776 15.5531C14.5728 15.2555 14.8176 14.5355 14.52 13.9355C14.52 13.9307 14.52 13.9307 14.5152 13.9259Z" fill="#0033AD"/>
<path d="M16.6313 13.8394C16.3001 13.6234 15.8585 13.7146 15.6473 14.0458C15.4313 14.377 15.5225 14.8186 15.8537 15.0298C16.1849 15.2458 16.6265 15.1546 16.8377 14.8234C17.0537 14.497 16.9625 14.0554 16.6313 13.8394Z" fill="#0033AD"/>
<path d="M18.9548 12.0203C18.974 11.6843 18.7196 11.4011 18.3836 11.3819C18.0476 11.3627 17.7644 11.6171 17.7452 11.9531C17.726 12.2891 17.9804 12.5723 18.3164 12.5915C18.6476 12.6107 18.9356 12.3515 18.9548 12.0203Z" fill="#0033AD"/>
<path d="M20.63 11.5883C20.414 11.5739 20.2268 11.7419 20.2172 11.9579C20.2076 12.1739 20.3708 12.3611 20.5868 12.3707C20.8028 12.3851 20.9852 12.2171 20.9996 12.0011C21.0092 11.7851 20.846 11.6027 20.63 11.5883Z" fill="#0033AD"/>
<path d="M19.0511 15.4761C18.8207 15.3273 18.5135 15.3897 18.3599 15.6201C18.2111 15.8505 18.2735 16.1577 18.5039 16.3113C18.7343 16.4601 19.0415 16.3977 19.1951 16.1673C19.3487 15.9369 19.2815 15.6249 19.0511 15.4761Z" fill="#0033AD"/>
<path d="M7.92445 19.1338C7.74205 19.0138 7.50205 19.0666 7.38205 19.2442C7.26205 19.4266 7.31485 19.6666 7.49245 19.7866C7.67485 19.9066 7.91485 19.8538 8.03485 19.6762C8.15965 19.4986 8.10685 19.2538 7.92445 19.1338Z" fill="#0033AD"/>
<path d="M16.1419 19.0953C15.9499 19.1913 15.8731 19.4313 15.9691 19.6233C16.0651 19.8153 16.3051 19.8921 16.4971 19.7961C16.6891 19.7001 16.7659 19.4649 16.6699 19.2729C16.5739 19.0761 16.3387 18.9945 16.1419 19.0953C16.1419 19.0953 16.1467 19.0953 16.1419 19.0953Z" fill="#0033AD"/>
<path d="M11.5915 15.1401C11.9563 14.5785 11.8027 13.8297 11.2411 13.4601C10.6795 13.0953 9.93068 13.2489 9.56108 13.8105C9.19148 14.3721 9.34988 15.1209 9.91148 15.4905C10.1083 15.6201 10.3387 15.6873 10.5739 15.6873C10.9867 15.6921 11.3659 15.4857 11.5915 15.1401Z" fill="#0033AD"/>
<path d="M9.16745 16.9979C8.88905 16.8155 8.50985 16.8923 8.32745 17.1707C8.14505 17.4491 8.22185 17.8283 8.50025 18.0107C8.77865 18.1931 9.15785 18.1163 9.34025 17.8379C9.52745 17.5595 9.45065 17.1803 9.16745 16.9979Z" fill="#0033AD"/>
<path d="M11.995 19.3161C11.7214 19.3017 11.4862 19.5129 11.467 19.7865C11.4478 20.0601 11.6638 20.2953 11.9374 20.3145C12.211 20.3289 12.4462 20.1225 12.4654 19.8489C12.4798 19.5705 12.2686 19.3353 11.995 19.3161Z" fill="#0033AD"/>
<path d="M11.9992 16.1818C11.6056 16.1578 11.2696 16.4602 11.2504 16.8538C11.2264 17.2474 11.5288 17.5834 11.9224 17.6026C12.3159 17.6218 12.6519 17.3242 12.6711 16.9306C12.6951 16.5418 12.3927 16.201 11.9992 16.1818Z" fill="#0033AD"/>
<path d="M14.913 16.9498C14.6154 17.1034 14.4954 17.4682 14.649 17.7658C14.8026 18.0634 15.1674 18.1834 15.465 18.0298C15.7626 17.881 15.8826 17.5162 15.7338 17.2186C15.5802 16.921 15.2154 16.7962 14.913 16.9498Z" fill="#0033AD"/>
</g>
</g>
<defs>
<clipPath id="clip0_548_25091">
<rect width="24" height="24" fill="white"/>
</clipPath>
<clipPath id="clip1_548_25091">
<rect width="18" height="16.632" fill="white" transform="translate(3 3.68262)"/>
</clipPath>
</defs>
</svg>
