<svg width="64" height="64" fill="none" xmlns="http://www.w3.org/2000/svg"><rect width="64" height="64" rx="4" fill="#E7EFF3"/><path fill-rule="evenodd" clip-rule="evenodd" d="M13.333 35.93c0 8.138 6.598 14.736 14.737 14.736s14.737-6.598 14.737-14.736c0-8.14-6.598-14.737-14.737-14.737S13.333 27.79 13.333 35.929zm25.544 0c0 5.97-4.838 10.807-10.807 10.807-5.97 0-10.807-4.837-10.807-10.807 0-5.97 4.838-10.807 10.807-10.807 5.97 0 10.807 4.838 10.807 10.807z" fill="#FBCC5C"/><path fill-rule="evenodd" clip-rule="evenodd" d="M21.193 28.07c0 8.139 6.598 14.737 14.737 14.737 8.138 0 14.736-6.598 14.736-14.737S44.068 13.333 35.93 13.333c-8.14 0-14.737 6.598-14.737 14.737zm25.543 0c0 5.97-4.837 10.807-10.807 10.807-5.969 0-10.807-4.838-10.807-10.807 0-5.97 4.838-10.807 10.807-10.807 5.97 0 10.807 4.838 10.807 10.807z" fill="#35D07F"/><path fill-rule="evenodd" clip-rule="evenodd" d="M21.193 27.583a10.812 10.812 0 014.248-2.141c.389-1.56 1.12-3.01 2.142-4.249-1.8.06-3.58.448-5.243 1.148a14.59 14.59 0 00-1.147 5.242zM38.558 38.56a10.759 10.759 0 01-2.141 4.248 14.668 14.668 0 005.242-1.143 14.63 14.63 0 001.148-5.247 10.812 10.812 0 01-4.249 2.142z" fill="#5EA33B"/></svg>