<svg width="24" height="24" viewBox="0 0 24 24" fill="none" xmlns="http://www.w3.org/2000/svg">
<rect width="24" height="24" rx="4" fill="#E7EFF3"/>
<path fill-rule="evenodd" clip-rule="evenodd" d="M5 13.4736C5 16.5256 7.47432 18.9999 10.5263 18.9999C13.5783 18.9999 16.0526 16.5256 16.0526 13.4736C16.0526 10.4216 13.5783 7.94727 10.5263 7.94727C7.47432 7.94727 5 10.4216 5 13.4736ZM14.5789 13.4737C14.5789 15.7122 12.7648 17.5263 10.5263 17.5263C8.28774 17.5263 6.47363 15.7122 6.47363 13.4737C6.47363 11.2352 8.28774 9.42104 10.5263 9.42104C12.7648 9.42104 14.5789 11.2352 14.5789 13.4737Z" fill="#FBCC5C"/>
<path fill-rule="evenodd" clip-rule="evenodd" d="M7.94727 10.5263C7.94727 13.5783 10.4216 16.0526 13.4736 16.0526C16.5256 16.0526 18.9999 13.5783 18.9999 10.5263C18.9999 7.47432 16.5256 5 13.4736 5C10.4216 5 7.94727 7.47432 7.94727 10.5263ZM17.5262 10.5263C17.5262 12.7648 15.7121 14.5789 13.4735 14.5789C11.235 14.5789 9.4209 12.7648 9.4209 10.5263C9.4209 8.28779 11.235 6.47368 13.4735 6.47368C15.7121 6.47368 17.5262 8.28779 17.5262 10.5263Z" fill="#35D07F"/>
<path fill-rule="evenodd" clip-rule="evenodd" d="M7.94727 10.3437C8.41295 9.96056 8.95674 9.68646 9.54032 9.54056C9.68621 8.95551 9.96032 8.41172 10.3435 7.94751C9.66853 7.96962 9.00095 8.11551 8.37758 8.37783C8.11379 9.00119 7.9679 9.6673 7.94727 10.3437ZM14.4594 14.4597C14.3135 15.0448 14.0394 15.5885 13.6562 16.0528C14.3327 16.0321 14.9988 15.8862 15.6221 15.6239C15.8859 14.9991 16.0318 14.333 16.0525 13.6565C15.5868 14.0397 15.043 14.3138 14.4594 14.4597Z" fill="#5EA33B"/>
</svg>
