<svg width="24" height="24" viewBox="0 0 24 24" fill="none" xmlns="http://www.w3.org/2000/svg">
<rect width="24" height="24" rx="4" fill="#CD0124"/>
<circle cx="12" cy="12" r="12" fill="white"/>
<path d="M14.3093 12.5765C14.3093 12.4169 14.3093 12.3371 14.1504 12.2573C13.5942 11.8584 12.9586 11.4595 12.4025 11.0605C12.2822 10.9798 12.1254 10.9798 12.0052 11.0605L10.2573 12.3371C10.1084 12.4134 10.0159 12.5683 10.019 12.7361C10.0152 12.9081 9.95985 13.0749 9.86006 13.2148C9.77972 13.3355 9.77972 13.493 9.86006 13.6137C10.4957 14.8904 11.0518 16.167 11.6874 17.4436C11.9258 17.8425 12.0847 18.3213 12.323 18.8C12.4025 18.7202 12.4025 18.6404 12.4819 18.5606C13.197 16.9649 13.8326 15.3691 14.5476 13.7733C14.6271 13.6137 14.6271 13.534 14.4682 13.4542C14.2873 13.2001 14.229 12.8782 14.3093 12.5765Z" fill="#CD0124"/>
<path d="M11.5998 10.478C9.9998 9.35865 8.3998 8.23932 6.8798 7.19995L6.7998 7.2799C6.8798 7.43981 6.8798 7.51976 6.9598 7.67966L8.6398 11.2775C8.7998 11.5973 8.8798 11.9171 9.3598 11.9971C9.49806 12.0095 9.63697 11.9817 9.7598 11.9171C10.2398 11.5173 10.7998 11.1975 11.2798 10.7978L11.5998 10.478Z" fill="#CD0124"/>
<path fill-rule="evenodd" clip-rule="evenodd" d="M0 12C0 5.37258 5.37258 0 12 0C15.1826 0 18.2348 1.26428 20.4853 3.51472C22.7357 5.76516 24 8.8174 24 12C24 18.6274 18.6274 24 12 24C5.37258 24 0 18.6274 0 12ZM18.1596 7.1999C18.2396 7.0399 18.3196 6.9599 18.4796 6.9599C18.9908 6.88035 19.3658 6.43718 19.3596 5.9199C19.3258 5.48748 19.0453 5.11349 18.6396 4.9599C18.2187 4.80158 17.745 4.97075 17.5196 5.3599C17.4396 5.5999 17.2796 5.5999 17.1196 5.5999H6.95965C6.71965 5.5999 6.63965 5.5999 6.55965 5.4399C6.30755 5.03576 5.80381 4.86785 5.35965 5.0399C4.94642 5.2275 4.66978 5.62708 4.63965 6.0799C4.6655 6.56924 5.0344 6.97167 5.51965 7.0399C5.75965 7.0399 5.83965 7.1199 5.83965 7.1999C6.63965 8.7999 7.35965 10.3199 8.07965 11.9199C8.16054 12.041 8.16054 12.1988 8.07965 12.3199C7.91263 12.6108 7.89866 12.965 8.04225 13.2681C8.18584 13.5713 8.46878 13.7849 8.79965 13.8399C8.97681 13.8758 9.12577 13.9949 9.19965 14.1599C9.59965 14.9599 9.97965 15.7599 10.3597 16.5599C10.7397 17.3599 11.1196 18.1599 11.5196 18.9599C11.5993 19.11 11.5993 19.2898 11.5196 19.4399C11.3815 19.6414 11.3292 19.8896 11.3742 20.1297C11.4192 20.3698 11.5579 20.5821 11.7596 20.7199C12.1464 21.0166 12.6928 20.9825 13.0396 20.6399C13.44 20.2979 13.5097 19.7054 13.1996 19.2799C13.1188 19.1588 13.1188 19.001 13.1996 18.8799C13.8396 17.2799 14.5596 15.5999 15.2796 13.9999C15.3596 13.8399 15.4396 13.7599 15.5196 13.7599C15.8094 13.6725 16.0468 13.4632 16.1697 13.1866C16.2926 12.91 16.289 12.5936 16.1596 12.3199V11.9999C16.4797 11.1999 16.8197 10.3999 17.1597 9.59987C17.4997 8.79988 17.8397 7.99989 18.1596 7.1999Z" fill="#CD0124"/>
<path d="M12 9.93891C12.1201 10.0202 12.2767 10.0202 12.3968 9.93891C13.9048 8.81286 15.4127 7.76725 16.8413 6.6412C16.9206 6.56077 17 6.56077 17 6.48033V6.3999H7C7.09081 6.43367 7.17241 6.4888 7.2381 6.56077L12 9.93891Z" fill="#CD0124"/>
<path d="M12.7998 10.4949C13.4284 10.971 14.0569 11.3678 14.6855 11.7646C14.8427 11.844 15.0784 11.7646 15.3141 11.7646C15.3927 11.7646 15.4712 11.6059 15.4712 11.5266C16.0212 10.2568 16.5712 8.90772 17.1212 7.63798C17.1212 7.55862 17.1998 7.47926 17.1998 7.3999H17.1212C15.7855 8.35221 14.2927 9.38387 12.7998 10.4949Z" fill="#CD0124"/>
</svg>
