<svg width="64" height="64" fill="none" xmlns="http://www.w3.org/2000/svg"><rect width="64" height="64" rx="4" fill="#CD0124"/><circle cx="32" cy="32" r="32" fill="#fff"/><path d="M38.158 33.537c0-.425 0-.638-.424-.85-1.483-1.065-3.178-2.128-4.66-3.192a.95.95 0 00-1.06 0l-4.661 3.404a1.171 1.171 0 00-.636 1.064c-.01.459-.157.903-.423 1.276a.96.96 0 000 1.064c1.694 3.405 3.177 6.809 4.872 10.213.636 1.064 1.06 2.34 1.695 3.617.212-.213.212-.425.424-.638 1.907-4.255 3.602-8.51 5.509-12.766.212-.426.212-.639-.212-.851a2.797 2.797 0 01-.424-2.34zm-7.225-5.596c-4.267-2.985-8.534-5.97-12.587-8.741l-.213.213c.213.427.213.64.427 1.066l4.48 9.594c.426.853.64 1.706 1.92 1.92.368.032.739-.042 1.066-.214 1.28-1.066 2.773-1.919 4.053-2.985l.854-.853z" fill="#CD0124"/><path fill-rule="evenodd" clip-rule="evenodd" d="M0 32C0 14.327 14.327 0 32 0a32 32 0 0132 32c0 17.673-14.327 32-32 32C14.327 64 0 49.673 0 32zm48.426-12.8c.213-.427.426-.64.853-.64a2.773 2.773 0 002.347-2.774 2.987 2.987 0 00-1.92-2.56 2.453 2.453 0 00-2.987 1.067c-.213.64-.64.64-1.067.64H18.56c-.64 0-.853 0-1.067-.427a2.645 2.645 0 00-3.2-1.066 3.286 3.286 0 00-1.92 2.773 2.73 2.73 0 002.347 2.56c.64 0 .853.213.853.427a335.79 335.79 0 015.974 12.586.96.96 0 010 1.067 2.73 2.73 0 001.92 4.053c.472.096.87.414 1.066.854a350.642 350.642 0 013.094 6.4c1.013 2.133 2.026 4.266 3.093 6.4.212.4.212.88 0 1.28a2.453 2.453 0 00.64 3.413c1.032.791 2.489.7 3.413-.213a2.688 2.688 0 00.427-3.627.96.96 0 010-1.067 339.746 339.746 0 015.547-13.013c.213-.427.426-.64.64-.64a2.773 2.773 0 001.706-3.84V32a325 325 0 012.667-6.4 330.15 330.15 0 002.667-6.4z" fill="#CD0124"/><path d="M32 26.504a.942.942 0 001.058 0c4.021-3.003 8.042-5.791 11.852-8.794.212-.214.423-.214.423-.429v-.214H18.667c.242.09.46.237.634.429L32 26.504zm2.133 1.482c1.676 1.27 3.352 2.328 5.028 3.386.42.212 1.048 0 1.677 0 .21 0 .419-.423.419-.634 1.466-3.386 2.933-6.984 4.4-10.37 0-.212.21-.423.21-.635h-.21c-3.562 2.54-7.543 5.29-11.524 8.253z" fill="#CD0124"/></svg>