<svg width="64" height="64" fill="none" xmlns="http://www.w3.org/2000/svg"><rect width="64" height="64" rx="4" fill="#070A0E"/><path fill-rule="evenodd" clip-rule="evenodd" d="M18.488 42.73a3.222 3.222 0 01-1.543-2.746v-6.252c0-.743.605-1.344 1.348-1.341.236 0 .47.064.675.182L33.077 40.8a2.683 2.683 0 011.334 2.32v6.477a1.607 1.607 0 01-1.607 1.613c-.297 0-.592-.083-.844-.237L18.488 42.73zm21.03-11.869a2.694 2.694 0 011.334 2.32v13.146c0 .387-.208.745-.547.934L37.217 49a.538.538 0 01-.125.051v-7.3a2.69 2.69 0 00-1.308-2.306l-12.39-7.412v-8.24a1.34 1.34 0 011.346-1.34c.237 0 .47.064.676.182l14.102 8.227zm6.177-9.709a2.685 2.685 0 011.338 2.324v19.2a1.09 1.09 0 01-.567.944l-2.928 1.58V31.834c0-.944-.496-1.818-1.302-2.304L29.57 21.933V14.12c0-.237.064-.47.18-.675a1.347 1.347 0 011.836-.487l14.11 8.195z" fill="#00D395"/></svg>