<svg width="64" height="64" fill="none" xmlns="http://www.w3.org/2000/svg"><rect width="64" height="64" rx="4" fill="#2E3148"/><circle cx="32" cy="32" r="18.568" fill="#1B1E36"/><path fill-rule="evenodd" clip-rule="evenodd" d="M25.81 32.066c0-15.455 2.802-27.983 6.256-27.983S38.32 16.61 38.32 32.066s-2.8 27.984-6.254 27.984c-3.454 0-6.255-12.529-6.255-27.984zm5.898 26.536s.395.395.79-.131c0 0 1.855-1.582 3.18-9.088 0 0 1.721-9.877 1.458-18.7 0 0 .263-10.14-2.646-20.938 0 0-.985-3.48-2.16-4.313a.494.494 0 00-.633.052c-.81.8-3.188 4.406-4.496 19.67 0 0-.662 19.226 2.12 28.18 0 0 .796 3.425 2.387 5.268z" fill="#6F7390"/><path fill-rule="evenodd" clip-rule="evenodd" d="M28.946 26.64c13.412-7.692 25.673-11.497 27.392-8.5 1.719 2.996-7.742 11.66-21.154 19.352-13.412 7.69-25.673 11.495-27.392 8.499-1.718-2.996 7.742-11.661 21.154-19.352zM8.87 44.955s-.149.54.51.624c0 0 2.294.823 9.464-1.761 0 0 9.424-3.42 16.946-8.04 0 0 8.927-4.82 16.84-12.72 0 0 2.535-2.585 2.667-4.018a.494.494 0 00-.358-.527c-1.095-.302-5.409-.574-19.298 5.888 0 0-17.008 8.993-23.393 15.863 0 0-2.57 2.394-3.378 4.69z" fill="#6F7390"/><path fill-rule="evenodd" clip-rule="evenodd" d="M35.209 26.648C48.574 34.397 58.01 43.101 56.278 46.09c-1.732 2.995-13.975-.858-27.348-8.607C15.558 29.735 6.122 21.037 7.854 18.041c1.731-2.994 13.99.858 27.355 8.607zM9.287 18.443s-.54.146-.285.753l.002.007s.438 2.395 6.272 7.307c0 0 7.677 6.444 15.442 10.631 0 0 8.641 5.308 19.446 8.206 0 0 3.506.892 4.814.293a.494.494 0 00.274-.574c-.288-1.098-2.213-4.967-14.766-13.75 0 0-16.303-10.213-25.446-12.295 0 0-3.36-1.03-5.753-.578z" fill="#6F7390"/><circle cx="32" cy="32" r="3.292" fill="#B7B9C8"/><ellipse cx="45.498" cy="19.358" rx="1.909" ry="1.975" fill="#B7B9C8"/><ellipse cx="14.156" cy="26.074" rx="1.909" ry="1.975" fill="#B7B9C8"/><ellipse cx="28.115" cy="50.305" rx="1.91" ry="1.975" fill="#B7B9C8"/></svg>