<svg width="64" height="64" fill="none" xmlns="http://www.w3.org/2000/svg"><rect width="64" height="64" rx="4" fill="#fff"/><path fill-rule="evenodd" clip-rule="evenodd" d="M12.267 20.451L32 9.067 51.733 20.45v22.77L32 54.605 12.267 43.221V20.45zm11.942-1.541h15.542l1.859 7.906H22.39l1.82-7.906zm3.955 18.5l.514-4.942-1.7-4.427h10.044l-1.66 4.427.474 4.942h-7.672zm11.627 8.3h-2.808l-3.362-3.083v-1.58l3.48-3.321v-5.258l4.548-2.964 5.18 3.913-7.038 12.294zm-12.695.04l3.362-3.123v-1.58l-3.48-3.321v-5.258l-4.588-2.925-5.22 3.874 7.08 12.333h2.846z" fill="#03316C"/></svg>