<svg width="24" height="24" viewBox="0 0 24 24" fill="none" xmlns="http://www.w3.org/2000/svg">
<rect width="24" height="24" rx="4" fill="white"/>
<path fill-rule="evenodd" clip-rule="evenodd" d="M4.59961 7.66913L11.9996 3.3999L19.3996 7.66913V16.2076L11.9996 20.4768L4.59961 16.2076V7.66913ZM9.07817 7.09101H14.9062L15.6032 10.0558H8.396L9.07817 7.09101ZM10.5611 14.0285L10.7539 12.1755L10.1162 10.5153H13.883L13.2601 12.1755L13.4381 14.0285H11.9848H10.5611ZM14.9211 17.1415H13.8681L12.6076 15.9852V15.3923L13.9126 14.1471V12.1755L15.618 11.0638L17.5607 12.5313L14.9211 17.1415ZM10.1607 17.1563L11.4213 15.9852V15.3923L10.1162 14.1471V12.1755L8.396 11.0786L6.43849 12.5313L9.093 17.1563H10.1607Z" fill="#03316C"/>
</svg>
