<svg width="64" height="64" fill="none" xmlns="http://www.w3.org/2000/svg"><rect width="64" height="64" rx="4" fill="#F5AC37"/><path fill-rule="evenodd" clip-rule="evenodd" d="M16.76 49.64v.12l-.005.004v.02h13.88a24.607 24.607 0 004.68-.38c1.626-.318 3.21-.82 4.72-1.499.655-.303 1.284-.67 1.918-1.04.16-.094.321-.187.483-.28a24.103 24.103 0 002.14-1.72c1.86-1.682 3.3-3.78 4.2-6.12a.5.5 0 01.58-.38h3.78c.301 0 .4-.1.4-.44v-2.421a3.886 3.886 0 000-.699c0-.06.017-.12.032-.181.031-.12.062-.24-.031-.36h-3.158c-.382 0-.382-.04-.382-.38.11-1.219.11-2.441 0-3.66-.02-.36.06-.36.34-.36h2.76c.322 0 .441-.08.441-.4v-3.28c-.01-.218-.015-.328-.072-.384-.06-.057-.174-.057-.407-.057h-3.58a.52.52 0 01-.598-.42 16.04 16.04 0 00-1.562-3.06 19.277 19.277 0 00-2.14-2.66 17.643 17.643 0 00-3.52-2.72 19.55 19.55 0 00-6.26-2.32 22.85 22.85 0 00-3.24-.36H17.162c-.4 0-.4.08-.4.4v10.78c0 .38-.081.38-.38.38h-4.3c-.32 0-.32.06-.32.28v3.52c0 .319.099.319.34.319h4.34c.32 0 .32.059.32.3v3.76c0 .339-.101.339-.36.339h-4.64v3.8c0 .32.099.32.34.32h4.34c.32 0 .32.039.32.3V49.64zm27.621-24.22a.39.39 0 010 .28h.097c-.04.12-.24.16-.24.16h-23.08c-.38 0-.38-.08-.38-.38v-7.1c0-.26.04-.38.34-.38h10.74c1.143-.01 2.283.11 3.4.36a14.376 14.376 0 016 3.04c.345.258.654.562.92.9.565.56 1.06 1.184 1.48 1.86.28.397.52.819.723 1.26zm.958 8.84h-24.08c-.243 0-.363 0-.422-.06-.058-.059-.058-.174-.058-.4v-3.56c0-.28.081-.38.38-.38h24.2c.26 0 .38.1.38.34.1 1.238.1 2.483 0 3.72-.018.34-.14.34-.4.34zm-.958 4.16a4.672 4.672 0 00-1.022 0h-22.18c-.299 0-.4 0-.4.4v6.94c0 .32 0 .401.4.401h10.24c.49.038.98.003 1.46-.1a15.248 15.248 0 004.341-.96 7.948 7.948 0 001.459-.68h.14c2.4-1.248 4.35-3.21 5.58-5.617 0 0 .14-.302-.018-.382v-.002z" fill="#FEFEFD"/></svg>