<svg width="64" height="64" fill="none" xmlns="http://www.w3.org/2000/svg"><rect width="64" height="64" rx="4" fill="#008CE3"/><path d="M36.864 17.988h-12.57l-1.03 5.811 11.333.02c5.584 0 7.233 2.02 7.191 5.379-.02 1.73-.762 4.636-1.092 5.584-.865 2.513-2.617 5.398-9.252 5.378H20.421l-1.051 5.83h12.528c4.41 0 6.305-.514 8.283-1.442 4.41-2.04 7.047-6.387 8.098-12.074 1.587-8.469-.37-14.486-11.415-14.486" fill="#fff"/><path d="M18.894 29.074c-3.297 0-3.77 2.143-4.08 3.441-.412 1.69-.535 2.39-.535 2.39h12.857c3.297 0 3.771-2.142 4.08-3.44.412-1.69.536-2.39.536-2.39H18.894z" fill="#fff"/></svg>