<svg width="24" height="24" viewBox="0 0 24 24" fill="none" xmlns="http://www.w3.org/2000/svg">
<rect width="24" height="24" rx="4" fill="#008CE3"/>
<path d="M13.8239 6.74561H9.11042L8.72407 8.92461L12.9739 8.93234C15.0679 8.93234 15.6861 9.68958 15.6706 10.9491C15.6629 11.5981 15.3847 12.6877 15.2611 13.0431C14.9366 13.9858 14.2798 15.0676 11.7917 15.0598H7.65775L7.26367 17.2466H11.9617C13.6152 17.2466 14.3261 17.0534 15.0679 16.7057C16.7215 15.9407 17.7105 14.3103 18.1046 12.1777C18.6996 9.00188 17.9655 6.74561 13.8239 6.74561Z" fill="white"/>
<path d="M7.08534 10.9028C5.84902 10.9028 5.6713 11.7064 5.55539 12.1932C5.40085 12.8269 5.35449 13.0896 5.35449 13.0896H10.1761C11.4124 13.0896 11.5902 12.286 11.7061 11.7992C11.8606 11.1655 11.907 10.9028 11.907 10.9028H7.08534Z" fill="white"/>
</svg>
