<svg width="64" height="64" fill="none" xmlns="http://www.w3.org/2000/svg"><rect width="64" height="64" rx="4" fill="url(#paint0_linear_573_470516)"/><path d="M22.672 20.8v24h20l-20-24z" fill="url(#paint1_linear_573_470516)"/><path d="M2.672 44.8h20v-24l-20 24z" fill="#fff"/><path fill="#FC9965" d="M0 51.2h64v6.4H0z"/><path d="M0 57.6h64V60a4 4 0 01-4 4H4a4 4 0 01-4-4v-2.4z" fill="#FF2D55"/><path d="M42.927 33.6v17.6H57.6L42.927 33.6z" fill="url(#paint2_linear_573_470516)"/><path d="M42.928 44.8H2.672A31.863 31.863 0 006.4 51.2h36.544v-6.4h-.016z" fill="#FFBC5B"/><path d="M28.27 51.2h14.657V33.6L28.27 51.2z" fill="#fff"/><circle cx="42.927" cy="20.8" r="8" fill="#FFC95B"/><circle cx="22.672" cy="12" r="4" fill="#FFC95B"/><defs><linearGradient id="paint0_linear_573_470516" x1="32" y1="0" x2="0" y2="32" gradientUnits="userSpaceOnUse"><stop stop-color="#FF2D55"/><stop offset="1" stop-color="#FFBC5B"/></linearGradient><linearGradient id="paint1_linear_573_470516" x1="22.665" y1="20.8" x2="22.665" y2="44.8" gradientUnits="userSpaceOnUse"><stop stop-color="#A524B3"/><stop offset="1" stop-color="#FF2D55"/></linearGradient><linearGradient id="paint2_linear_573_470516" x1="42.922" y1="33.6" x2="42.922" y2="51.2" gradientUnits="userSpaceOnUse"><stop stop-color="#A524B3"/><stop offset="1" stop-color="#FF2D55"/></linearGradient></defs></svg>