<svg width="64" height="64" fill="none" xmlns="http://www.w3.org/2000/svg"><g clip-path="url(#clip0_235_4239)"><rect width="64" height="64" rx="4" fill="#fff"/><path d="M12.24 51.974v-9.427h5.512v-21.48h-5.486v-9.041h.798c7.418 0 14.785.026 22.202-.026 1.649 0 3.091.438 4.534 1.005 2.91 1.107 5.46 2.833 7.495 5.254a17.865 17.865 0 013.683 7.392c1.082 4.74 1.108 9.53-.258 14.218-1.803 6.104-5.666 10.302-12.08 11.719a15.426 15.426 0 01-3.45.412H13.141c-.284-.026-.567-.026-.902-.026zm16.742-9.452c1.262 0 2.472.077 3.683-.026 1.571-.155 2.988-.644 4.044-2.01.901-1.158 1.7-2.317 2.086-3.682.85-2.988.515-6.027-.077-9.041-.335-1.803-1.185-3.451-2.318-4.816-.67-.773-1.597-1.649-2.524-1.803-1.546-.284-3.22-.078-4.894-.078v21.456z" fill="#C2A633"/></g><defs><clipPath id="clip0_235_4239"><path fill="#fff" d="M0 0h64v64H0z"/></clipPath></defs></svg>