<svg width="24" height="24" viewBox="0 0 24 24" fill="none" xmlns="http://www.w3.org/2000/svg">
<g clip-path="url(#clip0_564_20166)">
<rect width="24" height="24" rx="4" fill="white"/>
<path fill-rule="evenodd" clip-rule="evenodd" d="M16.1763 7.77503C16.1216 7.72041 16.0889 7.66578 16.0889 7.58931C16.0889 7.51283 16.1216 7.4582 16.1763 7.40358C16.2855 7.30525 16.4603 7.30525 16.5805 7.40358C16.6351 7.4582 16.6679 7.51283 16.6679 7.58931C16.6679 7.66578 16.6351 7.72041 16.5805 7.77503C16.5259 7.81873 16.4494 7.85151 16.3838 7.85151C16.3074 7.86243 16.2309 7.84058 16.1763 7.77503Z" fill="#0D022B"/>
<path fill-rule="evenodd" clip-rule="evenodd" d="M15.4769 8.5287C15.4332 8.47407 15.4004 8.41944 15.4004 8.34297C15.4004 8.26649 15.4332 8.21187 15.4769 8.15724C15.5752 8.05891 15.75 8.05891 15.8483 8.15724C15.892 8.21187 15.9248 8.26649 15.9248 8.34297C15.9248 8.41944 15.892 8.47407 15.8483 8.5287C15.7937 8.5724 15.7391 8.60517 15.6626 8.60517C15.5861 8.60517 15.5315 8.5724 15.4769 8.5287Z" fill="#0D022B"/>
<path fill-rule="evenodd" clip-rule="evenodd" d="M14.7122 9.24989C14.6685 9.20619 14.6357 9.14063 14.6357 9.06416C14.6357 8.98768 14.6685 8.93306 14.7122 8.87843C14.8105 8.78011 14.9853 8.78011 15.0837 8.87843C15.1274 8.92213 15.1602 8.98768 15.1602 9.06416C15.1602 9.14063 15.1274 9.19526 15.0837 9.24989C15.029 9.30451 14.9744 9.32636 14.8979 9.32636C14.8215 9.32636 14.7559 9.29359 14.7122 9.24989Z" fill="#0D022B"/>
<path fill-rule="evenodd" clip-rule="evenodd" d="M13.98 9.98182C13.9254 9.93812 13.8926 9.87257 13.8926 9.79609C13.8926 9.71962 13.9254 9.66499 13.98 9.61037C14.0892 9.51204 14.264 9.51204 14.3842 9.61037C14.4388 9.65407 14.4716 9.71962 14.4716 9.79609C14.4716 9.87257 14.4388 9.93812 14.3842 9.98182C14.3296 10.0364 14.2531 10.0583 14.1876 10.0583C14.1111 10.0583 14.0455 10.0474 13.98 9.98182Z" fill="#0D022B"/>
<path fill-rule="evenodd" clip-rule="evenodd" d="M13.2816 10.7138C13.2269 10.6701 13.2051 10.6045 13.2051 10.528C13.2051 10.4516 13.2379 10.3969 13.2816 10.3423C13.3799 10.244 13.5547 10.244 13.653 10.3423C13.7076 10.386 13.7295 10.4516 13.7295 10.528C13.7295 10.6045 13.6967 10.6701 13.653 10.7138C13.6093 10.7684 13.5438 10.7902 13.4673 10.7902C13.4017 10.8012 13.3253 10.7793 13.2816 10.7138Z" fill="#0D022B"/>
<path fill-rule="evenodd" clip-rule="evenodd" d="M12.4404 11.2602C12.4404 11.1837 12.4732 11.1291 12.5169 11.0745C12.6152 10.9762 12.79 10.9762 12.8884 11.0745C12.943 11.1291 12.9648 11.1837 12.9648 11.2602C12.9648 11.3367 12.9321 11.3913 12.8884 11.4459C12.8447 11.4896 12.7791 11.5224 12.7026 11.5224C12.6262 11.5224 12.5715 11.4896 12.5169 11.4459C12.4623 11.4022 12.4404 11.3367 12.4404 11.2602Z" fill="#0D022B"/>
<path fill-rule="evenodd" clip-rule="evenodd" d="M11.0745 12.8771C11.0308 12.8334 10.998 12.7678 10.998 12.6914C10.998 12.6149 11.0308 12.5603 11.0745 12.5056C11.1728 12.4073 11.3477 12.4073 11.446 12.5056C11.5006 12.5603 11.5225 12.6149 11.5225 12.6914C11.5225 12.7678 11.4897 12.8225 11.446 12.8771C11.4023 12.9317 11.3367 12.9536 11.2603 12.9536C11.1947 12.9645 11.1291 12.9426 11.0745 12.8771Z" fill="#0D022B"/>
<path fill-rule="evenodd" clip-rule="evenodd" d="M10.3208 13.609C10.2662 13.5653 10.2334 13.4998 10.2334 13.4233C10.2334 13.3468 10.2662 13.2922 10.3208 13.2376C10.4301 13.1392 10.6049 13.1392 10.725 13.2376C10.7797 13.2922 10.8124 13.3468 10.8124 13.4233C10.8124 13.4998 10.7797 13.5544 10.725 13.609C10.6704 13.6636 10.5939 13.6855 10.5284 13.6855C10.441 13.6964 10.3754 13.6636 10.3208 13.609Z" fill="#0D022B"/>
<path fill-rule="evenodd" clip-rule="evenodd" d="M9.61066 14.3519C9.56696 14.3082 9.53418 14.2427 9.53418 14.1662C9.53418 14.0897 9.56696 14.0242 9.61066 13.9805C9.70898 13.8822 9.88379 13.8822 9.98211 13.9805C10.0258 14.0242 10.0586 14.0897 10.0586 14.1662C10.0586 14.2427 10.0258 14.2973 9.98211 14.3519C9.92749 14.4066 9.87286 14.4284 9.79638 14.4284C9.71991 14.4284 9.67621 14.3956 9.61066 14.3519Z" fill="#0D022B"/>
<path fill-rule="evenodd" clip-rule="evenodd" d="M8.87823 15.0839C8.82361 15.0402 8.80176 14.9746 8.80176 14.8981C8.80176 14.8217 8.83453 14.767 8.87823 14.7124C8.97656 14.6141 9.15136 14.6141 9.24969 14.7124C9.29339 14.767 9.32616 14.8217 9.32616 14.8981C9.32616 14.9746 9.29339 15.0402 9.24969 15.0839C9.19506 15.1385 9.14044 15.1604 9.06396 15.1604C8.99841 15.1604 8.92193 15.1385 8.87823 15.0839Z" fill="#0D022B"/>
<path fill-rule="evenodd" clip-rule="evenodd" d="M8.12451 15.8158C8.06988 15.7721 8.03711 15.7066 8.03711 15.6301C8.03711 15.5536 8.06988 15.499 8.12451 15.4444C8.23376 15.346 8.40856 15.346 8.50689 15.4444C8.56152 15.499 8.59429 15.5536 8.59429 15.6301C8.59429 15.7066 8.56152 15.7721 8.50689 15.8158C8.45226 15.8595 8.37579 15.8923 8.31024 15.8923C8.23376 15.8923 8.16821 15.8704 8.12451 15.8158Z" fill="#0D022B"/>
<path fill-rule="evenodd" clip-rule="evenodd" d="M7.40362 16.5477C7.349 16.4931 7.32715 16.4385 7.32715 16.362C7.32715 16.2855 7.35992 16.2309 7.40362 16.1763C7.50195 16.078 7.67675 16.078 7.77508 16.1763C7.8297 16.2309 7.85155 16.2855 7.85155 16.362C7.85155 16.4385 7.81878 16.4931 7.77508 16.5477C7.73138 16.5914 7.66583 16.6242 7.58935 16.6242C7.53473 16.6351 7.46917 16.6024 7.40362 16.5477Z" fill="#0D022B"/>
<path fill-rule="evenodd" clip-rule="evenodd" d="M7.77508 7.77503C7.81878 7.72041 7.85155 7.66578 7.85155 7.58931C7.85155 7.51283 7.81878 7.4582 7.77508 7.40358C7.67675 7.30525 7.50195 7.30525 7.40362 7.40358C7.349 7.4582 7.32715 7.51283 7.32715 7.58931C7.32715 7.66578 7.35992 7.72041 7.40362 7.77503C7.44732 7.81873 7.51288 7.85151 7.58935 7.85151C7.66583 7.86243 7.73138 7.84058 7.77508 7.77503Z" fill="#0D022B"/>
<path fill-rule="evenodd" clip-rule="evenodd" d="M8.50725 8.5287C8.56188 8.47407 8.59466 8.41944 8.59466 8.34297C8.59466 8.26649 8.56188 8.21187 8.50725 8.15724C8.398 8.05891 8.2232 8.05891 8.10303 8.15724C8.0484 8.21187 8.01562 8.26649 8.01562 8.34297C8.01562 8.41944 8.0484 8.47407 8.10303 8.5287C8.15765 8.5724 8.23413 8.60517 8.29968 8.60517C8.37615 8.59425 8.45263 8.5724 8.50725 8.5287Z" fill="#0D022B"/>
<path fill-rule="evenodd" clip-rule="evenodd" d="M9.24969 9.24989C9.29339 9.20619 9.32616 9.14063 9.32616 9.06416C9.32616 8.98768 9.29339 8.93306 9.24969 8.87843C9.15136 8.78011 8.97656 8.78011 8.87823 8.87843C8.83453 8.92213 8.80176 8.98768 8.80176 9.06416C8.80176 9.14063 8.83453 9.19526 8.87823 9.24989C8.93286 9.30451 8.98748 9.32636 9.06396 9.32636C9.12951 9.32636 9.19506 9.29359 9.24969 9.24989Z" fill="#0D022B"/>
<path fill-rule="evenodd" clip-rule="evenodd" d="M9.98211 9.98182C10.0258 9.93812 10.0586 9.87257 10.0586 9.79609C10.0586 9.71962 10.0258 9.66499 9.98211 9.61037C9.88379 9.51204 9.70898 9.51204 9.61066 9.61037C9.56696 9.65407 9.53418 9.71962 9.53418 9.79609C9.53418 9.87257 9.56696 9.93812 9.61066 9.98182C9.66528 10.0364 9.71991 10.0583 9.79638 10.0583C9.86193 10.0583 9.92749 10.0474 9.98211 9.98182Z" fill="#0D022B"/>
<path fill-rule="evenodd" clip-rule="evenodd" d="M10.7032 10.7138C10.7578 10.6701 10.7906 10.6045 10.7906 10.528C10.7906 10.4516 10.7578 10.3969 10.7032 10.3423C10.6049 10.244 10.4191 10.244 10.3208 10.3423C10.2662 10.386 10.2334 10.4516 10.2334 10.528C10.2334 10.6045 10.2662 10.6701 10.3208 10.7138C10.3754 10.7684 10.4519 10.7902 10.5175 10.7902C10.583 10.8012 10.6595 10.7793 10.7032 10.7138Z" fill="#0D022B"/>
<path fill-rule="evenodd" clip-rule="evenodd" d="M11.5225 11.2602C11.5225 11.1837 11.4897 11.1291 11.446 11.0745C11.3477 10.9762 11.1728 10.9762 11.0745 11.0745C11.0199 11.1291 10.998 11.1837 10.998 11.2602C10.998 11.3367 11.0308 11.3913 11.0745 11.4459C11.1182 11.4896 11.1838 11.5224 11.2603 11.5224C11.3367 11.5224 11.3914 11.4896 11.446 11.4459C11.5006 11.4022 11.5225 11.3367 11.5225 11.2602Z" fill="#0D022B"/>
<path fill-rule="evenodd" clip-rule="evenodd" d="M12.1774 12.1888C12.232 12.1342 12.2539 12.0796 12.2539 12.0031C12.2539 11.9266 12.2211 11.872 12.1774 11.8174C12.0791 11.7191 11.9043 11.7191 11.806 11.8174C11.7513 11.872 11.7295 11.9266 11.7295 12.0031C11.7295 12.0796 11.7623 12.1342 11.806 12.1888C11.8497 12.2325 11.9152 12.2653 11.9917 12.2653C12.0682 12.2653 12.1337 12.2325 12.1774 12.1888Z" fill="#0D022B"/>
<path fill-rule="evenodd" clip-rule="evenodd" d="M12.9102 12.8771C12.9648 12.8334 12.9976 12.7678 12.9976 12.6914C12.9976 12.6149 12.9648 12.5603 12.9102 12.5056C12.801 12.4073 12.6262 12.4073 12.5278 12.5056C12.4732 12.5603 12.4404 12.6149 12.4404 12.6914C12.4404 12.7678 12.4732 12.8225 12.5278 12.8771C12.5825 12.9317 12.6589 12.9536 12.7245 12.9536C12.7791 12.9645 12.8556 12.9426 12.9102 12.8771Z" fill="#0D022B"/>
<path fill-rule="evenodd" clip-rule="evenodd" d="M13.653 13.609C13.6967 13.5653 13.7295 13.4998 13.7295 13.4233C13.7295 13.3468 13.6967 13.2922 13.653 13.2376C13.5547 13.1392 13.3799 13.1392 13.2816 13.2376C13.2379 13.2922 13.2051 13.3468 13.2051 13.4233C13.2051 13.4998 13.2379 13.5544 13.2816 13.609C13.3362 13.6636 13.3908 13.6855 13.4673 13.6855C13.5219 13.6964 13.5984 13.6636 13.653 13.609Z" fill="#0D022B"/>
<path fill-rule="evenodd" clip-rule="evenodd" d="M14.3845 14.3519C14.4282 14.3082 14.4609 14.2427 14.4609 14.1662C14.4609 14.0897 14.4282 14.0242 14.3845 13.9805C14.2861 13.8822 14.1113 13.8822 14.013 13.9805C13.9693 14.0242 13.9365 14.0897 13.9365 14.1662C13.9365 14.2427 13.9693 14.2973 14.013 14.3519C14.0676 14.4066 14.1223 14.4284 14.1987 14.4284C14.2752 14.4284 14.3298 14.3956 14.3845 14.3519Z" fill="#0D022B"/>
<path fill-rule="evenodd" clip-rule="evenodd" d="M15.0729 15.0839C15.1276 15.0402 15.1494 14.9746 15.1494 14.8981C15.1494 14.8217 15.1166 14.767 15.0729 14.7124C14.9746 14.6141 14.7998 14.6141 14.7015 14.7124C14.6578 14.767 14.625 14.8217 14.625 14.8981C14.625 14.9746 14.6578 15.0402 14.7015 15.0839C14.7561 15.1385 14.8107 15.1604 14.8872 15.1604C14.9528 15.1604 15.0292 15.1385 15.0729 15.0839Z" fill="#0D022B"/>
<path fill-rule="evenodd" clip-rule="evenodd" d="M15.8483 15.8158C15.9029 15.7721 15.9248 15.7066 15.9248 15.6301C15.9248 15.5536 15.892 15.499 15.8483 15.4444C15.75 15.346 15.5752 15.346 15.4769 15.4444C15.4222 15.499 15.4004 15.5536 15.4004 15.6301C15.4004 15.7066 15.4332 15.7721 15.4769 15.8158C15.5206 15.8595 15.5861 15.8923 15.6626 15.8923C15.7391 15.8923 15.8046 15.8704 15.8483 15.8158Z" fill="#0D022B"/>
<path fill-rule="evenodd" clip-rule="evenodd" d="M16.5811 16.5477C16.6357 16.4931 16.6685 16.4385 16.6685 16.362C16.6685 16.2855 16.6357 16.2309 16.5811 16.1763C16.4719 16.078 16.2971 16.078 16.1987 16.1763C16.1441 16.2309 16.1113 16.2855 16.1113 16.362C16.1113 16.4385 16.1441 16.4931 16.1987 16.5477C16.2534 16.5914 16.3298 16.6242 16.3954 16.6242C16.45 16.6351 16.5156 16.6024 16.5811 16.5477Z" fill="#0D022B"/>
<path fill-rule="evenodd" clip-rule="evenodd" d="M9.51249 7.98256C10.2554 7.49093 11.0748 7.2615 11.9816 7.25058C12.8665 7.25058 13.6859 7.49093 14.4506 7.98256L16.0239 6.40934C14.7893 5.46978 13.4565 5 11.9816 5C10.5067 5 9.15196 5.46978 7.9502 6.40934L9.51249 7.98256Z" fill="#0D022B"/>
<path fill-rule="evenodd" clip-rule="evenodd" d="M7.93886 14.4394C7.4363 13.6747 7.19595 12.8662 7.19595 11.9922C7.19595 11.1073 7.4363 10.2879 7.93886 9.54496L6.37657 7.98267C5.45886 9.18443 5 10.5173 5 12.0031C5 13.4671 5.45886 14.8109 6.38749 16.0345L7.93886 14.4394Z" fill="#0D022B"/>
<path fill-rule="evenodd" clip-rule="evenodd" d="M14.4389 16.0017C13.696 16.5043 12.8766 16.7665 11.9917 16.7774C11.0849 16.7774 10.2546 16.537 9.5117 16.0126L7.93848 17.5749C9.15117 18.5254 10.5059 18.9952 11.9917 18.9843C13.4666 18.9733 14.7995 18.4926 16.0012 17.5749L14.4389 16.0017Z" fill="#0D022B"/>
<path fill-rule="evenodd" clip-rule="evenodd" d="M15.9795 9.52305C16.482 10.2878 16.7443 11.1181 16.7224 12.014C16.7115 12.888 16.4602 13.6855 15.9795 14.4175L17.5527 15.9798C18.4813 14.778 18.9621 13.4452 18.9621 11.9812C18.973 10.4954 18.5032 9.14067 17.5527 7.92798L15.9795 9.52305Z" fill="#0D022B"/>
<path fill-rule="evenodd" clip-rule="evenodd" d="M17.6181 16.4932C18.219 16.4932 18.7215 16.9848 18.7215 17.5966C18.7215 18.1975 18.2299 18.7 17.6181 18.7C17.0172 18.7 16.5146 18.2084 16.5146 17.5966C16.5146 16.9848 17.0063 16.4932 17.6181 16.4932Z" fill="#0D022B"/>
<path fill-rule="evenodd" clip-rule="evenodd" d="M6.36595 16.4932C6.96683 16.4932 7.45846 16.9848 7.45846 17.5966C7.45846 18.1975 6.96683 18.7 6.36595 18.7C5.76507 18.7 5.27344 18.2084 5.27344 17.5966C5.27344 16.9848 5.76507 16.4932 6.36595 16.4932Z" fill="#0D022B"/>
<path fill-rule="evenodd" clip-rule="evenodd" d="M17.6404 5.24023C18.2412 5.24023 18.7329 5.73187 18.7329 6.34367C18.7329 6.95548 18.2412 7.44711 17.6404 7.44711C17.0395 7.44711 16.5479 6.95548 16.5479 6.34367C16.5479 5.73187 17.0395 5.24023 17.6404 5.24023Z" fill="#0D022B"/>
<path fill-rule="evenodd" clip-rule="evenodd" d="M6.34367 5.24023C6.94455 5.24023 7.44711 5.73187 7.44711 6.33275C7.44711 6.93363 6.95548 7.42526 6.34367 7.42526C5.74279 7.42526 5.24023 6.93363 5.24023 6.33275C5.24023 5.73187 5.73187 5.24023 6.34367 5.24023Z" fill="#0D022B"/>
</g>
<defs>
<clipPath id="clip0_564_20166">
<rect width="24" height="24" fill="white"/>
</clipPath>
</defs>
</svg>
