<svg width="64" height="64" fill="none" xmlns="http://www.w3.org/2000/svg"><g clip-path="url(#clip0_257_1624)"><rect width="64" height="64" rx="4" fill="#fff"/><path fill-rule="evenodd" clip-rule="evenodd" d="M43.137 20.733c-.146-.146-.233-.291-.233-.495 0-.204.087-.35.233-.495.291-.263.758-.263 1.078 0 .146.145.233.29.233.495 0 .204-.087.35-.233.495a.908.908 0 01-.524.204.588.588 0 01-.554-.204zm-1.864 2.01c-.117-.145-.204-.291-.204-.495 0-.204.087-.35.203-.495a.722.722 0 01.991 0c.117.145.204.291.204.495 0 .204-.087.35-.204.495-.146.117-.291.204-.495.204-.204 0-.35-.087-.495-.204zm-2.04 1.923a.703.703 0 01-.204-.495c0-.204.088-.35.204-.495a.722.722 0 01.99 0 .702.702 0 01.205.495c0 .204-.088.35-.204.495a.639.639 0 01-.496.204.703.703 0 01-.495-.204zm-1.952 1.952a.622.622 0 01-.233-.495c0-.204.087-.35.233-.495.291-.263.758-.263 1.078 0a.622.622 0 01.233.495.622.622 0 01-.233.495.748.748 0 01-.524.204c-.204 0-.379-.03-.554-.204zm-1.864 1.952c-.146-.116-.204-.291-.204-.495 0-.204.087-.35.204-.495a.722.722 0 01.99 0c.146.116.204.291.204.495a.703.703 0 01-.204.495c-.116.146-.291.204-.495.204a.493.493 0 01-.495-.204zm-2.244 1.457c0-.204.088-.35.204-.495a.722.722 0 01.99 0 .64.64 0 01.205.495c0 .204-.088.35-.204.495a.703.703 0 01-.495.204c-.204 0-.35-.087-.496-.204-.145-.116-.204-.291-.204-.495zm-3.641 4.312a.703.703 0 01-.204-.496c0-.204.087-.35.204-.495a.722.722 0 01.99 0 .64.64 0 01.204.495c0 .204-.087.35-.204.496-.116.145-.291.203-.495.203-.175.03-.35-.029-.495-.203zm-2.011 1.951a.622.622 0 01-.233-.495c0-.204.088-.35.233-.495.292-.262.758-.262 1.078 0 .146.146.233.291.233.495 0 .204-.087.35-.233.495a.748.748 0 01-.524.204.633.633 0 01-.554-.203zm-1.893 1.982a.703.703 0 010-.99.722.722 0 01.99 0 .703.703 0 01.204.494c0 .204-.087.35-.204.496a.64.64 0 01-.495.204c-.204 0-.32-.088-.495-.204zm-1.952 1.952c-.146-.117-.204-.292-.204-.496 0-.204.087-.35.204-.495a.722.722 0 01.99 0c.117.146.204.291.204.495a.703.703 0 01-.204.496.639.639 0 01-.495.204c-.175 0-.379-.059-.495-.204zm-2.01 1.951a.622.622 0 01-.233-.495c0-.204.087-.35.233-.495.29-.262.757-.262 1.02 0 .145.146.232.291.232.495a.622.622 0 01-.233.495.908.908 0 01-.524.204c-.204 0-.379-.058-.495-.203zm-1.923 1.953a.639.639 0 01-.204-.496c0-.204.087-.35.204-.495a.722.722 0 01.99 0 .639.639 0 01.204.495c0 .204-.087.35-.204.496a.703.703 0 01-.495.204c-.146.029-.32-.059-.495-.204zm.99-23.395c.117-.146.204-.291.204-.495 0-.204-.087-.35-.204-.495a.722.722 0 00-.99 0 .639.639 0 00-.204.495c0 .204.087.35.204.495a.703.703 0 00.495.204c.204.03.379-.03.495-.204zm1.952 2.01c.146-.145.233-.291.233-.495 0-.204-.087-.35-.233-.495-.291-.262-.757-.262-1.078 0-.145.145-.233.291-.233.495 0 .204.088.35.233.495.146.117.35.204.525.204.204-.029.408-.087.553-.204zm1.981 1.923a.703.703 0 00.204-.495c0-.204-.087-.35-.204-.495a.722.722 0 00-.99 0 .703.703 0 00-.204.495c0 .204.087.35.204.495a.639.639 0 00.495.204c.175 0 .35-.087.495-.204zm1.952 1.952a.703.703 0 00.204-.495c0-.204-.087-.35-.204-.495a.722.722 0 00-.99 0 .703.703 0 000 .99.639.639 0 00.495.204c.175 0 .35-.03.495-.204zm1.923 1.952a.623.623 0 00.233-.495c0-.204-.087-.35-.233-.495-.262-.262-.757-.262-1.02 0a.622.622 0 00-.233.495c0 .204.088.379.233.495.146.146.35.204.525.204a.49.49 0 00.495-.204zm2.185 1.457c0-.204-.087-.35-.204-.495a.722.722 0 00-.99 0 .64.64 0 00-.204.495c0 .204.087.35.204.495a.703.703 0 00.495.204c.204 0 .35-.087.495-.204.146-.116.204-.291.204-.495zm1.748 2.476a.639.639 0 00.204-.495c0-.204-.087-.35-.204-.495a.722.722 0 00-.99 0 .639.639 0 00-.204.495c0 .204.087.35.204.495a.703.703 0 00.99 0zm1.952 1.836a.622.622 0 00.233-.496c0-.204-.087-.35-.233-.495-.291-.262-.757-.262-1.02 0-.145.146-.233.291-.233.495 0 .204.088.35.233.496.146.145.35.203.525.203.146.03.35-.029.495-.203zm1.981 1.951a.703.703 0 00.204-.495c0-.204-.087-.35-.204-.495a.722.722 0 00-.99 0c-.117.146-.204.291-.204.495 0 .204.087.35.204.495a.64.64 0 00.495.204c.146.03.35-.058.495-.203zm1.953 1.982a.703.703 0 000-.99.722.722 0 00-.991 0 .703.703 0 00-.204.494c0 .204.087.35.204.496a.64.64 0 00.495.204c.204 0 .35-.088.495-.204zm1.834 1.952c.146-.117.204-.292.204-.496 0-.204-.087-.35-.204-.495a.722.722 0 00-.99 0c-.117.146-.204.291-.204.495 0 .204.087.379.204.496a.639.639 0 00.495.204c.175 0 .379-.059.495-.204zm2.069 1.951c.146-.116.204-.29.204-.495 0-.204-.087-.35-.204-.495a.722.722 0 00-.99 0 .64.64 0 00-.204.495c0 .204.087.379.203.495a.703.703 0 00.496.204c.204 0 .379-.058.495-.203zm1.952 1.953c.146-.146.233-.292.233-.496 0-.204-.087-.35-.233-.495-.291-.262-.757-.262-1.02 0-.145.146-.233.291-.233.495 0 .204.088.35.233.496.146.116.35.204.525.204.145.029.32-.059.495-.204zM25.366 21.287c1.98-1.311 4.166-1.923 6.584-1.952 2.36 0 4.545.64 6.584 1.952l4.195-4.195c-3.292-2.506-6.846-3.759-10.78-3.759-3.932 0-7.545 1.253-10.75 3.758l4.166 4.196zM21.17 38.505c-1.34-2.04-1.98-4.195-1.98-6.526 0-2.36.64-4.545 1.98-6.526l-4.166-4.166c-2.447 3.205-3.67 6.759-3.67 10.721 0 3.904 1.223 7.487 3.7 10.75l4.136-4.253zm17.335 4.165c-1.981 1.341-4.166 2.04-6.526 2.07-2.418 0-4.632-.642-6.613-2.04l-4.196 4.166c3.234 2.535 6.847 3.788 10.809 3.758 3.933-.029 7.487-1.31 10.692-3.758l-4.166-4.195zm4.108-17.275c1.34 2.039 2.039 4.253 1.98 6.642-.028 2.33-.698 4.458-1.98 6.41l4.195 4.166c2.476-3.205 3.758-6.76 3.758-10.663.03-3.962-1.223-7.575-3.758-10.809l-4.195 4.254zm4.37 18.587a2.953 2.953 0 012.942 2.942 2.953 2.953 0 01-2.942 2.943 2.953 2.953 0 01-2.943-2.943 2.934 2.934 0 012.943-2.942zm-30.008 0c1.602 0 2.913 1.31 2.913 2.942 0 1.603-1.31 2.943-2.913 2.943-1.602 0-2.913-1.311-2.913-2.943 0-1.631 1.31-2.942 2.913-2.942zm30.066-30.008c1.602 0 2.913 1.311 2.913 2.943 0 1.631-1.31 2.942-2.913 2.942-1.602 0-2.913-1.31-2.913-2.942 0-1.632 1.31-2.943 2.913-2.943zm-30.124 0c1.602 0 2.942 1.311 2.942 2.913 0 1.603-1.31 2.914-2.942 2.914-1.603 0-2.943-1.311-2.943-2.913 0-1.603 1.311-2.914 2.943-2.914z" fill="#0D022B"/></g><defs><clipPath id="clip0_257_1624"><path fill="#fff" d="M0 0h64v64H0z"/></clipPath></defs></svg>