<svg width="64" height="64" fill="none" xmlns="http://www.w3.org/2000/svg"><path d="M0 4a4 4 0 014-4h56a4 4 0 014 4v56a4 4 0 01-4 4H4a4 4 0 01-4-4V4z" fill="#7866D5"/><path d="M44.952 16.428c1.083.136 2.212.226 3.295.407 2.121.406 2.843 1.49 2.482 3.655-.09.813-.722 1.445-1.534 1.58-.497.09-1.038.136-1.535.09-7.04 0-14.037.046-21.077.046-1.039 0-2.122.09-3.16.27-3.475.542-4.83 1.986-5.1 5.507-.135 1.625-.135 1.625 1.535 1.625h28.795c.451 0 .858.135 1.264.36 1.264.813.948 2.122.902 3.295-.045.948-.631 1.49-1.624 1.67-.407.09-.813.09-1.264.09H19.226c-1.038 0-1.038 0-.948 1.039.045.948.135 1.895.36 2.843.452 1.715 1.49 2.798 3.25 3.295 1.896.542 3.882.632 5.823.677h20.536c.857 0 1.67.09 2.211.903.858 1.354.407 3.114-.947 3.971a1.392 1.392 0 01-.587.271c-1.49.497-3.024.587-4.604.632a458.58 458.58 0 01-19.272 0 32.512 32.512 0 01-5.913-.677c-4.558-.948-6.86-3.295-7.627-7.898-.18-1.038-.271-2.122-.406-3.205V28.48c.09-.812.18-1.67.27-2.482.587-5.19 2.934-7.763 8.034-8.937 1.806-.406 3.701-.496 5.507-.677l20.04.045z" fill="#fff"/><path fill-rule="evenodd" clip-rule="evenodd" d="M25.003 49.467c3.204.045 6.409.09 9.658.09 1.63 0 3.261-.01 4.886-.022 1.614-.011 3.222-.023 4.818-.023 1.444-.045 3.16-.135 4.83-.677a4 4 0 00.767-.36 3.74 3.74 0 001.67-2.303c.226-.947.09-1.94-.451-2.798-.813-1.309-2.212-1.309-2.89-1.309H43.78c-5.281 0-10.697 0-16.023-.045-1.715 0-3.701-.09-5.642-.632-1.444-.406-2.302-1.264-2.663-2.663-.225-.902-.316-1.805-.36-2.753v-.18h28.84c.451 0 .903 0 1.399-.09 1.4-.271 2.166-1.13 2.257-2.393 0-.067.01-.146.022-.225.011-.08.023-.158.023-.226l.002-.022c.09-1.082.213-2.558-1.311-3.544-.497-.27-1.083-.451-1.67-.451H19.09c0-.108.01-.226.021-.35.012-.134.024-.276.024-.417.271-3.16 1.31-4.288 4.423-4.785a17.18 17.18 0 013.024-.27c6.996 0 14.037-.045 21.033-.09.587 0 1.128-.046 1.67-.136 1.218-.18 2.121-1.128 2.257-2.257.45-2.617-.542-4.062-3.115-4.558-.604-.134-1.183-.194-1.755-.253-.198-.02-.395-.04-.592-.063-.316 0-.677-.045-.993-.09H24.868l-1.355.135c-1.399.135-2.798.27-4.242.587-5.462 1.218-8.08 4.062-8.711 9.613-.021.255-.053.51-.085.77-.035.292-.072.59-.096.9l-.09.813v8.575c.045.361.09.677.136.993.045.722.135 1.49.27 2.257.813 4.874 3.34 7.492 8.26 8.53 1.986.451 4.017.677 6.048.722zm-12.999-11.69c0-.316-.045-.632-.09-.947v-8.26l.09-.767c.024-.31.06-.608.097-.9.031-.26.063-.515.084-.77.541-4.875 2.618-7.177 7.357-8.35 1.161-.27 2.29-.376 3.47-.486.195-.018.393-.036.592-.056l1.354-.135h19.949c.316 0 .677.045.993.09.722.045 1.444.136 2.166.271 1.715.361 2.167.948 1.85 2.753a.961.961 0 01-.857.858c-.451.09-.902.09-1.399.09-3.52 0-7.03.011-10.539.023-3.509.01-7.018.022-10.538.022a26.28 26.28 0 00-3.295.316c-3.837.587-5.461 2.347-5.777 6.229l-.015.288c-.043.79-.073 1.339.33 1.743.452.451 1.039.451 2.032.451h28.885c.271 0 .587.09.813.226.632.406.632.947.541 2.076 0 .09-.01.17-.022.248-.011.08-.023.158-.023.248-.045.452-.225.768-.947.903-.362.09-.768.09-1.129.09H19.271c-.632 0-1.128 0-1.49.407-.35.393-.318.829-.274 1.43 0 .02.002.04.004.059v.045c0 .993.135 2.031.36 3.024.497 2.031 1.761 3.34 3.792 3.882 2.121.631 4.243.722 6.048.722 5.326.045 10.787.045 16.023.045h4.513c.858 0 1.218.135 1.49.541.315.497.406 1.038.27 1.58-.135.542-.496.993-.948 1.309a1.596 1.596 0 00-.203.09c-.068.034-.135.068-.203.09-1.444.452-3.024.542-4.333.587-6.409.136-12.908.136-19.272 0a31.06 31.06 0 01-5.777-.677c-4.243-.902-6.274-2.979-6.996-7.221l-.27-2.167z" fill="#fff"/></svg>