<svg width="24" height="24" viewBox="0 0 24 24" fill="none" xmlns="http://www.w3.org/2000/svg">
<path d="M0 4C0 1.79086 1.79086 0 4 0H20C22.2091 0 24 1.79086 24 4V20C24 22.2091 22.2091 24 20 24H4C1.79086 24 0 22.2091 0 20V4Z" fill="#7866D5"/>
<path d="M16.857 6.16072C17.2632 6.2115 17.6864 6.24535 18.0926 6.31305C18.8881 6.46538 19.1589 6.87158 19.0235 7.684C18.9896 7.98865 18.7526 8.2256 18.448 8.27638C18.2618 8.31023 18.0587 8.32716 17.8725 8.31023C15.2322 8.31023 12.6088 8.32716 9.96845 8.32716C9.57916 8.32716 9.17296 8.36101 8.78368 8.42871C7.48043 8.63181 6.97268 9.17342 6.87113 10.4936C6.82035 11.1029 6.82035 11.1029 7.44658 11.1029H17.9402C18.0418 11.1029 18.1433 11.1029 18.2449 11.1029C18.4141 11.1029 18.5665 11.1537 18.7188 11.2383C19.1927 11.543 19.0742 12.0338 19.0573 12.4738C19.0404 12.8293 18.8204 13.0324 18.448 13.1001C18.2957 13.1339 18.1433 13.1339 17.9741 13.1339C14.3859 13.1339 10.7978 13.1339 7.20963 13.1339C6.82035 13.1339 6.82035 13.1339 6.8542 13.5232C6.87113 13.8786 6.90498 14.2341 6.9896 14.5895C7.15885 15.2327 7.54814 15.6389 8.20822 15.825C8.91908 16.0281 9.66379 16.062 10.3916 16.0789C12.9473 16.0789 15.5199 16.0789 18.0926 16.0789C18.4141 16.0789 18.7188 16.1128 18.9219 16.4174C19.2435 16.9252 19.0742 17.5853 18.5665 17.9068C18.4988 17.9576 18.4311 17.9915 18.3464 18.0084C17.7879 18.1946 17.2125 18.2284 16.6201 18.2454C14.1998 18.2961 11.7964 18.2961 9.39299 18.2454C8.64828 18.2284 7.90357 18.1438 7.17578 17.9915C5.46633 17.636 4.60314 16.7559 4.31541 15.0296C4.24771 14.6403 4.21386 14.2341 4.16309 13.8279V10.6798C4.19694 10.3751 4.23079 10.0535 4.26464 9.74888C4.48467 7.80247 5.36478 6.83773 7.27733 6.39768C7.95434 6.24535 8.6652 6.2115 9.34221 6.1438L16.857 6.16072Z" fill="white"/>
<path fill-rule="evenodd" clip-rule="evenodd" d="M9.37603 18.5502C10.5777 18.5671 11.7794 18.5841 12.998 18.5841C13.6095 18.5841 14.2209 18.5798 14.8302 18.5756C15.4353 18.5713 16.0382 18.5671 16.637 18.5671C17.1786 18.5502 17.8217 18.5164 18.448 18.3133C18.5495 18.2794 18.6511 18.2286 18.7357 18.1779C19.0573 17.9748 19.2773 17.6701 19.3619 17.3147C19.4466 16.9592 19.3958 16.5869 19.1927 16.2653C18.888 15.7745 18.3633 15.7745 18.1095 15.7745H16.4169C14.4367 15.7745 12.4056 15.7745 10.4085 15.7576C9.76531 15.7576 9.0206 15.7237 8.29281 15.5206C7.7512 15.3683 7.42963 15.0467 7.29422 14.522C7.2096 14.1835 7.17575 13.845 7.15882 13.4896V13.4726V13.4219H7.22652H17.9741C18.1433 13.4219 18.3126 13.4219 18.4987 13.388C19.0234 13.2865 19.3111 12.9649 19.345 12.491C19.345 12.4656 19.3492 12.436 19.3535 12.4064C19.3577 12.3767 19.3619 12.3471 19.3619 12.3217L19.3626 12.3133C19.3964 11.9079 19.4426 11.3544 18.8711 10.9846C18.6849 10.8831 18.4649 10.8154 18.2449 10.8154H7.44655H7.15882C7.15882 10.775 7.16268 10.7308 7.16671 10.6845C7.17112 10.6338 7.17575 10.5807 7.17575 10.5276C7.2773 9.34288 7.66658 8.91975 8.83442 8.73357C9.20678 8.66587 9.59606 8.63202 9.96841 8.63202C12.5918 8.63202 15.2322 8.6151 17.8556 8.59817C18.0756 8.59817 18.2787 8.58125 18.4818 8.54739C18.9388 8.47969 19.2773 8.12426 19.3281 7.70113C19.4973 6.71947 19.125 6.17786 18.1602 5.99168C17.9337 5.94135 17.7166 5.91908 17.5019 5.89706C17.4278 5.88946 17.3539 5.88189 17.2801 5.87321C17.1616 5.87321 17.0262 5.85628 16.9078 5.83936H16.8908H9.3591H9.32525L8.8175 5.89013C8.29281 5.94091 7.76813 5.99168 7.22652 6.11016C5.17857 6.56714 4.1969 7.63343 3.95995 9.71524C3.95198 9.81092 3.94025 9.90661 3.9283 10.0041C3.91489 10.1135 3.9012 10.2251 3.89225 10.3415L3.8584 10.6461V13.8281V13.8619C3.87532 13.9973 3.89225 14.1158 3.90917 14.2343C3.9261 14.5051 3.95995 14.7928 4.01073 15.0805C4.31538 16.9085 5.26319 17.8901 7.10805 18.2794C7.85276 18.4487 8.61439 18.5333 9.37603 18.5502ZM4.50162 14.1666C4.50162 14.0481 4.4847 13.9296 4.46777 13.8111V10.7138L4.50162 10.4261C4.51058 10.3097 4.52426 10.1981 4.53767 10.0887C4.54962 9.99122 4.56135 9.89553 4.56932 9.79984C4.77243 7.97192 5.55099 7.10873 7.32814 6.66867C7.76366 6.56705 8.18672 6.52769 8.62938 6.48651C8.7028 6.47968 8.77676 6.47279 8.85141 6.46557L9.35917 6.41479H16.8401C16.9586 6.41479 17.094 6.43172 17.2125 6.44865C17.4833 6.46557 17.7541 6.49942 18.0249 6.5502C18.6681 6.6856 18.8373 6.90563 18.7188 7.58264C18.7019 7.75189 18.5665 7.88729 18.3973 7.90422C18.228 7.93807 18.0587 7.93807 17.8726 7.93807C16.5524 7.93807 15.2365 7.9423 13.9205 7.94653C12.6046 7.95076 11.2886 7.95499 9.96848 7.95499C9.54535 7.97192 9.13914 8.00577 8.73294 8.07347C7.29429 8.2935 6.68498 8.95358 6.5665 10.4092C6.56473 10.4465 6.56276 10.4825 6.56087 10.5172C6.54471 10.8136 6.53349 11.0193 6.68498 11.1708C6.85423 11.34 7.07426 11.34 7.44662 11.34H18.2788C18.3803 11.34 18.4988 11.3739 18.5834 11.4247C18.8204 11.577 18.8204 11.7801 18.7865 12.2032C18.7865 12.2371 18.7823 12.2667 18.7781 12.2963C18.7738 12.3259 18.7696 12.3556 18.7696 12.3894C18.7527 12.5587 18.685 12.6771 18.4142 12.7279C18.2788 12.7618 18.1264 12.7618 17.991 12.7618H7.22659C6.98964 12.7618 6.80346 12.7618 6.66806 12.9141C6.53689 13.0617 6.54867 13.2251 6.56492 13.4506C6.56545 13.4579 6.56597 13.4652 6.5665 13.4726V13.4895C6.5665 13.8619 6.61728 14.2512 6.70191 14.6235C6.88808 15.3852 7.36199 15.876 8.12363 16.0791C8.91911 16.3161 9.7146 16.3499 10.3916 16.3499C12.3888 16.3668 14.4367 16.3668 16.4001 16.3668H18.0926C18.4142 16.3668 18.5496 16.4176 18.6511 16.5699C18.7696 16.7561 18.8035 16.9592 18.7527 17.1623C18.7019 17.3654 18.5665 17.5347 18.3973 17.6532C18.3719 17.6616 18.3465 17.6743 18.3211 17.687C18.2957 17.6997 18.2703 17.7124 18.2449 17.7209C17.7033 17.8901 17.1109 17.924 16.6201 17.9409C14.2167 17.9917 11.7795 17.9917 9.39302 17.9409C8.66523 17.924 7.93745 17.8393 7.22659 17.687C5.63562 17.3485 4.87398 16.5699 4.60318 14.979L4.50162 14.1666Z" fill="white"/>
</svg>
