<svg width="64" height="64" fill="none" xmlns="http://www.w3.org/2000/svg"><g clip-path="url(#clip0_233_414)"><rect width="64" height="64" rx="4" fill="#fff"/><path d="M32.034 8.27v.025c.023.118.023.26.023.402v17.048c-.023.094-.094.118-.165.165-.497.237-.97.45-1.466.662-.686.308-1.395.639-2.08.946l-2.484 1.135c-.685.308-1.371.615-2.033.922-.804.379-1.632.733-2.436 1.112-.685.307-1.371.638-2.08.945-.568.26-1.135.497-1.68.757a.335.335 0 01-.141.047c-.024 0-.024 0-.047-.023l.638-1.064c1.23-2.034 2.436-4.044 3.665-6.077 1.3-2.175 2.625-4.35 3.925-6.526 1.206-2.01 2.436-4.02 3.642-6.03.874-1.466 1.773-2.932 2.648-4.398.023-.047.047-.07.047-.118h.024c-.024.024 0 .047 0 .07z" fill="#8A92B2"/><path d="M46.551 32.413l.024.024-3.476 2.057-10.924 6.455a.488.488 0 00-.118.07c-.072 0-.072-.07-.072-.094V26.1c0-.071 0-.166.024-.237.024-.095.095-.07.166-.047.307.142.638.284.946.425.922.426 1.844.852 2.766 1.254.804.354 1.584.733 2.388 1.087.804.355 1.608.733 2.412 1.088.686.307 1.395.638 2.08.946.686.307 1.396.638 2.082.946.543.236 1.087.496 1.631.733 0 .07.024.094.071.118z" fill="#454A75"/><path d="M32.033 55.703c0 .024-.024.048-.024.071h-.024c0-.047-.047-.07-.07-.118-1.466-2.057-2.932-4.138-4.398-6.195-1.49-2.104-3.003-4.232-4.493-6.337-1.442-2.033-2.908-4.09-4.35-6.124-.38-.544-.757-1.064-1.136-1.608-.023-.047-.047-.07-.094-.142.07 0 .118.047.142.071 2.057 1.206 4.09 2.412 6.147 3.618 2.365 1.395 4.706 2.79 7.07 4.185l1.206.71c.047.047.047.094.047.141v11.397c0 .119 0 .237-.023.331z" fill="#8A92B2"/><path d="M17.42 32.46v-.024c.757-.33 1.49-.685 2.246-1.016.97-.45 1.94-.875 2.909-1.325.733-.33 1.49-.685 2.222-1.016 1.088-.497 2.152-.97 3.24-1.466.733-.331 1.466-.662 2.222-1.017.52-.236 1.064-.473 1.585-.71.047-.023.118-.047.141-.094.024 0 .024.024 0 .047v15.015c0 .071-.023.142.024.19-.047.07-.094 0-.118-.024-.213-.119-.426-.237-.638-.379-4.564-2.695-9.151-5.414-13.715-8.11a.515.515 0 00-.118-.071zm29.084 2.79h.023c0 .047-.047.095-.07.142-4.351 6.124-8.702 12.272-13.053 18.396-.449.639-.922 1.277-1.371 1.915-.024-.023-.024-.047-.024-.07V43.81c.993-.591 1.963-1.159 2.956-1.75 3.83-2.27 7.66-4.516 11.468-6.786.023.023.047 0 .07-.024z" fill="#62688F"/><path d="M32.01 25.84V8.483c0-.071-.024-.119.023-.19 4.8 7.969 9.6 15.914 14.376 23.882.047.071.118.166.142.26-.331-.118-.638-.283-.946-.425-.378-.166-.78-.355-1.158-.52-.237-.119-.497-.213-.733-.331-.402-.19-.804-.355-1.206-.544-.237-.095-.473-.213-.71-.331l-1.56-.71c-.26-.118-.52-.236-.804-.354l-1.135-.497a9.552 9.552 0 01-.71-.331l-1.56-.71c-.26-.118-.52-.236-.804-.354l-1.135-.497c-.26-.118-.497-.236-.757-.354-.449-.213-.898-.426-1.371-.615.07-.024.047-.024.047-.024z" fill="#62688F"/></g><defs><clipPath id="clip0_233_414"><path fill="#fff" d="M0 0h64v64H0z"/></clipPath></defs></svg>