<svg width="64" height="64" fill="none" xmlns="http://www.w3.org/2000/svg"><g clip-path="url(#clip0_257_1699)"><rect width="64" height="64" rx="4" fill="#fff"/><path fill-rule="evenodd" clip-rule="evenodd" d="M20.267 30.009l11.805-6.215 11.708 6.253L32.02 12.8 20.267 30.009zm.45 1.795l11.367-6.066 11.22 6.021-11.213 6.073-11.374-6.028zm-.45 1.737c4.143 2.2 8.466 4.503 11.805 6.285l11.708-6.285a5589.522 5589.522 0 01-11.708 17.344l-2.276-3.34c-3.287-4.825-6.687-9.817-9.53-14.004z" fill="#3AB83A"/><path fill-rule="evenodd" clip-rule="evenodd" d="M32.02 12.8l.052 10.995 11.708 6.252L32.02 12.8zm.064 12.938l11.22 6.021-11.213 6.073-.007-12.094zm-.012 14.088l11.708-6.285c-4.24 6.298-11.708 17.344-11.708 17.344V39.826z" fill="#0B8311"/><path d="M20.717 31.804l11.368.933 11.22-.972-11.214 6.073-11.374-6.034z" fill="#0B8311"/><path d="M32.084 32.737l11.22-.972-11.213 6.073-.007-5.101z" fill="#146714"/></g><defs><clipPath id="clip0_257_1699"><path fill="#fff" d="M0 0h64v64H0z"/></clipPath></defs></svg>