<svg width="64" height="64" fill="none" xmlns="http://www.w3.org/2000/svg"><rect width="64" height="64" rx="4" fill="#13B5EC"/><path fill-rule="evenodd" clip-rule="evenodd" d="M34.667 25.603l7.2-4.221v8.442l-7.2-4.221zm7.2 18.09l-9.6 5.629-9.6-5.629v-9.849l9.6 5.628 9.6-5.628v9.85zm-19.2-22.311l7.2 4.221-7.2 4.221v-8.442zm10.8 6.231l7.2 4.221-7.2 4.221v-8.442zm-2.4 8.442l-7.2-4.22 7.2-4.222v8.442zm9.6-16.683l-8.4 4.824-8.4-4.824 8.4-5.025 8.4 5.025zm-20.4-.804V44.9l12 6.834 12-6.834V18.568l-12-6.834-12 6.834z" fill="#fff"/></svg>