<svg width="24" height="24" viewBox="0 0 24 24" fill="none" xmlns="http://www.w3.org/2000/svg">
<rect width="24" height="24" rx="4" fill="#0090FF"/>
<path fill-rule="evenodd" clip-rule="evenodd" d="M13.0412 10.593L12.6843 12.5155L16.0751 12.9961L15.8371 13.8973L12.5058 13.4166C12.2679 14.1977 12.1489 15.0388 11.8515 15.7597C11.554 16.6008 11.2566 17.4419 10.8997 18.2229C10.4238 19.2442 9.59096 19.9651 8.46071 20.1454C7.80635 20.2655 7.0925 20.2055 6.55712 19.7849C6.37866 19.6648 6.2002 19.4244 6.2002 19.2442C6.2002 19.0039 6.31917 18.7035 6.49763 18.5834C6.61661 18.5233 6.91404 18.5834 7.0925 18.6434C7.27096 18.8237 7.44943 19.064 7.5684 19.3043C7.92532 19.7849 8.40122 19.845 8.87712 19.4845C9.4125 19.0039 9.70994 18.343 9.8884 17.6822C10.2453 16.2403 10.6022 14.8585 10.8997 13.4166V13.1763L7.74686 12.6957L7.86584 11.7945L11.1376 12.2752L11.554 10.4127L8.16327 9.87205L8.28225 8.9108L11.792 9.39142C11.911 9.03096 11.9705 8.73057 12.0894 8.43018C12.3869 7.34877 12.6843 6.26737 13.3981 5.30612C14.112 4.34488 14.9448 3.7441 16.194 3.80417C16.7294 3.80417 17.2648 3.98441 17.6217 4.40495C17.6812 4.46503 17.8002 4.58519 17.8002 4.70534C17.8002 4.94566 17.8002 5.24604 17.6217 5.42628C17.3838 5.60651 17.0863 5.54643 16.8484 5.30612C16.6699 5.12589 16.551 4.94566 16.3725 4.76542C16.0156 4.2848 15.4802 4.22472 15.0638 4.64527C14.7663 4.94566 14.4689 5.3662 14.2905 5.78675C13.874 7.04838 13.5766 8.3701 13.1602 9.69181L16.432 10.1724L16.194 11.0736L13.0412 10.593" fill="white"/>
</svg>
