<svg width="64" height="64" fill="none" xmlns="http://www.w3.org/2000/svg"><rect width="64" height="64" rx="4" fill="#0090FF"/><path fill-rule="evenodd" clip-rule="evenodd" d="M34.776 28.248l-.952 5.127 9.042 1.281-.634 2.404-8.883-1.282c-.635 2.083-.952 4.325-1.745 6.248-.794 2.243-1.587 4.486-2.539 6.568-1.269 2.724-3.49 4.646-6.504 5.127-1.744.32-3.648.16-5.076-.961-.476-.32-.952-.961-.952-1.442 0-.64.318-1.442.794-1.762.317-.16 1.11 0 1.586.16.476.48.952 1.121 1.269 1.762.952 1.282 2.22 1.442 3.49.48 1.428-1.28 2.22-3.043 2.697-4.805.951-3.845 1.903-7.53 2.696-11.375v-.641l-8.407-1.282.317-2.403 8.725 1.282 1.11-4.967-9.042-1.441.318-2.564 9.359 1.282c.317-.961.476-1.762.793-2.563.793-2.884 1.586-5.768 3.49-8.331 1.904-2.564 4.124-4.166 7.456-4.005 1.427 0 2.855.48 3.807 1.602.159.16.476.48.476.8 0 .641 0 1.442-.476 1.923-.635.48-1.428.32-2.062-.32-.476-.48-.794-.962-1.27-1.442-.951-1.282-2.379-1.442-3.49-.32-.792.8-1.586 1.922-2.061 3.043-1.111 3.365-1.904 6.89-3.015 10.414l8.725 1.282-.634 2.403-8.408-1.282z" fill="#fff"/></svg>