<svg width="64" height="64" fill="none" xmlns="http://www.w3.org/2000/svg"><rect width="64" height="64" rx="4" fill="#00EF8B"/><path fill="#fff" d="M36.992 27.008h9.024v9.024h-9.024zm-9.025 12.416c0 1.856-1.536 3.392-3.392 3.392-1.856 0-3.392-1.536-3.392-3.392 0-1.856 1.536-3.392 3.392-3.392h3.392v-9.024h-3.392c-6.848 0-12.416 5.568-12.416 12.416 0 6.848 5.568 12.416 12.416 12.416 6.848 0 12.416-5.568 12.416-12.416v-3.392h-9.024v3.392z"/><path d="M40.385 22.464H50.56V13.44H40.385c-6.848 0-12.416 5.568-12.416 12.416v1.152h9.024v-1.152c0-1.856 1.536-3.392 3.392-3.392z" fill="#fff"/><path d="M36.993 27.008h-9.024v9.024h9.024v-9.024z" fill="#16FF99"/></svg>