<svg width="64" height="64" fill="none" xmlns="http://www.w3.org/2000/svg"><g clip-path="url(#clip0_252_1836)"><rect width="64" height="64" rx="4" fill="#fff"/><path d="M21.57 11.123c11.475-.003 22.95-.003 34.428 0 .003 3.71.003 7.418 0 11.126-11.476.003-22.952.003-34.428 0-.004-3.71-.004-7.418 0-11.126z" fill="#02A6C2"/><path d="M8.014 26.435c3.703-.02 7.405-.02 11.109 0 .02 3.702.02 7.405 0 11.108-3.703.02-7.406.02-11.109.001-.019-3.703-.019-7.406 0-11.11zm13.564 0a5845.97 5845.97 0 0124.846 0c.018 3.702.018 7.405 0 11.108a6052.2 6052.2 0 01-24.846 0 1209.69 1209.69 0 010-11.108z" fill="#5FCADE"/><path d="M21.589 41.75c3.696-.04 7.39-.04 11.086 0 .038 3.693.039 7.388.001 11.085a552.08 552.08 0 01-11.085-.002 531.85 531.85 0 01-.002-11.084z" fill="#ABEBF4"/></g><defs><clipPath id="clip0_252_1836"><path fill="#fff" d="M0 0h64v64H0z"/></clipPath></defs></svg>