<svg width="24" height="24" viewBox="0 0 24 24" fill="none" xmlns="http://www.w3.org/2000/svg">
<g clip-path="url(#clip0_564_20159)">
<rect width="24" height="24" rx="4" fill="white"/>
<path d="M8.08893 4.17091C12.3921 4.16959 16.6956 4.16959 20.9994 4.17091C21.0007 5.56188 21.0007 6.9526 20.9994 8.34309C16.696 8.34441 12.3926 8.34441 8.08893 8.34309C8.08755 6.95212 8.08755 5.5614 8.08893 4.17091Z" fill="#02A6C2"/>
<path d="M3.0054 9.91263C4.39372 9.90543 5.78228 9.90543 7.17108 9.91263C7.17828 11.3009 7.17828 12.6895 7.17108 14.0783C5.78234 14.0854 4.39378 14.0856 3.0054 14.0787C2.9982 12.6901 2.9982 11.3014 3.0054 9.91263Z" fill="#5FCADE"/>
<path d="M8.09177 9.91266C11.1978 9.90606 14.3035 9.90606 17.4091 9.91266C17.4157 11.301 17.4157 12.6896 17.4091 14.0784C14.3032 14.0849 11.1974 14.0849 8.09177 14.0784C8.08529 12.69 8.08529 11.3014 8.09177 9.91266Z" fill="#5FCADE"/>
<path d="M8.0962 15.6558C9.48217 15.6408 10.8679 15.6408 12.2534 15.6558C12.2678 17.0409 12.268 18.4267 12.254 19.8131C10.8681 19.8268 9.48235 19.8265 8.09692 19.8124C8.08252 18.4274 8.08228 17.0419 8.0962 15.6558Z" fill="#ABEBF4"/>
</g>
<defs>
<clipPath id="clip0_564_20159">
<rect width="24" height="24" fill="white"/>
</clipPath>
</defs>
</svg>
