<svg width="64" height="64" fill="none" xmlns="http://www.w3.org/2000/svg"><rect width="64" height="64" rx="4" fill="#EDF0F4"/><path d="M35.805 25.033a920.263 920.263 0 00-3.929 2.444L19.89 20.42l11.991-6.643L46.692 22l2.924-1.665-17.715-9.667-17.8 9.657 17.706 10.227 6.872-3.814-2.874-1.704zm-11.608 6.473V28.43l6.788 3.772V53.32L12.8 42.057v-20.37l2.866 1.804v17.063l12.454 7.69V33.812l-3.923-2.306zm8.537 21.827v-3.37l15.222-9.376V26.704l-12.343 7.2v4.58l-2.881 1.847v-8.109l18.225-10.637v20.492L32.734 53.333z" fill="#000"/></svg>