<svg width="64" height="64" fill="none" xmlns="http://www.w3.org/2000/svg"><rect width="64" height="64" rx="4" fill="#E7EFF3"/><path fill-rule="evenodd" clip-rule="evenodd" d="M41.097 16a6.9 6.9 0 00-6.905 6.882v7.63A32.4 32.4 0 0132 30.59c-.754 0-1.477.03-2.192.073v-7.781a6.905 6.905 0 00-13.808 0v18.236a6.905 6.905 0 0013.808 0v-7.63A32.405 32.405 0 0132 33.41c.754 0 1.477-.03 2.192-.073v7.781a6.905 6.905 0 0013.808 0V22.882A6.9 6.9 0 0041.097 16zm-18.194 2.82a4.073 4.073 0 014.075 4.062v8.08a23.22 23.22 0 00-5.867 1.659c-.812.356-1.576.812-2.275 1.358V22.882a4.073 4.073 0 014.068-4.062zm0 26.373a4.075 4.075 0 004.075-4.075v-7.31a20.089 20.089 0 00-4.724 1.382c-2.146.952-3.426 2.483-3.426 4.1v1.828a4.075 4.075 0 004.075 4.075zm18.195-.012a4.073 4.073 0 01-4.075-4.062v-8.08c2.02-.293 3.993-.85 5.867-1.66a10.665 10.665 0 002.276-1.357v11.097a4.073 4.073 0 01-4.068 4.062zm-4.075-15a20.094 20.094 0 004.724-1.38c2.146-.95 3.426-2.48 3.426-4.09v-1.829a4.075 4.075 0 10-8.15 0v7.3z" fill="url(#paint0_linear_574_708784)"/><defs><linearGradient id="paint0_linear_574_708784" x1="31.947" y1="59.417" x2="59.711" y2="31.576" gradientUnits="userSpaceOnUse"><stop stop-color="#00AEE9"/><stop offset="1" stop-color="#69FABD"/></linearGradient></defs></svg>