<svg width="64" height="64" fill="none" xmlns="http://www.w3.org/2000/svg"><rect width="64" height="64" rx="4" fill="#fff"/><path fill-rule="evenodd" clip-rule="evenodd" d="M32 6.4c14.14 0 25.6 11.46 25.6 25.6S46.14 57.6 32 57.6 6.4 46.14 6.4 32 17.86 6.4 32 6.4zm12.23 13.318a3.843 3.843 0 00-5.412 0 3.873 3.873 0 00-1.088 3.316c.053.397.027.822-.16 1.193a2.07 2.07 0 01-1.113 1.008 1.878 1.878 0 01-1.512-.053 7.352 7.352 0 00-8.25 1.486c-2.176 2.149-2.76 5.465-1.486 8.25.238.504.238 1.061.053 1.539-.16.45-.504.849-1.008 1.088a1.789 1.789 0 01-.823.185c-.132 0-.265-.026-.398-.053h-.053a3.794 3.794 0 00-3.236 1.088 3.836 3.836 0 00-1.114 2.706 3.79 3.79 0 001.114 2.706 3.843 3.843 0 005.412 0c.849-.876 1.273-2.123 1.06-3.343v-.186c-.026-.344.054-.663.186-.981a1.93 1.93 0 011.088-1.008 1.881 1.881 0 011.512.053c2.76 1.273 6.075.69 8.25-1.486 2.176-2.148 2.76-5.491 1.486-8.25a1.927 1.927 0 01-.053-1.486 2.02 2.02 0 011.035-1.114 1.99 1.99 0 011.087-.16h.186a3.794 3.794 0 003.236-1.087 3.843 3.843 0 000-5.412zm-9.206 9.284c1.645 1.672 1.645 4.351 0 5.996-1.645 1.645-4.324 1.645-5.995 0-1.645-1.671-1.645-4.35 0-5.996 1.671-1.644 4.35-1.644 5.995 0zm10.612-10.637c2.255 2.281 2.255 5.942 0 8.197a6.482 6.482 0 01-2.945 1.618 11.298 11.298 0 01-2.6 11.885 11.285 11.285 0 01-7.985 3.29c-1.326 0-2.653-.24-3.926-.717a5.82 5.82 0 01-1.592 2.998c-2.281 2.255-5.942 2.255-8.197 0-2.255-2.282-2.255-5.943 0-8.198a5.743 5.743 0 012.971-1.591c-1.565-4.112-.584-8.834 2.547-11.965 3.13-3.13 7.826-4.112 11.938-2.573.238-1.061.742-2.096 1.591-2.945 2.282-2.254 5.943-2.254 8.198 0z" fill="#38A2FF"/></svg>