<svg width="24" height="24" viewBox="0 0 24 24" fill="none" xmlns="http://www.w3.org/2000/svg">
<rect width="24" height="24" rx="4" fill="white"/>
<path fill-rule="evenodd" clip-rule="evenodd" d="M12.0004 2.3999C17.3028 2.3999 21.6004 6.69752 21.6004 11.9999C21.6004 17.3023 17.3028 21.5999 12.0004 21.5999C6.69801 21.5999 2.40039 17.3023 2.40039 11.9999C2.40039 6.69752 6.69801 2.3999 12.0004 2.3999ZM16.5865 7.39389C16.0294 6.8368 15.1142 6.8368 14.5571 7.39389C14.2288 7.72218 14.0796 8.18975 14.1492 8.63742C14.1691 8.78664 14.1591 8.94581 14.0895 9.08509C14 9.26415 13.8507 9.39348 13.6717 9.46312C13.4926 9.53275 13.2837 9.53275 13.1046 9.44322C12.07 8.96571 10.8265 9.18457 10.0108 10.0003C9.195 10.8061 8.97614 12.0496 9.45365 13.0942C9.54319 13.2832 9.54319 13.4921 9.47355 13.6712C9.41386 13.8403 9.28454 13.9895 9.09552 14.0791C8.99604 14.1288 8.89656 14.1487 8.78713 14.1487C8.73739 14.1487 8.68764 14.1388 8.6379 14.1288H8.61801C8.17034 14.0691 7.73262 14.2084 7.40433 14.5367C7.13573 14.8053 6.98651 15.1734 6.98651 15.5514C6.98651 15.9394 7.13573 16.2975 7.40433 16.5661C7.96143 17.1232 8.87666 17.1232 9.43376 16.5661C9.7521 16.2378 9.91127 15.7703 9.83169 15.3126V15.243C9.82174 15.1137 9.85158 14.9943 9.90132 14.8749C9.98091 14.6959 10.1301 14.5665 10.3092 14.4969C10.4883 14.4273 10.6872 14.4273 10.8762 14.5168C11.9109 14.9943 13.1544 14.7754 13.9701 13.9597C14.7859 13.1539 15.0047 11.9004 14.5272 10.8658C14.4476 10.6867 14.4377 10.4878 14.5073 10.3087C14.577 10.1296 14.7063 9.98042 14.8953 9.89089C15.0346 9.8312 15.1739 9.8113 15.3032 9.8312H15.3728C15.8205 9.89089 16.2582 9.75161 16.5865 9.42332C17.1436 8.86623 17.1436 7.95099 16.5865 7.39389ZM13.1345 10.8758C13.7513 11.5025 13.7513 12.5073 13.1345 13.124C12.5177 13.7408 11.5129 13.7408 10.8862 13.124C10.2694 12.4973 10.2694 11.4925 10.8862 10.8758C11.5129 10.259 12.5177 10.259 13.1345 10.8758ZM17.1138 6.88653C17.9594 7.74208 17.9594 9.11493 17.1138 9.96052C16.7954 10.2689 16.4074 10.4679 16.0095 10.5674C16.5766 12.0994 16.2085 13.8503 15.0346 15.0242C14.2288 15.83 13.1444 16.2577 12.0402 16.2577C11.5428 16.2577 11.0454 16.1682 10.5679 15.9891C10.4883 16.397 10.2893 16.7949 9.97096 17.1133C9.11542 17.9589 7.74257 17.9589 6.89697 17.1133C6.05137 16.2577 6.05137 14.8849 6.89697 14.0393C7.21531 13.7209 7.60329 13.522 8.01117 13.4424C7.42422 11.9004 7.79231 10.1296 8.96619 8.95576C10.1401 7.78187 11.9009 7.41379 13.4429 7.99078C13.5324 7.59286 13.7214 7.20488 14.0398 6.88653C14.8953 6.04094 16.2682 6.04094 17.1138 6.88653Z" fill="#38A2FF"/>
</svg>
