<svg width="64" height="64" fill="none" xmlns="http://www.w3.org/2000/svg"><rect width="64" height="64" rx="4" fill="#007F88"/><path d="M11.783 16.568c-.646.05-1.143.152-1.115.228.258.614 1.851 4.225 1.873 4.247.022.022.392.047.827.065 1.931.073 3.46.45 5.111 1.267a10.605 10.605 0 012.98 2.124c1.347 1.343 2.225 2.834 2.74 4.66.059.21.106.4.106.428 0 .04-.294.048-1.594.048-.878 0-1.633.014-1.68.032-.07.026-.25.418-1.006 2.15a117.15 117.15 0 00-.936 2.177c-.025.094.28.178 1.042.29.156.026 1.092.051 2.2.066l1.927.021-.116.4c-1.3 4.406-5.333 7.488-10.273 7.858-.28.018-.646.036-.816.036h-.309l-.95 2.19c-.818 1.869-.945 2.188-.89 2.206.247.09.798.123 2.076.123 1.633 0 2.428-.072 3.775-.348 5.499-1.129 10.069-4.628 12.138-9.303.4-.9.867-2.381.95-3.002l.026-.178h4.127l.015.08c.297 1.46.62 2.443 1.18 3.605 1.68 3.499 4.83 6.355 8.732 7.923a18.77 18.77 0 007.46 1.34c1.067-.033 1.916-.153 1.873-.265a708.564 708.564 0 00-1.855-4.254c-.011-.011-.385-.026-.839-.044-1.274-.05-2.232-.2-3.314-.508-1.666-.48-3.314-1.347-4.577-2.407-1.59-1.34-2.74-3.005-3.35-4.853a6.13 6.13 0 01-.149-.497l-.025-.116 1.553-.011c.853-.007 1.58-.025 1.608-.04.047-.025 1.906-4.24 1.906-4.323 0-.054-.468-.192-.893-.261-.312-.051-.708-.066-2.287-.077l-1.913-.018.073-.257c1.06-3.754 4.312-6.733 8.505-7.79.925-.232 1.825-.352 2.994-.399.697-.03.784-.04.828-.098.029-.04.457-1.002.95-2.138.607-1.39.886-2.076.86-2.094-.079-.044-.587-.135-.987-.174-.58-.062-2.275-.051-3.023.014-4.276.381-8.13 2.105-11.02 4.922-1.764 1.72-3.002 3.651-3.764 5.88-.196.563-.432 1.448-.505 1.877l-.043.265h-4.057l-.014-.084c-.011-.043-.051-.25-.095-.46-.599-2.977-2.29-5.87-4.679-8-2.718-2.43-6.108-3.95-9.84-4.412-1.122-.137-2.567-.184-3.52-.111z" fill="#fff"/></svg>