<svg width="64" height="64" fill="none" xmlns="http://www.w3.org/2000/svg"><g clip-path="url(#clip0_257_1582)"><rect width="64" height="64" rx="4" fill="#fff"/><path d="M46.402 17.96c-3.122 0-6.541 1.701-10.148 5.057-1.701 1.576-3.2 3.293-4.293 4.651 0 0 1.748 2.014 3.669 4.183 1.046-1.311 2.529-3.09 4.262-4.698 3.2-2.997 5.292-3.605 6.494-3.605 4.497 0 8.15 3.777 8.15 8.443 0 4.62-3.653 8.397-8.15 8.444a4.05 4.05 0 01-.78-.093c1.311.608 2.732 1.045 4.059 1.045 8.243 0 9.867-5.697 9.96-6.102.234-1.046.375-2.139.375-3.262-.016-7.757-6.104-14.063-13.598-14.063z" fill="url(#paint0_linear_257_1582)"/><path d="M17.598 46.023c3.122 0 6.541-1.702 10.148-5.057 1.702-1.577 3.2-3.293 4.293-4.651 0 0-1.748-2.014-3.669-4.183-1.046 1.311-2.529 3.09-4.262 4.698-3.2 2.965-5.308 3.605-6.494 3.605-4.497 0-8.15-3.777-8.15-8.444 0-4.62 3.653-8.396 8.15-8.443.218 0 .468.031.78.093-1.311-.608-2.732-1.045-4.059-1.045-8.243-.016-9.867 5.68-9.96 6.102A14.92 14.92 0 004 31.96c0 7.757 6.089 14.063 13.598 14.063z" fill="url(#paint1_linear_257_1582)"/><path fill-rule="evenodd" clip-rule="evenodd" d="M23.874 27.278c-.906-.874-5.308-4.448-9.523-4.573-7.525-.187-9.727 5.275-9.93 5.978 1.452-6.119 6.823-10.692 13.192-10.723 5.2 0 10.46 5.104 14.348 9.708l.016-.015s1.748 2.013 3.668 4.182c0 0 2.186 2.576 4.496 4.839.906.874 5.293 4.401 9.508 4.526 7.728.218 9.867-5.556 9.976-5.993-1.42 6.165-6.806 10.753-13.207 10.784-5.2 0-10.46-5.103-14.363-9.708 0 .016-.016.016-.016.032 0 0-1.749-2.014-3.669-4.183.016 0-2.17-2.591-4.496-4.854zM4.42 28.745c0-.016 0-.031.016-.047-.016.016-.016.031-.016.047z" fill="#29ABE2"/></g><defs><linearGradient id="paint0_linear_257_1582" x1="39.093" y1="20.184" x2="58.334" y2="39.589" gradientUnits="userSpaceOnUse"><stop offset=".21" stop-color="#F15A24"/><stop offset=".684" stop-color="#FBB03B"/></linearGradient><linearGradient id="paint1_linear_257_1582" x1="24.912" y1="43.802" x2="5.671" y2="24.397" gradientUnits="userSpaceOnUse"><stop offset=".21" stop-color="#ED1E79"/><stop offset=".893" stop-color="#522785"/></linearGradient><clipPath id="clip0_257_1582"><path fill="#fff" d="M0 0h64v64H0z"/></clipPath></defs></svg>