<svg width="64" height="64" fill="none" xmlns="http://www.w3.org/2000/svg"><rect width="64" height="64" rx="4" fill="#000"/><path fill-rule="evenodd" clip-rule="evenodd" d="M43.524 13.595c0 1.321-1.058 2.397-2.36 2.397-1.303 0-2.361-1.069-2.361-2.39 0-1.321 1.058-2.395 2.36-2.402 1.303 0 2.361 1.074 2.361 2.395zm.335 6.594a2.014 2.014 0 01-2 2.03c-1.105 0-1.998-.906-1.998-2.03 0-1.123.894-2.03 1.999-2.03 1.104 0 1.999.914 1.999 2.03zm3.489 2.824c1.1 0 1.994-.907 1.994-2.025 0-1.118-.895-2.024-1.994-2.024-1.1 0-1.994.906-1.994 2.024 0 1.118.896 2.025 1.994 2.025zm1.046 3.598c0 .954-.763 1.73-1.705 1.73a1.718 1.718 0 01-1.705-1.73c0-.954.763-1.73 1.705-1.73.942 0 1.705.776 1.705 1.73zm2.689 3.457c.949 0 1.717-.78 1.717-1.741a1.73 1.73 0 00-1.717-1.742 1.729 1.729 0 00-1.718 1.742c0 .96.77 1.74 1.718 1.74zm-8.676-2.97c-.328.331-.774.52-1.24.522-.967 0-1.748-.799-1.748-1.772 0-.98.78-1.772 1.748-1.772s1.748.794 1.748 1.772v.003c.002.467-.18.915-.508 1.247zm-2.824 4.76c.81 0 1.464-.665 1.464-1.483a1.471 1.471 0 00-1.46-1.483h-.004c-.811 0-1.465.665-1.465 1.483 0 .818.654 1.483 1.465 1.483zm6.528.314a1.462 1.462 0 01-1.032.436h-.014a1.458 1.458 0 01-1.438-1.477c0-.816.648-1.476 1.452-1.476.804 0 1.453.66 1.453 1.476v.004c.003.388-.149.761-.421 1.037zm3.35 2.156c.81 0 1.465-.665 1.465-1.488s-.654-1.489-1.465-1.489c-.81 0-1.465.666-1.465 1.489a1.473 1.473 0 001.458 1.488h.007zm-.927 1.962c0 .69-.553 1.254-1.237 1.254a1.248 1.248 0 01-1.238-1.254c0-.69.553-1.255 1.238-1.255.684 0 1.237.565 1.237 1.255zm-5.64-.439c.697 0 1.267-.577 1.267-1.285 0-.709-.565-1.286-1.267-1.286-.701 0-1.266.577-1.266 1.286 0 .708.57 1.285 1.266 1.285zm-4.236-2.058c0 .696-.558 1.262-1.254 1.273h-.001a1.274 1.274 0 01.002-2.547h.001a1.274 1.274 0 011.252 1.274zm1.799 4.294a1.1 1.1 0 001.092-1.104 1.094 1.094 0 00-1.084-1.105h-.008a1.1 1.1 0 00-1.093 1.105 1.093 1.093 0 001.08 1.104h.013zm5.505.606c0 .618-.499 1.117-1.105 1.117a1.116 1.116 0 110-2.233c.613 0 1.105.498 1.105 1.116zm-3.583 2.409c.48 0 .87-.396.87-.883a.877.877 0 00-.87-.882c-.48 0-.87.396-.87.882a.88.88 0 00.87.883zm-1.79.458a.792.792 0 01-.56.235h-.015a.785.785 0 01-.771-.799v-.002a.792.792 0 01.787-.797c.432 0 .787.355.787.799v.002a.792.792 0 01-.229.562zm-2.616-2.063a.945.945 0 00.937-.949.945.945 0 00-.937-.949.945.945 0 00-.937.95.947.947 0 00.937.948zm-1.926-3.28c0 .612-.491 1.104-1.092 1.104a1.103 1.103 0 01-1.093-1.105c0-.612.492-1.104 1.093-1.104.606 0 1.092.492 1.092 1.104zm7.858 14.94c1.297 0 2.349-1.068 2.349-2.384 0-1.316-1.052-2.385-2.35-2.385-1.297 0-2.348 1.069-2.348 2.385 0 1.316 1.051 2.385 2.349 2.385zm-4.008-5.004c0 1.098-.878 1.987-1.958 1.987-1.083 0-1.958-.89-1.958-1.987 0-1.098.877-1.987 1.958-1.987 1.08 0 1.958.89 1.958 1.987zm-5.367 6.355c1.092 0 1.975-.894 1.975-2.006 0-1.104-.883-2.005-1.975-2.005-1.093 0-1.975.894-1.975 2.005a1.99 1.99 0 001.975 2.006zm.19-8.562a1.73 1.73 0 01-1.216.514c-.942 0-1.71-.78-1.712-1.736a1.724 1.724 0 011.712-1.736 1.724 1.724 0 011.712 1.736c.003.457-.175.897-.496 1.222zm-4.616 4.942c.942 0 1.705-.776 1.705-1.73s-.763-1.729-1.705-1.729c-.943 0-1.706.775-1.706 1.73-.01.945.75 1.719 1.695 1.729h.01zm-1.965 1.28c0 .949-.758 1.724-1.7 1.724-.938 0-1.7-.775-1.7-1.724 0-.95.757-1.724 1.7-1.724.937 0 1.7.77 1.7 1.724zm-4.75-2.187a1.466 1.466 0 001.452-1.471c0-.811-.649-1.472-1.453-1.472a1.472 1.472 0 000 2.943zm5.124-4.49a1.463 1.463 0 01-1.453 1.472h-.005a1.472 1.472 0 01.005-2.943 1.46 1.46 0 011.453 1.472zm1.973-2.954a1.462 1.462 0 001.453-1.473v-.004c0-.816-.649-1.476-1.453-1.476a1.462 1.462 0 00-1.453 1.473v.003c0 .816.649 1.477 1.453 1.477zm-3.98-.67c0 .71-.564 1.28-1.26 1.28a1.27 1.27 0 01-1.262-1.28c0-.708.565-1.278 1.261-1.278.697 0 1.262.57 1.262 1.279zm-4.913 4.285a1.256 1.256 0 001.249-1.263v-.003a1.255 1.255 0 00-1.242-1.267h-.008a1.256 1.256 0 00-1.25 1.263v.004a1.258 1.258 0 001.25 1.266zm.24-4.616c.002.6-.48 1.088-1.08 1.093-.594 0-1.08-.486-1.08-1.093 0-.6.486-1.092 1.08-1.092.594 0 1.08.486 1.08 1.092zm-1.111-1.998a.933.933 0 00.925-.943.936.936 0 00-.925-.942c-.51 0-.925.42-.925.942 0 .523.415.943.925.943zm1.295-3.37a.792.792 0 01-.786.799.792.792 0 01-.787-.799c0-.439.348-.799.787-.799.431 0 .786.36.786.799zm2.363.369a.945.945 0 00.937-.95.945.945 0 00-.937-.949.945.945 0 00-.937.95.946.946 0 00.937.949zm4.55-2.452c0 .606-.492 1.105-1.093 1.105h-.005a1.096 1.096 0 01-1.088-1.105c0-.606.492-1.104 1.093-1.104h.008c.605.006 1.09.5 1.084 1.104zm-.27 4.611a1.24 1.24 0 10-.006 0h.006zm-3.155-.165c0 .607-.48 1.099-1.08 1.099h-.013a1.084 1.084 0 01-1.068-1.1v-.005a1.087 1.087 0 011.08-1.094c.594 0 1.08.492 1.08 1.1zM12.475 36c1.29 0 2.342-1.064 2.342-2.373 0-1.31-1.051-2.373-2.342-2.373-1.29 0-2.342 1.065-2.342 2.375 0 1.309 1.052 2.37 2.342 2.37zm7.322-6.274c0 1.124-.895 2.037-2.006 2.037-1.105 0-2.006-.907-2.006-2.037v-.003a2.02 2.02 0 012.006-2.033c1.104 0 2.006.913 2.006 2.036zm-4.08-3.187c1.104 0 1.994-.906 1.994-2.024 0-1.118-.895-2.025-1.994-2.025a2.008 2.008 0 00-1.994 2.021v.004a2.004 2.004 0 001.983 2.024h.01zm6.836-4.21c0 .96-.77 1.735-1.712 1.735a1.725 1.725 0 01-1.712-1.736c0-.96.768-1.736 1.712-1.736s1.712.775 1.712 1.736zm.383 6.947c.949 0 1.717-.78 1.717-1.741a1.73 1.73 0 00-1.717-1.742c-.95 0-1.717.78-1.717 1.742a1.73 1.73 0 001.717 1.74zm6.123-2.566a1.472 1.472 0 01-1.46 1.483h-.01a1.466 1.466 0 01-1.45-1.483v-.044a1.46 1.46 0 012.92.044zm2.569 1.497c.696 0 1.261-.57 1.261-1.273 0-.704-.565-1.274-1.261-1.274a1.273 1.273 0 100 2.547zm4.392-.309c0 .596-.481 1.076-1.063 1.076-.584 0-1.057-.487-1.064-1.076a1.072 1.072 0 011.064-1.075c.588 0 1.063.48 1.063 1.075zm-.63-2.847a.932.932 0 00.925-.937.932.932 0 00-.925-.937c-.51 0-.925.42-.925.937a.932.932 0 00.925.937zM33.893 22.7a1.065 1.065 0 01-1.063 1.067h-.006a1.066 1.066 0 111.07-1.067zm-4.353.289a1.26 1.26 0 001.25-1.267c0-.703-.558-1.266-1.25-1.266-.691 0-1.25.57-1.25 1.266a1.256 1.256 0 001.247 1.267h.003zm-2.557-1.479c0 .818-.654 1.484-1.464 1.484a1.478 1.478 0 01-1.465-1.483c0-.818.654-1.484 1.465-1.484.81 0 1.464.666 1.464 1.483zm-6.88-2.225c.918 0 1.657-.752 1.657-1.682a1.67 1.67 0 00-1.658-1.681c-.918 0-1.657.75-1.657 1.681 0 .93.744 1.682 1.657 1.682zm6.126-2.503c0 .818-.654 1.483-1.465 1.483-.81 0-1.465-.665-1.465-1.483 0-.818.654-1.483 1.465-1.483.81 0 1.465.665 1.465 1.483zm2.562 1.502c.696 0 1.261-.57 1.261-1.278 0-.709-.565-1.279-1.261-1.279a1.268 1.268 0 00-1.262 1.275v.004c-.003.7.561 1.272 1.262 1.278zm4.368-.314c0 .596-.474 1.076-1.063 1.076a1.075 1.075 0 110-2.151c.589 0 1.063.48 1.063 1.075zm1.475 2.393a.956.956 0 00.95-.96.954.954 0 00-.95-.962.957.957 0 00-.95.961c0 .53.428.961.95.961zm2.416 1.28a.785.785 0 01-.554.233h-.012a.78.78 0 01-.768-.792v-.002a.786.786 0 01.78-.79h.002a.785.785 0 01.778.792v.002a.785.785 0 01-.226.556z" fill="#fff"/></svg>