<svg width="24" height="24" viewBox="0 0 24 24" fill="none" xmlns="http://www.w3.org/2000/svg">
<rect width="24" height="24" rx="4" fill="black"/>
<path fill-rule="evenodd" clip-rule="evenodd" d="M16.3213 5.09805C16.3213 5.59351 15.9245 5.99679 15.4361 5.99679C14.9476 5.99679 14.5508 5.59607 14.5508 5.10061C14.5508 4.60515 14.9476 4.20251 15.4361 4.19995C15.9245 4.19995 16.3213 4.60259 16.3213 5.09805ZM16.4468 7.57093C16.45 7.98808 16.1144 8.32881 15.6972 8.33198C15.2824 8.33198 14.9476 7.99213 14.9476 7.57093C14.9476 7.14972 15.2831 6.80982 15.6972 6.80982C16.1114 6.80982 16.4468 7.15229 16.4468 7.57093ZM17.7552 8.62964C18.1675 8.62964 18.5029 8.28973 18.5029 7.87044C18.5029 7.45116 18.1675 7.11125 17.7552 7.11125C17.343 7.11125 17.0076 7.45116 17.0076 7.87044C17.0076 8.28973 17.3436 8.62964 17.7552 8.62964ZM18.1476 9.97903C18.1476 10.3369 17.8615 10.6275 17.5082 10.6275C17.1548 10.6275 16.8687 10.3369 16.8687 9.97903C16.8687 9.6212 17.1548 9.33058 17.5082 9.33058C17.8615 9.33058 18.1476 9.6212 18.1476 9.97903ZM19.1558 11.2753C19.5117 11.2753 19.7998 10.9827 19.7998 10.6224C19.7998 10.262 19.5117 9.96942 19.1558 9.96942C18.9839 9.97061 18.8194 10.0401 18.6986 10.1625C18.5779 10.285 18.5107 10.4504 18.5119 10.6224C18.5119 10.9827 18.8006 11.2753 19.1558 11.2753ZM15.9024 10.1615C15.7795 10.2859 15.6122 10.3563 15.4373 10.3573C15.075 10.3573 14.7818 10.0578 14.7818 9.69289C14.7818 9.32546 15.0744 9.02844 15.4373 9.02844C15.8003 9.02844 16.0928 9.3261 16.0928 9.69289V9.69417C16.0938 9.86904 16.0254 10.0371 15.9024 10.1615ZM14.8433 11.9468C15.1474 11.9468 15.3925 11.6971 15.3925 11.3905C15.395 11.0858 15.15 10.8367 14.8453 10.8342H14.8433C14.5392 10.8342 14.2941 11.0839 14.2941 11.3905C14.2941 11.6971 14.5392 11.9468 14.8433 11.9468ZM17.2913 12.0645C17.1891 12.168 17.05 12.2268 16.9045 12.2278H16.8993C16.7543 12.2259 16.616 12.1665 16.5148 12.0627C16.4137 11.9589 16.3579 11.8191 16.3598 11.6741C16.3598 11.3682 16.603 11.1204 16.9045 11.1204C17.206 11.1204 17.4493 11.3682 17.4493 11.6741V11.6755C17.4503 11.821 17.3934 11.9609 17.2913 12.0645ZM18.5477 12.873C18.8518 12.873 19.0969 12.6234 19.0969 12.3149C19.0969 12.0063 18.8518 11.7567 18.5477 11.7567C18.2437 11.7567 17.9985 12.0063 17.9985 12.3149C17.9953 12.6199 18.24 12.8698 18.5451 12.873H18.5477ZM18.2001 13.6086C18.2001 13.8672 17.9927 14.079 17.736 14.079C17.4793 14.079 17.2719 13.8672 17.2719 13.6086C17.2719 13.3499 17.4793 13.1381 17.736 13.1381C17.9927 13.1381 18.2001 13.3499 18.2001 13.6086ZM16.0851 13.444C16.3463 13.444 16.5601 13.2277 16.5601 12.962C16.5601 12.6964 16.3482 12.48 16.0851 12.48C15.8221 12.48 15.6102 12.6964 15.6102 12.962C15.6102 13.2277 15.824 13.444 16.0851 13.444ZM14.4966 12.6724C14.4964 12.9331 14.2872 13.1455 14.0265 13.1496H14.0259C13.7652 13.1451 13.5562 12.9325 13.5564 12.6717C13.5566 12.411 13.7658 12.1986 14.0265 12.1945H14.0271C14.2878 12.199 14.4968 12.4116 14.4966 12.6724ZM15.171 14.2826C15.3983 14.2826 15.5807 14.0957 15.5807 13.8684C15.5828 13.6419 15.4009 13.4564 15.1743 13.4543H15.171C14.9438 13.4543 14.7614 13.6412 14.7614 13.8684C14.7589 14.0947 14.9403 14.2801 15.1665 14.2826H15.171ZM17.2355 14.5099C17.2355 14.7416 17.0485 14.9285 16.8213 14.9285C16.5901 14.9285 16.4026 14.7411 16.4026 14.5099C16.4026 14.2786 16.5901 14.0912 16.8213 14.0912C17.0511 14.0912 17.2355 14.2781 17.2355 14.5099ZM15.8918 15.4131C16.0717 15.4131 16.2183 15.2646 16.2183 15.0821C16.2194 14.9007 16.0733 14.7526 15.8918 14.7512C15.7119 14.7512 15.5654 14.8997 15.5654 15.0821C15.565 15.2633 15.7107 15.411 15.8918 15.4131ZM15.2204 15.5847C15.1651 15.6407 15.0898 15.6725 15.011 15.673L15.0052 15.6729C14.8426 15.6701 14.7131 15.536 14.7159 15.3734V15.3726C14.7154 15.2939 14.7462 15.2181 14.8016 15.1621C14.8569 15.1061 14.9323 15.0743 15.011 15.0738C15.173 15.0738 15.3061 15.207 15.3061 15.3734V15.3742C15.3066 15.4529 15.2758 15.5286 15.2204 15.5847ZM14.2397 14.8114C14.4336 14.8114 14.5911 14.6513 14.5911 14.4554C14.5911 14.2596 14.4336 14.0995 14.2397 14.0995C14.0457 14.0995 13.8882 14.2596 13.8882 14.4554C13.8878 14.6504 14.0447 14.8093 14.2397 14.8114ZM13.5176 13.581C13.5176 13.8108 13.3332 13.9952 13.1079 13.9952C12.8808 13.9931 12.6979 13.8082 12.6982 13.581C12.6982 13.3512 12.8826 13.1669 13.1079 13.1669C13.3352 13.1669 13.5176 13.3512 13.5176 13.581ZM16.4641 19.1841C16.9506 19.1841 17.3449 18.7833 17.3449 18.2898C17.3449 17.7963 16.9506 17.3956 16.4641 17.3956C15.9776 17.3956 15.5833 17.7963 15.5833 18.2898C15.5833 18.7833 15.9776 19.1841 16.4641 19.1841ZM14.9611 17.3072C14.9611 17.7188 14.6321 18.0523 14.2268 18.0523C13.821 18.0523 13.4926 17.7188 13.4926 17.3072C13.4926 16.8956 13.8216 16.5621 14.2268 16.5621C14.6321 16.5621 14.9611 16.8956 14.9611 17.3072ZM12.9485 19.6904C13.3582 19.6904 13.6891 19.355 13.6891 18.9383C13.6891 18.5241 13.3582 18.1861 12.9485 18.1861C12.5388 18.1861 12.2079 18.5215 12.2079 18.9383C12.2047 19.3505 12.5363 19.6872 12.9484 19.6904H12.9485ZM13.0197 16.4797C12.8992 16.6018 12.7353 16.671 12.5638 16.6722C12.2104 16.6722 11.9224 16.3797 11.9217 16.0212C11.9206 15.8497 11.9875 15.6848 12.1079 15.5627C12.2283 15.4406 12.3923 15.3714 12.5638 15.3702C12.7353 15.3714 12.8992 15.4406 13.0197 15.5627C13.1401 15.6848 13.207 15.8497 13.2058 16.0212C13.207 16.1927 13.1401 16.3576 13.0197 16.4797ZM11.2887 18.3327C11.642 18.3327 11.9282 18.0421 11.9282 17.6842C11.9282 17.3264 11.642 17.0358 11.2887 17.0358C10.9353 17.0358 10.6492 17.3264 10.6492 17.6842C10.6457 18.0388 10.9302 18.3291 11.2848 18.3327H11.2887ZM10.5519 18.8128C10.5519 19.1687 10.2677 19.4593 9.91431 19.4593C9.56288 19.4593 9.27674 19.1687 9.27674 18.8128C9.27674 18.4569 9.56096 18.1663 9.91431 18.1663C10.2657 18.1663 10.5519 18.455 10.5519 18.8128ZM8.7704 17.9928C9.07285 17.99 9.31625 17.7435 9.31515 17.441C9.31515 17.1369 9.0719 16.8892 8.7704 16.8892C8.46893 16.8938 8.22695 17.1395 8.22695 17.441C8.22695 17.7425 8.46893 17.9882 8.7704 17.9928ZM10.6921 16.3092C10.6938 16.612 10.45 16.8589 10.1473 16.861H10.1454C9.84391 16.856 9.60233 16.6098 9.60285 16.3083C9.60338 16.0068 9.84582 15.7615 10.1473 15.7575C10.4488 15.7575 10.6921 16.0033 10.6921 16.3092ZM11.4321 15.2012C11.5775 15.2002 11.7167 15.1414 11.8188 15.0379C11.921 14.9343 11.9778 14.7944 11.9768 14.6489V14.6475C11.9768 14.3416 11.7336 14.0938 11.4321 14.0938C11.2866 14.0948 11.1475 14.1536 11.0453 14.2572C10.9431 14.3607 10.8863 14.5007 10.8873 14.6461V14.6475C10.8873 14.9535 11.1306 15.2012 11.4321 15.2012ZM9.93991 14.9503C9.93991 15.2159 9.72803 15.4297 9.46686 15.4297C9.20569 15.4297 8.9938 15.2159 8.9938 14.9503C8.9938 14.6846 9.20569 14.4708 9.46686 14.4708C9.72803 14.4708 9.93991 14.6846 9.93991 14.9503ZM8.09699 16.557C8.22194 16.5563 8.34151 16.506 8.42938 16.4172C8.51726 16.3283 8.56624 16.2082 8.56556 16.0833V16.082C8.56805 15.8222 8.35944 15.6095 8.09961 15.607H8.09699C7.97203 15.6077 7.85247 15.658 7.76459 15.7468C7.67672 15.8357 7.62773 15.9558 7.62841 16.0807V16.082C7.62756 16.2071 7.67645 16.3275 7.76433 16.4165C7.8522 16.5056 7.97186 16.5561 8.09699 16.557ZM8.18724 14.8261C8.18795 15.0509 8.00685 15.234 7.78204 15.2358C7.55928 15.2358 7.37684 15.0533 7.37684 14.8261C7.37684 14.6008 7.55928 14.4164 7.78204 14.4164C8.00481 14.4164 8.18724 14.5988 8.18724 14.8261ZM7.77052 14.0765C7.86339 14.0756 7.95211 14.0379 8.01718 13.9717C8.08225 13.9054 8.11832 13.816 8.11747 13.7231C8.11747 13.5292 7.96192 13.3698 7.77052 13.3698C7.57912 13.3698 7.42357 13.5273 7.42357 13.7231C7.42357 13.919 7.57912 14.0765 7.77052 14.0765ZM8.25638 12.8129C8.25638 12.9774 8.12579 13.1125 7.96128 13.1125C7.79677 13.1125 7.66618 12.9774 7.66618 12.8129C7.66618 12.6484 7.79677 12.5133 7.96128 12.5133C8.12323 12.5133 8.25638 12.6484 8.25638 12.8129ZM9.14231 12.9511C9.33627 12.9511 9.49374 12.7911 9.49374 12.5952C9.49374 12.3994 9.33627 12.2393 9.14231 12.2393C8.94836 12.2393 8.79088 12.3994 8.79088 12.5952C8.79017 12.7903 8.94721 12.9494 9.14231 12.9511ZM10.8483 12.0319C10.8483 12.2592 10.6639 12.4461 10.4386 12.4461H10.4367C10.3277 12.4452 10.2235 12.4011 10.147 12.3235C10.0705 12.2458 10.028 12.1409 10.0289 12.0319C10.0289 11.8047 10.2132 11.6178 10.4386 11.6178H10.4418C10.6684 11.6199 10.8504 11.8053 10.8483 12.0319ZM10.7471 13.7609C11.0038 13.7604 11.2115 13.552 11.2113 13.2953C11.211 13.0386 11.0028 12.8307 10.7462 12.8307C10.4895 12.8307 10.2813 13.0386 10.281 13.2953C10.2808 13.552 10.4885 13.7604 10.7452 13.7609H10.7471ZM9.56416 13.6988C9.56416 13.9267 9.38428 14.1111 9.15896 14.1111V14.111H9.15435C9.04657 14.1095 8.94381 14.0652 8.86868 13.9879C8.79356 13.9106 8.75222 13.8066 8.75376 13.6988V13.6968C8.75307 13.5887 8.79539 13.4847 8.87138 13.4078C8.94737 13.3308 9.05082 13.2872 9.15896 13.2866C9.38172 13.2866 9.56416 13.4709 9.56416 13.6988ZM4.67806 13.4997C5.162 13.4997 5.55632 13.1009 5.55632 12.61C5.55632 12.119 5.162 11.7202 4.67806 11.7202C4.19412 11.7202 3.7998 12.1196 3.7998 12.6106C3.7998 13.1016 4.19412 13.4997 4.67806 13.4997ZM7.42357 11.1473C7.42357 11.5685 7.08814 11.9109 6.67142 11.9109C6.25726 11.9109 5.91927 11.571 5.91927 11.1473V11.1459C5.91647 10.7277 6.25321 10.3864 6.67142 10.3836C7.08558 10.3836 7.42357 10.7261 7.42357 11.1473ZM5.89366 9.95214C6.30783 9.95214 6.64133 9.61223 6.64133 9.19295C6.64133 8.77367 6.30591 8.43376 5.89366 8.43376C5.69402 8.43509 5.50308 8.51569 5.36286 8.65782C5.22264 8.79995 5.14463 8.99196 5.14599 9.19161V9.19295C5.14177 9.60797 5.47474 9.94785 5.88976 9.95214H5.89366ZM8.45738 8.37295C8.45738 8.73334 8.16868 9.02396 7.81533 9.02396C7.46198 9.02396 7.17328 8.73334 7.17328 8.37295C7.17328 8.01255 7.46134 7.72193 7.81533 7.72193C8.16932 7.72193 8.45738 8.01255 8.45738 8.37295ZM8.60076 10.9783C8.95668 10.9783 9.24473 10.6857 9.24473 10.3253C9.24473 9.96494 8.95668 9.67241 8.60076 9.67241C8.24485 9.67241 7.9568 9.96494 7.9568 10.3253C7.9568 10.6857 8.24485 10.9783 8.60076 10.9783ZM10.8969 10.0162C10.8993 10.3209 10.6543 10.5699 10.3496 10.5724L10.3457 10.5725C10.042 10.5689 9.79877 10.3199 9.80229 10.0162V9.99945C9.80528 9.80391 9.91237 9.62483 10.0832 9.52966C10.254 9.43448 10.4627 9.43768 10.6305 9.53804C10.7984 9.6384 10.8999 9.82068 10.8969 10.0162ZM11.8603 10.5775C12.1215 10.5775 12.3334 10.3637 12.3334 10.1C12.3334 9.83628 12.1215 9.62247 11.8603 9.62247C11.5966 9.62247 11.3828 9.83627 11.3828 10.1C11.3828 10.3637 11.5966 10.5775 11.8603 10.5775ZM13.5073 10.4617C13.5073 10.6851 13.3268 10.865 13.1085 10.865C12.8896 10.865 12.7123 10.6825 12.7097 10.4617C12.709 10.2404 12.8873 10.0601 13.1085 10.0584C13.3294 10.0584 13.5073 10.2383 13.5073 10.4617ZM13.2711 9.39395C13.4639 9.39258 13.6192 9.23532 13.6181 9.04252C13.6181 8.84856 13.4625 8.69109 13.2711 8.69109C13.0797 8.69109 12.9242 8.84856 12.9242 9.04252C12.9231 9.23532 13.0783 9.39258 13.2711 9.39395ZM12.7098 8.51226C12.7101 8.73288 12.5316 8.91203 12.3109 8.91257H12.309C12.0883 8.91203 11.9099 8.73288 11.9101 8.51226C11.9104 8.29163 12.0893 8.11293 12.31 8.11293C12.5306 8.11293 12.7095 8.29163 12.7098 8.51226ZM11.0774 8.62067C11.3378 8.61856 11.5474 8.40611 11.546 8.1457C11.546 7.88197 11.3367 7.67072 11.0774 7.67072C10.8182 7.67072 10.6088 7.88453 10.6088 8.1457C10.6078 8.27065 10.6565 8.39089 10.7441 8.47997C10.8318 8.56905 10.9512 8.61966 11.0761 8.62067H11.0774ZM10.1185 8.06632C10.1185 8.37295 9.87334 8.6226 9.56928 8.6226C9.26437 8.61978 9.01898 8.37124 9.02005 8.06632C9.02005 7.7597 9.26522 7.51005 9.56928 7.51005C9.87334 7.51005 10.1185 7.7597 10.1185 8.06632ZM7.53815 7.2316C7.88254 7.2316 8.15972 6.94994 8.15972 6.60107C8.15972 6.2522 7.88062 5.97055 7.53815 5.97055C7.19376 5.97055 6.91659 6.2522 6.91659 6.60107C6.91659 6.94994 7.19568 7.2316 7.53815 7.2316ZM9.83557 6.29317C9.83557 6.59979 9.5904 6.84944 9.28634 6.84944C8.98228 6.84944 8.73711 6.59979 8.73711 6.29317C8.73711 5.98655 8.98228 5.7369 9.28634 5.7369C9.5904 5.7369 9.83557 5.98655 9.83557 6.29317ZM10.7964 6.85648C11.0576 6.85648 11.2695 6.64268 11.2695 6.37703C11.2695 6.11137 11.0576 5.89757 10.7964 5.89757C10.6703 5.89825 10.5496 5.94901 10.4608 6.03868C10.3721 6.12836 10.3227 6.24961 10.3233 6.37575V6.37703C10.3222 6.63979 10.5337 6.85406 10.7964 6.85648ZM12.4345 6.7387C12.4345 6.9621 12.2565 7.14198 12.0357 7.14198C11.813 7.14198 11.6324 6.96143 11.6324 6.7387C11.6324 6.51597 11.813 6.33542 12.0357 6.33542C12.2565 6.33542 12.4345 6.51529 12.4345 6.7387ZM12.9876 7.63616C13.1853 7.63475 13.3445 7.4735 13.3435 7.27577C13.3435 7.07541 13.1834 6.91537 12.9876 6.91537C12.7917 6.91537 12.6317 7.07733 12.6317 7.27577C12.6317 7.47421 12.7917 7.63616 12.9876 7.63616ZM13.8936 8.11571C13.8387 8.17129 13.764 8.2028 13.6859 8.20331L13.6861 8.20325H13.6815C13.6039 8.20209 13.5299 8.17014 13.4759 8.11445C13.4219 8.05875 13.3922 7.98388 13.3934 7.90629V7.90565C13.3929 7.82756 13.4234 7.75246 13.4783 7.69688C13.5332 7.64129 13.6078 7.60978 13.6859 7.60927H13.6866C13.7647 7.60995 13.8393 7.64162 13.8941 7.69733C13.9488 7.75303 13.9792 7.8282 13.9785 7.90629V7.90693C13.979 7.98503 13.9485 8.06013 13.8936 8.11571Z" fill="white"/>
</svg>
