<svg width="64" height="64" fill="none" xmlns="http://www.w3.org/2000/svg"><g clip-path="url(#clip0_580_24995)"><rect width="64" height="64" rx="4" fill="#fff"/><path d="M32.713 27.623l.857 1.113s5.158 7.576 7.741 11.358c1.782 2.624 3.564 5.248 5.35 7.87.136.189.262.384.377.586-3.176.013-6.352.006-9.527.003-3.16-4.692-9.436-14.107-9.436-14.107l-.541-.987" fill="url(#paint0_linear_580_24995)"/><path d="M25.294 37.329c-.117.093-.108.248-.108.383l-.128.427-.618-9.935.757-.81c.194-.131 7.705-8.071 11.32-11.852.086-.12.24-.084.367-.095 3.146.011 9.436.008 9.436.008S26.21 36.357 25.294 37.329z" fill="url(#paint1_linear_580_24995)"/><path d="M16.964 15.456h8.231V48.54h-8.231V15.456z" fill="#69009A"/></g><defs><linearGradient id="paint0_linear_580_24995" x1="30.367" y1="31.235" x2="37.996" y2="42.162" gradientUnits="userSpaceOnUse"><stop stop-color="#EA078C"/><stop offset="1" stop-color="#69009A"/></linearGradient><linearGradient id="paint1_linear_580_24995" x1="23.8" y1="31.126" x2="39.315" y2="21.591" gradientUnits="userSpaceOnUse"><stop stop-color="#EA078C"/><stop offset="1" stop-color="#69009A"/></linearGradient><clipPath id="clip0_580_24995"><path fill="#fff" d="M0 0h64v64H0z"/></clipPath></defs></svg>