<svg width="24" height="24" viewBox="0 0 24 24" fill="none" xmlns="http://www.w3.org/2000/svg">
<rect width="24" height="24" rx="4" fill="#0093DD"/>
<path fill-rule="evenodd" clip-rule="evenodd" d="M10.2125 12L14.1003 15.9823L16.5676 13.5027C17.0162 13.0519 17.6891 13.0519 18.063 13.5027C18.5116 13.9535 18.5116 14.7049 18.063 15.1558L14.848 18.4618C14.3994 18.9127 13.7265 18.9127 13.2779 18.4618L8.6424 13.653V16.5082C8.6424 17.1093 8.11904 17.6353 7.52091 17.6353C6.92278 17.6353 6.39941 17.1093 6.39941 16.5082V7.49166C6.39941 6.89056 6.92278 6.36459 7.52091 6.36459C8.11904 6.36459 8.6424 6.89056 8.6424 7.49166V10.3469L13.2779 5.53807C13.7265 5.08724 14.3994 5.08724 14.848 5.53807L18.063 8.84415C18.5116 9.29498 18.5116 10.0464 18.063 10.4972C17.6144 10.948 16.9415 10.948 16.5676 10.4972L14.1003 7.94249L10.2125 12ZM14.1 10.8728C14.6981 10.8728 15.2215 11.3988 15.2215 11.9999C15.2215 12.601 14.6981 13.1269 14.1 13.1269C13.5019 13.1269 12.9785 12.601 12.9785 11.9999C12.9785 11.3988 13.5019 10.8728 14.1 10.8728Z" fill="white"/>
</svg>
