<svg width="64" height="64" fill="none" xmlns="http://www.w3.org/2000/svg"><rect width="64" height="64" rx="4" fill="#0093DD"/><path fill-rule="evenodd" clip-rule="evenodd" d="M27.233 32l10.368 10.62 6.58-6.613c1.196-1.202 2.99-1.202 3.987 0 1.196 1.203 1.196 3.206 0 4.409l-8.573 8.816c-1.197 1.202-2.991 1.202-4.187 0L23.046 36.408v7.614c0 1.603-1.395 3.006-2.99 3.006-1.595 0-2.99-1.403-2.99-3.006V19.978c0-1.603 1.395-3.006 2.99-3.006 1.595 0 2.99 1.403 2.99 3.006v7.614l12.362-12.824c1.196-1.202 2.99-1.202 4.187 0l8.573 8.817c1.196 1.202 1.196 3.206 0 4.408-1.196 1.202-2.99 1.202-3.988 0L37.6 21.18 27.234 32zM37.6 28.994c1.595 0 2.99 1.403 2.99 3.006 0 1.603-1.395 3.005-2.99 3.005-1.595 0-2.99-1.402-2.99-3.005s1.395-3.006 2.99-3.006z" fill="#fff"/></svg>