<svg width="64" height="64" fill="none" xmlns="http://www.w3.org/2000/svg"><g clip-path="url(#clip0_582_664899)"><rect width="64" height="64" rx="4" fill="#000"/><path d="M54.185 18.308c-.756-.596-1.658-1.411-3.302-1.615-1.542-.203-3.113.83-4.174 1.513-1.062.684-3.07 2.691-3.899 3.302-.829.61-2.952 1.178-6.37 3.229-3.419 2.05-16.83 10.662-16.83 10.662l3.491.043-15.563 8.015h1.556l-2.24 1.702s1.978.523 3.637-.524v.48s18.53-7.302 22.109-5.41l-2.182.64c.189 0 3.709.232 3.709.232a4.994 4.994 0 002.24 3.607c2.123 1.397 2.167 2.168 2.167 2.168s-1.105.45-1.105 1.018c0 0 1.629-.495 3.142-.451.96.036 1.912.188 2.836.45 0 0-.116-.61-1.586-1.017-1.469-.408-2.923-2.008-3.636-2.88a4.072 4.072 0 01-.596-3.986c.509-1.324 2.283-2.05 5.949-3.942 4.32-2.24 5.309-3.898 5.92-5.192.61-1.295 1.513-3.87 2.022-5.077.64-1.556 1.425-2.385 2.08-2.88.654-.494 3.563-1.585 3.563-1.585s-2.225-1.935-2.938-2.502z" fill="#fff"/></g><defs><clipPath id="clip0_582_664899"><path fill="#fff" d="M0 0h64v64H0z"/></clipPath></defs></svg>