<svg width="24" height="24" viewBox="0 0 24 24" fill="none" xmlns="http://www.w3.org/2000/svg">
<g clip-path="url(#clip0_582_664900)">
<rect width="24" height="24" rx="4" fill="black"/>
<path d="M20.3194 6.86525C20.0358 6.64161 19.6976 6.33616 19.0812 6.25979C18.503 6.18343 17.9139 6.5707 17.5158 6.82707C17.1176 7.08343 16.3649 7.83616 16.0539 8.06525C15.743 8.29434 14.9467 8.50707 13.6649 9.27616C12.383 10.0452 7.35395 13.2743 7.35395 13.2743L8.66304 13.2907L2.82668 16.2962H3.41031L2.57031 16.9343C2.57031 16.9343 3.31213 17.1307 3.93395 16.738V16.918C3.93395 16.918 10.883 14.1798 12.2249 14.8889L11.4067 15.1289C11.4776 15.1289 12.7976 15.2162 12.7976 15.2162C12.8296 15.4895 12.9215 15.7524 13.0667 15.9862C13.2119 16.22 13.4068 16.419 13.6376 16.5689C14.4339 17.0925 14.4503 17.3816 14.4503 17.3816C14.4503 17.3816 14.0358 17.5507 14.0358 17.7634C14.0358 17.7634 14.6467 17.578 15.2139 17.5943C15.574 17.608 15.9311 17.6648 16.2776 17.7634C16.2776 17.7634 16.2339 17.5343 15.683 17.3816C15.1321 17.2289 14.5867 16.6289 14.3194 16.3016C14.1557 16.0933 14.049 15.846 14.0098 15.5839C13.9706 15.3219 14.0002 15.0542 14.0958 14.8071C14.2867 14.3107 14.9521 14.038 16.3267 13.3289C17.9467 12.4889 18.3176 11.8671 18.5467 11.3816C18.7758 10.8962 19.1139 9.9307 19.3049 9.47798C19.5449 8.89434 19.8394 8.58343 20.0849 8.39798C20.3303 8.21252 21.4212 7.80343 21.4212 7.80343C21.4212 7.80343 20.5867 7.07798 20.3194 6.86525Z" fill="white"/>
</g>
<defs>
<clipPath id="clip0_582_664900">
<rect width="24.0003" height="24.0001" fill="white"/>
</clipPath>
</defs>
</svg>
