<svg width="64" height="64" fill="none" xmlns="http://www.w3.org/2000/svg"><rect width="64" height="64" rx="4" fill="#fff"/><path d="M32 6.4C17.863 6.4 6.381 17.877 6.4 31.997a25.66 25.66 0 001.3 8.084h7.66V18.548L32 35.184l16.638-16.636V40.08H56.3a25.668 25.668 0 001.3-8.084C57.624 17.863 46.136 6.404 32 6.404V6.4z" fill="#F26822"/><path d="M28.173 39.008l-7.262-7.26v13.55H10.12C14.614 52.67 22.735 57.6 32 57.6c9.264 0 17.385-4.932 21.88-12.303H43.086v-13.55l-7.262 7.261-3.825 3.825-3.826-3.825z" fill="#4D4D4D"/></svg>