<svg width="24" height="24" viewBox="0 0 24 24" fill="none" xmlns="http://www.w3.org/2000/svg">
<g clip-path="url(#clip0_564_20152)">
<rect width="24" height="24" rx="4" fill="white"/>
<path d="M17.44 3.92L13.68 9.5C13.42 9.88 13.92 10.34 14.28 10.02L17.98 6.8C18.08 6.72 18.22 6.78 18.22 6.92V16.98C18.22 17.12 18.04 17.18 17.96 17.08L6.76 3.68C6.4 3.24 5.88 3 5.3 3H4.9C3.86 3 3 3.86 3 4.92V19.08C3 20.14 3.86 21 4.92 21C5.58 21 6.2 20.66 6.56 20.08L10.32 14.5C10.58 14.12 10.08 13.66 9.72 13.98L6.02 17.18C5.92 17.26 5.78 17.2 5.78 17.06V7.02C5.78 6.88 5.96 6.82 6.04 6.92L17.24 20.32C17.6 20.76 18.14 21 18.7 21H19.1C20.16 21 21.02 20.14 21.02 19.08V4.92C21.02 3.86 20.16 3 19.1 3C18.42 3 17.8 3.34 17.44 3.92Z" fill="black"/>
</g>
<defs>
<clipPath id="clip0_564_20152">
<rect width="24" height="24" fill="white"/>
</clipPath>
</defs>
</svg>
