<svg width="64" height="64" fill="none" xmlns="http://www.w3.org/2000/svg"><g clip-path="url(#clip0_252_1674)"><rect width="64" height="64" rx="4" fill="#fff"/><path d="M46.507 10.454L36.48 25.334c-.693 1.013.64 2.24 1.6 1.386l9.867-8.586c.266-.214.64-.054.64.32V45.28c0 .374-.48.534-.694.267L18.027 9.814C17.067 8.64 15.68 8 14.133 8h-1.066C10.293 8 8 10.294 8 13.12v37.76A5.121 5.121 0 0013.12 56a5.14 5.14 0 004.373-2.453l10.027-14.88c.693-1.013-.64-2.24-1.6-1.387l-9.867 8.534c-.266.213-.64.053-.64-.32V18.72c0-.373.48-.533.694-.266l29.866 35.733c.96 1.173 2.4 1.813 3.894 1.813h1.066a5.121 5.121 0 005.12-5.12V13.12A5.121 5.121 0 0050.933 8a5.165 5.165 0 00-4.426 2.454z" fill="#000"/></g><defs><clipPath id="clip0_252_1674"><path fill="#fff" d="M0 0h64v64H0z"/></clipPath></defs></svg>