<svg width="64" height="64" fill="none" xmlns="http://www.w3.org/2000/svg"><rect width="64" height="64" rx="4" fill="#EDF0F4"/><path d="M22.95 16.21l18.168 10.485v10.694L13.333 21.347l8.905-5.137a.75.75 0 01.711 0z" fill="#3CA9E5"/><path d="M41.118 16l-9.264 5.348 9.264 5.347V16z" fill="#2853C3"/><path d="M41.117 16l8.912 5.138a.749.749 0 01.36.621v20.97l-9.272-5.34V16z" fill="#1A4199"/><path d="M50.382 42.736l-8.904 5.138a.749.749 0 01-.75 0l-18.16-10.485V26.68l27.814 16.058z" fill="#2853C3"/><path d="M13.333 21.347v20.97a.749.749 0 00.36.644l8.904 5.137V26.68l-9.264-5.333z" fill="#60BEFF"/><path d="M22.596 48.083l9.257-5.347-9.257-5.347v10.694z" fill="#3CA9E5"/></svg>