<svg width="64" height="64" fill="none" xmlns="http://www.w3.org/2000/svg"><g clip-path="url(#clip0_234_2981)"><rect width="64" height="64" rx="4" fill="#fff"/><path fill-rule="evenodd" clip-rule="evenodd" d="M31.365 8c9.904.088 17.408 6.699 18.86 15.486 1.643 9.935-5.099 19.406-15.022 21.117-1.339.231-2.708.322-4.068.4-2.756.157-5.544 2.023-6.191 5.683-.186 1.05-.434 2.09-.658 3.133-.325 1.515-1.609 2.415-3.03 2.128-1.469-.297-2.318-1.611-2-3.155.406-1.972.841-3.94 1.264-5.908 1.476-6.883 2.957-13.765 4.427-20.65.338-1.585 1.274-2.45 2.68-2.423 1.557.03 2.754 1.468 2.432 2.993-.77 3.655-1.573 7.303-2.36 10.954-.153.706-.293 1.415-.448 2.121-.062.284-.013.427.326.389 2.09-.236 4.186-.431 6.273-.696 5.555-.705 10.208-5.127 11.212-10.62 1.342-7.335-3.396-14.198-10.74-15.558-7.328-1.357-14.54 3.889-15.52 11.278a13.23 13.23 0 00.554 5.963c.496 1.505-.187 3-1.577 3.441-1.453.462-2.86-.32-3.347-1.857-3.321-10.504 2.8-21.254 13.556-23.742 1.303-.301 2.659-.379 3.377-.477z" fill="#000"/><path fill-rule="evenodd" clip-rule="evenodd" d="M29.602 52.908c.006-1.723 1.322-3.035 3.046-3.035 1.744 0 3.095 1.353 3.07 3.076-.024 1.718-1.356 3.04-3.064 3.04-1.746.001-3.057-1.323-3.052-3.081z" fill="#E6027A"/></g><defs><clipPath id="clip0_234_2981"><path fill="#fff" d="M0 0h64v64H0z"/></clipPath></defs></svg>