<svg width="64" height="64" fill="none" xmlns="http://www.w3.org/2000/svg"><rect width="64" height="64" rx="4" fill="#fff"/><path d="M41.601 25.573c-.682-.392-1.56-.392-2.339 0l-5.459 3.238-3.704 2.06-5.36 3.239c-.683.392-1.56.392-2.34 0l-4.192-2.551a2.395 2.395 0 01-1.17-2.06v-4.907c0-.785.39-1.57 1.17-2.06l4.192-2.454c.682-.392 1.56-.392 2.34 0l4.19 2.552a2.395 2.395 0 011.17 2.06v3.238l3.704-2.159v-3.336c0-.785-.39-1.57-1.17-2.06l-7.798-4.612c-.682-.392-1.56-.392-2.339 0l-7.993 4.71c-.78.392-1.17 1.177-1.17 1.962v9.224c0 .785.39 1.57 1.17 2.06L22.4 38.33c.682.392 1.56.392 2.34 0l5.36-3.14 3.704-2.159 5.361-3.14c.683-.392 1.56-.392 2.34 0l4.191 2.454a2.394 2.394 0 011.17 2.06v4.906c0 .785-.39 1.57-1.17 2.06l-4.094 2.454c-.682.392-1.56.392-2.339 0l-4.191-2.453a2.395 2.395 0 01-1.17-2.06v-3.14l-3.704 2.158v3.238c0 .785.39 1.57 1.17 2.06l7.895 4.612c.682.393 1.56.393 2.34 0l7.895-4.612a2.395 2.395 0 001.17-2.06v-9.322c0-.784-.39-1.57-1.17-2.06l-7.896-4.612z" fill="#8247E5"/></svg>