<svg width="24" height="24" viewBox="0 0 24 24" fill="none" xmlns="http://www.w3.org/2000/svg">
<rect width="24" height="24" rx="4" fill="#EDF0F4"/>
<circle cx="12" cy="12" r="9" fill="#1B1B1B" stroke="white" stroke-width="4"/>
<path fill-rule="evenodd" clip-rule="evenodd" d="M14.7247 9.42576C14.8476 9.54768 15.0474 9.53244 15.1395 9.39528C15.2317 9.2886 15.2164 9.12096 15.1088 9.02951C14.0948 8.06938 13.1884 7.5817 11.6827 7.6579C10.1003 7.7341 8.70221 8.55707 8.79439 10.2944C8.87121 11.8337 10.3768 12.3976 11.6981 12.9005C12.7121 13.2815 13.6032 13.6168 13.6493 14.3331C13.6954 15.1256 12.8811 15.598 12.1744 15.6438C10.8377 15.72 10.0542 15.2475 9.17848 14.4093C9.07094 14.3026 8.90194 14.3026 8.79439 14.3941C8.67148 14.5007 8.67148 14.6836 8.77903 14.8055C9.7623 15.7809 10.7763 16.2686 12.2512 16.1924C13.7261 16.0857 15.539 15.2627 15.4468 13.5254C15.37 12.0166 13.9258 11.4527 12.6199 10.965C11.5445 10.5535 10.5458 10.1725 10.4997 9.30384C10.469 8.67899 11.2218 8.22178 11.7596 8.1913C13.0655 8.13034 13.8797 8.58755 14.7247 9.42576ZM14.8934 13.5558C14.8934 14.2263 14.5247 14.8055 13.9716 15.1407L13.9408 15.1255C14.1406 14.8512 14.1713 14.5007 14.1713 14.1654C14.1713 13.1748 13.0805 12.7938 11.9282 12.3823C10.653 11.9251 9.31641 11.4526 9.31641 10.1115C9.31641 9.50188 9.59295 8.84655 10.1307 8.54175L10.146 8.57223C10.0078 8.86179 9.94631 9.18184 9.94631 9.50188C9.94631 10.5992 11.16 11.0411 12.3891 11.4983C13.6489 11.9555 14.8934 12.4128 14.8934 13.5558Z" fill="white"/>
<path fill-rule="evenodd" clip-rule="evenodd" d="M11.9254 19.1999C15.9381 19.1999 19.2004 15.9376 19.2004 11.9249C19.2004 7.91217 15.9381 4.6499 11.9254 4.6499C7.91265 4.6499 4.65039 7.91217 4.65039 11.9249C4.65039 15.9376 7.91265 19.1999 11.9254 19.1999Z" stroke="white" stroke-width="2" stroke-linecap="round"/>
</svg>
