<svg width="64" height="64" fill="none" xmlns="http://www.w3.org/2000/svg"><rect width="64" height="64" rx="4" fill="#EDF0F4"/><circle cx="32" cy="32" r="24" fill="#1B1B1B" stroke="#fff" stroke-width="4"/><path fill-rule="evenodd" clip-rule="evenodd" d="M39.266 25.136c.328.325.86.284 1.106-.082a.698.698 0 00-.082-.975c-2.704-2.56-5.121-3.86-9.136-3.658-4.22.204-7.948 2.398-7.702 7.031.204 4.105 4.22 5.608 7.743 6.95 2.704 1.016 5.08 1.91 5.203 3.82.123 2.113-2.048 3.373-3.933 3.495-3.564.203-5.654-1.057-7.99-3.292a.762.762 0 00-1.023-.04c-.328.284-.328.772-.041 1.097 2.622 2.6 5.326 3.901 9.259 3.698 3.933-.285 8.767-2.48 8.521-7.112-.204-4.023-4.056-5.527-7.538-6.828-2.868-1.097-5.53-2.113-5.654-4.43-.082-1.666 1.926-2.885 3.36-2.966 3.482-.163 5.654 1.056 7.907 3.292zm.45 11.013c0 1.788-.984 3.332-2.459 4.227l-.081-.041c.532-.732.614-1.666.614-2.56 0-2.642-2.909-3.658-5.981-4.755-3.4-1.22-6.965-2.48-6.965-6.056 0-1.625.737-3.373 2.171-4.186l.041.082c-.369.772-.533 1.625-.533 2.479 0 2.926 3.237 4.104 6.515 5.324 3.36 1.219 6.678 2.438 6.678 5.486z" fill="#fff"/><path clip-rule="evenodd" d="M31.801 51.2c10.7 0 19.4-8.7 19.4-19.4s-8.7-19.4-19.4-19.4-19.4 8.7-19.4 19.4 8.7 19.4 19.4 19.4z" stroke="#fff" stroke-width="2" stroke-linecap="round"/></svg>