<svg width="64" height="64" fill="none" xmlns="http://www.w3.org/2000/svg"><g clip-path="url(#clip0_238_1000)"><rect width="64" height="64" rx="4" fill="#fff"/><path d="M43.146 11.991a30.906 30.906 0 00-3.411 4.047l-.322-.105a23.35 23.35 0 00-5.715-1.107c-.583-.045-2.76-.045-3.47 0-2.147.142-3.793.464-5.663 1.115-.075.03-.142.052-.21.074A30.444 30.444 0 0020.832 12a24.49 24.49 0 0122.014-.158l.3.15zm11.579 28.372a23.36 23.36 0 01-4.189 7.346 26.04 26.04 0 01-3.276 3.209 24.183 24.183 0 01-9.448 4.66 24.76 24.76 0 01-11.609 0 24.122 24.122 0 01-9.447-4.66 26.027 26.027 0 01-3.277-3.21 23.086 23.086 0 01-4.188-22.5 24.449 24.449 0 011.907-4.113c.351-.599.785-1.272.995-1.549a77.53 77.53 0 001.93 6.785 1.707 1.707 0 01-.083.164c-1.742 3.53-2.685 6.934-2.91 10.555 0 .045-.007.097-.007.142-.06 1.084-.03 1.6.15 2.281.56 2.132 2.289 4.48 4.997 6.785 4.435 3.77 10.45 6.492 15.005 6.807 4.75.321 11.758-2.454 16.426-6.508a23.455 23.455 0 002.065-2.072c.463-.539 1.151-1.466 1.1-1.466-.016 0 0-.015.029-.03.022-.015.045-.037.03-.052-.008-.008.007-.03.03-.038.022-.007.037-.022.03-.037-.008-.015 0-.03.03-.038.022-.007.03-.03.022-.044-.007-.016 0-.03.015-.03s.03-.023.03-.038.015-.037.03-.037.03-.015.03-.03c.022-.06.06-.12.097-.172.112-.172.561-.973.62-1.107.427-.965.697-1.825.824-2.686.06-.411.097-1.167.067-1.346-.007-.03-.007-.082-.015-.165-.015-.15-.022-.374-.037-.598a25.257 25.257 0 00-.068-1.04c-.321-3.396-1.189-6.17-2.835-9.11a2.594 2.594 0 01-.164-.315c-.015-.022-.023-.045-.03-.06a78.065 78.065 0 001.937-6.934l.015.015.113.15c.194.262.71 1.04.942 1.414a23.546 23.546 0 012.46 5.498 23.342 23.342 0 01-.343 14.174z" fill="#F00500"/><path d="M45.016 31.424c-.023.12-.374.48-.726.741-1.032.755-2.88 1.459-4.757 1.795-1.07.195-2.14.225-2.461.068-.21-.105-.24-.187-.165-.457.157-.56.666-1.174 1.459-1.75.404-.292 2.042-1.287 2.805-1.706 1.257-.688 2.274-1.1 2.962-1.196.217-.03.479-.038.561 0 .135.052.284.448.344.927.03.255.015 1.377-.022 1.578zM27.392 33.9c-.044.09-.269.187-.523.225-.255.037-1.032.015-1.474-.038-1.585-.21-3.269-.695-4.495-1.294-.688-.336-1.182-.673-1.549-1.04l-.21-.216-.022-.285c-.037-.493-.03-1.271.03-1.548a2.05 2.05 0 01.232-.658c.06-.075.06-.075.33-.075.329 0 .605.052 1.054.194.92.285 2.289.973 3.957 1.975 1.376.823 1.892 1.227 2.289 1.78.27.344.449.83.381.98zm10.592 10.413c0 .022-.09.381-.202.807-.112.427-.202.771-.202.786-.082.007-.157.015-.239.007h-.24l-.328.778c-.18.427-.345.823-.367.883l-.045.105-.157-.255-.157-.254v-2.072l-.06.015c-.127.03-1.032.15-1.429.187a20.384 20.384 0 01-4.914-.105 5.01 5.01 0 00-.494-.06c-.007.008 0 .487.015 1.078l.023 1.062-.127.194c-.068.105-.135.195-.135.202-.023.023-.097-.097-.27-.441a5.052 5.052 0 01-.418-1.137l-.053-.217-.232.015-.231.022-.06-.276a7.942 7.942 0 01-.083-.509l-.022-.24-.194-.171a6.948 6.948 0 00-.247-.21c-.038-.03-.053-.082-.053-.127v-.09l.935.008.935.007.03.097.03.098.322.015c.18.007.748.022 1.256.037l.935.023.24-.375.247-.373h.314l-.008-.779-.007-.777-.412-.18c-1.323-.583-2.101-1.25-2.393-2.057-.06-.164-.06-.224-.075-.972-.007-.74-.007-.808.045-.973.105-.374.396-.666.77-.763.128-.037.464-.037 2.23-.037l2.079.007.232.112c.277.135.404.232.56.442.18.24.233.426.233.883 0 .65-.045 1.211-.112 1.436a3.103 3.103 0 01-.434.86c-.374.479-1.055.957-1.676 1.174l-.18.068.008.785.008.785.164.015.165.015.224.337.217.337h1.002c.554 0 1.04.007 1.085.014.075.016.09.008.165-.12l.09-.134h.86c.643-.03.837-.015.837.008z" fill="#000"/><path d="M34.035 46.46c-.142.082-.24.12-.262.104-.022-.007-.127-.097-.24-.18l-.201-.164-.21.225c-.456.493-.471.516-.606.523-.21.023-.254-.015-.508-.396-.135-.195-.24-.36-.24-.36s-.097-.014-.21-.022l-.209-.022-.097.202-.097.202-.172-.053a3.63 3.63 0 01-.396-.157l-.225-.112v-.426l1.99.007 1.99.008.007.202c.007.239.015.232-.314.419z" fill="#000"/><path d="M52.735 37.334c-.007-.03-.007-.082-.015-.165-1.795-.194-6.919-.314-11.676 3.613 0 0-1.534-7.031-8.715-7.031-7.18 0-9.844 7.031-9.844 7.031-4.024-4.33-9.41-4.016-11.354-3.732 0 .045-.008.097-.008.142-.06 1.084-.03 1.6.15 2.281.56 2.132 2.289 4.48 4.996 6.785 4.436 3.77 10.45 6.492 15.006 6.807 4.75.321 11.758-2.454 16.426-6.508a23.47 23.47 0 002.065-2.072c.463-.539 1.151-1.466 1.1-1.466-.016 0 0-.015.029-.03.022-.015.045-.037.03-.052-.008-.008.007-.03.03-.038.022-.007.037-.022.03-.037-.008-.015 0-.03.03-.038.022-.007.03-.03.022-.044-.007-.016 0-.03.015-.03s.03-.023.03-.038.015-.037.03-.037.03-.015.03-.03c.022-.06.06-.12.097-.172.112-.172.561-.973.62-1.107.427-.965.697-1.825.824-2.686.045-.411.082-1.166.052-1.346zm-18.7 9.126c-.142.082-.24.12-.262.104-.023-.007-.127-.097-.24-.18l-.201-.164-.21.225c-.456.493-.471.516-.606.523-.21.023-.254-.015-.508-.396-.135-.195-.24-.36-.24-.36s-.097-.014-.21-.022l-.209-.022-.097.202-.097.202-.172-.052a3.652 3.652 0 01-.397-.158l-.224-.112v-.426l1.99.007 1.99.008.007.202c.007.24.015.232-.314.419zm3.74-1.347c-.112.427-.202.77-.202.786-.082.007-.157.015-.24.007h-.239l-.322.786c-.179.426-.344.822-.366.882l-.045.105-.157-.254-.157-.255v-2.072l-.06.015c-.127.03-1.032.15-1.429.187a20.385 20.385 0 01-4.914-.104 5.058 5.058 0 00-.494-.06c-.007.007 0 .486.015 1.077l.023 1.062-.127.194c-.068.105-.135.195-.135.203-.023.022-.097-.098-.27-.442a5.06 5.06 0 01-.418-1.137l-.053-.217-.232.015-.232.023-.06-.277a7.944 7.944 0 01-.082-.509l-.022-.24-.194-.171c-.113-.097-.225-.195-.247-.21-.038-.03-.053-.082-.053-.127v-.09l.935.008.935.007.03.098.03.097.322.015c.18.007.748.022 1.256.037l.935.023.24-.374.247-.374h.314l-.008-.778-.007-.778-.412-.18c-1.323-.583-2.101-1.249-2.393-2.057-.06-.164-.06-.224-.075-.972-.008-.74-.008-.808.045-.972.105-.375.396-.666.77-.764.128-.037.464-.037 2.23-.037l2.079.008.232.112c.277.134.404.232.56.441.18.24.233.426.233.883 0 .65-.045 1.212-.112 1.436a3.1 3.1 0 01-.434.86c-.374.479-1.055.958-1.676 1.174l-.18.068.008.785.008.786.164.015.165.015.224.336.217.337h1.002c.554 0 1.04.007 1.085.015.075.015.09.007.165-.12l.09-.135h.86c.665 0 .86.008.86.03-.023-.007-.12.36-.232.778z" fill="#fff"/><path d="M52.675 36.57a25.24 25.24 0 00-.067-1.039c-.322-3.396-1.19-6.17-2.835-9.11a2.596 2.596 0 01-.165-.315c-.015-.022-.022-.045-.03-.06a78.078 78.078 0 001.938-6.934c1.025-4.518 1.675-9.799-.314-11.384 0 0-3.441-.255-8.049 4.263a30.906 30.906 0 00-3.41 4.047l-.323-.105a23.35 23.35 0 00-5.714-1.107c-.584-.045-2.76-.045-3.471 0-2.147.142-3.793.464-5.663 1.115-.074.03-.142.052-.209.074A30.45 30.45 0 0020.84 12c-4.795-4.54-8.363-4.279-8.363-4.279-2.11 1.638-1.391 7.159-.3 11.826a77.53 77.53 0 001.93 6.785 1.662 1.662 0 01-.082.164c-1.742 3.53-2.685 6.934-2.91 10.555 1.953-.285 7.331-.606 11.363 3.732 0 0 2.663-7.031 9.844-7.031 7.18 0 8.714 7.031 8.714 7.031 4.758-3.927 9.881-3.8 11.677-3.613-.008-.15-.023-.374-.038-.598zM15.521 23.51s-2.797-6.993-2.079-10.988c.12-.673.344-1.264.696-1.713 0 0 3.171.315 8.288 6 0 0-.973.47-2.274 1.473 0 0-.008.008-.015.008-1.414 1.084-3.224 2.805-4.616 5.22zM27.392 33.9c-.044.09-.269.188-.523.225-.255.037-1.032.015-1.474-.038-1.586-.209-3.269-.695-4.495-1.294-.688-.336-1.182-.673-1.549-1.04l-.21-.216-.022-.284c-.037-.494-.03-1.272.03-1.549a2.05 2.05 0 01.232-.658c.06-.075.06-.075.33-.075.329 0 .605.052 1.054.195.92.284 2.289.972 3.957 1.974 1.376.823 1.892 1.227 2.289 1.78.27.345.449.83.381.98zm17.624-2.475c-.023.12-.374.478-.726.74-1.032.756-2.88 1.459-4.757 1.795-1.07.195-2.14.225-2.461.068-.21-.105-.24-.187-.165-.457.157-.56.666-1.174 1.459-1.75.404-.292 2.042-1.287 2.805-1.705 1.257-.689 2.274-1.1 2.962-1.197.217-.03.479-.038.561 0 .135.052.284.449.344.927.03.255.015 1.377-.022 1.579zm-1.242-13.143l-.015-.008c-1.257-1.002-2.2-1.473-2.2-1.473 4.945-5.685 8.005-6 8.005-6 .336.457.553 1.04.673 1.714.695 3.994-2.005 10.996-2.005 10.996a17.818 17.818 0 00-4.458-5.229z" fill="#FFA409"/><path d="M50.244 12.515c-.583-.075-3.343-.09-6.47 5.767l-.015-.008c-1.257-1.002-2.2-1.473-2.2-1.473 4.945-5.685 8.005-6 8.005-6 .344.457.56 1.04.68 1.714z" fill="#FF9300"/><path d="M48.24 23.51a17.75 17.75 0 00-4.466-5.228c3.127-5.857 5.88-5.842 6.47-5.767.696 4.002-2.005 10.995-2.005 10.995zm2.115-10.973l-.11-.022.11.022z" fill="#FF8300"/><path d="M22.426 16.8s-.973.472-2.274 1.474c0 0-.008.008-.015.008-3.24-5.864-6.09-5.842-6.703-5.767.12-.674.345-1.264.696-1.713.008 0 3.18.314 8.296 5.999z" fill="#FF9300"/><path d="M20.144 18.282c-1.421 1.092-3.231 2.805-4.622 5.228 0 0-2.798-6.994-2.08-10.995.606-.075 3.463-.09 6.702 5.767zm-6.704-5.767l-.118.022.119-.022z" fill="#FF8300"/><path d="M40.67 27.393s-2.394.15-2.095-1.72c.3-1.87 2.17-2.095 2.693-2.02.524.075 2.618.823 2.244 2.393-.374 1.571-.898 1.272-1.197 1.347-.299.075-1.645 0-1.645 0zm-17.653 0s-2.394.15-2.095-1.72c.3-1.87 2.17-2.095 2.693-2.02.524.075 2.618.823 2.244 2.393-.374 1.571-.898 1.272-1.197 1.347-.299.075-1.645 0-1.645 0z" fill="#fff"/></g><defs><clipPath id="clip0_238_1000"><path fill="#fff" d="M0 0h64v64H0z"/></clipPath></defs></svg>