<svg width="24" height="24" viewBox="0 0 24 24" fill="none" xmlns="http://www.w3.org/2000/svg">
<g clip-path="url(#clip0_548_25097)">
<rect width="24" height="24" rx="4" fill="white"/>
<path d="M16.179 4.49664C15.7105 4.96508 15.2814 5.4728 14.8999 6.01417L14.7793 5.9749C14.0836 5.74769 13.3627 5.60744 12.6362 5.55975C12.4174 5.54292 11.6011 5.54292 11.3347 5.55975C10.5296 5.61305 9.91251 5.73366 9.21124 5.9777C9.18319 5.98892 9.15795 5.99734 9.1327 6.00575C8.73719 5.46719 8.2968 4.96228 7.81152 4.49944C10.1397 3.3073 12.8634 3.16424 15.301 4.10393C15.5619 4.20211 15.8171 4.31712 16.0668 4.44054L16.179 4.49664Z" fill="#F00500"/>
<path d="M20.5213 15.1361C20.1679 16.1432 19.6377 17.0772 18.9505 17.8907C18.5774 18.3283 18.1651 18.7294 17.7219 19.0941C16.684 19.93 15.4722 20.5275 14.1791 20.8416C12.7485 21.1866 11.2562 21.1866 9.82566 20.8416C8.52972 20.5275 7.32075 19.93 6.28288 19.0941C5.83968 18.7294 5.42734 18.3283 5.05427 17.8907C3.07671 15.5541 2.47643 12.3451 3.48344 9.45311C3.67418 8.91734 3.91261 8.40121 4.19873 7.91033C4.33056 7.68593 4.49326 7.43347 4.5718 7.32969C4.84109 8.48817 5.17208 9.5064 5.2955 9.87387C5.28709 9.8935 5.27587 9.91594 5.26465 9.93558C4.61107 11.2596 4.25763 12.5359 4.17348 13.8935C4.17348 13.9103 4.17068 13.93 4.17068 13.9468C4.14824 14.3535 4.15946 14.5471 4.22678 14.8023C4.43716 15.6018 5.08512 16.4826 6.10055 17.3465C7.76395 18.7603 10.0192 19.7813 11.7275 19.8991C13.5087 20.0197 16.137 18.9791 17.8874 17.4587C18.1623 17.2147 18.4203 16.9566 18.6616 16.6817C18.8355 16.4798 19.0935 16.1319 19.0739 16.1319C19.0683 16.1319 19.0739 16.1263 19.0851 16.1207C19.0935 16.1151 19.102 16.1067 19.0963 16.1011C19.0935 16.0983 19.0991 16.0899 19.1076 16.0871C19.116 16.0842 19.1216 16.0786 19.1188 16.073C19.116 16.0674 19.1188 16.0618 19.13 16.059C19.1384 16.0562 19.1412 16.0478 19.1384 16.0422C19.1356 16.0366 19.1384 16.031 19.144 16.031C19.1496 16.031 19.1553 16.0225 19.1553 16.0169C19.1553 16.0113 19.1609 16.0029 19.1665 16.0029C19.1721 16.0029 19.1777 15.9973 19.1777 15.9917C19.1861 15.9692 19.2001 15.9468 19.2142 15.9272C19.2562 15.8627 19.4245 15.5625 19.447 15.512C19.6069 15.1502 19.7078 14.8276 19.7555 14.505C19.778 14.3507 19.792 14.0674 19.7808 14.0001C19.778 13.9889 19.778 13.9692 19.7752 13.9384C19.7696 13.8823 19.7668 13.7981 19.7611 13.714C19.7555 13.5878 19.7443 13.411 19.7359 13.3241C19.6153 12.0506 19.2899 11.0099 18.6728 9.90753C18.6475 9.86545 18.6251 9.82338 18.6111 9.78972C18.6055 9.7813 18.6027 9.77289 18.5998 9.76727C18.6868 9.50641 19.043 8.41524 19.3264 7.16699L19.332 7.1726L19.374 7.2287C19.447 7.32688 19.6405 7.61861 19.7275 7.75886C20.123 8.40402 20.4315 9.09687 20.6503 9.82057C21.1581 11.5625 21.116 13.4195 20.5213 15.1361Z" fill="#F00500"/>
<path d="M16.8808 11.7842C16.8724 11.829 16.7406 11.9637 16.6087 12.0619C16.2216 12.3452 15.5288 12.6088 14.8247 12.7351C14.4236 12.808 14.0224 12.8192 13.9018 12.7603C13.8233 12.721 13.8121 12.6902 13.8401 12.5892C13.899 12.3788 14.0898 12.1488 14.3871 11.9328C14.5386 11.8234 15.1529 11.4503 15.439 11.2933C15.9103 11.0352 16.2918 10.8809 16.5498 10.8445C16.6312 10.8332 16.7293 10.8304 16.7602 10.8445C16.8107 10.8641 16.8668 11.0128 16.8892 11.1923C16.9005 11.2877 16.8948 11.7084 16.8808 11.7842Z" fill="black"/>
<path d="M10.2721 12.7125C10.2553 12.7462 10.1711 12.7827 10.0757 12.7967C9.98037 12.8107 9.68865 12.8023 9.52315 12.7827C8.92848 12.7041 8.29734 12.5218 7.83731 12.2974C7.57925 12.1712 7.39411 12.0449 7.25666 11.9075L7.17812 11.8261L7.16971 11.7196C7.15568 11.5344 7.15849 11.2427 7.18093 11.1389C7.19495 11.052 7.22581 10.9678 7.26788 10.8921C7.29032 10.864 7.29032 10.864 7.39131 10.864C7.51473 10.864 7.61851 10.8837 7.78682 10.9369C8.13184 11.0435 8.64517 11.3016 9.2707 11.6775C9.78683 11.986 9.98037 12.1375 10.129 12.3451C10.23 12.4741 10.2973 12.6564 10.2721 12.7125Z" fill="black"/>
<path d="M14.2438 16.6173C14.2438 16.6258 14.2102 16.7604 14.1681 16.9203C14.126 17.0802 14.0924 17.2092 14.0924 17.2148C14.0615 17.2176 14.0335 17.2204 14.0026 17.2176H13.9128L13.7894 17.5093C13.7221 17.6692 13.6604 17.8179 13.652 17.8403L13.6351 17.8796L13.5762 17.7842L13.5173 17.6889V16.9119L13.4949 16.9175C13.4472 16.9287 13.1078 16.9736 12.9591 16.9876C12.3448 17.0493 11.7277 17.0353 11.1162 16.9483C11.018 16.9343 10.9339 16.9231 10.9311 16.9259C10.9282 16.9287 10.9311 17.1082 10.9367 17.3298L10.9451 17.7281L10.8974 17.8011C10.8721 17.8403 10.8469 17.874 10.8469 17.8768C10.8385 17.8852 10.8104 17.8403 10.7459 17.7113C10.6758 17.5767 10.6253 17.4336 10.5888 17.2849L10.5692 17.2036L10.4822 17.2092L10.3953 17.2176L10.3728 17.1138C10.3616 17.0577 10.3476 16.9708 10.342 16.9231L10.3336 16.8333L10.2606 16.7688C10.2186 16.7323 10.1765 16.6959 10.1681 16.6903C10.154 16.6791 10.1484 16.6594 10.1484 16.6426V16.6089L10.4991 16.6117L10.8497 16.6145L10.8609 16.651L10.8721 16.6875L10.9928 16.6931C11.0601 16.6959 11.2733 16.7015 11.464 16.7071L11.8146 16.7155L11.9044 16.5753L11.997 16.435H12.1148L12.112 16.1433L12.1092 15.8516L11.9549 15.7842C11.4584 15.5654 11.1667 15.3158 11.0573 15.0129C11.0348 14.9511 11.0348 14.9287 11.0292 14.6482C11.0264 14.3705 11.0264 14.3453 11.0461 14.2835C11.0853 14.1433 11.1947 14.0339 11.335 13.9974C11.3827 13.9834 11.5089 13.9834 12.1709 13.9834L12.9507 13.9862L13.0377 14.0283C13.1414 14.0788 13.1891 14.1152 13.248 14.1938C13.3154 14.2835 13.335 14.3537 13.335 14.5248C13.335 14.7688 13.3182 14.9792 13.2929 15.0633C13.2565 15.1783 13.2004 15.2877 13.1302 15.3859C12.99 15.5654 12.7347 15.745 12.5019 15.8263L12.4346 15.8516L12.4374 16.1461L12.4402 16.4406L12.5019 16.4462L12.5636 16.4518L12.6478 16.5781L12.7291 16.7043H13.105C13.3126 16.7043 13.4949 16.7071 13.5117 16.7099C13.5398 16.7155 13.5454 16.7127 13.5734 16.665L13.6071 16.6145H13.9297C14.1709 16.6033 14.2438 16.6089 14.2438 16.6173Z" fill="black"/>
<path d="M12.763 17.4223C12.7097 17.4531 12.6733 17.4672 12.6648 17.4615C12.6564 17.4587 12.6172 17.4251 12.5751 17.3942L12.4993 17.3325L12.4208 17.4167C12.2497 17.6018 12.2441 17.6102 12.1936 17.613C12.1151 17.6214 12.0982 17.6074 12.0029 17.4644C11.9524 17.3914 11.9131 17.3297 11.9131 17.3297C11.9131 17.3297 11.8766 17.3241 11.8346 17.3213L11.756 17.3129L11.7195 17.3886L11.6831 17.4644L11.6186 17.4447C11.5681 17.4279 11.5176 17.4082 11.4699 17.3858L11.3857 17.3437V17.1838L12.1319 17.1866L12.878 17.1894L12.8808 17.2652C12.8836 17.355 12.8864 17.3521 12.763 17.4223Z" fill="black"/>
<path d="M19.7752 14.0001C19.7723 13.9889 19.7723 13.9693 19.7695 13.9384C19.0963 13.8655 17.1749 13.8206 15.3909 15.2932C15.3909 15.2932 14.8158 12.6565 12.123 12.6565C9.43013 12.6565 8.43153 15.2932 8.43153 15.2932C6.92241 13.6691 4.90278 13.7869 4.17347 13.8935C4.17347 13.9103 4.17066 13.93 4.17066 13.9468C4.14822 14.3535 4.15944 14.5471 4.22676 14.8024C4.43714 15.6018 5.08511 16.4826 6.10054 17.3465C7.76393 18.7603 10.0192 19.7813 11.7275 19.8991C13.5087 20.0197 16.137 18.9791 17.8874 17.4587C18.1622 17.2147 18.4203 16.9566 18.6615 16.6817C18.8355 16.4798 19.0935 16.1319 19.0739 16.1319C19.0683 16.1319 19.0739 16.1263 19.0851 16.1207C19.0935 16.1151 19.1019 16.1067 19.0963 16.1011C19.0935 16.0983 19.0991 16.0899 19.1076 16.0871C19.116 16.0843 19.1216 16.0787 19.1188 16.073C19.116 16.0674 19.1188 16.0618 19.13 16.059C19.1384 16.0562 19.1412 16.0478 19.1384 16.0422C19.1356 16.0366 19.1384 16.031 19.144 16.031C19.1496 16.031 19.1552 16.0226 19.1552 16.0169C19.1552 16.0113 19.1608 16.0029 19.1665 16.0029C19.1721 16.0029 19.1777 15.9973 19.1777 15.9917C19.1861 15.9693 19.2001 15.9468 19.2141 15.9272C19.2562 15.8627 19.4245 15.5625 19.447 15.512C19.6068 15.1502 19.7078 14.8276 19.7555 14.505C19.7723 14.3507 19.7864 14.0674 19.7752 14.0001ZM12.7625 17.4223C12.7092 17.4531 12.6728 17.4672 12.6644 17.4615C12.6559 17.4587 12.6167 17.4251 12.5746 17.3942L12.4989 17.3325L12.4203 17.4167C12.2492 17.6018 12.2436 17.6102 12.1931 17.613C12.1146 17.6214 12.0977 17.6074 12.0024 17.4643C11.9519 17.3914 11.9126 17.3297 11.9126 17.3297C11.9126 17.3297 11.8761 17.3241 11.8341 17.3213L11.7555 17.3129L11.719 17.3886L11.6826 17.4643L11.6181 17.4447C11.5676 17.4279 11.5171 17.4082 11.4694 17.3858L11.3852 17.3437V17.1838L12.1314 17.1866L12.8775 17.1895L12.8803 17.2652C12.8831 17.3549 12.886 17.3521 12.7625 17.4223ZM14.1651 16.9174C14.123 17.0772 14.0893 17.2063 14.0893 17.2119C14.0585 17.2147 14.0304 17.2175 13.9996 17.2147H13.9098L13.7892 17.5092C13.7219 17.6691 13.6601 17.8178 13.6517 17.8402L13.6349 17.8795L13.576 17.7841L13.5171 17.6888V16.9118L13.4946 16.9174C13.447 16.9286 13.1075 16.9735 12.9589 16.9875C12.3446 17.0492 11.7275 17.0352 11.116 16.9482C11.0178 16.9342 10.9336 16.923 10.9308 16.9258C10.928 16.9286 10.9308 17.1081 10.9364 17.3297L10.9449 17.728L10.8972 17.801C10.8719 17.8402 10.8467 17.8739 10.8467 17.8767C10.8383 17.8851 10.8102 17.8402 10.7457 17.7112C10.6756 17.5765 10.6251 17.4335 10.5886 17.2848L10.569 17.2035L10.482 17.2091L10.3951 17.2175L10.3726 17.1137C10.3614 17.0576 10.3474 16.9707 10.3418 16.923L10.3334 16.8332L10.2604 16.7687C10.2183 16.7322 10.1763 16.6958 10.1679 16.6902C10.1538 16.6789 10.1482 16.6593 10.1482 16.6425V16.6088L10.4989 16.6116L10.8495 16.6144L10.8607 16.6509L10.8719 16.6873L10.9925 16.693C11.0599 16.6958 11.273 16.7014 11.4638 16.707L11.8144 16.7154L11.9042 16.5751L11.9967 16.4349H12.1146L12.1118 16.1432L12.109 15.8514L11.9547 15.7841C11.4582 15.5653 11.1665 15.3157 11.0571 15.0127C11.0346 14.951 11.0346 14.9286 11.029 14.6481C11.0262 14.3704 11.0262 14.3451 11.0458 14.2834C11.0851 14.1432 11.1945 14.0338 11.3348 13.9973C11.3824 13.9833 11.5087 13.9833 12.1707 13.9833L12.9505 13.9861L13.0374 14.0282C13.1412 14.0787 13.1889 14.1151 13.2478 14.1937C13.3151 14.2834 13.3348 14.3535 13.3348 14.5247C13.3348 14.7687 13.3179 14.9791 13.2927 15.0632C13.2562 15.1782 13.2001 15.2876 13.13 15.3858C12.9897 15.5653 12.7345 15.7449 12.5017 15.8262L12.4343 15.8514L12.4371 16.146L12.4399 16.4405L12.5017 16.4461L12.5634 16.4517L12.6475 16.578L12.7289 16.7042H13.1047C13.3123 16.7042 13.4946 16.707 13.5115 16.7098C13.5395 16.7154 13.5451 16.7126 13.5732 16.6649L13.6068 16.6144H13.9294C14.1791 16.6144 14.252 16.6172 14.252 16.6256C14.2436 16.6228 14.2071 16.7603 14.1651 16.9174Z" fill="white"/>
<path d="M19.7528 13.7139C19.7472 13.5877 19.736 13.411 19.7276 13.324C19.607 12.0505 19.2816 11.0098 18.6645 9.90747C18.6392 9.86539 18.6168 9.82331 18.6027 9.78965C18.5971 9.78124 18.5943 9.77282 18.5915 9.76721C18.6785 9.50634 19.0347 8.41518 19.318 7.16693C19.7023 5.47269 19.9464 3.49232 19.2002 2.89765C19.2002 2.89765 17.9099 2.80228 16.182 4.49653C15.7136 4.96497 15.2844 5.47269 14.9029 6.01406L14.7823 5.97479C14.0866 5.74758 13.3657 5.60733 12.6392 5.55964C12.4204 5.54281 11.6042 5.54281 11.3377 5.55964C10.5326 5.61294 9.91551 5.73356 9.21425 5.97759C9.1862 5.98881 9.16095 5.99723 9.13571 6.00564C8.7402 5.46708 8.29981 4.96217 7.81453 4.49934C6.0165 2.79667 4.67849 2.89485 4.67849 2.89485C3.88746 3.50915 4.15675 5.57928 4.56629 7.32963C4.83557 8.48811 5.16657 9.50634 5.28999 9.8738C5.28157 9.89344 5.27035 9.91588 5.25913 9.93552C4.60556 11.2595 4.25212 12.5358 4.16797 13.8934C4.90009 13.7868 6.91692 13.6662 8.42884 15.2932C8.42884 15.2932 9.42743 12.6564 12.1203 12.6564C14.8131 12.6564 15.3882 15.2932 15.3882 15.2932C17.1722 13.8205 19.0936 13.8682 19.7668 13.9383C19.764 13.8822 19.7584 13.7981 19.7528 13.7139ZM5.82014 8.8163C5.82014 8.8163 4.77105 6.19358 5.04034 4.69569C5.08522 4.44323 5.16937 4.22164 5.30121 4.05333C5.30121 4.05333 6.49055 4.17114 8.4092 6.30298C8.4092 6.30298 8.04455 6.4797 7.55647 6.85557C7.55647 6.85557 7.55366 6.85838 7.55086 6.85838C7.0207 7.26511 6.34188 7.91027 5.82014 8.8163ZM10.2718 12.7125C10.2549 12.7462 10.1708 12.7826 10.0754 12.7967C9.98003 12.8107 9.68831 12.8023 9.52281 12.7826C8.92814 12.7041 8.297 12.5218 7.83697 12.2974C7.57891 12.1711 7.39377 12.0449 7.25633 11.9075L7.17779 11.8261L7.16937 11.7195C7.15535 11.5344 7.15815 11.2427 7.18059 11.1389C7.19462 11.0519 7.22547 10.9678 7.26755 10.892C7.28999 10.864 7.28999 10.864 7.39097 10.864C7.51439 10.864 7.61818 10.8836 7.78648 10.9369C8.1315 11.0435 8.64483 11.3016 9.27035 11.6774C9.78648 11.986 9.98003 12.1375 10.1287 12.3451C10.2297 12.4741 10.297 12.6564 10.2718 12.7125ZM16.8804 11.784C16.872 11.8289 16.7402 11.9636 16.6084 12.0617C16.2213 12.3451 15.5284 12.6087 14.8243 12.735C14.4232 12.8079 14.0221 12.8191 13.9015 12.7602C13.8229 12.7209 13.8117 12.6901 13.8398 12.5891C13.8987 12.3787 14.0894 12.1487 14.3868 11.9327C14.5382 11.8233 15.1525 11.4502 15.4387 11.2932C15.9099 11.0351 16.2914 10.8808 16.5495 10.8444C16.6308 10.8331 16.729 10.8303 16.7598 10.8444C16.8103 10.864 16.8664 11.0127 16.8889 11.1922C16.9001 11.2875 16.8945 11.7083 16.8804 11.784ZM16.4148 6.85557L16.4092 6.85277C15.938 6.47689 15.5845 6.30017 15.5845 6.30017C17.4387 4.16834 18.5859 4.05053 18.5859 4.05053C18.7121 4.22164 18.7935 4.44043 18.8384 4.69288C19.0992 6.19078 18.0866 8.8163 18.0866 8.8163C17.6631 8.06174 17.0936 7.39414 16.4148 6.85557Z" fill="#FFA409"/>
<path d="M18.8416 4.69289C18.6228 4.66484 17.5878 4.65923 16.4152 6.85559L16.4096 6.85278C15.9384 6.4769 15.585 6.30019 15.585 6.30019C17.4391 4.16835 18.5863 4.05054 18.5863 4.05054C18.7154 4.22165 18.7967 4.44044 18.8416 4.69289Z" fill="#FF9300"/>
<path d="M18.0896 8.81625C17.6633 8.05889 17.0967 7.39409 16.415 6.85552C17.5875 4.65917 18.6198 4.66478 18.8414 4.69283C19.1023 6.19353 18.0896 8.81625 18.0896 8.81625Z" fill="#FF8300"/>
<path d="M18.8834 4.70119C18.8695 4.69842 18.8557 4.69564 18.8418 4.69287L18.8834 4.70119Z" fill="#FF8300"/>
<path d="M8.40878 6.30019C8.40878 6.30019 8.04412 6.4769 7.55604 6.85278C7.55604 6.85278 7.55324 6.85559 7.55043 6.85559C6.33585 4.65643 5.26712 4.66484 5.03711 4.69289C5.08199 4.44044 5.16614 4.21884 5.29798 4.05054C5.30079 4.05054 6.49012 4.16835 8.40878 6.30019Z" fill="#FF9300"/>
<path d="M7.55363 6.85552C7.02066 7.26506 6.34184 7.90741 5.8201 8.81625C5.8201 8.81625 4.77101 6.19353 5.0403 4.69283C5.26751 4.66478 6.33904 4.65917 7.55363 6.85552Z" fill="#FF8300"/>
<path d="M5.03949 4.69287C5.02563 4.69564 5.00898 4.69842 4.99512 4.70119L5.03949 4.69287Z" fill="#FF8300"/>
<path d="M15.2502 10.2721C15.2502 10.2721 14.3526 10.3282 14.4648 9.6269C14.577 8.92564 15.2782 8.84149 15.4746 8.86954C15.671 8.89759 16.4564 9.17809 16.3161 9.76715C16.1759 10.3562 15.9795 10.244 15.8673 10.2721C15.7551 10.3001 15.2502 10.2721 15.2502 10.2721Z" fill="white"/>
<path d="M8.63106 10.2721C8.63106 10.2721 7.73344 10.3282 7.84564 9.6269C7.95785 8.92564 8.65911 8.84149 8.85546 8.86954C9.05181 8.89759 9.83722 9.17809 9.69697 9.76715C9.55672 10.3562 9.36037 10.244 9.24816 10.2721C9.13596 10.3001 8.63106 10.2721 8.63106 10.2721Z" fill="white"/>
</g>
<defs>
<clipPath id="clip0_548_25097">
<rect width="24" height="24" fill="white"/>
</clipPath>
</defs>
</svg>
