<svg width="64" height="64" fill="none" xmlns="http://www.w3.org/2000/svg"><rect width="64" height="64" rx="4" fill="#000"/><path d="M19.837 39.582c.222-.222.527-.352.85-.352h29.327a.6.6 0 01.425 1.026l-5.793 5.793a1.202 1.202 0 01-.85.351H14.469a.6.6 0 01-.425-1.025l5.793-5.793z" fill="url(#paint0_linear_257_1609)"/><path d="M19.837 17.951c.231-.221.536-.35.85-.35h29.327a.6.6 0 01.425 1.025l-5.793 5.793a1.202 1.202 0 01-.85.351H14.469a.6.6 0 01-.425-1.025l5.793-5.794z" fill="url(#paint1_linear_257_1609)"/><path d="M44.646 28.697a1.202 1.202 0 00-.85-.351H14.469a.6.6 0 00-.425 1.026l5.793 5.793c.222.222.527.35.85.35h29.327a.6.6 0 00.425-1.025l-5.793-5.793z" fill="url(#paint2_linear_257_1609)"/><defs><linearGradient id="paint0_linear_257_1609" x1="-52.417" y1="12.16" x2="-53.197" y2="51.423" gradientUnits="userSpaceOnUse"><stop stop-color="#00FFA3"/><stop offset="1" stop-color="#DC1FFF"/></linearGradient><linearGradient id="paint1_linear_257_1609" x1="-61.291" y1="7.526" x2="-62.072" y2="46.79" gradientUnits="userSpaceOnUse"><stop stop-color="#00FFA3"/><stop offset="1" stop-color="#DC1FFF"/></linearGradient><linearGradient id="paint2_linear_257_1609" x1="-56.882" y1="9.828" x2="-57.663" y2="49.092" gradientUnits="userSpaceOnUse"><stop stop-color="#00FFA3"/><stop offset="1" stop-color="#DC1FFF"/></linearGradient></defs></svg>