<svg width="64" height="64" fill="none" xmlns="http://www.w3.org/2000/svg"><rect width="64" height="64" rx="4" fill="#000"/><path d="M48.325 17.793l-5.429 2.766L16.68 33.912a15.732 15.732 0 01-.133-2.039A15.618 15.618 0 0139.78 18.258l3.107-1.583.464-.237a19.077 19.077 0 00-30.227 16.893 3.47 3.47 0 01-1.884 3.353l-1.64.836v3.897l4.824-2.459 1.563-.797 1.54-.784 27.637-14.083 3.106-1.581 6.42-3.272v-3.895l-6.365 3.247zm6.365 4.547L19.095 40.464l-3.105 1.585-6.39 3.256v3.893l6.347-3.233 5.429-2.766 26.243-13.373a15.618 15.618 0 01-23.123 15.666l-.19.1-3.369 1.718a19.077 19.077 0 0030.229-16.896 3.472 3.472 0 011.883-3.354l1.64-.835V22.34z" fill="#fff"/></svg>