<svg width="64" height="64" fill="none" xmlns="http://www.w3.org/2000/svg"><g clip-path="url(#clip0_234_2733)"><rect width="64" height="64" rx="4" fill="#172852"/><path d="M25.776 14.301c3.747-1.401 7.965-1.405 11.782-.252 4.97 1.542 9.165 5.292 11.357 10 .605 1.34 1.184 2.739 1.242 4.23-2.794-1.62-5.856-2.669-8.925-3.626-4.909-1.77-10.048-2.998-14.694-5.43-1.082-.646-2.461-1.309-2.756-2.656-.118-1.165 1.114-1.815 1.994-2.266zM14.464 25.63c1.085-2.945 2.864-5.678 5.28-7.703.614 5.053 2.765 9.936 6.317 13.61 4.259 4.425 10.326 7.142 16.499 7.04 2.451.076 4.848-.49 7.238-.948-2.352 8.5-11.667 14.141-20.297 12.784-5.21-.665-10.02-3.75-12.922-8.105-3.273-4.813-4.099-11.204-2.115-16.679z" fill="#FFD83D"/><path d="M41.232 24.653c3.069.957 6.131 2.007 8.925 3.626l.189.1c.259 1.948.448 3.935.102 5.887-1.405-.595-2.544-1.642-3.734-2.566-2.292-1.907-4.63-4.09-5.482-7.047z" fill="#FF6F03"/></g><defs><clipPath id="clip0_234_2733"><path fill="#fff" d="M0 0h64v64H0z"/></clipPath></defs></svg>