<svg width="64" height="64" fill="none" xmlns="http://www.w3.org/2000/svg"><g clip-path="url(#clip0_233_552)"><rect width="64" height="64" rx="4" fill="#1BA27A"/><path d="M47.046 16.205h-30.15v7.278H28.33v10.699h7.28V23.483h11.435v-7.278z" fill="#fff"/><path d="M32.04 35.322c-9.46 0-17.13-1.498-17.13-3.345 0-1.846 7.67-3.344 17.13-3.344 9.46 0 17.129 1.498 17.129 3.344 0 1.847-7.67 3.345-17.13 3.345zm19.233-2.787c0-2.382-8.61-4.312-19.233-4.312-10.622 0-19.234 1.93-19.234 4.312 0 2.097 6.678 3.845 15.526 4.232v15.358h7.278V36.773c8.916-.375 15.663-2.13 15.663-4.238z" fill="#fff"/></g><defs><clipPath id="clip0_233_552"><path fill="#fff" d="M0 0h64v64H0z"/></clipPath></defs></svg>