<svg width="64" height="64" fill="none" xmlns="http://www.w3.org/2000/svg"><rect width="64" height="64" rx="4" fill="#2C7DF7"/><path d="M36.57 53.334c-3.044 0-5.266-.734-6.666-2.2a6.792 6.792 0 01-2.093-4.74 3.145 3.145 0 01.366-1.568 2.712 2.712 0 011-1 3.488 3.488 0 013.114 0c.415.238.758.584.994 1 .263.48.394 1.02.38 1.567a2.992 2.992 0 01-.534 1.833 2.485 2.485 0 01-1.267.928 3.46 3.46 0 002 1.246c.886.258 1.804.39 2.727.394a6.078 6.078 0 003.433-1.027 6 6 0 002.24-3.033c.509-1.459.757-2.995.733-4.54.041-1.61-.23-3.213-.8-4.72a5.827 5.827 0 00-2.313-2.934 6.152 6.152 0 00-3.333-.953 6.342 6.342 0 00-2.887.98l-2.14 1.074v-1.074l9.62-12.905H27.81v13.392a4.792 4.792 0 00.733 2.74 2.527 2.527 0 002.24 1.073 3.746 3.746 0 002.213-.78 7.995 7.995 0 001.853-1.907.666.666 0 01.242-.32.493.493 0 01.321-.12c.232.022.45.115.627.267.223.25.344.573.34.907a5.305 5.305 0 01-.12.666 6.456 6.456 0 01-2.287 2.84c-.947.64-2.065.98-3.208.974-2.887 0-4.887-.569-6-1.707a6.392 6.392 0 01-1.653-4.667V21.662H16.33v-2.488h6.813V13.5l-1.56-1.56v-1.273h4.526l1.7.88v7.627l17.614-.054 1.753 1.76-10.8 10.853a7.26 7.26 0 012.04-.494 8.84 8.84 0 013.947 1.127 8.107 8.107 0 013.4 3.035 10.707 10.707 0 011.534 3.66c.23 1.029.352 2.079.367 3.133a13.108 13.108 0 01-1.334 5.807 8.515 8.515 0 01-4 4 12.943 12.943 0 01-5.76 1.333z" fill="#fff"/></svg>