<svg width="64" height="64" fill="none" xmlns="http://www.w3.org/2000/svg"><rect width="64" height="64" rx="4" fill="#6747ED"/><path fill-rule="evenodd" clip-rule="evenodd" d="M31.439 36.24a8.492 8.492 0 01-8.515-8.523 8.492 8.492 0 018.515-8.522 8.492 8.492 0 018.514 8.522 8.492 8.492 0 01-8.514 8.523zm0-21.306c7.05 0 12.77 5.726 12.77 12.783 0 7.058-5.72 12.784-12.77 12.784-7.052 0-12.772-5.726-12.772-12.784 0-7.057 5.72-12.783 12.771-12.783zm12.173 26.233c.865.865.865 2.197 0 2.996l-8.514 8.522c-.865.865-2.195.865-2.994 0-.864-.866-.864-2.197 0-2.996l8.515-8.522a2.05 2.05 0 012.993 0zm4.921-24.102c0 1.198-.931 2.13-2.128 2.13a2.102 2.102 0 01-2.129-2.13c0-1.199.931-2.13 2.129-2.13 1.13 0 2.128.931 2.128 2.13z" fill="#fff"/></svg>