<svg width="64" height="64" fill="none" xmlns="http://www.w3.org/2000/svg"><rect width="64" height="64" rx="4" fill="#FC070C"/><path fill-rule="evenodd" clip-rule="evenodd" d="M49.726 20.283c-1.482-1.439-3.048-2.96-4.43-4.186l-.14-.098a2.67 2.67 0 00-.777-.434l-1.067-.199c-7.36-1.373-31.216-5.825-31.707-5.765a.98.98 0 00-.406.154l-.133.105a1.562 1.562 0 00-.364.588l-.035.091v.574c1.62 4.51 5.827 14.582 9.712 23.882 3.284 7.862 6.338 15.173 7.403 18.104v.001c.14.435.406 1.26.903 1.301h.112c.266 0 1.4-1.498 1.4-1.498S50.469 28.319 52.52 25.701c.265-.322.5-.67.7-1.036a1.687 1.687 0 00-.553-1.568c-.874-.806-1.886-1.79-2.941-2.814zM35.398 25.96l8.652-7.175 5.075 4.676-13.727 2.5zM17.142 13.283l14.896 12.208 9.205-7.763-24.101-4.445zm16.24 15.407l15.246-2.457-17.43 21 2.184-18.543zm-2.59-.889l-15.673-13.3 13.405 32.746 2.268-19.446z" fill="#fff"/></svg>