<svg width="64" height="64" fill="none" xmlns="http://www.w3.org/2000/svg"><rect width="64" height="64" rx="4" fill="#EDF0F4"/><path d="M38.003 37.334h-1.806a.617.617 0 01-.618-.618v-4.749l-3.16 1.973a.816.816 0 01-.87 0l-3.142-1.973v4.749a.617.617 0 01-.62.618H26a.617.617 0 01-.619-.618v-9.162a.82.82 0 01.82-.82c.167 0 .317.05.451.15l4.982 3.428c.2.15.485.15.686 0l4.982-3.427a.827.827 0 011.137.217c.1.134.134.301.15.452v9.162a.59.59 0 01-.585.618zm-15.315-.017H11.486a.82.82 0 01-.82-.819v-9.212a.632.632 0 01.636-.619h1.806c.334 0 .618.268.618.619v7.005h6.788v-7.005c0-.335.268-.619.619-.619h1.755c.335 0 .619.268.619.619v9.212a.82.82 0 01-.82.82zm18.623-10.65h11.202a.82.82 0 01.82.82v9.212a.614.614 0 01-.603.618h-1.805a.617.617 0 01-.619-.618v-6.604a.407.407 0 00-.401-.402h-5.969a.407.407 0 00-.401.402v6.604a.617.617 0 01-.619.618h-1.805a.617.617 0 01-.619-.618v-9.212a.82.82 0 01.82-.82z" fill="#FF4A4A"/><path d="M46.01 31.633h1.788c.334 0 .619.267.619.618v1.823a.617.617 0 01-.619.618H46.01a.617.617 0 01-.618-.618v-1.84c0-.334.284-.601.618-.601z" fill="#FF4A4A"/></svg>