<svg width="24" height="24" viewBox="0 0 24 24" fill="none" xmlns="http://www.w3.org/2000/svg">
<rect x="2" y="2" width="20" height="20" rx="2" fill="url(#paint0_linear_573_423496)" stroke="#FFD9EC" stroke-width="4"/>
<path d="M10.1062 7.41147C9.94375 7.38826 9.93601 7.38052 10.0134 7.37279C10.1604 7.34958 10.5007 7.38052 10.7406 7.43467C11.2975 7.56619 11.8004 7.90657 12.3342 8.50223L12.4734 8.66469L12.6745 8.63375C13.5332 8.4945 14.4151 8.6028 15.15 8.94318C15.3512 9.03602 15.6683 9.22168 15.707 9.26809C15.7225 9.28357 15.7457 9.38413 15.7612 9.4847C15.8153 9.84829 15.7921 10.119 15.6761 10.3279C15.6142 10.444 15.6142 10.4749 15.6529 10.5755C15.6838 10.6528 15.7767 10.707 15.8617 10.707C16.0474 10.707 16.2408 10.413 16.3336 10.003L16.3723 9.84055L16.4419 9.91791C16.8365 10.3589 17.1459 10.97 17.1923 11.4032L17.2078 11.5193L17.1382 11.4187C17.0221 11.2408 16.9138 11.1247 16.7669 11.0242C16.5038 10.8462 16.2253 10.7921 15.4904 10.7534C14.8251 10.7147 14.4461 10.6606 14.0747 10.5368C13.4404 10.3279 13.1155 10.0572 12.3651 9.05922C12.0325 8.61827 11.8236 8.37846 11.6147 8.17732C11.1583 7.73638 10.7019 7.5043 10.1062 7.41147Z" fill="#FF007A"/>
<path d="M15.869 8.39397C15.8845 8.1 15.9232 7.90661 16.0083 7.72868C16.0392 7.65906 16.0702 7.59717 16.0779 7.59717C16.0856 7.59717 16.0702 7.65132 16.0469 7.71321C15.9851 7.8834 15.9773 8.12321 16.016 8.39397C16.0702 8.74209 16.0934 8.7885 16.4647 9.16756C16.6349 9.34549 16.836 9.56983 16.9134 9.66267L17.0449 9.83286L16.9134 9.70908C16.7509 9.55436 16.3796 9.2604 16.2945 9.22172C16.2403 9.19077 16.2326 9.19077 16.1939 9.22945C16.163 9.2604 16.1553 9.30681 16.1553 9.53115C16.1475 9.87927 16.1011 10.0959 15.9851 10.3202C15.9232 10.4363 15.9154 10.4131 15.9696 10.2815C16.0083 10.181 16.016 10.1346 16.016 9.80191C16.016 9.12889 15.9386 8.96643 15.4668 8.69567C15.3507 8.62605 15.1496 8.52548 15.0335 8.47133C14.9098 8.41718 14.8169 8.37076 14.8247 8.37076C14.8401 8.35529 15.2966 8.4868 15.4745 8.56416C15.7452 8.67246 15.7917 8.6802 15.8226 8.67246C15.8458 8.64926 15.8613 8.58737 15.869 8.39397Z" fill="#FF007A"/>
<path d="M10.4235 9.54663C10.0986 9.09795 9.88971 8.40171 9.93613 7.8834L9.9516 7.72095L10.029 7.73642C10.1682 7.75963 10.408 7.85246 10.5241 7.92208C10.8335 8.10774 10.9727 8.36303 11.1043 8.99738C11.1429 9.18304 11.1971 9.39965 11.2203 9.46927C11.259 9.58531 11.406 9.85607 11.5297 10.0263C11.6148 10.15 11.5607 10.2119 11.3673 10.1964C11.0733 10.1655 10.6788 9.89475 10.4235 9.54663Z" fill="#FF007A"/>
<path d="M15.4746 12.9118C13.9429 12.293 13.4014 11.7592 13.4014 10.8541C13.4014 10.7226 13.4091 10.6143 13.4091 10.6143C13.4168 10.6143 13.471 10.6607 13.5406 10.7148C13.8501 10.9624 14.1982 11.0707 15.1652 11.2099C15.7299 11.295 16.0548 11.3569 16.3488 11.4575C17.2848 11.7669 17.865 12.4013 18.0043 13.26C18.0429 13.5075 18.0197 13.9794 17.9578 14.2269C17.9037 14.4203 17.749 14.7762 17.7103 14.7839C17.7026 14.7839 17.6871 14.7453 17.6871 14.6834C17.6716 14.3585 17.5092 14.049 17.2384 13.8092C16.9135 13.5307 16.4957 13.3218 15.4746 12.9118Z" fill="#FF007A"/>
<path d="M14.392 13.167C14.3765 13.051 14.3379 12.904 14.3146 12.8421L14.276 12.7261L14.3456 12.8112C14.4462 12.9272 14.5235 13.0665 14.5931 13.2599C14.6473 13.4068 14.6473 13.4533 14.6473 13.6931C14.6473 13.9251 14.6396 13.9793 14.5931 14.1108C14.5158 14.3197 14.4229 14.4667 14.2682 14.6291C13.9897 14.9153 13.6261 15.0701 13.1078 15.1397C13.015 15.1474 12.752 15.1706 12.5199 15.1861C11.9397 15.217 11.5529 15.2789 11.2048 15.4027C11.1584 15.4182 11.112 15.4337 11.1042 15.4259C11.0888 15.4104 11.3286 15.2712 11.522 15.1784C11.7927 15.0469 12.0712 14.9772 12.6824 14.8689C12.9841 14.8225 13.2935 14.7606 13.3709 14.7297C14.1367 14.4899 14.5158 13.8942 14.392 13.167Z" fill="#FF007A"/>
<path d="M15.0955 14.4126C14.8944 13.9717 14.848 13.5539 14.9563 13.1594C14.9717 13.1207 14.9872 13.082 15.0027 13.082C15.0182 13.082 15.0646 13.1052 15.111 13.1362C15.2038 13.1981 15.3972 13.3064 15.8923 13.5771C16.5189 13.9175 16.8748 14.1805 17.1223 14.4822C17.3389 14.7453 17.4705 15.047 17.5323 15.4183C17.571 15.6272 17.5478 16.13 17.4937 16.3389C17.3235 16.9964 16.9367 17.5225 16.372 17.8242C16.2869 17.8706 16.2172 17.9015 16.2095 17.9015C16.2018 17.9015 16.2327 17.8242 16.2791 17.7313C16.4648 17.3368 16.488 16.9577 16.3487 16.5323C16.2636 16.2692 16.0857 15.9521 15.7299 15.4183C15.3044 14.7994 15.2038 14.637 15.0955 14.4126Z" fill="#FF007A"/>
<path d="M9.33238 16.7798C9.90484 16.3002 10.6088 15.9598 11.2586 15.8515C11.5371 15.8051 12.0013 15.8205 12.2566 15.8902C12.6666 15.9985 13.0379 16.2305 13.2313 16.5168C13.417 16.7953 13.5021 17.0351 13.5871 17.5689C13.6181 17.7777 13.6568 17.9943 13.6645 18.0408C13.7264 18.3192 13.8502 18.5359 14.0049 18.6519C14.2447 18.8298 14.6624 18.8376 15.0724 18.6828C15.1421 18.6596 15.204 18.6364 15.204 18.6442C15.2194 18.6596 15.0106 18.7989 14.8713 18.8685C14.6779 18.9691 14.5232 19 14.3143 19C13.943 19 13.6258 18.8066 13.3705 18.4198C13.3164 18.3425 13.2081 18.1181 13.1153 17.9092C12.8445 17.2826 12.7052 17.097 12.3881 16.8881C12.1096 16.7102 11.7537 16.6715 11.483 16.803C11.1271 16.9732 11.0343 17.4296 11.2818 17.7081C11.3824 17.8241 11.5681 17.917 11.7228 17.9402C12.009 17.9789 12.2566 17.7545 12.2566 17.4683C12.2566 17.2826 12.1869 17.1743 12.0013 17.0892C11.7537 16.9809 11.483 17.1047 11.4907 17.3445C11.4907 17.4451 11.5371 17.507 11.6377 17.5534C11.6996 17.5843 11.6996 17.5843 11.6532 17.5766C11.4288 17.5302 11.3747 17.2517 11.5526 17.0738C11.7692 16.8572 12.2256 16.95 12.3803 17.2517C12.4422 17.3755 12.45 17.623 12.3958 17.7777C12.2643 18.1181 11.893 18.296 11.5139 18.1955C11.2586 18.1259 11.1503 18.0562 10.8409 17.7391C10.2994 17.1821 10.0905 17.0738 9.3169 16.9577L9.16992 16.9345L9.33238 16.7798Z" fill="#FF007A"/>
<path fill-rule="evenodd" clip-rule="evenodd" d="M5.26337 4.33265C7.06584 6.52192 9.84305 9.92574 9.98229 10.1114C10.0983 10.2661 10.0519 10.4131 9.85852 10.5214C9.75022 10.5833 9.52587 10.6452 9.41757 10.6452C9.29379 10.6452 9.14681 10.5833 9.04624 10.4827C8.97662 10.4131 8.67492 9.97215 7.99416 8.91233C7.47585 8.10005 7.0349 7.42702 7.02716 7.41929C6.99622 7.40382 6.99622 7.40382 7.94 9.09025C8.53567 10.1501 8.72907 10.5291 8.72907 10.5756C8.72907 10.6761 8.69813 10.7303 8.57435 10.8695C8.36548 11.1016 8.27265 11.3646 8.20303 11.9139C8.12567 12.525 7.9168 12.9582 7.32113 13.6931C6.97301 14.1264 6.91886 14.2037 6.83376 14.3816C6.72546 14.5982 6.69452 14.722 6.67904 15.0005C6.66357 15.2945 6.69452 15.4801 6.77961 15.7586C6.85697 16.0062 6.94207 16.1686 7.15094 16.4858C7.32886 16.7643 7.43717 16.9732 7.43717 17.0505C7.43717 17.1124 7.45264 17.1124 7.73113 17.0505C8.39642 16.8958 8.94568 16.6328 9.24738 16.3079C9.43304 16.1068 9.47946 15.9985 9.47946 15.72C9.47946 15.542 9.47172 15.5034 9.42531 15.3951C9.34795 15.2249 9.20096 15.0856 8.88379 14.869C8.46605 14.5828 8.28812 14.3507 8.24171 14.0413C8.20303 13.7782 8.24944 13.6003 8.48152 13.1129C8.72133 12.6101 8.78322 12.4012 8.8219 11.8907C8.84511 11.5658 8.88379 11.4342 8.97662 11.3337C9.07719 11.2254 9.16228 11.1867 9.4021 11.1558C9.79663 11.1016 10.0519 11.001 10.2531 10.8076C10.431 10.6452 10.5083 10.4827 10.5161 10.2429L10.5238 10.065L10.4232 9.95668C10.0597 9.53894 5.02355 4 5.00034 4C4.99261 4 5.11638 4.14698 5.26337 4.33265ZM7.6383 15.3332C7.7234 15.1862 7.67698 15.0005 7.53774 14.9077C7.40622 14.8226 7.20509 14.8613 7.20509 14.9773C7.20509 15.0083 7.22056 15.0392 7.26698 15.0547C7.3366 15.0933 7.34434 15.132 7.29019 15.2171C7.23603 15.3022 7.23603 15.3796 7.30566 15.4337C7.41396 15.5188 7.56094 15.4724 7.6383 15.3332Z" fill="#FF007A"/>
<path fill-rule="evenodd" clip-rule="evenodd" d="M10.7714 11.264C10.5857 11.3182 10.4078 11.5193 10.3537 11.7204C10.3227 11.8442 10.3382 12.0686 10.3923 12.1382C10.4774 12.2465 10.5548 12.2774 10.7714 12.2774C11.1969 12.2774 11.5605 12.0918 11.5991 11.8674C11.6378 11.6818 11.4754 11.4265 11.251 11.3104C11.135 11.2486 10.8952 11.2253 10.7714 11.264ZM11.2665 11.6508C11.3284 11.558 11.3052 11.4574 11.1891 11.3878C10.9803 11.2563 10.6631 11.3646 10.6631 11.5657C10.6631 11.6663 10.8256 11.7746 10.9803 11.7746C11.0808 11.7746 11.2201 11.7127 11.2665 11.6508Z" fill="#FF007A"/>
<defs>
<linearGradient id="paint0_linear_573_423496" x1="12" y1="0" x2="12" y2="24" gradientUnits="userSpaceOnUse">
<stop stop-color="#FEF3F9"/>
<stop offset="1" stop-color="#FDE5F2"/>
</linearGradient>
</defs>
</svg>
