<svg width="64" height="64" fill="none" xmlns="http://www.w3.org/2000/svg"><rect x="2" y="2" width="60" height="60" rx="2" fill="url(#paint0_linear_572_423460)" stroke="#FFD9EC" stroke-width="4"/><path d="M26.95 19.765c-.434-.062-.454-.083-.248-.103.392-.062 1.3.02 1.94.165 1.484.35 2.825 1.258 4.249 2.846l.371.434.536-.083c2.29-.371 4.642-.082 6.602.825.536.248 1.382.743 1.485.867.041.041.103.31.145.577.144.97.082 1.692-.227 2.249-.165.31-.165.392-.062.66.082.206.33.35.557.35.495 0 1.01-.783 1.258-1.876l.103-.434.186.207c1.052 1.175 1.877 2.805 2 3.96l.042.31-.185-.268c-.31-.475-.599-.784-.99-1.052-.702-.475-1.445-.62-3.405-.722-1.774-.104-2.785-.248-3.775-.578-1.691-.557-2.558-1.279-4.559-3.94-.887-1.176-1.444-1.816-2-2.352-1.218-1.176-2.435-1.795-4.023-2.042z" fill="#FF007A"/><path d="M42.318 22.385c.041-.784.145-1.3.371-1.775.083-.185.166-.35.186-.35.02 0-.02.144-.082.31-.165.453-.186 1.093-.083 1.815.145.928.206 1.052 1.197 2.063.453.474.99 1.072 1.196 1.32l.35.454-.35-.33c-.433-.413-1.423-1.197-1.65-1.3-.145-.083-.165-.083-.269.02-.082.083-.103.207-.103.805-.02.928-.144 1.506-.453 2.104-.166.31-.186.248-.042-.103.103-.268.124-.392.124-1.279 0-1.795-.206-2.228-1.465-2.95a14.94 14.94 0 00-1.155-.598c-.33-.145-.577-.268-.557-.268.041-.042 1.259.31 1.733.515.722.29.846.31.928.29.062-.063.103-.228.124-.743zm-14.523 3.073c-.866-1.196-1.423-3.053-1.3-4.435l.042-.433.206.041c.372.062 1.011.31 1.32.495.826.495 1.197 1.176 1.548 2.868.103.495.247 1.072.31 1.258.102.31.494 1.032.824 1.485.227.33.083.495-.433.454-.784-.082-1.836-.804-2.517-1.733zm13.471 8.974c-4.084-1.65-5.529-3.074-5.529-5.487 0-.351.021-.64.021-.64.02 0 .165.124.35.268.826.66 1.754.95 4.333 1.32 1.506.227 2.372.393 3.156.66 2.496.826 4.044 2.518 4.415 4.807.103.66.041 1.919-.124 2.579-.144.516-.557 1.465-.66 1.485-.02 0-.062-.103-.062-.268-.041-.866-.474-1.691-1.196-2.331-.867-.743-1.98-1.3-4.704-2.393zm-2.888.681a4.891 4.891 0 00-.206-.867l-.103-.309.185.227c.268.31.475.68.66 1.196.145.392.145.516.145 1.156 0 .619-.02.763-.145 1.114a3.733 3.733 0 01-.866 1.382c-.743.763-1.712 1.176-3.095 1.361-.247.02-.948.083-1.567.124-1.548.083-2.579.248-3.507.578-.124.041-.248.082-.269.062-.04-.042.599-.413 1.114-.66.723-.351 1.465-.537 3.095-.826.804-.123 1.63-.289 1.836-.371 2.042-.64 3.053-2.228 2.723-4.167z" fill="#FF007A"/><path d="M40.255 38.434c-.536-1.176-.66-2.29-.371-3.342.041-.103.083-.206.124-.206.041 0 .165.062.289.144.247.165.763.454 2.083 1.176 1.671.908 2.62 1.61 3.28 2.414.578.701.929 1.506 1.094 2.496.103.557.04 1.898-.104 2.455-.453 1.753-1.485 3.156-2.99 3.96a2.866 2.866 0 01-.434.207c-.02 0 .062-.206.186-.454.495-1.052.557-2.063.185-3.197-.227-.702-.701-1.548-1.65-2.971-1.135-1.65-1.403-2.084-1.692-2.682zm-15.368 6.313c1.526-1.28 3.403-2.187 5.136-2.476.743-.124 1.98-.082 2.661.103 1.094.29 2.084.908 2.6 1.671.495.743.722 1.383.949 2.806.082.557.185 1.135.206 1.258.165.743.495 1.32.908 1.63.64.474 1.753.495 2.846.083.186-.062.351-.124.351-.104.041.042-.516.413-.887.599-.516.268-.928.35-1.485.35-.99 0-1.836-.516-2.517-1.547-.144-.206-.433-.804-.68-1.361-.723-1.671-1.094-2.166-1.94-2.724-.742-.474-1.691-.577-2.413-.226-.95.453-1.197 1.67-.537 2.413.268.31.763.557 1.176.62a1.259 1.259 0 001.423-1.26c0-.494-.185-.783-.68-1.01-.66-.289-1.382.041-1.362.68 0 .269.124.434.392.558.165.082.165.082.041.061-.598-.123-.742-.866-.268-1.34.578-.578 1.795-.33 2.207.474.165.33.186.99.042 1.403-.351.907-1.341 1.382-2.352 1.114-.68-.186-.97-.371-1.795-1.217-1.444-1.486-2-1.774-4.064-2.084l-.392-.062.434-.412z" fill="#FF007A"/><path fill-rule="evenodd" clip-rule="evenodd" d="M14.036 11.554c4.806 5.838 12.212 14.915 12.583 15.41.31.413.186.805-.33 1.094-.289.165-.887.33-1.176.33-.33 0-.722-.165-.99-.434-.185-.185-.99-1.361-2.805-4.187a268.498 268.498 0 00-2.579-3.982c-.082-.04-.082-.04 2.434 4.456 1.589 2.826 2.104 3.837 2.104 3.961 0 .268-.082.413-.412.784-.557.619-.805 1.32-.99 2.785-.207 1.63-.764 2.785-2.352 4.745-.928 1.155-1.073 1.361-1.3 1.836-.288.577-.371.907-.412 1.65-.042.784.041 1.279.268 2.022.206.66.433 1.093.99 1.939.475.742.763 1.3.763 1.506 0 .165.042.165.784 0 1.774-.413 3.24-1.114 4.044-1.98.495-.537.619-.826.619-1.569 0-.474-.021-.577-.145-.866-.206-.454-.598-.825-1.444-1.403-1.114-.763-1.588-1.382-1.712-2.207-.103-.702.02-1.176.64-2.476.639-1.34.804-1.898.907-3.259.062-.866.165-1.217.413-1.485.268-.29.495-.392 1.134-.475 1.052-.144 1.733-.412 2.27-.928.474-.433.68-.867.7-1.506l.021-.475-.268-.288c-.97-1.114-14.399-15.885-14.46-15.885-.022 0 .309.392.7.887zm6.333 29.335a.852.852 0 00-.268-1.135c-.351-.226-.887-.123-.887.186 0 .083.04.165.165.206.185.103.206.207.061.434-.144.227-.144.433.042.577.288.227.68.103.887-.268zm8.355-10.851c-.495.144-.97.68-1.114 1.217-.083.33-.042.928.103 1.114.227.289.433.371 1.01.371 1.135 0 2.105-.495 2.208-1.093.103-.495-.33-1.176-.928-1.485-.31-.165-.95-.227-1.28-.124zm1.32 1.031c.165-.247.103-.515-.206-.701-.557-.35-1.403-.062-1.403.475 0 .268.433.556.846.556.268 0 .64-.165.763-.33z" fill="#FF007A"/><defs><linearGradient id="paint0_linear_572_423460" x1="32" y1="0" x2="32" y2="64.001" gradientUnits="userSpaceOnUse"><stop stop-color="#FEF3F9"/><stop offset="1" stop-color="#FDE5F2"/></linearGradient></defs></svg>