<svg width="64" height="64" fill="none" xmlns="http://www.w3.org/2000/svg"><rect width="64" height="64" rx="4" fill="#000"/><path d="M21.852 28.948h.02l.326.115.307.115.326.096.308.134.326.116.307.115.327.115.307.115.307.116.307.115.327.115.307.134.326.096.308.116.326.115.307.134.327.116.307.096.307.115.327.134.326.115v-4.493H21.43l-.308.154-.73.384-.748.403-.749.365-.71.384-.75.403-.748.365-.73.403-.749.384-.73.365-.73.403-.671.346L13 42.255l.749.518.73.518.73.5.748.537.73.519.749.518.326.25.422-.538.711-.96.077-.096-.077-.057-.71-.519-.75-.518-.748-.519-.73-.518-.749-.538-.192-.115.058-8.91.134-.077.75-.364.729-.365.749-.365.748-.365.711-.384.749-.365.749-.346.73-.384.73-.364z" fill="url(#paint0_linear_573_470562)"/><path d="M34.565 49.935l-.614.25-.692.288-.69.269-.692.288-.307.115-.365-.173-.691-.365-.692-.326-.672-.365-.691-.345-.691-.327-.692-.365-.69-.345-.692-.346-.691-.346-.692-.364-.653-.327-.69-.346-.078-.038v-8.986h-1.997v10.215l.692.326.69.346.692.365.691.326.653.365.692.346.69.345.692.346.691.346.692.345.69.346.692.365.672.326.692.365.69.327.27.153.403-.192.691-.25.691-.288.692-.288.672-.269.691-.268-.691-1.729-.058-.115z" fill="url(#paint1_linear_573_470562)"/><path d="M46.833 37.454l.039 4.224-.173.154-1.171.806-1.172.845-1.171.845-1.171.826-1.172.825-1.152.845-1.171.826-.691.5-.48-.366-1.152-.902-1.172-.883-1.171-.903-1.152-.883-.212-.154v-4.55l.212-.193 1.152-1.229 1.171-1.21 1.172-1.228 1.152-1.21 1.133-1.19H24.52l1.171 1.228 1.152 1.21 1.171 1.21 1.172 1.229 1.152 1.21.173.172v5.511l.998.788 1.19.902 1.153.883 1.171.903 1.172.883 1.152.903.422.326.749-.538 1.171-.806 1.152-.845 1.172-.845 1.171-.806 1.171-.845 1.172-.845 1.171-.807 1.171-.844.96-.71.192-5.185-1.152-.039-1.037-.038z" fill="url(#paint2_linear_573_470562)"/><path d="M14.902 27.622h.134l.02-5.645.748-.48.941-.557.922-.557.921-.576.922-.557.941-.576.902-.557.941-.557.922-.576.941-.576h.02l.883.519.94.518.922.538.922.518.921.519.922.518.922.538.902.518.039-.077.921-1.67-.921-.538-.941-.518-.922-.519-.922-.518-.921-.538-.922-.518-.922-.519-.94-.537-.903-.519-.038-.019-.903.538-.922.576-.94.576-.903.576-.94.557-.923.556-.921.577-.922.556-.94.576-.903.557-.941.557-.883.557-.039 6.74h.922l.94.02z" fill="url(#paint3_linear_573_470562)"/><path d="M51 22.457l-.48-.384-.48-.384-.48-.403-.48-.384-.48-.384-.5-.384-.48-.384-.48-.384-.499-.403-.365-.27-.134.154-.48.596-.48.614-.135.154.135.134.48.404.48.403.5.403.498.403.48.423.48.403.5.403.23.192.02 9.083-.25.172-.5.308-.48.307-.48.307-.499.307-.5.308-.48.307-.48.307-.48.307-.48.308-.48.307-.499.307-.48.307-.48.307-.48.308-.499.307-.48.307.48.768.5.768.076.135.403-.25.48-.288.48-.307.5-.288.48-.327.48-.288.48-.307.48-.288.48-.307.5-.288.498-.327.48-.288.48-.307.5-.288.48-.307.48-.288.48-.327.48-.288.48-.307V22.457z" fill="url(#paint4_linear_573_470562)"/><path d="M35.158 27.872v3.918l.154-.057.653-.25.652-.269.634-.25.653-.268.653-.269.634-.25.652-.268.653-.25.634-.269.653-.25.633-.268V16.985l-.73-.461-.748-.423-.749-.422-.73-.46-.748-.423-.75-.423-.729-.441-.749-.442-.73-.442-.748-.422-.75-.442-.729-.441-.73-.423-.748-.422-.404-.23-.345.191-.75.403-.748.384-.71.423-.75.403-.748.384-.75.423.75.422.748.423.461.288.288-.154.71-.384.75-.403.749-.384.288-.154.46.269.75.422.729.423.73.441.749.442.748.422.73.442.749.442.73.422.748.423.75.46.73.423.249.134v8.757h-5.242" fill="url(#paint5_linear_573_470562)"/><path d="M35.159 31.79l7.258-2.92-7.258-2.015" fill="url(#paint6_linear_573_470562)"/><path d="M28.516 31.79v-4.86l-6.644 1.978 6.644 2.861" fill="url(#paint7_linear_573_470562)"/><defs><linearGradient id="paint0_linear_573_470562" x1="13.001" y1="26.899" x2="13.001" y2="45.607" gradientUnits="userSpaceOnUse"><stop stop-color="#F6E93D"/><stop offset=".13" stop-color="#F8E330"/><stop offset=".35" stop-color="#F7C730"/><stop offset=".64" stop-color="#F59C2E"/><stop offset=".98" stop-color="#EB5E2C"/><stop offset="1" stop-color="#EB5C2C"/></linearGradient><linearGradient id="paint1_linear_573_470562" x1="20.901" y1="37.788" x2="20.901" y2="53.332" gradientUnits="userSpaceOnUse"><stop stop-color="#F6E93D"/><stop offset=".13" stop-color="#F8E330"/><stop offset=".35" stop-color="#F7C730"/><stop offset=".64" stop-color="#F59C2E"/><stop offset=".98" stop-color="#EB5E2C"/><stop offset="1" stop-color="#EB5C2C"/></linearGradient><linearGradient id="paint2_linear_573_470562" x1="24.514" y1="33.247" x2="24.514" y2="50.613" gradientUnits="userSpaceOnUse"><stop stop-color="#F6E93D"/><stop offset=".13" stop-color="#F8E330"/><stop offset=".35" stop-color="#F7C730"/><stop offset=".64" stop-color="#F59C2E"/><stop offset=".98" stop-color="#EB5E2C"/><stop offset="1" stop-color="#EB5C2C"/></linearGradient><linearGradient id="paint3_linear_573_470562" x1="13.041" y1="14.11" x2="13.041" y2="27.624" gradientUnits="userSpaceOnUse"><stop stop-color="#F6E93D"/><stop offset=".13" stop-color="#F8E330"/><stop offset=".35" stop-color="#F7C730"/><stop offset=".64" stop-color="#F59C2E"/><stop offset=".98" stop-color="#EB5E2C"/><stop offset="1" stop-color="#EB5C2C"/></linearGradient><linearGradient id="paint4_linear_573_470562" x1="40.829" y1="18.69" x2="40.829" y2="39.223" gradientUnits="userSpaceOnUse"><stop stop-color="#F6E93D"/><stop offset=".13" stop-color="#F8E330"/><stop offset=".35" stop-color="#F7C730"/><stop offset=".64" stop-color="#F59C2E"/><stop offset=".98" stop-color="#EB5E2C"/><stop offset="1" stop-color="#EB5C2C"/></linearGradient><linearGradient id="paint5_linear_573_470562" x1="26.84" y1="10.667" x2="26.84" y2="31.795" gradientUnits="userSpaceOnUse"><stop stop-color="#F6E93D"/><stop offset=".13" stop-color="#F8E330"/><stop offset=".35" stop-color="#F7C730"/><stop offset=".64" stop-color="#F59C2E"/><stop offset=".98" stop-color="#EB5E2C"/><stop offset="1" stop-color="#EB5C2C"/></linearGradient><linearGradient id="paint6_linear_573_470562" x1="35.153" y1="26.868" x2="35.153" y2="31.801" gradientUnits="userSpaceOnUse"><stop stop-color="#F6E93D"/><stop offset=".13" stop-color="#F8E330"/><stop offset=".35" stop-color="#F7C730"/><stop offset=".64" stop-color="#F59C2E"/><stop offset=".98" stop-color="#EB5E2C"/><stop offset="1" stop-color="#EB5C2C"/></linearGradient><linearGradient id="paint7_linear_573_470562" x1="28.058" y1="31.142" x2="28.922" y2="26.701" gradientUnits="userSpaceOnUse"><stop stop-color="#F6E93D"/><stop offset=".13" stop-color="#F8E330"/><stop offset=".35" stop-color="#F7C730"/><stop offset=".64" stop-color="#F59C2E"/><stop offset=".98" stop-color="#EB5E2C"/><stop offset="1" stop-color="#EB5C2C"/></linearGradient></defs></svg>