<svg width="64" height="64" fill="none" xmlns="http://www.w3.org/2000/svg"><rect width="64" height="64" rx="4" fill="#2775CA"/><path d="M40.8 37.067c0-4.666-2.8-6.267-8.4-6.933-4-.534-4.8-1.6-4.8-3.467s1.333-3.067 4-3.067c2.4 0 3.733.8 4.4 2.8.133.4.533.667.933.667h2.133c.534 0 .934-.4.934-.933V26a6.661 6.661 0 00-6-5.466v-3.2c0-.534-.4-.933-1.067-1.067h-2c-.533 0-.933.4-1.067 1.067v3.067c-4 .533-6.533 3.2-6.533 6.533 0 4.4 2.667 6.133 8.267 6.8 3.733.666 4.933 1.466 4.933 3.6 0 2.133-1.867 3.6-4.4 3.6-3.467 0-4.667-1.467-5.067-3.467-.133-.533-.533-.8-.933-.8h-2.267c-.533 0-.933.4-.933.933v.134c.534 3.333 2.667 5.733 7.067 6.4v3.2c0 .533.4.933 1.067 1.066h2c.533 0 .933-.4 1.066-1.066v-3.2c4-.667 6.667-3.467 6.667-7.067z" fill="#fff"/><path fill-rule="evenodd" clip-rule="evenodd" d="M13.333 25.467C9.466 35.734 14.8 47.334 25.2 51.067c.4.267.8.8.8 1.2v1.867c0 .267 0 .4-.134.533-.133.534-.666.8-1.2.533-7.466-2.4-13.2-8.133-15.6-15.6-4-12.666 2.934-26.133 15.6-30.133.134-.133.4-.133.534-.133.533.133.8.533.8 1.066v1.867c0 .667-.267 1.067-.8 1.334-5.467 2-9.867 6.266-11.867 11.866zm24.8-15.466c.133-.534.667-.8 1.2-.534 7.334 2.4 13.2 8.134 15.6 15.734 4 12.666-2.933 26.133-15.6 30.133-.133.133-.4.133-.533.133-.533-.133-.8-.533-.8-1.066v-1.867c0-.667.267-1.067.8-1.333 5.467-2 9.867-6.267 11.867-11.867 3.866-10.267-1.467-21.867-11.867-25.6-.4-.267-.8-.8-.8-1.333v-1.867c0-.267 0-.4.133-.533z" fill="#fff"/></svg>