<svg width="64" height="64" fill="none" xmlns="http://www.w3.org/2000/svg"><rect width="64" height="64" rx="4" fill="#51CBFF"/><path d="M29.268 48.987L12.353 14.534c-.274-.55.139-1.2.748-1.2h5.86c.315 0 .61.178.748.453L32.062 38.78c1.102 2.243 4.287 2.243 5.389 0l12.313-24.975a.842.842 0 01.748-.452h.727c.434 0 .708.452.513.826L34.659 48.987c-1.102 2.24-4.29 2.24-5.39 0z" fill="#fff"/><path opacity=".1" d="M29.268 48.987l-9.559-35.18a.813.813 0 00-.708-.454h-5.88a.837.837 0 00-.768 1.2l16.915 34.434z" fill="#fff"/><path opacity=".1" d="M32.062 38.8L12.353 14.533c-.235-.57.119-1.14.669-1.2h5.96a.88.88 0 01.707.453l12.373 25.012z" fill="#fff"/></svg>