<svg width="64" height="64" fill="none" xmlns="http://www.w3.org/2000/svg"><rect width="64" height="64" rx="4" fill="#fff"/><circle cx="32" cy="32.001" r="24" fill="#fff"/><path d="M46.926 18.031L45.6 19.357c6.56 7.167 6.56 18.151 0 25.318l1.326 1.326c7.298-7.91 7.298-20.091 0-28v.03zm-27.57.369c7.167-6.56 18.152-6.56 25.319 0L46 17.075c-7.91-7.298-20.09-7.298-28 0l1.356 1.327zM18.4 44.631c-6.552-7.165-6.552-18.14 0-25.305L17.074 18c-7.299 7.91-7.299 20.091 0 28l1.326-1.369zm26.244.969c-7.167 6.56-18.152 6.56-25.319 0L18 46.928c7.91 7.298 20.09 7.298 28 0L44.644 45.6z" fill="#5A5564"/><path fill-rule="evenodd" clip-rule="evenodd" d="M40.244 27.751c-.261-2.754-2.61-3.677-5.579-3.959V20H32.37v3.722h-1.835V20h-2.279v3.819H23.6v2.485s1.696-.031 1.67 0a1.19 1.19 0 011.304 1.02v10.451a.817.817 0 01-.278.568.79.79 0 01-.592.202c.03.027-1.67 0-1.67 0l-.434 2.776h4.613v3.88h2.296v-3.823h1.834v3.805h2.3v-3.836c3.879-.237 6.583-1.205 6.922-4.878.274-2.956-1.1-4.275-3.295-4.808 1.334-.664 2.16-1.896 1.974-3.91zm-3.218 8.26c0 2.65-4.118 2.589-5.998 2.561a31.716 31.716 0 00-.445-.005v-5.12c.159 0 .353-.004.574-.009 1.932-.043 5.87-.13 5.87 2.574zm-6.048-4.89c1.575.028 4.983.09 4.983-2.323 0-2.474-3.302-2.387-4.908-2.345-.178.005-.336.01-.466.01v4.653c.111 0 .243.002.39.005z" fill="#F09242"/><path fill-rule="evenodd" clip-rule="evenodd" d="M8 31.999c0 13.254 10.742 24 23.996 24.002A24 24 0 0056 31.996C55.998 18.742 45.252 8 31.998 8 18.745 8.001 8.002 18.745 8 32zm1.898-.003c-.005-12.21 9.887-22.114 22.098-22.124a22.116 22.116 0 0122.133 22.124c-.005 12.21-9.905 22.107-22.116 22.107-12.21 0-22.11-9.896-22.115-22.107z" fill="#282138"/></svg>