<svg width="24" height="24" viewBox="0 0 24 24" fill="none" xmlns="http://www.w3.org/2000/svg">
<rect width="24" height="24" rx="4" fill="white"/>
<circle cx="12" cy="12" r="9" fill="white"/>
<path d="M17.597 6.76159L17.0996 7.25852C19.5596 9.94622 19.5596 14.0654 17.0996 16.7531L17.597 17.25C20.3338 14.2841 20.3338 9.71594 17.597 6.75V6.76159Z" fill="#5A5564"/>
<path d="M7.25852 6.9001C9.94622 4.44016 14.0654 4.44016 16.7531 6.9001L17.25 6.40273C14.2841 3.66589 9.71594 3.66589 6.75 6.40273L7.25852 6.9001Z" fill="#5A5564"/>
<path d="M6.89961 16.7365C4.4427 14.0495 4.4427 9.9339 6.89961 7.24692L6.40224 6.75C3.6654 9.71594 3.6654 14.2841 6.40224 17.25L6.89961 16.7365Z" fill="#5A5564"/>
<path d="M16.7415 17.1001C14.0538 19.56 9.93463 19.56 7.24692 17.1001L6.75 17.5975C9.71594 20.3343 14.2841 20.3343 17.25 17.5975L16.7415 17.1001Z" fill="#5A5564"/>
<path fill-rule="evenodd" clip-rule="evenodd" d="M15.091 10.4064C14.9931 9.37383 14.1127 9.02744 12.9991 8.92187V7.5H12.1382V8.89548H11.4502V7.5H10.5958V8.93177H8.84961V9.86374C8.84961 9.86374 9.48548 9.85219 9.4757 9.86374C9.71401 9.83721 9.93027 10.0064 9.96484 10.2464V14.1656C9.95989 14.2479 9.92225 14.3247 9.86049 14.3784C9.79988 14.4332 9.71979 14.4606 9.63875 14.4543C9.65016 14.4642 9.01265 14.4543 9.01265 14.4543L8.84961 15.4951H10.5795V16.95H11.4404V15.5166H12.1284V16.9434H12.9909V15.505C14.4453 15.416 15.4594 15.0531 15.5866 13.6757C15.6893 12.5673 15.1741 12.0724 14.3507 11.8728C14.8513 11.6238 15.1611 11.1619 15.091 10.4064ZM13.8844 13.5042C13.8844 14.4976 12.34 14.4747 11.6351 14.4643C11.5722 14.4634 11.516 14.4626 11.4681 14.4626V12.5425C11.5279 12.5427 11.6007 12.5411 11.6834 12.5392H11.6834C12.4079 12.523 13.8844 12.49 13.8844 13.5042ZM11.6163 11.6702C12.2069 11.6808 13.485 11.7037 13.485 10.799C13.485 9.87137 12.2468 9.90395 11.6446 9.9198C11.5776 9.92156 11.5184 9.92312 11.4697 9.92312V11.6683C11.5114 11.6683 11.5608 11.6692 11.6163 11.6702Z" fill="#F09242"/>
<path fill-rule="evenodd" clip-rule="evenodd" d="M3 11.9995C2.9997 16.9696 7.02822 20.9991 11.9984 21C14.3859 21.0004 16.6757 20.0522 18.364 18.364C20.0522 16.6757 21.0004 14.3859 21 11.9984C20.9991 7.02822 16.9696 2.9997 11.9995 3C7.02932 3.0003 3.0003 7.02932 3 11.9995ZM3.7117 11.9983C3.70988 7.4194 7.41941 3.70545 11.9984 3.70181C14.1996 3.70006 16.3112 4.57349 17.868 6.12968C19.4248 7.68587 20.2991 9.79713 20.2982 11.9984C20.2964 16.5773 16.5839 20.2883 12.0049 20.2883C7.42599 20.2883 3.71352 16.5773 3.7117 11.9983Z" fill="#282138"/>
</svg>
