<svg width="24" height="24" viewBox="0 0 24 24" fill="none" xmlns="http://www.w3.org/2000/svg">
<g clip-path="url(#clip0_548_25092)">
<rect width="24" height="24" rx="4" fill="white"/>
<path d="M18.3634 4.54492H20.965L15.5509 9.90555C13.5903 11.8458 10.4114 11.8458 8.44937 9.90555L3.0332 4.54492H5.63687L9.75016 8.61707C10.3495 9.20773 11.1571 9.53885 11.9986 9.53885C12.84 9.53885 13.6477 9.20773 14.247 8.61707L18.3634 4.54492Z" fill="#23292F"/>
<path d="M5.60332 19.4512H3L8.44922 14.0575C10.4099 12.1172 13.5887 12.1172 15.5508 14.0575L21 19.4512H18.3984L14.25 15.346C13.6507 14.7553 12.843 14.4242 12.0016 14.4242C11.1601 14.4242 10.3525 14.7553 9.75316 15.346L5.60332 19.4512Z" fill="#23292F"/>
</g>
<defs>
<clipPath id="clip0_548_25092">
<rect width="24" height="24" fill="white"/>
</clipPath>
</defs>
</svg>
