<svg width="64" height="64" fill="none" xmlns="http://www.w3.org/2000/svg"><rect width="64" height="64" rx="4" fill="#EDF0F4"/><path fill-rule="evenodd" clip-rule="evenodd" d="M23.699 51.657a21.216 21.216 0 008.303 1.677c2.88 0 5.673-.565 8.304-1.685a21.402 21.402 0 0011.35-11.352 21.216 21.216 0 001.677-8.303 21.312 21.312 0 00-13.027-19.655 21.254 21.254 0 00-8.308-1.672 21.312 21.312 0 00-21.331 21.331c0 2.88.565 5.673 1.68 8.308A21.402 21.402 0 0023.7 51.659zm-3.432-31.394a16.507 16.507 0 0111.735-4.858c4.432 0 8.599 1.728 11.735 4.858A16.507 16.507 0 0148.595 32c0 4.432-1.727 8.599-4.858 11.735a16.506 16.506 0 01-11.735 4.858c-4.432 0-8.6-1.727-11.736-4.858a16.508 16.508 0 01-4.857-11.736c0-4.432 1.722-8.599 4.858-11.735z" fill="#000"/><path d="M30.721 37.31h9.244v4.645h-5.692c.093 1.33.144 2.56.236 3.886H29.72V42h-5.69c0-1.52-.19-3.034.092-4.456.144-.76.996-1.421 1.52-2.084a663.57 663.57 0 015.45-6.354c.713-.805 1.422-1.565 2.228-2.463h-8.864v-4.645h5.26v-3.885h4.6v3.793h5.738c0 1.565.19 3.08-.093 4.506-.143.76-.995 1.421-1.565 2.084a664.799 664.799 0 01-5.45 6.354c-.705.847-1.413 1.602-2.224 2.459" fill="#000"/></svg>