<svg width="24" height="24" viewBox="0 0 24 24" fill="none" xmlns="http://www.w3.org/2000/svg">
<rect width="24" height="24" rx="4" fill="#EDF0F4"/>
<path fill-rule="evenodd" clip-rule="evenodd" d="M8.88704 19.3714C9.87344 19.7882 10.9209 20 12.0009 20C13.0811 20 14.128 19.7882 15.1147 19.368C17.0322 18.5551 18.5585 17.0287 19.3714 15.1112C19.7882 14.1248 20 13.0774 20 11.9974C20.0028 8.78142 18.0777 5.87709 15.1147 4.62696C14.128 4.21016 13.0776 4 11.9991 4C8.78315 3.99717 5.87878 5.92224 4.62864 8.88528C4.21184 9.872 4 10.9189 4 11.9991C4 13.0794 4.21184 14.1266 4.6304 15.1147C5.44326 17.0321 6.96962 18.5585 8.88704 19.3714ZM7.60008 7.5984C8.77576 6.42464 10.3388 5.77664 12.0008 5.77664L12.0006 5.7768C13.6626 5.7768 15.2254 6.42456 16.4014 7.59856C17.5751 8.77424 18.2231 10.3373 18.2231 11.9993C18.2231 13.6613 17.5754 15.224 16.4014 16.4C15.2257 17.5738 13.6626 18.2218 12.0006 18.2218C10.3386 18.2218 8.77592 17.574 7.59992 16.4C6.42608 15.224 5.77832 13.6611 5.77832 11.9991C5.77832 10.3371 6.42408 8.7744 7.60008 7.5984Z" fill="black"/>
<path d="M11.5204 13.991H14.9868V15.733H12.8524C12.8871 16.2314 12.9062 16.693 12.941 17.19H11.1451V15.75H9.01072C9.01072 15.1804 8.93952 14.6125 9.04544 14.0793C9.09928 13.7945 9.4188 13.5462 9.61504 13.2978C10.2906 12.4971 10.9662 11.7157 11.6591 10.915C11.9266 10.6129 12.1922 10.3281 12.4945 9.99112H9.17048V8.2496H11.1434V6.79248H12.8678V8.2148H15.0198C15.0198 8.80176 15.091 9.36968 14.9851 9.90456C14.9313 10.1894 14.6118 10.4377 14.3982 10.6861C13.7226 11.4867 13.047 12.2682 12.3541 13.0688C12.0901 13.3866 11.8244 13.6697 11.5205 13.991" fill="black"/>
</svg>
