<?xml version="1.0" standalone="no"?>
<!DOCTYPE svg PUBLIC "-//W3C//DTD SVG 20010904//EN"
 "http://www.w3.org/TR/2001/REC-SVG-20010904/DTD/svg10.dtd">
<svg version="1.0" xmlns="http://www.w3.org/2000/svg"
 width="700.000000pt" height="700.000000pt" viewBox="0 0 700.000000 700.000000"
 preserveAspectRatio="xMidYMid meet">
<metadata>
Created by potrace 1.14, written by Peter Selinger 2001-2017
</metadata>
<g transform="translate(0.000000,700.000000) scale(0.100000,-0.100000)"
fill="#000000" stroke="none">
<path d="M737 6990 c-337 -57 -599 -290 -704 -627 l-28 -88 0 -2765 0 -2765
23 -85 c83 -315 317 -549 632 -632 l85 -23 2755 0 2755 0 85 23 c315 83 549
317 632 632 l23 85 0 2755 0 2755 -23 85 c-43 163 -125 303 -243 416 -112 106
-231 173 -384 216 l-80 23 -2740 1 c-1507 1 -2762 -2 -2788 -6z m2148 -2471
c570 -982 611 -1049 624 -1030 8 12 285 484 616 1049 l603 1027 282 3 c227 2
281 0 273 -10 -6 -7 -353 -585 -772 -1285 l-761 -1272 0 -736 0 -735 -255 0
-255 0 0 743 0 743 -758 1264 c-417 696 -761 1271 -765 1278 -7 9 51 12 275
12 l283 0 610 -1051z"/>
</g>
</svg>
