<svg width="64" height="64" fill="none" xmlns="http://www.w3.org/2000/svg"><path d="M7 7h19.88c.538 0 .885 0 1.15.02.254.02.35.053.396.075a1 1 0 01.479.48c.022.046.055.14.074.395.02.265.021.612.021 1.15V22.2c0 1.321 0 2.256-.057 2.989-.055.721-.16 1.164-.324 1.514a4 4 0 01-1.916 1.916c-.35.165-.793.27-1.514.324C24.456 29 23.52 29 22.2 29H9.12c-.538 0-.885 0-1.15-.02-.254-.02-.35-.053-.396-.075a1 1 0 01-.479-.48c-.022-.046-.055-.14-.074-.395C7 27.765 7 27.418 7 26.88V7zm28 2.12c0-.538 0-.885.02-1.15.02-.254.053-.35.075-.396a1 1 0 01.48-.479c.046-.022.14-.055.395-.074C36.235 7 36.582 7 37.12 7H57v19.88c0 .538 0 .885-.02 1.15-.02.254-.053.35-.075.396a1 1 0 01-.48.479c-.046.022-.14.055-.395.074a17.1 17.1 0 01-1.15.021H41.8c-1.321 0-2.256 0-2.988-.057-.722-.055-1.165-.16-1.515-.324a4 4 0 01-1.916-1.916c-.165-.35-.27-.793-.324-1.514C35 24.456 35 23.52 35 22.2V9.12zm-28 28c0-.538 0-.885.02-1.15.02-.254.053-.35.075-.396a1 1 0 01.48-.479c.046-.022.14-.055.395-.074C8.235 35 8.582 35 9.12 35H22.2c1.321 0 2.256 0 2.989.057.721.055 1.164.16 1.514.324a4 4 0 011.916 1.916c.165.35.27.793.324 1.515.056.732.057 1.667.057 2.988v13.08c0 .538 0 .885-.02 1.15-.02.254-.053.35-.075.396a1 1 0 01-.48.479c-.046.022-.14.055-.395.074a17.1 17.1 0 01-1.15.021H7V37.12zm28 4.68c0-1.321 0-2.256.057-2.988.055-.722.16-1.165.324-1.515a4 4 0 011.916-1.916c.35-.165.793-.27 1.515-.324C39.544 35 40.479 35 41.8 35h13.08c.538 0 .885 0 1.15.02.254.02.35.053.396.075a1 1 0 01.479.48c.022.046.055.14.074.395.02.265.021.612.021 1.15V57H37.12c-.538 0-.885 0-1.15-.02-.254-.02-.35-.053-.396-.075a1 1 0 01-.479-.48c-.022-.046-.055-.14-.074-.395A17.1 17.1 0 0135 54.88V41.8z" stroke="#111" stroke-width="2"/></svg>