<svg width="64" height="64" fill="none" xmlns="http://www.w3.org/2000/svg"><path d="M30.333 32a3.333 3.333 0 010-6.667M33.667 32a3.334 3.334 0 010 6.667M32 22v3.333m0 13.334V42m-1.667-10h3.334M37 27s-1.667-1.667-3.333-1.667h-3.334M27 37s1.667 1.667 3.333 1.667h3.334" stroke="#111" stroke-width="2" stroke-miterlimit="5"/><path d="M32 50c9.941 0 18-8.059 18-18s-8.059-18-18-18-18 8.059-18 18 8.059 18 18 18z" stroke="#111" stroke-width="2" stroke-miterlimit="5"/><path d="M32 58c14.36 0 26-11.64 26-26S46.36 6 32 6 6 17.64 6 32s11.64 26 26 26z" stroke="#111" stroke-width="2" stroke-miterlimit="5"/></svg>