<svg width="64" height="64" fill="none" xmlns="http://www.w3.org/2000/svg"><path fill-rule="evenodd" clip-rule="evenodd" d="M9.225 6.475c-1.04.248-2.062 1.109-2.545 2.142l-.28.6v41.5l.268.572c.57 1.216 1.787 2.112 3.044 2.241l.613.063.063.604c.131 1.257.958 2.41 2.15 2.996l.658.324h41.509l.658-.324a4.169 4.169 0 001.87-1.904l.267-.572.028-9.699c.027-9.495.023-9.713-.175-10.35-.356-1.147-1.14-1.976-2.267-2.398-.534-.2-.728-.203-11.84-.203H31.95l-.003-10.825c-.002-5.953-.043-11.133-.091-11.51-.18-1.397-1.07-2.59-2.306-3.092L29 6.417l-9.7-.016c-5.421-.009-9.865.024-10.075.074zM36.35 8.717l-2.248 2.25 2.248 2.25 2.248 2.25.55-.55.55-.55-1.347-1.35-1.348-1.35h4.728c5.295 0 5.71.04 6.98.662a6.33 6.33 0 012.878 2.877c.622 1.27.661 1.686.661 6.98v4.729l-1.35-1.348-1.35-1.347-.55.55-.55.55 2.25 2.248 2.251 2.248 2.274-2.274 2.274-2.274-.524-.524-.524-.524-1.345 1.341-1.344 1.342-.036-5.143c-.04-5.786-.021-5.62-.82-7.243-.798-1.622-1.967-2.777-3.606-3.561-1.54-.739-1.411-.725-7.142-.765l-5.143-.035 1.34-1.343 1.34-1.343-.493-.502c-.272-.275-.519-.5-.549-.5-.03 0-1.066 1.012-2.303 2.25zm-7.093-.531c.252.148.59.459.75.691.289.416.294.446.325 1.956l.032 1.534H7.85v-1.263c0-.704.054-1.446.123-1.675.15-.505.891-1.276 1.377-1.431.25-.08 3.09-.108 9.9-.097l9.55.016.457.269zM15.15 10.117v.75h8v-1.5h-8v.75zm15.2 12.85v9.1h-8.496c-8.35 0-8.506.004-9.05.208-.715.267-1.435.84-1.83 1.456-.583.908-.624 1.266-.624 5.507v3.83h-2.5v-29.2h22.5v9.1zm-21-.35v7.25h19.5v-14.5H9.35v7.25zm18-3.75c0 1.1-.025 2-.056 2s-.566-.45-1.189-1c-.622-.55-1.157-1-1.189-1-.032 0-1.056 1.013-2.277 2.25-1.22 1.238-2.261 2.25-2.313 2.25-.051 0-.678-.55-1.392-1.225-.714-.674-1.352-1.237-1.416-1.252-.065-.014-1.557 1.414-3.317 3.175-1.76 1.761-3.233 3.202-3.275 3.202-.042 0-.076-2.34-.076-5.2v-5.2h16.5v2zm-14.9.25v.75h3v-1.5h-3v.75zm7.2 0v.75h1.5v-1.5h-1.5v.75zm7.325 3.515l.375.335v5.4h-9.717l3.674-3.746 3.673-3.746.81.711c.446.391.98.862 1.185 1.046zm-8.52 1.128l.845.792-1.899 1.908-1.899 1.907-1.75-.002L12 28.362l2.717-2.697c1.495-1.484 2.757-2.698 2.804-2.698.048 0 .468.357.933.793zm15.195 5.957v.75h1.5v-1.5h-1.5v.75zm3 0v.75h1.5v-1.5h-1.5v.75zm3.067-.683c-.037.037-.067.374-.067.75v.683h1.5v-1.5h-.683c-.376 0-.713.03-.75.067zM20.35 44.817v11.25h-3.263c-2.187 0-3.391-.038-3.65-.116-.555-.166-1.124-.695-1.374-1.278l-.216-.502.026-9.527.027-9.527.27-.457c.242-.412.785-.883 1.18-1.024.083-.029 1.692-.056 3.575-.06l3.425-.009v11.25zm29.7 0v11.25h-28.2v-22.5h28.2v11.25zm4.978-10.927c.226.15.538.488.692.75l.28.477.03 9.45c.022 7.278 0 9.554-.096 9.9-.158.577-.874 1.308-1.445 1.478-.23.068-.97.122-1.675.122H51.55V33.553l1.533.032c1.476.031 1.548.042 1.945.305zM24.15 44.817v8.75h23.6v-17.5h-23.6v8.75zm22.1-4.5c0 1.513-.018 2.75-.04 2.75-.023 0-.732-.607-1.576-1.349-.843-.742-1.563-1.35-1.6-1.35-.036 0-1.293 1.26-2.792 2.8-1.5 1.54-2.753 2.799-2.784 2.799-.032 0-.823-.719-1.758-1.596L34 42.776l-2.1 2.07a9961.826 9961.826 0 00-4.175 4.12l-2.075 2.05V37.567h20.6v2.75zm-18.8-.5v.75h1.5v-1.5h-1.5v.75zm3 0v.75h1.5v-1.5h-1.5v.75zm3 0v.75h6v-1.5h-6v.75zm19.6 4.95v4h1.5v-8h-1.5v4zM15 42.303c-2.132.998-2.162 3.887-.05 4.964 1.259.642 2.956.064 3.618-1.234.296-.58.352-1.506.13-2.171-.483-1.457-2.289-2.218-3.698-1.559zm30.038 1.764l1.2 1.05.006 3.475.006 3.475H33.733l.734-.785c.403-.432 2.509-2.611 4.678-4.842l3.946-4.056.373.317c.206.174.914.789 1.574 1.366zm-28.292-.336c.859.507.761 1.814-.164 2.2-.481.202-.947.106-1.324-.271-1.018-1.019.25-2.661 1.488-1.93zm-6.396 4.586v3.75h-.325c-.478-.002-1.295-.42-1.643-.842-.492-.598-.532-.889-.532-3.894v-2.764h2.5v3.75zm25.058-2.158c.518.495.942.929.942.963 0 .034-1.068 1.16-2.375 2.502l-2.375 2.44-2.375.002c-1.306 0-2.375-.013-2.375-.03 0-.016 1.607-1.633 3.57-3.591l3.57-3.562.237.187c.13.103.662.593 1.18 1.089z" fill="#111"/></svg>