<svg width="56" height="56" viewBox="0 0 56 56" fill="none" xmlns="http://www.w3.org/2000/svg">
<path d="M48 15.17C41.9202 18.6799 35.0201 20.5188 28 20.5C20.9799 20.5188 14.0798 18.6799 8 15.17" stroke="white" stroke-width="2" stroke-miterlimit="5"/>
<path d="M8 40.88C14.0712 37.3841 20.9542 35.5441 27.96 35.5441C34.9658 35.5441 41.8487 37.3841 47.92 40.88" stroke="white" stroke-width="2" stroke-miterlimit="5"/>
<path d="M25 52C19.8071 45.0762 17 36.6548 17 28C17 19.3452 19.8071 10.9238 25 4" stroke="white" stroke-width="2" stroke-miterlimit="5"/>
<path d="M31 4C36.1929 10.9238 39 19.3452 39 28C39 36.6548 36.1929 45.0762 31 52" stroke="white" stroke-width="2" stroke-miterlimit="5"/>
<path d="M28 52C41.2548 52 52 41.2548 52 28C52 14.7452 41.2548 4 28 4C14.7452 4 4 14.7452 4 28C4 41.2548 14.7452 52 28 52Z" stroke="white" stroke-width="2" stroke-miterlimit="5"/>
</svg>
