<svg width="64" height="64" fill="none" xmlns="http://www.w3.org/2000/svg"><path d="M54.857 17.337A45.475 45.475 0 0132 23.43a45.475 45.475 0 01-22.857-6.092m0 29.382a45.714 45.714 0 0145.623 0M28.571 59.429a45.715 45.715 0 010-54.857m6.857 0a45.714 45.714 0 010 54.857" stroke="#111" stroke-width="2" stroke-miterlimit="5"/><path d="M32 59.429c15.148 0 27.429-12.28 27.429-27.429 0-15.148-12.28-27.428-27.429-27.428C16.852 4.572 4.572 16.852 4.572 32c0 15.148 12.28 27.43 27.428 27.43z" stroke="#111" stroke-width="2" stroke-miterlimit="5"/></svg>