<svg width="64" height="64" fill="none" xmlns="http://www.w3.org/2000/svg"><path d="M43.429 4.572H20.57A4.571 4.571 0 0016 9.143v45.714a4.571 4.571 0 004.571 4.572H43.43A4.571 4.571 0 0048 54.857V9.143a4.571 4.571 0 00-4.571-4.571z" stroke="#111" stroke-width="2" stroke-miterlimit="10"/><path d="M35.429 27.429h-8l-4.572 2.285V14.857A1.143 1.143 0 0124 13.714h11.429a1.143 1.143 0 011.142 1.143v11.429a1.143 1.143 0 01-1.142 1.143zm-6.858 22.857h8l4.572 2.285V37.715A1.143 1.143 0 0040 36.572H28.57a1.143 1.143 0 00-1.143 1.142v11.429a1.143 1.143 0 001.143 1.143z" stroke="#111" stroke-width="2" stroke-miterlimit="10"/></svg>