<svg width="48" height="48" viewBox="0 0 48 48" fill="none" xmlns="http://www.w3.org/2000/svg">
<path d="M32.5714 3.42856H15.4286C13.535 3.42856 12 4.96358 12 6.85713V41.1428C12 43.0364 13.535 44.5714 15.4286 44.5714H32.5714C34.465 44.5714 36 43.0364 36 41.1428V6.85713C36 4.96358 34.465 3.42856 32.5714 3.42856Z" stroke="white" stroke-width="2" stroke-miterlimit="10"/>
<path d="M26.5714 20.5714H20.5714L17.1429 22.2857V11.1428C17.1429 10.9155 17.2332 10.6975 17.3939 10.5368C17.5546 10.376 17.7727 10.2857 18 10.2857H26.5714C26.7988 10.2857 27.0168 10.376 27.1775 10.5368C27.3383 10.6975 27.4286 10.9155 27.4286 11.1428V19.7143C27.4286 19.9416 27.3383 20.1596 27.1775 20.3204C27.0168 20.4811 26.7988 20.5714 26.5714 20.5714Z" stroke="white" stroke-width="2" stroke-miterlimit="10"/>
<path d="M21.4286 37.7143H27.4286L30.8571 39.4286V28.2857C30.8571 28.0584 30.7668 27.8404 30.6061 27.6796C30.4453 27.5189 30.2273 27.4286 30 27.4286H21.4286C21.2012 27.4286 20.9832 27.5189 20.8225 27.6796C20.6617 27.8404 20.5714 28.0584 20.5714 28.2857V36.8572C20.5714 37.0845 20.6617 37.3025 20.8225 37.4633C20.9832 37.624 21.2012 37.7143 21.4286 37.7143Z" stroke="white" stroke-width="2" stroke-miterlimit="10"/>
</svg>
