<svg width="64" height="64" fill="none" xmlns="http://www.w3.org/2000/svg"><path d="M29.658 33h-10.2v-2.28l3.912-4.032c1.184-1.216 2.016-2.168 2.496-2.856.48-.688.72-1.44.72-2.256 0-.832-.232-1.424-.696-1.776-.464-.352-1.224-.528-2.28-.528-.992 0-2.088.112-3.288.336l-.6.096-.168-2.112a16.75 16.75 0 014.824-.696c3.312 0 4.968 1.472 4.968 4.416 0 1.152-.256 2.152-.768 3-.496.848-1.392 1.872-2.688 3.072l-3.384 3.288h7.152V33zm11.15 0v-2.832H33.68v-2.04l4.176-10.968h2.952l-4.416 10.68h4.416v-4.656h2.688v4.656h1.728v2.328h-1.728V33h-2.688zM16 43L6 38.227v11.547L16 45v-2zm32 2l10 4.773V38.227L48 43v2zm-33 0h34v-2H15v2z" fill="#111"/></svg>