<svg width="64" height="64" fill="none" xmlns="http://www.w3.org/2000/svg"><path d="M59.429 32c0-1.49-.122-2.976-.366-4.446l-8.777-3.131 4-8.423A27.896 27.896 0 0048 9.714l-8.423 4-3.131-8.777a27.2 27.2 0 00-8.892 0l-3.131 8.777-8.423-4A27.897 27.897 0 009.714 16l4 8.423-8.777 3.131a27.2 27.2 0 000 8.892l8.777 3.131-4 8.423A27.896 27.896 0 0016 54.286l8.423-4 3.131 8.777a27.2 27.2 0 008.892 0l3.131-8.777 8.423 4A27.894 27.894 0 0054.286 48l-4-8.423 8.777-3.131c.244-1.47.366-2.957.366-4.446v0z" stroke="#111" stroke-width="2" stroke-miterlimit="5"/><path d="M32 36.571a4.571 4.571 0 100-9.143 4.571 4.571 0 000 9.143z" stroke="#111" stroke-width="2" stroke-miterlimit="5"/></svg>