<svg width="64" height="64" fill="none" xmlns="http://www.w3.org/2000/svg"><path d="M36 8L8 36l20 20 28-28V8H36z" stroke="#111" stroke-width="2" stroke-miterlimit="5"/><path d="M44 24a4 4 0 100-8 4 4 0 000 8zm-15.28 8.712a3.638 3.638 0 015.154-5.136m-2.586 7.712a3.637 3.637 0 11-5.153 5.136m11.599-14.127l-2.577 2.568m-10.306 10.27l-2.576 2.568m6.445-8.991l2.568 2.577m6.432-1.275s.005-2.573-1.279-3.86l-2.567-2.577m-11.586 6.41s-.004 2.572 1.28 3.86l2.567 2.577" stroke="#111" stroke-width="2" stroke-miterlimit="5"/></svg>