<svg width="64" height="64" fill="none" xmlns="http://www.w3.org/2000/svg"><path d="M32 59.428c15.148 0 27.428-12.28 27.428-27.428 0-15.148-12.28-27.43-27.428-27.43C16.852 4.571 4.57 16.851 4.57 32c0 15.148 12.28 27.428 27.429 27.428z" stroke="#111" stroke-width="2" stroke-miterlimit="5"/><path d="M32 45.714c7.574 0 13.714-6.14 13.714-13.714 0-7.574-6.14-13.714-13.714-13.714-7.574 0-13.714 6.14-13.714 13.714 0 7.574 6.14 13.714 13.714 13.714zm9.143-22.857h18.285M41.143 41.143h18.285m-18.285 0v18.285M22.857 41.143v18.285m0-18.285H4.571m18.286-18.286H4.571m18.286 0V4.571m18.286 18.286V4.571" stroke="#111" stroke-width="2" stroke-miterlimit="5"/></svg>