<svg width="32" height="32" viewBox="0 0 32 32" fill="none" xmlns="http://www.w3.org/2000/svg">
<path d="M16 29.7143C23.5742 29.7143 29.7143 23.5742 29.7143 16C29.7143 8.4258 23.5742 2.28571 16 2.28571C8.4258 2.28571 2.28571 8.4258 2.28571 16C2.28571 23.5742 8.4258 29.7143 16 29.7143Z" stroke="white" stroke-width="2" stroke-miterlimit="5"/>
<path d="M16 22.8571C19.7871 22.8571 22.8571 19.7871 22.8571 16C22.8571 12.2129 19.7871 9.14285 16 9.14285C12.2129 9.14285 9.14285 12.2129 9.14285 16C9.14285 19.7871 12.2129 22.8571 16 22.8571Z" stroke="white" stroke-width="2" stroke-miterlimit="5"/>
<path d="M20.5714 11.4286H29.7143" stroke="white" stroke-width="2" stroke-miterlimit="5"/>
<path d="M20.5714 20.5714H29.7143" stroke="white" stroke-width="2" stroke-miterlimit="5"/>
<path d="M20.5714 20.5714V29.7143" stroke="white" stroke-width="2" stroke-miterlimit="5"/>
<path d="M11.4286 20.5714V29.7143" stroke="white" stroke-width="2" stroke-miterlimit="5"/>
<path d="M11.4286 20.5714H2.28571" stroke="white" stroke-width="2" stroke-miterlimit="5"/>
<path d="M11.4286 11.4286H2.28571" stroke="white" stroke-width="2" stroke-miterlimit="5"/>
<path d="M11.4286 11.4286V2.28571" stroke="white" stroke-width="2" stroke-miterlimit="5"/>
<path d="M20.5714 11.4286V2.28571" stroke="white" stroke-width="2" stroke-miterlimit="5"/>
</svg>