<svg width="48" height="48" viewBox="0 0 48 48" fill="none" xmlns="http://www.w3.org/2000/svg">
<path d="M24 44.5714C35.3613 44.5714 44.5714 35.3613 44.5714 24C44.5714 12.6387 35.3613 3.42859 24 3.42859C12.6387 3.42859 3.42859 12.6387 3.42859 24C3.42859 35.3613 12.6387 44.5714 24 44.5714Z" stroke="white" stroke-width="2" stroke-miterlimit="5"/>
<path d="M24 8.57141V12.4286" stroke="white" stroke-width="2" stroke-miterlimit="5"/>
<path d="M24 39.4286V35.5714" stroke="white" stroke-width="2" stroke-miterlimit="5"/>
<path d="M39.4286 24H35.5714" stroke="white" stroke-width="2" stroke-miterlimit="5"/>
<path d="M8.57141 24H12.4286" stroke="white" stroke-width="2" stroke-miterlimit="5"/>
<path d="M34.9115 13.0886L32.1858 15.8143" stroke="white" stroke-width="2" stroke-miterlimit="5"/>
<path d="M13.0886 34.9114L15.8143 32.1857" stroke="white" stroke-width="2" stroke-miterlimit="5"/>
<path d="M34.9115 34.9114L32.1858 32.1857" stroke="white" stroke-width="2" stroke-miterlimit="5"/>
<path d="M13.0886 13.0886L15.8143 15.8143" stroke="white" stroke-width="2" stroke-miterlimit="5"/>
<path d="M24 30.8572C27.7871 30.8572 30.8571 27.7871 30.8571 24C30.8571 20.2129 27.7871 17.1429 24 17.1429C20.2129 17.1429 17.1428 20.2129 17.1428 24C17.1428 27.7871 20.2129 30.8572 24 30.8572Z" stroke="white" stroke-width="2" stroke-miterlimit="5"/>
</svg>
