<svg width="64" height="64" fill="none" xmlns="http://www.w3.org/2000/svg"><path d="M32 59.429c15.148 0 27.429-12.28 27.429-27.429 0-15.148-12.28-27.428-27.429-27.428C16.852 4.572 4.572 16.852 4.572 32c0 15.148 12.28 27.43 27.428 27.43zm0-48.001v5.143m0 36V47.43M52.571 32H47.43m-36.002 0h5.143m29.978-14.549l-3.635 3.635M17.451 46.549l3.635-3.635m25.463 3.635l-3.635-3.635M17.451 17.451l3.635 3.635" stroke="#111" stroke-width="2" stroke-miterlimit="5"/><path d="M32 41.143a9.143 9.143 0 100-18.286 9.143 9.143 0 000 18.286z" stroke="#111" stroke-width="2" stroke-miterlimit="5"/></svg>