<svg width="328" height="64" viewBox="0 0 328 64" fill="none" xmlns="http://www.w3.org/2000/svg">
<rect width="328" height="64" rx="5" fill="#676767"/>
<rect width="328" height="64" rx="5" fill="#8685EF" fill-opacity="0.8"/>
<path d="M307.68 28.1602L300 35.8402L292.32 28.1602" stroke="white" stroke-width="2" stroke-miterlimit="5"/>
<path d="M74.32 39H69.58V25.3H74.32C76.4267 25.3 77.8667 25.8333 78.64 26.9C79.4133 27.9667 79.8 29.64 79.8 31.92C79.8 33.08 79.72 34.0667 79.56 34.88C79.4133 35.68 79.1467 36.4067 78.76 37.06C78 38.3533 76.52 39 74.32 39ZM77.5 31.92C77.5 30.2667 77.2933 29.0733 76.88 28.34C76.4667 27.6067 75.6133 27.24 74.32 27.24H71.8V37.04H74.32C75.64 37.04 76.52 36.5533 76.96 35.58C77.1733 35.0867 77.3133 34.56 77.38 34C77.46 33.44 77.5 32.7467 77.5 31.92ZM83.4725 30.08C84.1658 29.2133 85.3125 28.78 86.9125 28.78C88.5125 28.78 89.6525 29.2133 90.3325 30.08C91.0258 30.9467 91.3725 32.2467 91.3725 33.98C91.3725 35.7133 91.0392 37.02 90.3725 37.9C89.7058 38.78 88.5525 39.22 86.9125 39.22C85.2725 39.22 84.1192 38.78 83.4525 37.9C82.7858 37.02 82.4525 35.7133 82.4525 33.98C82.4525 32.2467 82.7925 30.9467 83.4725 30.08ZM85.1125 36.58C85.4192 37.1133 86.0192 37.38 86.9125 37.38C87.8058 37.38 88.4058 37.1133 88.7125 36.58C89.0192 36.0467 89.1725 35.1733 89.1725 33.96C89.1725 32.7467 89.0058 31.8867 88.6725 31.38C88.3525 30.8733 87.7658 30.62 86.9125 30.62C86.0592 30.62 85.4658 30.8733 85.1325 31.38C84.8125 31.8867 84.6525 32.7467 84.6525 33.96C84.6525 35.1733 84.8058 36.0467 85.1125 36.58ZM93.558 29H95.698L97.278 37.14H97.678L99.578 29.2H101.818L103.718 37.14H104.118L105.678 29H107.838L105.718 39H102.258L100.698 32.14L99.138 39H95.678L93.558 29ZM112.67 39H110.49V29H112.65V29.62C113.623 29.06 114.543 28.78 115.41 28.78C116.743 28.78 117.65 29.16 118.13 29.92C118.623 30.6667 118.87 31.9067 118.87 33.64V39H116.71V33.7C116.71 32.62 116.59 31.8533 116.35 31.4C116.123 30.9467 115.65 30.72 114.93 30.72C114.25 30.72 113.596 30.8533 112.97 31.12L112.67 31.24V39ZM122.328 39V24.84H124.508V39H122.328ZM128.606 30.08C129.299 29.2133 130.446 28.78 132.046 28.78C133.646 28.78 134.786 29.2133 135.466 30.08C136.159 30.9467 136.506 32.2467 136.506 33.98C136.506 35.7133 136.173 37.02 135.506 37.9C134.839 38.78 133.686 39.22 132.046 39.22C130.406 39.22 129.253 38.78 128.586 37.9C127.919 37.02 127.586 35.7133 127.586 33.98C127.586 32.2467 127.926 30.9467 128.606 30.08ZM130.246 36.58C130.553 37.1133 131.153 37.38 132.046 37.38C132.939 37.38 133.539 37.1133 133.846 36.58C134.153 36.0467 134.306 35.1733 134.306 33.96C134.306 32.7467 134.139 31.8867 133.806 31.38C133.486 30.8733 132.899 30.62 132.046 30.62C131.193 30.62 130.599 30.8733 130.266 31.38C129.946 31.8867 129.786 32.7467 129.786 33.96C129.786 35.1733 129.939 36.0467 130.246 36.58ZM146.872 32.08V36.64C146.885 36.9333 146.958 37.1533 147.092 37.3C147.238 37.4333 147.458 37.52 147.752 37.56L147.692 39.22C146.545 39.22 145.658 38.9733 145.032 38.48C143.965 38.9733 142.892 39.22 141.812 39.22C139.825 39.22 138.832 38.16 138.832 36.04C138.832 35.0267 139.098 34.2933 139.632 33.84C140.178 33.3867 141.012 33.1133 142.132 33.02L144.712 32.8V32.08C144.712 31.5467 144.592 31.1733 144.352 30.96C144.125 30.7467 143.785 30.64 143.332 30.64C142.478 30.64 141.412 30.6933 140.132 30.8L139.492 30.84L139.412 29.3C140.865 28.9533 142.198 28.78 143.412 28.78C144.638 28.78 145.518 29.0467 146.052 29.58C146.598 30.1 146.872 30.9333 146.872 32.08ZM142.392 34.56C141.472 34.64 141.012 35.14 141.012 36.06C141.012 36.98 141.418 37.44 142.232 37.44C142.898 37.44 143.605 37.3333 144.352 37.12L144.712 37V34.34L142.392 34.56ZM158.568 24.84V39H156.408V38.48C155.435 38.9733 154.542 39.22 153.728 39.22C152.422 39.22 151.462 38.8267 150.848 38.04C150.248 37.2533 149.948 35.9333 149.948 34.08C149.948 32.2267 150.282 30.88 150.948 30.04C151.628 29.2 152.682 28.78 154.108 28.78C154.588 28.78 155.348 28.8667 156.388 29.04V24.84H158.568ZM156.048 36.92L156.388 36.78V30.86C155.588 30.7267 154.848 30.66 154.168 30.66C152.822 30.66 152.148 31.78 152.148 34.02C152.148 35.2467 152.302 36.1 152.608 36.58C152.928 37.0467 153.428 37.28 154.108 37.28C154.788 37.28 155.435 37.16 156.048 36.92ZM169.824 30.86V39H167.664V30.86H166.504V29H167.664V28.36C167.664 26.9333 167.87 25.9533 168.284 25.42C168.697 24.8867 169.43 24.62 170.484 24.62L172.644 24.82L172.624 26.6C171.97 26.5733 171.424 26.56 170.984 26.56C170.557 26.56 170.257 26.6933 170.084 26.96C169.91 27.2133 169.824 27.6867 169.824 28.38V29H172.464V30.86H169.824ZM175.34 30.08C176.034 29.2133 177.18 28.78 178.78 28.78C180.38 28.78 181.52 29.2133 182.2 30.08C182.894 30.9467 183.24 32.2467 183.24 33.98C183.24 35.7133 182.907 37.02 182.24 37.9C181.574 38.78 180.42 39.22 178.78 39.22C177.14 39.22 175.987 38.78 175.32 37.9C174.654 37.02 174.32 35.7133 174.32 33.98C174.32 32.2467 174.66 30.9467 175.34 30.08ZM176.98 36.58C177.287 37.1133 177.887 37.38 178.78 37.38C179.674 37.38 180.274 37.1133 180.58 36.58C180.887 36.0467 181.04 35.1733 181.04 33.96C181.04 32.7467 180.874 31.8867 180.54 31.38C180.22 30.8733 179.634 30.62 178.78 30.62C177.927 30.62 177.334 30.8733 177 31.38C176.68 31.8867 176.52 32.7467 176.52 33.96C176.52 35.1733 176.674 36.0467 176.98 36.58ZM186.206 39V29H188.366V30.2C189.499 29.4667 190.633 28.9933 191.766 28.78V30.96C190.619 31.1867 189.639 31.48 188.826 31.84L188.386 32.02V39H186.206ZM198.587 25.3H200.927L202.887 37.08H203.307L205.907 25.34H208.507L211.107 37.08H211.547L213.507 25.3H215.847L213.147 39H209.567L207.207 28.02L204.867 39H201.267L198.587 25.3ZM218.45 39V29H220.63V39H218.45ZM218.45 27.3V25H220.63V27.3H218.45ZM226.254 39H224.074V29H226.234V29.62C227.207 29.06 228.127 28.78 228.994 28.78C230.327 28.78 231.234 29.16 231.714 29.92C232.207 30.6667 232.454 31.9067 232.454 33.64V39H230.294V33.7C230.294 32.62 230.174 31.8533 229.934 31.4C229.707 30.9467 229.234 30.72 228.514 30.72C227.834 30.72 227.181 30.8533 226.554 31.12L226.254 31.24V39ZM243.952 24.84V39H241.792V38.48C240.819 38.9733 239.925 39.22 239.112 39.22C237.805 39.22 236.845 38.8267 236.232 38.04C235.632 37.2533 235.332 35.9333 235.332 34.08C235.332 32.2267 235.665 30.88 236.332 30.04C237.012 29.2 238.065 28.78 239.492 28.78C239.972 28.78 240.732 28.8667 241.772 29.04V24.84H243.952ZM241.432 36.92L241.772 36.78V30.86C240.972 30.7267 240.232 30.66 239.552 30.66C238.205 30.66 237.532 31.78 237.532 34.02C237.532 35.2467 237.685 36.1 237.992 36.58C238.312 37.0467 238.812 37.28 239.492 37.28C240.172 37.28 240.819 37.16 241.432 36.92ZM247.933 30.08C248.626 29.2133 249.773 28.78 251.373 28.78C252.973 28.78 254.113 29.2133 254.793 30.08C255.486 30.9467 255.833 32.2467 255.833 33.98C255.833 35.7133 255.499 37.02 254.833 37.9C254.166 38.78 253.013 39.22 251.373 39.22C249.733 39.22 248.579 38.78 247.913 37.9C247.246 37.02 246.913 35.7133 246.913 33.98C246.913 32.2467 247.253 30.9467 247.933 30.08ZM249.573 36.58C249.879 37.1133 250.479 37.38 251.373 37.38C252.266 37.38 252.866 37.1133 253.173 36.58C253.479 36.0467 253.633 35.1733 253.633 33.96C253.633 32.7467 253.466 31.8867 253.133 31.38C252.813 30.8733 252.226 30.62 251.373 30.62C250.519 30.62 249.926 30.8733 249.593 31.38C249.273 31.8867 249.113 32.7467 249.113 33.96C249.113 35.1733 249.266 36.0467 249.573 36.58ZM258.018 29H260.158L261.738 37.14H262.138L264.038 29.2H266.278L268.178 37.14H268.578L270.138 29H272.298L270.178 39H266.718L265.158 32.14L263.598 39H260.138L258.018 29ZM281.89 31.06C280.316 30.8467 279.176 30.74 278.47 30.74C277.763 30.74 277.27 30.8267 276.99 31C276.723 31.16 276.59 31.42 276.59 31.78C276.59 32.14 276.736 32.3933 277.03 32.54C277.336 32.6867 278.043 32.86 279.15 33.06C280.27 33.2467 281.063 33.5467 281.53 33.96C281.996 34.3733 282.23 35.1067 282.23 36.16C282.23 37.2133 281.89 37.9867 281.21 38.48C280.543 38.9733 279.563 39.22 278.27 39.22C277.456 39.22 276.43 39.1067 275.19 38.88L274.57 38.78L274.65 36.96C276.25 37.1733 277.403 37.28 278.11 37.28C278.816 37.28 279.316 37.1933 279.61 37.02C279.916 36.8467 280.07 36.56 280.07 36.16C280.07 35.76 279.923 35.4867 279.63 35.34C279.35 35.18 278.663 35.0133 277.57 34.84C276.49 34.6533 275.696 34.3667 275.19 33.98C274.683 33.5933 274.43 32.8867 274.43 31.86C274.43 30.8333 274.776 30.0667 275.47 29.56C276.176 29.0533 277.076 28.8 278.17 28.8C279.023 28.8 280.07 28.9067 281.31 29.12L281.93 29.24L281.89 31.06Z" fill="white"/>
<path d="M16 17.6808L32.3466 15.4546L32.3537 31.2222L16.0149 31.3152L16 17.6808Z" fill="white"/>
<path d="M34.3203 15.1633L55.9945 12V31.0216L34.3203 31.1937V15.1633Z" fill="white"/>
<path d="M32.3388 33.0385L32.3515 48.8198L16.0127 46.5735L16.0118 32.9326L32.3388 33.0385Z" fill="white"/>
<path d="M56 33.1873L55.9949 52.1233L34.3207 49.0642L34.2903 33.1519L56 33.1873Z" fill="white"/>
</svg>
