<svg width="56" height="56" viewBox="0 0 56 56" fill="none" xmlns="http://www.w3.org/2000/svg">
<path d="M22.5 32L9.39999 31.19C8.44987 31.138 7.54941 30.749 6.86027 30.0929C6.17114 29.4367 5.73848 28.5564 5.63999 27.61L4.46999 16.42C4.41091 15.8605 4.47052 15.2949 4.64491 14.76C4.8193 14.2251 5.10456 13.7331 5.48205 13.3159C5.85955 12.8988 6.32079 12.566 6.83565 12.3392C7.35051 12.1125 7.90742 11.9969 8.46999 12H47.56C48.1226 11.9969 48.6795 12.1125 49.1943 12.3392C49.7092 12.566 50.1704 12.8988 50.5479 13.3159C50.9254 13.7331 51.2107 14.2251 51.3851 14.76C51.5595 15.2949 51.6191 15.8605 51.56 16.42L50.36 27.61C50.2615 28.5564 49.8288 29.4367 49.1397 30.0929C48.4506 30.749 47.5501 31.138 46.6 31.19L33.5 32" stroke="white" stroke-width="2"/>
<path d="M48 30.92V44C48 45.0608 47.5786 46.0783 46.8284 46.8284C46.0783 47.5785 45.0609 48 44 48H12C10.9391 48 9.92172 47.5785 9.17157 46.8284C8.42143 46.0783 8 45.0608 8 44V30.85" stroke="white" stroke-width="2"/>
<path d="M23 12V10C23 9.46957 23.2107 8.96086 23.5858 8.58579C23.9609 8.21071 24.4696 8 25 8H31C31.5304 8 32.0391 8.21071 32.4142 8.58579C32.7893 8.96086 33 9.46957 33 10V12" stroke="white" stroke-width="2"/>
<path d="M30.75 29.25H25.25C23.7312 29.25 22.5 30.4812 22.5 32C22.5 33.5188 23.7312 34.75 25.25 34.75H30.75C32.2688 34.75 33.5 33.5188 33.5 32C33.5 30.4812 32.2688 29.25 30.75 29.25Z" stroke="white" stroke-width="2"/>
</svg>
