<svg width="48" height="48" viewBox="0 0 48 48" fill="none" xmlns="http://www.w3.org/2000/svg">
<path d="M33 25.5L28.5 30L24 25.5L19.5 30L15 25.5" stroke="white" stroke-width="2"/>
<path d="M17.6325 20.6325C18.4686 19.7935 19.4622 19.1277 20.5561 18.6735C21.6501 18.2192 22.823 17.9854 24.0075 17.9854C25.192 17.9854 26.3649 18.2192 27.4589 18.6735C28.5528 19.1277 29.5464 19.7935 30.3825 20.6325" stroke="white" stroke-width="2"/>
<path d="M24 42C33.9411 42 42 33.9411 42 24C42 14.0589 33.9411 6 24 6C14.0589 6 6 14.0589 6 24C6 33.9411 14.0589 42 24 42Z" stroke="white" stroke-width="2"/>
</svg>
