<svg width="48" height="48" viewBox="0 0 48 48" fill="none" xmlns="http://www.w3.org/2000/svg">
<path d="M24 36C32.2843 36 39 29.2843 39 21C39 12.7157 32.2843 6 24 6C15.7157 6 9 12.7157 9 21C9 29.2843 15.7157 36 24 36Z" stroke="white" stroke-width="2" stroke-miterlimit="5"/>
<path d="M6 36V42H42V36" stroke="white" stroke-width="2" stroke-miterlimit="5"/>
<path d="M22.5 21C21.7044 21 20.9413 20.6839 20.3787 20.1213C19.8161 19.5587 19.5 18.7956 19.5 18C19.5 17.2044 19.8161 16.4413 20.3787 15.8787C20.9413 15.3161 21.7044 15 22.5 15" stroke="white" stroke-width="2" stroke-miterlimit="5"/>
<path d="M25.5 21C26.2956 21 27.0587 21.3161 27.6213 21.8787C28.1839 22.4413 28.5 23.2044 28.5 24C28.5 24.7956 28.1839 25.5587 27.6213 26.1213C27.0587 26.6839 26.2956 27 25.5 27" stroke="white" stroke-width="2" stroke-miterlimit="5"/>
<path d="M24 12V15" stroke="white" stroke-width="2" stroke-miterlimit="5"/>
<path d="M24 27V30" stroke="white" stroke-width="2" stroke-miterlimit="5"/>
<path d="M22.5 21H25.5" stroke="white" stroke-width="2" stroke-miterlimit="5"/>
<path d="M28.5 16.5C28.5 16.5 27 15 25.5 15H22.5" stroke="white" stroke-width="2" stroke-miterlimit="5"/>
<path d="M19.5 25.5C19.5 25.5 21 27 22.5 27H25.5" stroke="white" stroke-width="2" stroke-miterlimit="5"/>
</svg>
