<svg width="32" height="32" viewBox="0 0 32 32" fill="none" xmlns="http://www.w3.org/2000/svg">
<path d="M9.14287 13.7143V9.14285C9.14287 7.32422 9.86532 5.58008 11.1513 4.29412C12.4372 3.00815 14.1814 2.28571 16 2.28571C17.8186 2.28571 19.5628 3.00815 20.8487 4.29412C22.1347 5.58008 22.8572 7.32422 22.8572 9.14285V13.7143H6.85716C6.25095 13.7143 5.66957 13.9551 5.24091 14.3837C4.81226 14.8124 4.57144 15.3938 4.57144 16V27.4286C4.57144 28.0348 4.81226 28.6162 5.24091 29.0448C5.66957 29.4735 6.25095 29.7143 6.85716 29.7143H25.1429C25.7491 29.7143 26.3305 29.4735 26.7591 29.0448C27.1878 28.6162 27.4286 28.0348 27.4286 27.4286V20.5714" stroke="white" stroke-width="2" stroke-miterlimit="5"/>
<path d="M29.7143 13.7143L16 25.1429L11.4286 20.5714" stroke="white" stroke-width="2" stroke-miterlimit="5"/>
</svg>
