<svg width="48" height="48" viewBox="0 0 48 48" fill="none" xmlns="http://www.w3.org/2000/svg">
<path d="M36 34.2858C32.534 34.2862 29.1156 33.4782 26.0166 31.926C22.9175 30.3738 20.2233 28.1201 18.1479 25.3441C16.0726 22.568 14.6733 19.3462 14.0614 15.9346C13.4494 12.523 13.6417 9.01573 14.6228 5.69147C11.7361 7.16932 9.23966 9.30875 7.33722 11.9352C5.43478 14.5616 4.18025 17.6006 3.676 20.8042C3.17175 24.0078 3.43207 27.2853 4.4357 30.3691C5.43934 33.4529 7.15786 36.2558 9.45105 38.549C11.7442 40.8422 14.5471 42.5607 17.6309 43.5643C20.7148 44.568 23.9922 44.8283 27.1958 44.324C30.3994 43.8198 33.4384 42.5652 36.0649 40.6628C38.6913 38.7604 40.8307 36.2639 42.3086 33.3772C40.2595 33.978 38.1353 34.2839 36 34.2858V34.2858Z" stroke="white" stroke-width="2" stroke-miterlimit="5"/>
</svg>
