<svg width="32" height="32" viewBox="0 0 32 32" fill="none" xmlns="http://www.w3.org/2000/svg">
<path d="M29.7143 16C29.7145 15.2553 29.6533 14.5118 29.5314 13.7772L25.1429 12.2115L27.1429 8.00002C26.27 6.79115 25.2089 5.73007 24 4.85716L19.7886 6.85716L18.2229 2.46859C16.751 2.22474 15.249 2.22474 13.7772 2.46859L12.2115 6.85716L8.00002 4.85716C6.79115 5.73007 5.73007 6.79115 4.85716 8.00002L6.85716 12.2115L2.46859 13.7772C2.22474 15.249 2.22474 16.751 2.46859 18.2229L6.85716 19.7886L4.85716 24C5.73007 25.2089 6.79115 26.27 8.00002 27.1429L12.2115 25.1429L13.7772 29.5314C15.249 29.7753 16.751 29.7753 18.2229 29.5314L19.7886 25.1429L24 27.1429C25.2089 26.27 26.27 25.2089 27.1429 24L25.1429 19.7886L29.5314 18.2229C29.6533 17.4882 29.7145 16.7447 29.7143 16V16Z" stroke="white" stroke-width="2" stroke-miterlimit="5"/>
<path d="M16 18.2857C17.2624 18.2857 18.2857 17.2624 18.2857 16C18.2857 14.7376 17.2624 13.7143 16 13.7143C14.7376 13.7143 13.7143 14.7376 13.7143 16C13.7143 17.2624 14.7376 18.2857 16 18.2857Z" stroke="white" stroke-width="2" stroke-miterlimit="5"/>
</svg>
