<svg width="32" height="32" viewBox="0 0 32 32" fill="none" xmlns="http://www.w3.org/2000/svg">
<path d="M27.4286 6.85715L25.1428 29.7143H6.85713L4.57141 6.85715" stroke="white" stroke-width="2" stroke-miterlimit="5"/>
<path d="M9.14282 6.85713V4.60571C9.14282 4.30104 9.20283 3.99936 9.31942 3.71788C9.43601 3.4364 9.6069 3.18065 9.82233 2.96522C10.2574 2.53013 10.8475 2.28571 11.4628 2.28571H20.5371C20.8418 2.28571 21.1435 2.34571 21.4249 2.4623C21.7064 2.5789 21.9622 2.74979 22.1776 2.96522C22.393 3.18065 22.5639 3.4364 22.6805 3.71788C22.7971 3.99936 22.8571 4.30104 22.8571 4.60571V6.85713" stroke="white" stroke-width="2" stroke-miterlimit="5"/>
<path d="M2.28577 6.85715H29.7143" stroke="white" stroke-width="2" stroke-miterlimit="5"/>
<path d="M11.4286 13.7143L20.5714 22.8572" stroke="white" stroke-width="2" stroke-miterlimit="5"/>
<path d="M20.5714 13.7143L11.4286 22.8572" stroke="white" stroke-width="2" stroke-miterlimit="5"/>
</svg>
