<svg width="48" height="48" viewBox="0 0 48 48" fill="none" xmlns="http://www.w3.org/2000/svg">
<path d="M6 27H12V39H6" stroke="white" stroke-width="2"/>
<path d="M12 28.5H18C18.7956 28.5 19.5587 28.8161 20.1213 29.3787C20.6839 29.9413 21 30.7044 21 31.5H27.75C28.3467 31.5 28.919 31.7371 29.341 32.159C29.7629 32.581 30 33.1533 30 33.75C30 34.3467 29.7629 34.919 29.341 35.341C28.919 35.7629 28.3467 36 27.75 36H19.5" stroke="white" stroke-width="2"/>
<path d="M30 33.6L34.9725 30.6C35.6528 30.1947 36.4306 29.9821 37.2225 29.985C37.792 29.9844 38.356 30.0961 38.8824 30.3136C39.4087 30.531 39.887 30.8501 40.29 31.2525L42 33L28.5525 41.07C27.5346 41.6786 26.3709 42 25.185 42C24.401 41.9994 23.6235 41.8571 22.89 41.58L12 37.5" stroke="white" stroke-width="2"/>
<path d="M28.5 27C34.299 27 39 22.299 39 16.5C39 10.701 34.299 6 28.5 6C22.701 6 18 10.701 18 16.5C18 22.299 22.701 27 28.5 27Z" stroke="white" stroke-width="2"/>
<path d="M27.2475 16.5C26.6078 16.465 26.0059 16.1862 25.5654 15.7209C25.125 15.2557 24.8795 14.6394 24.8795 13.9987C24.8795 13.3581 25.125 12.7418 25.5654 12.2766C26.0059 11.8113 26.6078 11.5325 27.2475 11.4975" stroke="white" stroke-width="2"/>
<path d="M29.7525 16.5C30.3922 16.535 30.9941 16.8138 31.4346 17.2791C31.875 17.7443 32.1205 18.3606 32.1205 19.0012C32.1205 19.6419 31.875 20.2582 31.4346 20.7234C30.9941 21.1887 30.3922 21.4675 29.7525 21.5025" stroke="white" stroke-width="2"/>
<path d="M28.5 9V11.4975" stroke="white" stroke-width="2"/>
<path d="M28.5 21.5025V24" stroke="white" stroke-width="2"/>
<path d="M27.2475 16.5H29.7525" stroke="white" stroke-width="2"/>
<path d="M32.25 12.75C32.25 12.75 30.9975 11.4975 29.7525 11.4975H27.2475" stroke="white" stroke-width="2"/>
<path d="M24.75 20.25C24.75 20.25 26.0025 21.5025 27.2475 21.5025H29.7525" stroke="white" stroke-width="2"/>
</svg>
