<svg width="64" height="64" fill="none" xmlns="http://www.w3.org/2000/svg"><path d="M4.572 36.572h9.142v18.285H4.572m9.142-16h9.143a4.571 4.571 0 014.572 4.572h10.285a3.428 3.428 0 110 6.857H25.143" stroke="#111" stroke-width="2"/><path d="M41.143 46.629l7.577-4.572a6.651 6.651 0 013.429-.937 6.605 6.605 0 014.674 1.931l2.606 2.663-20.492 12.297a10 10 0 01-5.131 1.417 9.92 9.92 0 01-3.497-.64l-16.595-6.217m25.143-15.999c8.837 0 16-7.164 16-16 0-8.837-7.163-16-16-16-8.836 0-16 7.163-16 16 0 8.836 7.164 16 16 16zm-1.908-16.001a3.817 3.817 0 010-7.623m3.817 7.624a3.817 3.817 0 010 7.622M38.857 9.143v3.805m0 15.246V32m-1.908-11.428h3.817" stroke="#111" stroke-width="2"/><path d="M44.571 14.857s-1.908-1.909-3.805-1.909h-3.817m-3.806 13.338s1.908 1.908 3.806 1.908h3.817" stroke="#111" stroke-width="2"/></svg>