<svg width="64" height="64" fill="none" xmlns="http://www.w3.org/2000/svg"><path d="M25.714 36.571l-14.971-.925a4.572 4.572 0 01-4.297-4.092L5.109 18.766a4.571 4.571 0 014.571-5.052h44.674a4.57 4.57 0 014.572 5.052l-1.372 12.788a4.571 4.571 0 01-4.297 4.092l-14.971.925" stroke="#111" stroke-width="2"/><path d="M54.857 35.337v14.949a4.571 4.571 0 01-4.571 4.571H13.714a4.571 4.571 0 01-4.571-4.571V35.257m17.143-21.543v-2.286a2.286 2.286 0 012.285-2.285h6.857a2.286 2.286 0 012.286 2.285v2.286" stroke="#111" stroke-width="2"/><path d="M35.143 33.428h-6.286a3.143 3.143 0 000 6.286h6.286a3.143 3.143 0 100-6.285z" stroke="#111" stroke-width="2"/></svg>