<svg width="64" height="64" fill="none" xmlns="http://www.w3.org/2000/svg"><path d="M54.857 18.286v-4.572a4.571 4.571 0 00-4.571-4.571H9.143a4.571 4.571 0 00-4.571 4.571v36.572a4.571 4.571 0 004.571 4.571h41.143a4.571 4.571 0 004.571-4.571v-4.572" stroke="#111" stroke-width="2"/><path d="M36.572 18.286h20.57a2.286 2.286 0 012.287 2.285v22.857a2.285 2.285 0 01-2.286 2.286H36.57a13.714 13.714 0 110-27.428v0z" stroke="#111" stroke-width="2"/><path d="M36.571 36.571a4.571 4.571 0 100-9.143 4.571 4.571 0 000 9.143z" stroke="#111" stroke-width="2"/></svg>