<svg width="64" height="64" viewBox="0 0 64 64" fill="none" xmlns="http://www.w3.org/2000/svg">
<path d="M44 34L38 40L32 34L26 40L20 34" stroke="#111111" stroke-width="2"/>
<path d="M23.51 27.5099C24.6249 26.3912 25.9496 25.5036 27.4082 24.8979C28.8668 24.2922 30.4306 23.9805 32.01 23.9805C33.5894 23.9805 35.1532 24.2922 36.6118 24.8979C38.0705 25.5036 39.3952 26.3912 40.51 27.5099" stroke="#111111" stroke-width="2"/>
<path d="M32 56C45.2548 56 56 45.2548 56 32C56 18.7452 45.2548 8 32 8C18.7452 8 8 18.7452 8 32C8 45.2548 18.7452 56 32 56Z" stroke="#111111" stroke-width="2"/>
</svg>
