<svg width="33" height="24" fill="none" xmlns="http://www.w3.org/2000/svg"><rect width="33" height="24" rx="2" fill="#fff"/><mask id="a" style="mask-type:luminance" maskUnits="userSpaceOnUse" x="0" y="0" width="33" height="24"><rect width="33" height="24" rx="2" fill="#fff"/></mask><g mask="url(#a)"><path fill-rule="evenodd" clip-rule="evenodd" d="M33 0H0v1.6h33V0zm0 3.2H0v1.6h33V3.2zM0 6.4h33V8H0V6.4zm33 3.2H0v1.6h33V9.6zM0 12.8h33v1.6H0v-1.6zM33 16H0v1.6h33V16zM0 19.2h33v1.6H0v-1.6zm33 3.2H0V24h33v-1.6z" fill="#D02F44"/><path fill="#46467F" d="M0 0h14.143v11.2H0z"/><g filter="url(#filter0_d_1533_6436)"><path fill-rule="evenodd" clip-rule="evenodd" d="M3.143 2.4c0 .442-.352.8-.786.8a.793.793 0 01-.786-.8c0-.442.352-.8.786-.8.434 0 .786.358.786.8zm3.143 0c0 .442-.352.8-.786.8a.793.793 0 01-.786-.8c0-.442.352-.8.786-.8.434 0 .786.358.786.8zm2.357.8a.793.793 0 00.786-.8c0-.442-.352-.8-.786-.8a.793.793 0 00-.786.8c0 .442.352.8.786.8zm3.928-.8c0 .442-.351.8-.785.8A.793.793 0 0111 2.4c0-.442.352-.8.786-.8.434 0 .785.358.785.8zM3.93 4.8a.793.793 0 00.785-.8c0-.442-.352-.8-.785-.8a.793.793 0 00-.786.8c0 .442.352.8.786.8zM7.857 4c0 .442-.352.8-.786.8a.793.793 0 01-.785-.8c0-.442.351-.8.785-.8.434 0 .786.358.786.8zm2.357.8A.793.793 0 0011 4c0-.442-.352-.8-.786-.8a.793.793 0 00-.785.8c0 .442.351.8.785.8zm2.357.8c0 .442-.351.8-.785.8A.793.793 0 0111 5.6c0-.442.352-.8.786-.8.434 0 .785.358.785.8zm-3.928.8a.793.793 0 00.786-.8c0-.442-.352-.8-.786-.8a.793.793 0 00-.786.8c0 .442.352.8.786.8zm-2.357-.8c0 .442-.352.8-.786.8a.793.793 0 01-.786-.8c0-.442.352-.8.786-.8.434 0 .786.358.786.8zm-3.929.8a.793.793 0 00.786-.8c0-.442-.352-.8-.786-.8a.793.793 0 00-.786.8c0 .442.352.8.786.8zm2.357.8c0 .442-.352.8-.785.8a.793.793 0 01-.786-.8c0-.442.352-.8.786-.8.433 0 .785.358.785.8zm2.357.8a.793.793 0 00.786-.8c0-.442-.352-.8-.786-.8a.793.793 0 00-.785.8c0 .442.351.8.785.8zM11 7.2c0 .442-.352.8-.786.8a.793.793 0 01-.785-.8c0-.442.351-.8.785-.8.434 0 .786.358.786.8zm.786 2.4a.793.793 0 00.785-.8c0-.442-.351-.8-.785-.8a.793.793 0 00-.786.8c0 .442.352.8.786.8zm-2.357-.8c0 .442-.352.8-.786.8a.793.793 0 01-.786-.8c0-.442.352-.8.786-.8.434 0 .786.358.786.8zM5.5 9.6a.793.793 0 00.786-.8c0-.442-.352-.8-.786-.8a.793.793 0 00-.786.8c0 .442.352.8.786.8zm-2.357-.8c0 .442-.352.8-.786.8a.793.793 0 01-.786-.8c0-.442.352-.8.786-.8.434 0 .786.358.786.8z" fill="url(#paint0_linear_1533_6436)"/></g></g><defs><linearGradient id="paint0_linear_1533_6436" x1="1.571" y1="1.6" x2="1.571" y2="9.6" gradientUnits="userSpaceOnUse"><stop stop-color="#fff"/><stop offset="1" stop-color="#F0F0F0"/></linearGradient><filter id="filter0_d_1533_6436" x="1.571" y="1.6" width="11" height="9" filterUnits="userSpaceOnUse" color-interpolation-filters="sRGB"><feFlood flood-opacity="0" result="BackgroundImageFix"/><feColorMatrix in="SourceAlpha" values="0 0 0 0 0 0 0 0 0 0 0 0 0 0 0 0 0 0 127 0" result="hardAlpha"/><feOffset dy="1"/><feColorMatrix values="0 0 0 0 0 0 0 0 0 0 0 0 0 0 0 0 0 0 0.06 0"/><feBlend in2="BackgroundImageFix" result="effect1_dropShadow_1533_6436"/><feBlend in="SourceGraphic" in2="effect1_dropShadow_1533_6436" result="shape"/></filter></defs></svg>