<svg width="122" height="48" fill="none" xmlns="http://www.w3.org/2000/svg"><path d="M.615 35.12h2.32l1.344 8.992h.24L6.47 35.12h2.56l1.952 8.992h.24l1.344-8.992h2.32L12.807 46H9.463L7.75 37.728 6.039 46H2.695L.615 35.12zM28.12 46l2.448-10.88h4.192L37.21 46h-2.208l-.432-1.968h-3.808L30.33 46h-2.208zm4.16-9.056l-1.104 5.168h2.976l-1.104-5.168h-.768zM57.811 46h-6.193V35.12h2.208v8.928h3.984V46zm20.506 0h-6.192V35.12h2.208v8.928h3.984V46zm14.315 0V35.12h7.04v1.92H94.84v2.544h3.872v1.888H94.84v2.608h4.832V46h-7.04zm20.843-8.928V35.12h8v1.952h-2.88V46h-2.208v-8.928h-2.912z" fill="#fff"/><path fill="#fff" stroke="#fff" d="M118.5.5h3v23h-3z"/><path d="M100 20.183L93 7.738v-3.92l7 12.444v3.92zm13-16.365l-7 12.444v3.92l7-12.444v-3.92z" fill="#fff" stroke="#fff" stroke-width="2"/><path fill="#fff" stroke="#fff" d="M84.5.5h3v23h-3zm-28 0h3v23h-3zm8 23v-3h11v3zm0-10v-3h11v3zm0-10v-3h11v3zm-36-3h3v23h-3zm8 23v-3h11v3zM.5.5h3v23h-3zm8 3v-3h11v3zm0 10v-3h11v3z"/></svg>