<svg width="216" height="64" viewBox="0 0 216 64" fill="none" xmlns="http://www.w3.org/2000/svg">
<rect width="216" height="64" rx="5" fill="#676767"/>
<rect width="216" height="64" rx="5" fill="#8685EF" fill-opacity="0.8"/>
<path d="M142.837 29.185V32.8506H140.539V35.2545H142.837V43.4225C142.837 46.2115 144.098 47.3271 147.273 47.3271C147.83 47.3271 148.362 47.2607 148.827 47.181V44.8037C148.428 44.8435 148.176 44.8701 147.737 44.8701C146.316 44.8701 145.692 44.206 145.692 42.692V35.2545H148.827V32.8506H145.692V29.185H142.837Z" fill="white"/>
<path d="M156.913 47.5264C161.136 47.5264 163.726 44.6975 163.726 40.0092C163.726 35.3475 161.123 32.5053 156.913 32.5053C152.689 32.5053 150.086 35.3475 150.086 40.0092C150.086 44.6975 152.676 47.5264 156.913 47.5264ZM156.913 44.9896C154.429 44.9896 153.035 43.1701 153.035 40.0092C153.035 36.8748 154.429 35.042 156.913 35.042C159.383 35.042 160.791 36.8748 160.791 40.0092C160.791 43.1568 159.383 44.9896 156.913 44.9896Z" fill="white"/>
<path d="M165.942 47.2474H168.797V38.7076C168.797 36.6756 170.325 35.3076 172.489 35.3076C172.994 35.3076 173.844 35.4006 174.083 35.4803V32.6646C173.778 32.585 173.233 32.5451 172.808 32.5451C170.922 32.5451 169.315 33.581 168.904 35.0021H168.691V32.7842H165.942V47.2474Z" fill="white"/>
<path d="M181.173 34.9357C183.285 34.9357 184.666 36.41 184.733 38.681H177.428C177.587 36.4232 179.062 34.9357 181.173 34.9357ZM184.719 43.3428C184.188 44.4717 183.006 45.0959 181.28 45.0959C178.995 45.0959 177.521 43.4889 177.428 40.9521V40.7928H187.641V39.7967C187.641 35.2545 185.211 32.5053 181.187 32.5053C177.109 32.5053 174.519 35.4404 174.519 40.0623C174.519 44.6842 177.056 47.5264 181.2 47.5264C184.507 47.5264 186.818 45.9326 187.469 43.3428H184.719Z" fill="white"/>
<path d="M124.111 41.9064C124.331 45.4579 127.291 47.7292 131.696 47.7292C136.404 47.7292 139.35 45.3478 139.35 41.5485C139.35 38.5613 137.67 36.9095 133.595 35.9596L131.407 35.4228C128.819 34.8171 127.773 34.0049 127.773 32.5871C127.773 30.7975 129.397 29.6274 131.833 29.6274C134.146 29.6274 135.743 30.77 136.032 32.6008H139.033C138.854 29.2558 135.908 26.9019 131.875 26.9019C127.539 26.9019 124.648 29.2558 124.648 32.7935C124.648 35.7119 126.286 37.4463 129.879 38.286L132.439 38.9055C135.068 39.5249 136.225 40.4335 136.225 41.9477C136.225 43.7097 134.408 44.9899 131.93 44.9899C129.273 44.9899 127.428 43.7923 127.167 41.9064H124.111Z" fill="white"/>
<path d="M94.5312 32.5451C92.5656 32.5451 90.8656 33.5279 89.989 35.1748H89.7765V32.7842H87.0273V52.0553H89.8828V45.056H90.1086C90.8656 46.5834 92.4992 47.4865 94.5578 47.4865C98.2101 47.4865 100.534 44.6045 100.534 40.0092C100.534 35.4139 98.2101 32.5451 94.5312 32.5451ZM93.7211 44.9232C91.3305 44.9232 89.8297 43.0373 89.8297 40.0225C89.8297 36.9943 91.3305 35.1084 93.7344 35.1084C96.1515 35.1084 97.5992 36.9545 97.5992 40.0092C97.5992 43.0771 96.1515 44.9232 93.7211 44.9232Z" fill="white"/>
<path d="M110.526 32.5451C108.56 32.5451 106.86 33.5279 105.984 35.1748H105.771V32.7842H103.022V52.0553H105.878V45.056H106.103C106.86 46.5834 108.494 47.4865 110.553 47.4865C114.205 47.4865 116.529 44.6045 116.529 40.0092C116.529 35.4139 114.205 32.5451 110.526 32.5451ZM109.716 44.9232C107.325 44.9232 105.825 43.0373 105.825 40.0225C105.825 36.9943 107.325 35.1084 109.729 35.1084C112.146 35.1084 113.594 36.9545 113.594 40.0092C113.594 43.0771 112.146 44.9232 109.716 44.9232Z" fill="white"/>
<path d="M81.9041 47.2474H85.1803L78.0084 27.3837H74.6909L67.519 47.2474H70.6851L72.516 41.9752H80.0871L81.9041 47.2474ZM76.1914 30.9902H76.4254L79.3024 39.3873H73.3006L76.1914 30.9902Z" fill="white"/>
<path d="M69.4371 12.4012V21.9836H72.8969C75.7524 21.9836 77.4059 20.2238 77.4059 17.1625C77.4059 14.1477 75.7391 12.4012 72.8969 12.4012H69.4371ZM70.9246 13.7559H72.7309C74.7164 13.7559 75.8918 15.0176 75.8918 17.1824C75.8918 19.3805 74.7364 20.6289 72.7309 20.6289H70.9246V13.7559Z" fill="white"/>
<path d="M82.47 22.123C84.5817 22.123 85.8767 20.7086 85.8767 18.3645C85.8767 16.0336 84.5751 14.6125 82.47 14.6125C80.3583 14.6125 79.0567 16.0336 79.0567 18.3645C79.0567 20.7086 80.3517 22.123 82.47 22.123ZM82.47 20.8547C81.2282 20.8547 80.531 19.9449 80.531 18.3645C80.531 16.7973 81.2282 15.8809 82.47 15.8809C83.7052 15.8809 84.4091 16.7973 84.4091 18.3645C84.4091 19.9383 83.7052 20.8547 82.47 20.8547Z" fill="white"/>
<path d="M96.9041 14.752H95.4763L94.1881 20.2703H94.0752L92.5877 14.752H91.2197L89.7322 20.2703H89.626L88.331 14.752H86.8834L88.8756 21.9836H90.3431L91.8306 16.6578H91.9435L93.4377 21.9836H94.9185L96.9041 14.752Z" fill="white"/>
<path d="M98.5483 21.9836H99.976V17.7535C99.976 16.6246 100.647 15.9207 101.703 15.9207C102.758 15.9207 103.263 16.4984 103.263 17.6605V21.9836H104.691V17.302C104.691 15.582 103.801 14.6125 102.187 14.6125C101.098 14.6125 100.381 15.0973 100.029 15.9008H99.9229V14.752H98.5483V21.9836Z" fill="white"/>
<path d="M106.939 21.9836H108.367V11.9297H106.939V21.9836Z" fill="white"/>
<path d="M113.737 22.123C115.848 22.123 117.143 20.7086 117.143 18.3645C117.143 16.0336 115.842 14.6125 113.737 14.6125C111.625 14.6125 110.323 16.0336 110.323 18.3645C110.323 20.7086 111.618 22.123 113.737 22.123ZM113.737 20.8547C112.495 20.8547 111.798 19.9449 111.798 18.3645C111.798 16.7973 112.495 15.8809 113.737 15.8809C114.972 15.8809 115.676 16.7973 115.676 18.3645C115.676 19.9383 114.972 20.8547 113.737 20.8547Z" fill="white"/>
<path d="M121.397 20.9012C120.62 20.9012 120.056 20.5227 120.056 19.8719C120.056 19.2344 120.508 18.8957 121.504 18.8293L123.27 18.7164V19.3207C123.27 20.2172 122.473 20.9012 121.397 20.9012ZM121.032 22.1031C121.982 22.1031 122.772 21.6914 123.204 20.9676H123.316V21.9836H124.691V17.043C124.691 15.5156 123.668 14.6125 121.856 14.6125C120.215 14.6125 119.047 15.4094 118.9 16.6512H120.282C120.441 16.1398 120.992 15.8477 121.789 15.8477C122.765 15.8477 123.27 16.2793 123.27 17.043V17.6672L121.311 17.7801C119.591 17.8863 118.622 18.6367 118.622 19.9383C118.622 21.2598 119.638 22.1031 121.032 22.1031Z" fill="white"/>
<path d="M129.536 22.1031C130.532 22.1031 131.376 21.6316 131.807 20.8414H131.92V21.9836H133.288V11.9297H131.86V15.9008H131.754C131.362 15.1039 130.526 14.6324 129.536 14.6324C127.71 14.6324 126.535 16.0801 126.535 18.3645C126.535 20.6555 127.697 22.1031 129.536 22.1031ZM129.941 15.9141C131.136 15.9141 131.887 16.8637 131.887 18.3711C131.887 19.8852 131.143 20.8215 129.941 20.8215C128.733 20.8215 128.009 19.8984 128.009 18.3645C128.009 16.8438 128.739 15.9141 129.941 15.9141Z" fill="white"/>
<path d="M142.546 22.123C144.658 22.123 145.953 20.7086 145.953 18.3645C145.953 16.0336 144.651 14.6125 142.546 14.6125C140.435 14.6125 139.133 16.0336 139.133 18.3645C139.133 20.7086 140.428 22.123 142.546 22.123ZM142.546 20.8547C141.305 20.8547 140.607 19.9449 140.607 18.3645C140.607 16.7973 141.305 15.8809 142.546 15.8809C143.782 15.8809 144.485 16.7973 144.485 18.3645C144.485 19.9383 143.782 20.8547 142.546 20.8547Z" fill="white"/>
<path d="M147.843 21.9836H149.271V17.7535C149.271 16.6246 149.941 15.9207 150.997 15.9207C152.053 15.9207 152.558 16.4984 152.558 17.6605V21.9836H153.986V17.302C153.986 15.582 153.096 14.6125 151.482 14.6125C150.393 14.6125 149.676 15.0973 149.324 15.9008H149.218V14.752H147.843V21.9836Z" fill="white"/>
<path d="M160.561 12.9523V14.7852H159.412V15.9871H160.561V20.0711C160.561 21.4656 161.192 22.0234 162.779 22.0234C163.058 22.0234 163.324 21.9902 163.556 21.9504V20.7617C163.357 20.7816 163.231 20.7949 163.011 20.7949C162.301 20.7949 161.989 20.4629 161.989 19.7059V15.9871H163.556V14.7852H161.989V12.9523H160.561Z" fill="white"/>
<path d="M165.473 21.9836H166.9V17.7602C166.9 16.6645 167.551 15.9273 168.72 15.9273C169.729 15.9273 170.267 16.5117 170.267 17.6672V21.9836H171.695V17.3152C171.695 15.5953 170.745 14.6191 169.205 14.6191C168.115 14.6191 167.352 15.1039 167 15.9141H166.887V11.9297H165.473V21.9836Z" fill="white"/>
<path d="M176.845 15.8277C177.901 15.8277 178.592 16.5648 178.625 17.7004H174.973C175.052 16.5715 175.789 15.8277 176.845 15.8277ZM178.618 20.0313C178.353 20.5957 177.762 20.9078 176.898 20.9078C175.756 20.9078 175.019 20.1043 174.973 18.8359V18.7563H180.079V18.2582C180.079 15.9871 178.864 14.6125 176.852 14.6125C174.813 14.6125 173.518 16.0801 173.518 18.391C173.518 20.702 174.787 22.123 176.859 22.123C178.512 22.123 179.668 21.3262 179.993 20.0313H178.618Z" fill="white"/>
<path d="M52.0257 30.9451C52.0603 28.2555 53.5048 25.7105 55.7962 24.3018C54.3506 22.2373 51.9294 20.9283 49.4103 20.8495C46.7235 20.5675 44.1188 22.4572 42.7497 22.4572C41.354 22.4572 39.246 20.8775 36.9761 20.9242C34.0173 21.0198 31.2589 22.702 29.8194 25.2888C26.725 30.6463 29.0331 38.5199 31.9973 42.8505C33.4804 44.9711 35.2136 47.3398 37.4815 47.2558C39.7008 47.1637 40.5297 45.8406 43.2086 45.8406C45.8626 45.8406 46.6402 47.2558 48.9542 47.2024C51.3356 47.1637 52.836 45.0724 54.267 42.9318C55.3326 41.4208 56.1525 39.7508 56.6965 37.9837C53.8979 36.8001 52.0289 33.9837 52.0257 30.9451Z" fill="white"/>
<path d="M47.655 18.0015C48.9535 16.4428 49.5931 14.4393 49.4382 12.4165C47.4545 12.6249 45.6221 13.573 44.3061 15.0719C43.0193 16.5364 42.3496 18.5046 42.4762 20.4501C44.4606 20.4705 46.4115 19.5481 47.655 18.0015Z" fill="white"/>
</svg>
