<svg width="216" height="64" viewBox="0 0 216 64" fill="none" xmlns="http://www.w3.org/2000/svg">
<g clip-path="url(#clip0_367_3472)">
<rect width="216" height="64" rx="5" fill="#676767"/>
<rect width="216" height="64" rx="5" fill="#8685EF" fill-opacity="0.8"/>
<g style="mix-blend-mode:luminosity">
<path d="M108.381 34.0469C104.618 34.0469 101.55 36.9093 101.55 40.8517C101.55 44.7701 104.618 47.6565 108.381 47.6565C112.146 47.6565 115.213 44.7701 115.213 40.8517C115.211 36.9093 112.144 34.0469 108.381 34.0469ZM108.381 44.9781C106.318 44.9781 104.541 43.2773 104.541 40.8533C104.541 38.4037 106.32 36.7285 108.381 36.7285C110.443 36.7285 112.221 38.4037 112.221 40.8533C112.221 43.2757 110.443 44.9781 108.381 44.9781ZM93.4783 34.0469C89.7151 34.0469 86.6479 36.9093 86.6479 40.8517C86.6479 44.7701 89.7151 47.6565 93.4783 47.6565C97.2431 47.6565 100.31 44.7701 100.31 40.8517C100.31 36.9093 97.2431 34.0469 93.4783 34.0469ZM93.4783 44.9781C91.4159 44.9781 89.6383 43.2773 89.6383 40.8533C89.6383 38.4037 91.4175 36.7285 93.4783 36.7285C95.5407 36.7285 97.3183 38.4037 97.3183 40.8533C97.3199 43.2757 95.5407 44.9781 93.4783 44.9781ZM75.7535 36.1365V39.0229H82.6623C82.4559 40.6469 81.9151 41.8325 81.0895 42.6565C80.0847 43.6613 78.5119 44.7701 75.7535 44.7701C71.5007 44.7701 68.1759 41.3413 68.1759 37.0885C68.1759 32.8357 71.5007 29.4069 75.7535 29.4069C78.0479 29.4069 79.7231 30.3093 80.9599 31.4693L82.9967 29.4325C81.2687 27.7829 78.9759 26.5205 75.7535 26.5205C69.9279 26.5205 65.0303 31.2629 65.0303 37.0885C65.0303 42.9141 69.9279 47.6565 75.7535 47.6565C78.8975 47.6565 81.2703 46.6245 83.1247 44.6917C85.0319 42.7845 85.6255 40.1029 85.6255 37.9381C85.6255 37.2693 85.5743 36.6501 85.4703 36.1349H75.7535V36.1365ZM148.246 38.3781C147.68 36.8581 145.952 34.0469 142.421 34.0469C138.915 34.0469 136.002 36.8053 136.002 40.8517C136.002 44.6661 138.89 47.6565 142.755 47.6565C145.874 47.6565 147.678 45.7493 148.427 44.6405L146.107 43.0933C145.334 44.2277 144.277 44.9749 142.755 44.9749C141.235 44.9749 140.152 44.2789 139.456 42.9125L148.555 39.1493L148.246 38.3781ZM138.966 40.6469C138.89 38.0165 141.003 36.6773 142.525 36.6773C143.71 36.6773 144.715 37.2709 145.051 38.1205L138.966 40.6469ZM131.57 47.2453H134.558V27.2437H131.57V47.2453ZM126.67 35.5685H126.568C125.898 34.7685 124.608 34.0469 122.986 34.0469C119.582 34.0469 116.464 37.0373 116.464 40.8789C116.464 44.6933 119.582 47.6581 122.986 47.6581C124.61 47.6581 125.898 46.9365 126.568 46.1125H126.67V47.0917C126.67 49.6949 125.278 51.0869 123.037 51.0869C121.206 51.0869 120.072 49.7733 119.608 48.6645L117.005 49.7477C117.752 51.5509 119.736 53.7685 123.037 53.7685C126.542 53.7685 129.507 51.7061 129.507 46.6789V34.4613H126.672V35.5685H126.67ZM123.243 44.9781C121.181 44.9781 119.454 43.2501 119.454 40.8789C119.454 38.4805 121.181 36.7285 123.243 36.7285C125.278 36.7285 126.877 38.4805 126.877 40.8789C126.877 43.2501 125.278 44.9781 123.243 44.9781ZM162.253 27.2437H155.099V47.2453H158.083V39.6677H162.251C165.56 39.6677 168.814 37.2725 168.814 33.4565C168.814 29.6405 165.562 27.2437 162.253 27.2437ZM162.33 36.8837H158.083V30.0277H162.33C164.562 30.0277 165.829 31.8757 165.829 33.4565C165.829 35.0053 164.562 36.8837 162.33 36.8837ZM180.781 34.0117C178.619 34.0117 176.381 34.9637 175.454 37.0741L178.104 38.1797C178.67 37.0741 179.726 36.7125 180.832 36.7125C182.376 36.7125 183.946 37.6389 183.971 39.2853V39.4917C183.43 39.1829 182.272 38.7205 180.858 38.7205C178.002 38.7205 175.093 40.2901 175.093 43.2229C175.093 45.8997 177.435 47.6229 180.059 47.6229C182.066 47.6229 183.173 46.7221 183.867 45.6661H183.97V47.2101H186.853V39.5413C186.854 35.9925 184.202 34.0117 180.781 34.0117ZM180.419 44.9733C179.443 44.9733 178.078 44.4837 178.078 43.2741C178.078 41.7301 179.778 41.1381 181.245 41.1381C182.555 41.1381 183.174 41.4213 183.971 41.8069C183.739 43.6613 182.144 44.9733 180.419 44.9733ZM197.352 34.4485L193.93 43.1205H193.827L190.275 34.4485H187.059L192.386 46.5685L189.349 53.3109H192.462L200.672 34.4485H197.352ZM170.462 47.2453H173.446V27.2437H170.462V47.2453Z" fill="white"/>
<path d="M75.232 15.6347C75.232 16.9755 74.8352 18.0427 74.04 18.8395C73.1376 19.7867 71.96 20.2603 70.5136 20.2603C69.128 20.2603 67.9488 19.7803 66.9808 18.8203C66.0112 17.8587 65.5264 16.6683 65.5264 15.2475C65.5264 13.8251 66.0112 12.6347 66.9808 11.6747C67.9488 10.7131 69.128 10.2331 70.5136 10.2331C71.2016 10.2331 71.8592 10.3675 72.4832 10.6347C73.1088 10.9035 73.6096 11.2603 73.984 11.7067L73.1408 12.5515C72.5056 11.7915 71.6304 11.4123 70.512 11.4123C69.5008 11.4123 68.6272 11.7675 67.8896 12.4779C67.152 13.1883 66.784 14.1115 66.784 15.2459C66.784 16.3803 67.152 17.3035 67.8896 18.0139C68.6272 18.7243 69.5008 19.0795 70.512 19.0795C71.584 19.0795 72.4784 18.7227 73.1936 18.0075C73.6576 17.5419 73.9264 16.8939 73.9984 16.0635H70.512V14.9099H75.1632C75.2112 15.1611 75.232 15.4027 75.232 15.6347Z" fill="white"/>
<path d="M82.6082 11.6252H78.237V14.6684H82.1794V15.822H78.237V18.8652H82.6082V20.046H77.0034V10.446H82.6082V11.6252Z" fill="white"/>
<path d="M87.8096 20.046H86.576V11.6252H83.8944V10.446H90.4912V11.6252H87.8096V20.046Z" fill="white"/>
<path d="M95.2639 20.046V10.446H96.4975V20.046H95.2639Z" fill="white"/>
<path d="M101.968 20.046H100.735V11.6252H98.053V10.446H104.65V11.6252H101.968V20.046Z" fill="white"/>
<path d="M117.137 18.806C116.193 19.7756 115.021 20.2604 113.617 20.2604C112.214 20.2604 111.041 19.7756 110.099 18.806C109.155 17.8364 108.685 16.6492 108.685 15.246C108.685 13.8428 109.155 12.6556 110.099 11.686C111.041 10.7164 112.214 10.23 113.617 10.23C115.013 10.23 116.184 10.718 117.131 11.6924C118.078 12.6668 118.552 13.8508 118.552 15.246C118.552 16.6492 118.08 17.8364 117.137 18.806ZM111.009 18.0012C111.72 18.7212 112.589 19.0796 113.617 19.0796C114.646 19.0796 115.517 18.7196 116.225 18.0012C116.936 17.2812 117.293 16.3628 117.293 15.246C117.293 14.1292 116.936 13.2108 116.225 12.4908C115.517 11.7708 114.646 11.4124 113.617 11.4124C112.589 11.4124 111.72 11.7724 111.009 12.4908C110.301 13.2108 109.944 14.1292 109.944 15.246C109.944 16.3628 110.301 17.2812 111.009 18.0012Z" fill="white"/>
<path d="M120.283 20.046V10.446H121.784L126.449 17.9132H126.502L126.449 16.0636V10.446H127.683V20.046H126.395L121.513 12.2156H121.461L121.513 14.0652V20.046H120.283Z" fill="white"/>
<path d="M75.232 15.6347C75.232 16.9755 74.8352 18.0427 74.04 18.8395C73.1376 19.7867 71.96 20.2603 70.5136 20.2603C69.128 20.2603 67.9488 19.7803 66.9808 18.8203C66.0112 17.8587 65.5264 16.6683 65.5264 15.2475C65.5264 13.8251 66.0112 12.6347 66.9808 11.6747C67.9488 10.7131 69.128 10.2331 70.5136 10.2331C71.2016 10.2331 71.8592 10.3675 72.4832 10.6347C73.1088 10.9035 73.6096 11.2603 73.984 11.7067L73.1408 12.5515C72.5056 11.7915 71.6304 11.4123 70.512 11.4123C69.5008 11.4123 68.6272 11.7675 67.8896 12.4779C67.152 13.1883 66.784 14.1115 66.784 15.2459C66.784 16.3803 67.152 17.3035 67.8896 18.0139C68.6272 18.7243 69.5008 19.0795 70.512 19.0795C71.584 19.0795 72.4784 18.7227 73.1936 18.0075C73.6576 17.5419 73.9264 16.8939 73.9984 16.0635H70.512V14.9099H75.1632C75.2112 15.1611 75.232 15.4027 75.232 15.6347Z" stroke="white" stroke-width="0.2" stroke-miterlimit="10"/>
<path d="M82.6082 11.6252H78.237V14.6684H82.1794V15.822H78.237V18.8652H82.6082V20.046H77.0034V10.446H82.6082V11.6252Z" stroke="white" stroke-width="0.2" stroke-miterlimit="10"/>
<path d="M87.8096 20.046H86.576V11.6252H83.8944V10.446H90.4912V11.6252H87.8096V20.046Z" stroke="white" stroke-width="0.2" stroke-miterlimit="10"/>
<path d="M95.2639 20.046V10.446H96.4975V20.046H95.2639Z" stroke="white" stroke-width="0.2" stroke-miterlimit="10"/>
<path d="M101.968 20.046H100.735V11.6252H98.053V10.446H104.65V11.6252H101.968V20.046Z" stroke="white" stroke-width="0.2" stroke-miterlimit="10"/>
<path d="M117.137 18.806C116.193 19.7756 115.021 20.2604 113.617 20.2604C112.214 20.2604 111.041 19.7756 110.099 18.806C109.155 17.8364 108.685 16.6492 108.685 15.246C108.685 13.8428 109.155 12.6556 110.099 11.686C111.041 10.7164 112.214 10.23 113.617 10.23C115.013 10.23 116.184 10.718 117.131 11.6924C118.078 12.6668 118.552 13.8508 118.552 15.246C118.552 16.6492 118.08 17.8364 117.137 18.806ZM111.009 18.0012C111.72 18.7212 112.589 19.0796 113.617 19.0796C114.646 19.0796 115.517 18.7196 116.225 18.0012C116.936 17.2812 117.293 16.3628 117.293 15.246C117.293 14.1292 116.936 13.2108 116.225 12.4908C115.517 11.7708 114.646 11.4124 113.617 11.4124C112.589 11.4124 111.72 11.7724 111.009 12.4908C110.301 13.2108 109.944 14.1292 109.944 15.246C109.944 16.3628 110.301 17.2812 111.009 18.0012Z" stroke="white" stroke-width="0.2" stroke-miterlimit="10"/>
<path d="M120.283 20.046V10.446H121.784L126.449 17.9132H126.502L126.449 16.0636V10.446H127.683V20.046H126.395L121.513 12.2156H121.461L121.513 14.0652V20.046H120.283Z" stroke="white" stroke-width="0.2" stroke-miterlimit="10"/>
<g filter="url(#filter0_ii_367_3472)">
<path d="M16.0608 11.3067C15.5952 11.7995 15.32 12.5643 15.32 13.5547V48.9403C15.32 49.9323 15.5952 50.6955 16.0608 51.1883L16.1792 51.3035L36.0016 31.4811V31.2475V31.0139L16.1792 11.1899L16.0608 11.3067Z" fill="url(#paint0_linear_367_3472)"/>
<path d="M42.608 38.0906L36.0016 31.481V31.2474V31.0138L42.6096 24.4058L42.7584 24.4906L50.5872 28.9386C52.8224 30.209 52.8224 32.2874 50.5872 33.5594L42.7584 38.0074L42.608 38.0906Z" fill="url(#paint1_linear_367_3472)"/>
<g filter="url(#filter1_i_367_3472)">
<path d="M42.7584 38.006L36 31.2476L16.0608 51.1884C16.7968 51.9692 18.0144 52.0652 19.3856 51.2876L42.7584 38.006Z" fill="url(#paint2_linear_367_3472)"/>
</g>
<path d="M42.7584 24.4891L19.3856 11.2091C18.0144 10.4299 16.7968 10.5275 16.0608 11.3083L36.0016 31.2491L42.7584 24.4891Z" fill="url(#paint3_linear_367_3472)"/>
</g>
</g>
</g>
<defs>
<filter id="filter0_ii_367_3472" x="15.32" y="10.6714" width="36.9436" height="41.1533" filterUnits="userSpaceOnUse" color-interpolation-filters="sRGB">
<feFlood flood-opacity="0" result="BackgroundImageFix"/>
<feBlend mode="normal" in="SourceGraphic" in2="BackgroundImageFix" result="shape"/>
<feColorMatrix in="SourceAlpha" type="matrix" values="0 0 0 0 0 0 0 0 0 0 0 0 0 0 0 0 0 0 127 0" result="hardAlpha"/>
<feOffset dy="-0.15"/>
<feComposite in2="hardAlpha" operator="arithmetic" k2="-1" k3="1"/>
<feColorMatrix type="matrix" values="0 0 0 0 0 0 0 0 0 0 0 0 0 0 0 0 0 0 0.12 0"/>
<feBlend mode="normal" in2="shape" result="effect1_innerShadow_367_3472"/>
<feColorMatrix in="SourceAlpha" type="matrix" values="0 0 0 0 0 0 0 0 0 0 0 0 0 0 0 0 0 0 127 0" result="hardAlpha"/>
<feOffset dy="0.15"/>
<feComposite in2="hardAlpha" operator="arithmetic" k2="-1" k3="1"/>
<feColorMatrix type="matrix" values="0 0 0 0 1 0 0 0 0 1 0 0 0 0 1 0 0 0 0.25 0"/>
<feBlend mode="normal" in2="effect1_innerShadow_367_3472" result="effect2_innerShadow_367_3472"/>
</filter>
<filter id="filter1_i_367_3472" x="16.0608" y="31.2476" width="26.6976" height="20.5771" filterUnits="userSpaceOnUse" color-interpolation-filters="sRGB">
<feFlood flood-opacity="0" result="BackgroundImageFix"/>
<feBlend mode="normal" in="SourceGraphic" in2="BackgroundImageFix" result="shape"/>
<feColorMatrix in="SourceAlpha" type="matrix" values="0 0 0 0 0 0 0 0 0 0 0 0 0 0 0 0 0 0 127 0" result="hardAlpha"/>
<feOffset dy="-0.15"/>
<feComposite in2="hardAlpha" operator="arithmetic" k2="-1" k3="1"/>
<feColorMatrix type="matrix" values="0 0 0 0 0 0 0 0 0 0 0 0 0 0 0 0 0 0 0.08 0"/>
<feBlend mode="normal" in2="shape" result="effect1_innerShadow_367_3472"/>
</filter>
<linearGradient id="paint0_linear_367_3472" x1="34.2445" y1="13.1803" x2="7.39329" y2="40.0315" gradientUnits="userSpaceOnUse">
<stop stop-color="#00A0FF"/>
<stop offset="0.0066" stop-color="#00A1FF"/>
<stop offset="0.2601" stop-color="#00BEFF"/>
<stop offset="0.5122" stop-color="#00D2FF"/>
<stop offset="0.7604" stop-color="#00DFFF"/>
<stop offset="1" stop-color="#00E3FF"/>
</linearGradient>
<linearGradient id="paint1_linear_367_3472" x1="53.4968" y1="31.2474" x2="14.7833" y2="31.2474" gradientUnits="userSpaceOnUse">
<stop stop-color="#FFE000"/>
<stop offset="0.4087" stop-color="#FFBD00"/>
<stop offset="0.7754" stop-color="#FFA500"/>
<stop offset="1" stop-color="#FF9C00"/>
</linearGradient>
<linearGradient id="paint2_linear_367_3472" x1="39.0882" y1="34.9178" x2="2.67455" y2="71.3314" gradientUnits="userSpaceOnUse">
<stop stop-color="#FF3A44"/>
<stop offset="1" stop-color="#C31162"/>
</linearGradient>
<linearGradient id="paint3_linear_367_3472" x1="11.039" y1="-0.471211" x2="27.2987" y2="15.7885" gradientUnits="userSpaceOnUse">
<stop stop-color="#32A071"/>
<stop offset="0.0685" stop-color="#2DA771"/>
<stop offset="0.4762" stop-color="#15CF74"/>
<stop offset="0.8009" stop-color="#06E775"/>
<stop offset="1" stop-color="#00F076"/>
</linearGradient>
<clipPath id="clip0_367_3472">
<rect width="216" height="64" rx="5" fill="white"/>
</clipPath>
</defs>
</svg>
