<svg width="250" height="64" viewBox="0 0 250 64" fill="none" xmlns="http://www.w3.org/2000/svg">
<rect width="250" height="64" rx="5" fill="#676767"/>
<rect width="250" height="64" rx="5" fill="#8685EF" fill-opacity="0.8"/>
<path d="M73.8383 48.7936V34.1702H73.7414L67.7524 48.642H65.4664L59.4617 34.1702H59.3664V48.7936H56.5571V28.9248H60.1242L66.5539 44.6076H66.6633L73.0805 28.9248H76.6602V48.7936L73.8383 48.7936Z" fill="white"/>
<path d="M79.0336 44.6768C79.0336 42.144 80.9742 40.6143 84.418 40.408L88.3836 40.1877V39.0861C88.3836 37.4752 87.3227 36.5658 85.518 36.5658C84.8496 36.4769 84.1717 36.635 83.6116 37.0105C83.0515 37.3859 82.6476 37.9528 82.4758 38.6049H79.6946C79.7774 35.9877 82.2149 34.1299 85.6008 34.1299C89.0571 34.1299 91.343 36.0158 91.343 38.8659V48.794H88.493V46.4112H88.4242C87.9678 47.2192 87.3026 47.8896 86.4984 48.3525C85.6941 48.8154 84.7802 49.0537 83.8523 49.0425C83.2429 49.1021 82.6278 49.0336 82.0464 48.8414C81.465 48.6492 80.9303 48.3375 80.4765 47.9264C80.0227 47.5153 79.6599 47.0138 79.4114 46.4542C79.163 45.8946 79.0342 45.2891 79.0336 44.6768V44.6768ZM88.3836 43.369V42.2534L84.8164 42.4737C83.0399 42.5847 82.0352 43.355 82.0352 44.594C82.0352 45.8612 83.082 46.6878 84.6789 46.6878C85.1414 46.7191 85.6055 46.6576 86.0438 46.5068C86.4821 46.356 86.8858 46.1189 87.2311 45.8096C87.5764 45.5003 87.8562 45.125 88.0542 44.7059C88.2521 44.2867 88.3641 43.8322 88.3836 43.369H88.3836Z" fill="white"/>
<path d="M103.829 39.2922C103.699 38.4998 103.276 37.7853 102.643 37.2906C102.011 36.7959 101.215 36.5572 100.415 36.6219C98.1289 36.6219 96.6149 38.536 96.6149 41.5516C96.6149 44.6359 98.143 46.4938 100.441 46.4938C101.231 46.5729 102.021 46.3477 102.651 45.8643C103.28 45.3809 103.702 44.6756 103.829 43.8922H106.693C106.515 45.3901 105.759 46.7594 104.586 47.7084C103.414 48.6575 101.917 49.1114 100.415 48.9735C96.2837 48.9735 93.5852 46.15 93.5852 41.5516C93.5852 37.0485 96.2836 34.1297 100.387 34.1297C101.9 34.0014 103.403 34.4693 104.577 35.4338C105.75 36.3982 106.5 37.7828 106.666 39.2922H103.829Z" fill="white"/>
<path d="M126.015 43.4233H118.441L116.623 48.7936H113.415L120.588 28.9248H123.921L131.095 48.7936H127.832L126.015 43.4233ZM119.226 40.9452H125.229L122.27 32.2295H122.187L119.226 40.9452Z" fill="white"/>
<path d="M146.587 41.5518C146.587 46.0534 144.177 48.9455 140.541 48.9455C139.62 48.9937 138.704 48.7816 137.898 48.3333C137.092 47.8851 136.429 47.219 135.984 46.4112H135.915V53.5862H132.941V34.308H135.82V36.7174H135.874C136.34 35.9135 137.015 35.2508 137.827 34.7998C138.639 34.3489 139.558 34.1265 140.487 34.1565C144.163 34.1565 146.587 37.0627 146.587 41.5518ZM143.53 41.5518C143.53 38.619 142.015 36.6909 139.702 36.6909C137.43 36.6909 135.902 38.6596 135.902 41.5518C135.902 44.4706 137.43 46.4252 139.702 46.4252C142.015 46.4252 143.53 44.5112 143.53 41.5518Z" fill="white"/>
<path d="M162.53 41.5518C162.53 46.0534 160.121 48.9455 156.485 48.9455C155.564 48.9937 154.648 48.7816 153.842 48.3333C153.036 47.8851 152.372 47.219 151.927 46.4111H151.859V53.5862H148.885V34.308H151.763V36.7174H151.818C152.283 35.9135 152.958 35.2508 153.77 34.7998C154.583 34.3489 155.502 34.1265 156.43 34.1565C160.107 34.1565 162.53 37.0627 162.53 41.5518ZM159.474 41.5518C159.474 38.619 157.959 36.6909 155.646 36.6909C153.374 36.6909 151.846 38.6596 151.846 41.5518C151.846 44.4706 153.374 46.4252 155.646 46.4252C157.959 46.4252 159.474 44.5112 159.474 41.5518H159.474Z" fill="white"/>
<path d="M173.068 43.2579C173.288 45.2282 175.202 46.5219 177.818 46.5219C180.324 46.5219 182.127 45.2282 182.127 43.4516C182.127 41.9094 181.04 40.986 178.465 40.3531L175.89 39.7328C172.241 38.8516 170.548 37.1453 170.548 34.3766C170.548 30.9484 173.535 28.5938 177.777 28.5938C181.976 28.5938 184.854 30.9484 184.951 34.3766H181.949C181.77 32.3937 180.13 31.1969 177.735 31.1969C175.34 31.1969 173.701 32.4078 173.701 34.1703C173.701 35.575 174.748 36.4016 177.309 37.0343L179.498 37.5718C183.574 38.5359 185.268 40.1734 185.268 43.0796C185.268 46.7968 182.307 49.1249 177.598 49.1249C173.191 49.1249 170.216 46.8515 170.024 43.2577L173.068 43.2579Z" fill="white"/>
<path d="M191.685 30.8799V34.308H194.44V36.6627H191.685V44.6486C191.685 45.8893 192.237 46.4674 193.448 46.4674C193.775 46.4617 194.101 46.4387 194.426 46.3986V48.7392C193.881 48.8409 193.328 48.887 192.774 48.8767C189.841 48.8767 188.698 47.7751 188.698 44.9658V36.6627H186.591V34.308H188.698V30.8799H191.685Z" fill="white"/>
<path d="M196.034 41.5518C196.034 36.9939 198.718 34.1299 202.904 34.1299C207.104 34.1299 209.776 36.9939 209.776 41.5518C209.776 46.1221 207.118 48.9736 202.904 48.9736C198.691 48.9736 196.034 46.1221 196.034 41.5518ZM206.746 41.5518C206.746 38.4252 205.313 36.5799 202.904 36.5799C200.495 36.5799 199.062 38.4393 199.062 41.5518C199.062 44.6908 200.495 46.5221 202.904 46.5221C205.313 46.5221 206.746 44.6908 206.746 41.5518H206.746Z" fill="white"/>
<path d="M212.229 34.3079H215.065V36.7735H215.134C215.326 36.0035 215.777 35.3229 216.411 34.8463C217.046 34.3697 217.825 34.126 218.618 34.1563C218.961 34.1551 219.302 34.1923 219.637 34.2673V37.0485C219.204 36.9163 218.753 36.8556 218.301 36.8688C217.869 36.8513 217.438 36.9275 217.038 37.0921C216.639 37.2567 216.279 37.5059 215.985 37.8225C215.691 38.1391 215.468 38.5157 215.333 38.9264C215.198 39.3371 215.153 39.7721 215.202 40.2016V48.7938H212.229V34.3079Z" fill="white"/>
<path d="M233.345 44.5393C232.945 47.1689 230.384 48.9736 227.107 48.9736C222.893 48.9736 220.277 46.1502 220.277 41.6205C220.277 37.0768 222.907 34.1299 226.982 34.1299C230.99 34.1299 233.51 36.883 233.51 41.2752V42.2939H223.279V42.4736C223.232 43.0067 223.298 43.5438 223.475 44.0492C223.651 44.5545 223.933 45.0166 224.301 45.4046C224.67 45.7927 225.117 46.0979 225.612 46.3C226.108 46.5021 226.641 46.5964 227.176 46.5767C227.878 46.6426 228.584 46.4798 229.186 46.1127C229.789 45.7456 230.257 45.1938 230.521 44.5392L233.345 44.5393ZM223.293 40.2158H230.535C230.562 39.7365 230.489 39.2568 230.322 38.8068C230.154 38.3569 229.896 37.9464 229.562 37.6012C229.228 37.256 228.827 36.9834 228.383 36.8007C227.939 36.618 227.462 36.5289 226.982 36.5393C226.498 36.5364 226.018 36.6294 225.57 36.813C225.122 36.9966 224.714 37.2671 224.371 37.6089C224.029 37.9507 223.757 38.3571 223.572 38.8045C223.386 39.2519 223.292 39.7316 223.293 40.2158L223.293 40.2158Z" fill="white"/>
<path d="M60.5219 13.9693C61.1453 13.9246 61.7708 14.0188 62.3534 14.2451C62.936 14.4714 63.4611 14.8241 63.8908 15.2779C64.3206 15.7317 64.6442 16.2752 64.8385 16.8693C65.0327 17.4633 65.0927 18.093 65.0141 18.7131C65.0141 21.7631 63.3657 23.5163 60.5219 23.5163H57.0735V13.9693H60.5219ZM58.5563 22.1661H60.3563C60.8017 22.1928 61.2475 22.1197 61.6612 21.9523C62.0748 21.785 62.446 21.5274 62.7476 21.1985C63.0491 20.8696 63.2736 20.4776 63.4046 20.051C63.5355 19.6244 63.5698 19.174 63.5047 18.7325C63.565 18.2928 63.5274 17.8452 63.3944 17.4217C63.2614 16.9982 63.0364 16.6094 62.7355 16.2831C62.4346 15.9569 62.0652 15.7012 61.6539 15.5344C61.2426 15.3676 60.7994 15.2939 60.3563 15.3185H58.5563V22.1661Z" fill="white"/>
<path d="M66.6891 19.9106C66.6438 19.4371 66.698 18.9594 66.8481 18.5081C66.9983 18.0568 67.2411 17.6418 67.561 17.2898C67.8809 16.9379 68.2708 16.6567 68.7058 16.4642C69.1407 16.2718 69.6111 16.1724 70.0867 16.1724C70.5624 16.1724 71.0328 16.2718 71.4677 16.4642C71.9027 16.6567 72.2926 16.9379 72.6125 17.2898C72.9324 17.6418 73.1752 18.0568 73.3254 18.5081C73.4755 18.9594 73.5297 19.4371 73.4844 19.9106C73.5306 20.3845 73.477 20.8629 73.3273 21.3149C73.1775 21.767 72.9349 22.1827 72.6149 22.5353C72.2949 22.888 71.9047 23.1698 71.4693 23.3627C71.0339 23.5555 70.5629 23.6552 70.0867 23.6552C69.6105 23.6552 69.1396 23.5555 68.7042 23.3627C68.2688 23.1698 67.8786 22.888 67.5586 22.5353C67.2386 22.1827 66.9959 21.767 66.8462 21.3149C66.6965 20.8629 66.6429 20.3845 66.6891 19.9106V19.9106ZM72.0219 19.9106C72.0219 18.3489 71.3203 17.4356 70.0891 17.4356C68.8532 17.4356 68.1579 18.3489 68.1579 19.9106C68.1579 21.4848 68.8532 22.391 70.0891 22.391C71.3203 22.391 72.0219 21.4785 72.0219 19.9106H72.0219Z" fill="white"/>
<path d="M82.5172 23.5162H81.0422L79.5532 18.21H79.4407L77.9579 23.5162H76.4969L74.511 16.3115H75.9532L77.2438 21.8091H77.35L78.8313 16.3115H80.1954L81.6766 21.8091H81.7891L83.0735 16.3115H84.4953L82.5172 23.5162Z" fill="white"/>
<path d="M86.1657 16.3117H87.5344V17.4562H87.6407C87.8209 17.0451 88.1249 16.7006 88.5103 16.4705C88.8957 16.2404 89.3433 16.1363 89.7907 16.1726C90.1412 16.1463 90.4932 16.1991 90.8206 16.3273C91.1479 16.4554 91.4422 16.6556 91.6817 16.9129C91.9212 17.1703 92.0998 17.4782 92.2041 17.8139C92.3084 18.1497 92.3358 18.5045 92.2844 18.8523V23.5163H90.8625V19.2094C90.8625 18.0515 90.3594 17.4758 89.3078 17.4758C89.0698 17.4647 88.8322 17.5052 88.6113 17.5945C88.3904 17.6838 88.1915 17.8199 88.0281 17.9933C87.8647 18.1667 87.7407 18.3734 87.6647 18.5992C87.5886 18.825 87.5623 19.0646 87.5875 19.3015V23.5164H86.1656L86.1657 16.3117Z" fill="white"/>
<path d="M94.55 13.499H95.9719V23.5162H94.55V13.499Z" fill="white"/>
<path d="M97.9485 19.9106C97.9032 19.4371 97.9573 18.9594 98.1075 18.5081C98.2576 18.0568 98.5004 17.6418 98.8203 17.2898C99.1402 16.9379 99.5302 16.6567 99.9651 16.4642C100.4 16.2718 100.87 16.1724 101.346 16.1724C101.822 16.1724 102.292 16.2718 102.727 16.4642C103.162 16.6567 103.552 16.9379 103.872 17.2898C104.192 17.6418 104.435 18.0568 104.585 18.5081C104.735 18.9594 104.789 19.4371 104.744 19.9106C104.79 20.3845 104.736 20.8629 104.587 21.3149C104.437 21.767 104.194 22.1827 103.874 22.5353C103.554 22.888 103.164 23.1698 102.729 23.3627C102.293 23.5555 101.822 23.6552 101.346 23.6552C100.87 23.6552 100.399 23.5555 99.9636 23.3627C99.5282 23.1698 99.138 22.888 98.818 22.5353C98.498 22.1827 98.2553 21.767 98.1056 21.3149C97.9558 20.8629 97.9023 20.3845 97.9485 19.9106V19.9106ZM103.281 19.9106C103.281 18.3489 102.58 17.4356 101.348 17.4356C100.113 17.4356 99.4173 18.3489 99.4173 19.9106C99.4173 21.4848 100.113 22.391 101.348 22.391C102.58 22.391 103.281 21.4785 103.281 19.9106H103.281Z" fill="white"/>
<path d="M106.241 21.4786C106.241 20.1817 107.206 19.4341 108.92 19.3278L110.872 19.2153V18.5935C110.872 17.8325 110.369 17.4028 109.397 17.4028C108.603 17.4028 108.053 17.6942 107.895 18.2036H106.519C106.664 16.9661 107.828 16.1724 109.463 16.1724C111.269 16.1724 112.288 17.0716 112.288 18.5935V23.5161H110.919V22.5036H110.806C110.578 22.8668 110.257 23.1629 109.877 23.3616C109.497 23.5604 109.071 23.6546 108.642 23.6348C108.34 23.6663 108.034 23.634 107.745 23.5401C107.456 23.4462 107.189 23.2927 106.963 23.0895C106.737 22.8864 106.556 22.6381 106.431 22.3606C106.307 22.0831 106.242 21.7827 106.241 21.4786V21.4786ZM110.872 20.863V20.2606L109.113 20.3731C108.12 20.4395 107.67 20.777 107.67 21.4122C107.67 22.0606 108.233 22.438 109.006 22.438C109.233 22.4609 109.462 22.438 109.68 22.3707C109.897 22.3033 110.099 22.1929 110.273 22.046C110.447 21.899 110.59 21.7186 110.693 21.5153C110.796 21.3121 110.857 21.0902 110.872 20.863V20.863Z" fill="white"/>
<path d="M114.156 19.9108C114.156 17.6342 115.327 16.192 117.147 16.192C117.597 16.1713 118.044 16.2791 118.435 16.5029C118.827 16.7268 119.146 17.0573 119.356 17.456H119.463V13.499H120.884V23.5162H119.522V22.3779H119.409C119.183 22.7739 118.852 23.1004 118.453 23.3219C118.055 23.5435 117.603 23.6517 117.147 23.6349C115.314 23.635 114.156 22.1928 114.156 19.9108ZM115.625 19.9108C115.625 21.4389 116.345 22.3584 117.55 22.3584C118.748 22.3584 119.489 21.4256 119.489 19.917C119.489 18.4155 118.741 17.4694 117.55 17.4694C116.353 17.4694 115.625 18.3951 115.625 19.9108H115.625Z" fill="white"/>
<path d="M126.767 19.9107C126.722 19.4372 126.776 18.9595 126.926 18.5081C127.077 18.0568 127.319 17.6419 127.639 17.2899C127.959 16.9379 128.349 16.6567 128.784 16.4642C129.219 16.2718 129.69 16.1724 130.165 16.1724C130.641 16.1724 131.111 16.2718 131.546 16.4642C131.981 16.6567 132.371 16.9379 132.691 17.2899C133.011 17.6419 133.254 18.0568 133.404 18.5081C133.554 18.9595 133.609 19.4372 133.563 19.9107C133.609 20.3847 133.556 20.8631 133.406 21.3151C133.256 21.7671 133.014 22.1828 132.694 22.5355C132.374 22.8881 131.983 23.1699 131.548 23.3628C131.112 23.5556 130.641 23.6553 130.165 23.6553C129.689 23.6553 129.218 23.5556 128.783 23.3628C128.347 23.1699 127.957 22.8881 127.637 22.5355C127.317 22.1828 127.074 21.7671 126.924 21.3151C126.775 20.8631 126.721 20.3847 126.767 19.9107V19.9107ZM132.1 19.9107C132.1 18.349 131.398 17.4357 130.167 17.4357C128.931 17.4357 128.236 18.349 128.236 19.9107C128.236 21.4849 128.931 22.3912 130.167 22.3912C131.398 22.3912 132.1 21.4787 132.1 19.9107H132.1Z" fill="white"/>
<path d="M135.471 16.3117H136.84V17.4562H136.946C137.126 17.0451 137.43 16.7006 137.816 16.4705C138.201 16.2404 138.649 16.1363 139.096 16.1726C139.447 16.1463 139.799 16.1991 140.126 16.3273C140.453 16.4554 140.748 16.6556 140.987 16.9129C141.227 17.1703 141.405 17.4782 141.51 17.8139C141.614 18.1497 141.641 18.5045 141.59 18.8523V23.5163H140.168V19.2094C140.168 18.0515 139.665 17.4758 138.613 17.4758C138.375 17.4647 138.138 17.5052 137.917 17.5945C137.696 17.6838 137.497 17.8199 137.334 17.9933C137.17 18.1667 137.046 18.3734 136.97 18.5992C136.894 18.825 136.868 19.0646 136.893 19.3015V23.5164H135.471V16.3117Z" fill="white"/>
<path d="M149.624 14.5176V16.3441H151.185V17.5418H149.624V21.2465C149.624 22.0012 149.935 22.3316 150.643 22.3316C150.824 22.3311 151.005 22.3201 151.185 22.2988V23.4832C150.93 23.5289 150.671 23.5532 150.412 23.5558C148.831 23.5558 148.201 22.9996 148.201 21.6105V17.5417H147.057V16.3441H148.201V14.5176H149.624Z" fill="white"/>
<path d="M153.127 13.499H154.537V17.4693H154.649C154.838 17.0544 155.151 16.7079 155.544 16.4769C155.937 16.246 156.392 16.1418 156.846 16.1787C157.195 16.1597 157.543 16.218 157.867 16.3492C158.191 16.4805 158.481 16.6816 158.718 16.9381C158.955 17.1947 159.133 17.5003 159.238 17.8334C159.343 18.1664 159.374 18.5185 159.327 18.8647V23.5162H157.904V19.2154C157.904 18.0646 157.368 17.4818 156.363 17.4818C156.119 17.4618 155.873 17.4954 155.643 17.5803C155.413 17.6651 155.204 17.7993 155.032 17.9733C154.859 18.1472 154.726 18.3569 154.643 18.5875C154.56 18.8181 154.528 19.0641 154.549 19.3084V23.5162H153.127L153.127 13.499Z" fill="white"/>
<path d="M167.618 21.5709C167.425 22.2294 167.006 22.799 166.436 23.18C165.865 23.561 165.178 23.7293 164.496 23.6553C164.021 23.6678 163.55 23.5769 163.114 23.3889C162.678 23.2008 162.288 22.9201 161.971 22.5663C161.655 22.2125 161.419 21.794 161.28 21.3399C161.141 20.8858 161.103 20.4069 161.168 19.9365C161.105 19.4647 161.144 18.9848 161.282 18.5294C161.42 18.0739 161.655 17.6535 161.97 17.2965C162.285 16.9396 162.673 16.6546 163.108 16.4606C163.543 16.2667 164.014 16.1684 164.49 16.1725C166.495 16.1725 167.704 17.5421 167.704 19.8045V20.3006H162.616V20.3803C162.594 20.6447 162.627 20.9108 162.714 21.1616C162.801 21.4124 162.939 21.6424 163.119 21.8367C163.3 22.031 163.519 22.1855 163.763 22.2901C164.007 22.3947 164.27 22.4473 164.535 22.4443C164.875 22.4851 165.22 22.4239 165.525 22.2684C165.83 22.1128 166.082 21.87 166.249 21.5709L167.618 21.5709ZM162.616 19.249H166.255C166.273 19.0072 166.241 18.7644 166.159 18.536C166.077 18.3077 165.949 18.0989 165.782 17.9231C165.615 17.7474 165.413 17.6085 165.189 17.5154C164.965 17.4223 164.724 17.3771 164.482 17.3826C164.236 17.3796 163.992 17.4257 163.764 17.5184C163.536 17.6111 163.33 17.7485 163.156 17.9225C162.982 18.0964 162.845 18.3034 162.752 18.5312C162.659 18.7591 162.613 19.0031 162.616 19.249H162.616Z" fill="white"/>
<path d="M39.6304 32.4812C39.6476 31.1458 40.0023 29.8363 40.6616 28.6748C41.3208 27.5133 42.2631 26.5374 43.4009 25.8379C42.6781 24.8057 41.7246 23.9562 40.6161 23.3569C39.5075 22.7576 38.2746 22.425 37.015 22.3856C34.3282 22.1036 31.7235 23.9934 30.3544 23.9934C28.9588 23.9934 26.8508 22.4136 24.5808 22.4603C23.1125 22.5078 21.6816 22.9347 20.4274 23.6996C19.1731 24.4645 18.1385 25.5413 17.4241 26.8249C14.3297 32.1824 16.6379 40.0561 19.602 44.3866C21.0851 46.5072 22.8183 48.8759 25.0862 48.7919C27.3055 48.6999 28.1344 47.3768 30.8133 47.3768C33.4673 47.3768 34.2449 48.7919 36.5589 48.7385C38.9403 48.6999 40.4407 46.6085 41.8717 44.4679C42.9373 42.9569 43.7572 41.287 44.3012 39.5199C42.9176 38.9347 41.737 37.9552 40.9064 36.7036C40.0758 35.4519 39.632 33.9834 39.6304 32.4812V32.4812Z" fill="white"/>
<path d="M35.2598 19.5371C36.5582 17.9784 37.1979 15.9749 37.043 13.9521C35.0593 14.1605 33.2269 15.1086 31.9109 16.6075C31.2675 17.3398 30.7747 18.1917 30.4607 19.1145C30.1467 20.0374 30.0176 21.013 30.0809 21.9857C31.0732 21.996 32.0548 21.7809 32.9518 21.3568C33.8489 20.9326 34.638 20.3105 35.2598 19.5371Z" fill="white"/>
</svg>
